<svg width="110" height="110" viewBox="0 0 55 55" fill="none" xmlns="http://www.w3.org/2000/svg">
<circle cx="27.3457" cy="27.3956" r="27" fill="#484868"/>
<path d="M23.5133 22.8468V31.3956H21.8258V24.7921L19.7984 25.4366V24.1066L23.3316 22.8468H23.5133ZM29.9879 29.6788C29.9879 29.5382 29.9527 29.4113 29.8824 29.298C29.8121 29.1808 29.6773 29.0753 29.4781 28.9816C29.2828 28.8878 28.9937 28.8019 28.6109 28.7238C28.275 28.6495 27.9664 28.5616 27.6851 28.4601C27.4078 28.3546 27.1695 28.2277 26.9703 28.0792C26.7711 27.9308 26.6168 27.755 26.5074 27.5519C26.398 27.3488 26.3433 27.1144 26.3433 26.8488C26.3433 26.5909 26.4 26.3468 26.5133 26.1163C26.6265 25.8859 26.7886 25.6827 26.9996 25.507C27.2105 25.3312 27.4664 25.1925 27.7672 25.0909C28.0718 24.9894 28.4117 24.9386 28.7867 24.9386C29.3179 24.9386 29.773 25.0284 30.1519 25.2081C30.5347 25.3839 30.8277 25.6241 31.0308 25.9288C31.234 26.2296 31.3355 26.5695 31.3355 26.9484H29.9234C29.9234 26.7804 29.8804 26.6241 29.7945 26.4796C29.7125 26.3312 29.5875 26.212 29.4195 26.1222C29.2515 26.0284 29.0406 25.9816 28.7867 25.9816C28.5445 25.9816 28.3433 26.0206 28.1832 26.0988C28.0269 26.173 27.9097 26.2706 27.8316 26.3917C27.7574 26.5128 27.7203 26.6456 27.7203 26.7902C27.7203 26.8956 27.7398 26.9913 27.7789 27.0773C27.8218 27.1593 27.8922 27.2355 27.9898 27.3058C28.0875 27.3722 28.2203 27.4347 28.3883 27.4933C28.5601 27.5519 28.775 27.6085 29.0328 27.6632C29.5172 27.7648 29.9332 27.8956 30.2808 28.0558C30.6324 28.212 30.9019 28.4152 31.0894 28.6652C31.2769 28.9113 31.3707 29.2238 31.3707 29.6027C31.3707 29.8839 31.3101 30.1417 31.189 30.3761C31.0718 30.6066 30.9 30.8077 30.6734 30.9796C30.4468 31.1476 30.1754 31.2784 29.859 31.3722C29.5465 31.4659 29.1949 31.5128 28.8043 31.5128C28.23 31.5128 27.7437 31.4113 27.3453 31.2081C26.9468 31.0011 26.6441 30.7374 26.4371 30.4171C26.234 30.0929 26.1324 29.757 26.1324 29.4093H27.4976C27.5133 29.671 27.5855 29.88 27.7144 30.0363C27.8472 30.1886 28.0113 30.2999 28.2066 30.3702C28.4058 30.4366 28.6109 30.4698 28.8218 30.4698C29.0758 30.4698 29.2886 30.4366 29.4605 30.3702C29.6324 30.2999 29.7633 30.2062 29.8531 30.089C29.9429 29.9679 29.9879 29.8312 29.9879 29.6788ZM35.5133 25.0558V26.087H31.939V25.0558H35.5133ZM32.9703 23.5031H34.3824V29.6437C34.3824 29.839 34.4097 29.9894 34.4644 30.0948C34.523 30.1964 34.6031 30.2648 34.7047 30.2999C34.8062 30.3351 34.9254 30.3527 35.0621 30.3527C35.1597 30.3527 35.2535 30.3468 35.3433 30.3351C35.4332 30.3234 35.5054 30.3116 35.5601 30.2999L35.566 31.3781C35.4488 31.4132 35.3121 31.4445 35.1558 31.4718C35.0035 31.4991 34.8277 31.5128 34.6285 31.5128C34.3043 31.5128 34.0172 31.4562 33.7672 31.3429C33.5172 31.2257 33.3218 31.0363 33.1812 30.7745C33.0406 30.5128 32.9703 30.1652 32.9703 29.7316V23.5031Z" fill="#23233F"/>
</svg>
