<svg width="110" height="110" viewBox="0 0 54 55" fill="none" xmlns="http://www.w3.org/2000/svg">
<circle cx="27" cy="27.3956" r="27" fill="#484868"/>
<path d="M23.2554 30.0773V31.3956H17.4195V30.2706L20.1793 27.3116C20.4566 27.0031 20.6754 26.7316 20.8355 26.4972C20.9957 26.2589 21.1109 26.046 21.1812 25.8585C21.2554 25.6671 21.2925 25.4855 21.2925 25.3136C21.2925 25.0558 21.2496 24.8351 21.1636 24.6515C21.0777 24.464 20.9508 24.3195 20.7828 24.2179C20.6187 24.1163 20.4156 24.0656 20.1734 24.0656C19.9156 24.0656 19.6929 24.1281 19.5054 24.2531C19.3218 24.3781 19.1812 24.5519 19.0836 24.7745C18.9898 24.9972 18.9429 25.2491 18.9429 25.5304H17.2496C17.2496 25.0226 17.3707 24.5577 17.6129 24.1359C17.855 23.7101 18.1968 23.3722 18.6383 23.1222C19.0797 22.8683 19.6031 22.7413 20.2086 22.7413C20.8062 22.7413 21.3101 22.839 21.7203 23.0343C22.1343 23.2257 22.4468 23.5031 22.6578 23.8663C22.8726 24.2257 22.98 24.6554 22.98 25.1554C22.98 25.4366 22.9351 25.712 22.8453 25.9816C22.7554 26.2472 22.6265 26.5128 22.4586 26.7784C22.2945 27.0402 22.0953 27.3058 21.8609 27.5753C21.6265 27.8448 21.3668 28.1241 21.0816 28.4132L19.5992 30.0773H23.2554ZM25.8511 26.4093V31.3956H24.439V25.0558H25.7691L25.8511 26.4093ZM25.5992 27.9913L25.1422 27.9855C25.1461 27.5363 25.2086 27.1241 25.3297 26.7491C25.4547 26.3741 25.6265 26.0519 25.8453 25.7823C26.0679 25.5128 26.3336 25.3058 26.6422 25.1613C26.9508 25.0128 27.2945 24.9386 27.6734 24.9386C27.9781 24.9386 28.2535 24.9816 28.4996 25.0675C28.7496 25.1495 28.9625 25.2843 29.1383 25.4718C29.3179 25.6593 29.4547 25.9034 29.5484 26.2042C29.6422 26.5011 29.689 26.8663 29.689 27.2999V31.3956H28.2711V27.2941C28.2711 26.9894 28.2261 26.7491 28.1363 26.5734C28.0504 26.3937 27.9234 26.2667 27.7554 26.1925C27.5914 26.1144 27.3863 26.0753 27.1402 26.0753C26.898 26.0753 26.6812 26.1261 26.4898 26.2277C26.2984 26.3292 26.1363 26.4679 26.0035 26.6437C25.8746 26.8195 25.775 27.0226 25.7047 27.2531C25.6343 27.4835 25.5992 27.7296 25.5992 27.9913ZM34.9976 30.0831V22.3956H36.4156V31.3956H35.1324L34.9976 30.0831ZM30.8726 28.296V28.173C30.8726 27.6925 30.9293 27.255 31.0425 26.8605C31.1558 26.462 31.3199 26.1202 31.5347 25.8351C31.7496 25.546 32.0113 25.3253 32.3199 25.173C32.6285 25.0167 32.9761 24.9386 33.3629 24.9386C33.7457 24.9386 34.0816 25.0128 34.3707 25.1613C34.6597 25.3097 34.9058 25.5226 35.109 25.7999C35.3121 26.0734 35.4742 26.4015 35.5953 26.7843C35.7164 27.1632 35.8023 27.5851 35.8531 28.0499V28.4425C35.8023 28.8956 35.7164 29.3097 35.5953 29.6847C35.4742 30.0597 35.3121 30.3839 35.109 30.6573C34.9058 30.9308 34.6578 31.1417 34.3648 31.2902C34.0758 31.4386 33.7379 31.5128 33.3511 31.5128C32.9683 31.5128 32.6226 31.4327 32.314 31.2726C32.0093 31.1124 31.7496 30.8878 31.5347 30.5988C31.3199 30.3097 31.1558 29.9698 31.0425 29.5792C30.9293 29.1847 30.8726 28.757 30.8726 28.296ZM32.2847 28.173V28.296C32.2847 28.5851 32.3101 28.8546 32.3609 29.1046C32.4156 29.3546 32.4996 29.5753 32.6129 29.7667C32.7261 29.9542 32.8726 30.1027 33.0523 30.212C33.2359 30.3175 33.4547 30.3702 33.7086 30.3702C34.0289 30.3702 34.2925 30.2999 34.4996 30.1593C34.7066 30.0187 34.8687 29.8292 34.9859 29.5909C35.107 29.3488 35.189 29.0792 35.232 28.7823V27.7218C35.2086 27.4913 35.1597 27.2765 35.0855 27.0773C35.0152 26.8781 34.9195 26.7042 34.7984 26.5558C34.6773 26.4034 34.5269 26.2863 34.3472 26.2042C34.1715 26.1183 33.9625 26.0753 33.7203 26.0753C33.4625 26.0753 33.2437 26.13 33.064 26.2394C32.8843 26.3488 32.7359 26.4991 32.6187 26.6906C32.5054 26.882 32.4215 27.1046 32.3668 27.3585C32.3121 27.6124 32.2847 27.8839 32.2847 28.173Z" fill="#23233F"/>
</svg>
