<svg width="110" height="110" viewBox="0 0 55 55" fill="none" xmlns="http://www.w3.org/2000/svg">
<circle cx="27.6543" cy="27.3956" r="27" fill="#484868"/>
<path d="M21.0797 26.3976H21.982C22.2711 26.3976 22.5093 26.3488 22.6968 26.2511C22.8843 26.1495 23.023 26.0089 23.1129 25.8292C23.2066 25.6456 23.2535 25.4327 23.2535 25.1906C23.2535 24.9718 23.2105 24.7784 23.1246 24.6105C23.0425 24.4386 22.9156 24.3058 22.7437 24.212C22.5718 24.1144 22.355 24.0656 22.0933 24.0656C21.8863 24.0656 21.6949 24.1066 21.5191 24.1886C21.3433 24.2706 21.2027 24.3859 21.0972 24.5343C20.9918 24.6827 20.939 24.8624 20.939 25.0734H19.2457C19.2457 24.6046 19.3707 24.1964 19.6207 23.8488C19.8746 23.5011 20.2144 23.2296 20.6402 23.0343C21.066 22.839 21.5347 22.7413 22.0465 22.7413C22.6246 22.7413 23.1304 22.8351 23.564 23.0226C23.9976 23.2062 24.3355 23.4777 24.5777 23.837C24.8199 24.1964 24.941 24.6417 24.941 25.173C24.941 25.4425 24.8785 25.7042 24.7535 25.9581C24.6285 26.2081 24.4488 26.4347 24.2144 26.6378C23.984 26.837 23.7027 26.9972 23.3707 27.1183C23.0386 27.2355 22.6656 27.2941 22.2515 27.2941H21.0797V26.3976ZM21.0797 27.6808V26.8077H22.2515C22.7164 26.8077 23.1246 26.8605 23.4761 26.9659C23.8277 27.0714 24.1226 27.2238 24.3609 27.423C24.5992 27.6183 24.7789 27.8507 24.9 28.1202C25.0211 28.3859 25.0816 28.6808 25.0816 29.005C25.0816 29.4034 25.0054 29.7589 24.8531 30.0714C24.7008 30.38 24.4859 30.6417 24.2086 30.8566C23.9351 31.0714 23.6148 31.2355 23.2476 31.3488C22.8804 31.4581 22.48 31.5128 22.0465 31.5128C21.6871 31.5128 21.3336 31.464 20.9859 31.3663C20.6422 31.2648 20.3297 31.1144 20.0484 30.9152C19.7711 30.712 19.5484 30.4581 19.3804 30.1534C19.2164 29.8448 19.1343 29.4796 19.1343 29.0577H20.8277C20.8277 29.2765 20.8824 29.4718 20.9918 29.6437C21.1011 29.8156 21.2515 29.9503 21.4429 30.048C21.6383 30.1456 21.855 30.1945 22.0933 30.1945C22.3629 30.1945 22.5933 30.1456 22.7847 30.048C22.98 29.9464 23.1285 29.8058 23.23 29.6261C23.3355 29.4425 23.3883 29.2296 23.3883 28.9874C23.3883 28.6749 23.3316 28.4249 23.2183 28.2374C23.105 28.046 22.9429 27.9054 22.732 27.8156C22.5211 27.7257 22.2711 27.6808 21.982 27.6808H21.0797ZM27.8004 26.2628V31.3956H26.3883V25.0558H27.7359L27.8004 26.2628ZM29.7398 25.0148L29.7281 26.3273C29.6422 26.3116 29.5484 26.2999 29.4468 26.2921C29.3492 26.2843 29.2515 26.2804 29.1539 26.2804C28.9117 26.2804 28.6988 26.3156 28.5152 26.3859C28.3316 26.4523 28.1773 26.5499 28.0523 26.6788C27.9312 26.8038 27.8375 26.9562 27.7711 27.1359C27.7047 27.3156 27.6656 27.5167 27.6539 27.7394L27.3316 27.7628C27.3316 27.3644 27.3707 26.9952 27.4488 26.6554C27.5269 26.3156 27.6441 26.0167 27.8004 25.7589C27.9605 25.5011 28.1597 25.2999 28.398 25.1554C28.6402 25.0109 28.9195 24.9386 29.2359 24.9386C29.3218 24.9386 29.4136 24.9464 29.5113 24.962C29.6129 24.9777 29.689 24.9952 29.7398 25.0148ZM34.3746 30.0831V22.3956H35.7925V31.3956H34.5093L34.3746 30.0831ZM30.2496 28.296V28.173C30.2496 27.6925 30.3062 27.255 30.4195 26.8605C30.5328 26.462 30.6968 26.1202 30.9117 25.8351C31.1265 25.546 31.3883 25.3253 31.6968 25.173C32.0054 25.0167 32.3531 24.9386 32.7398 24.9386C33.1226 24.9386 33.4586 25.0128 33.7476 25.1613C34.0367 25.3097 34.2828 25.5226 34.4859 25.7999C34.689 26.0734 34.8511 26.4015 34.9722 26.7843C35.0933 27.1632 35.1793 27.5851 35.23 28.0499V28.4425C35.1793 28.8956 35.0933 29.3097 34.9722 29.6847C34.8511 30.0597 34.689 30.3839 34.4859 30.6573C34.2828 30.9308 34.0347 31.1417 33.7418 31.2902C33.4527 31.4386 33.1148 31.5128 32.7281 31.5128C32.3453 31.5128 31.9996 31.4327 31.691 31.2726C31.3863 31.1124 31.1265 30.8878 30.9117 30.5988C30.6968 30.3097 30.5328 29.9698 30.4195 29.5792C30.3062 29.1847 30.2496 28.757 30.2496 28.296ZM31.6617 28.173V28.296C31.6617 28.5851 31.6871 28.8546 31.7379 29.1046C31.7925 29.3546 31.8765 29.5753 31.9898 29.7667C32.1031 29.9542 32.2496 30.1027 32.4293 30.212C32.6129 30.3175 32.8316 30.3702 33.0855 30.3702C33.4058 30.3702 33.6695 30.2999 33.8765 30.1593C34.0836 30.0187 34.2457 29.8292 34.3629 29.5909C34.484 29.3488 34.566 29.0792 34.609 28.7823V27.7218C34.5855 27.4913 34.5367 27.2765 34.4625 27.0773C34.3922 26.8781 34.2965 26.7042 34.1754 26.5558C34.0543 26.4034 33.9039 26.2863 33.7242 26.2042C33.5484 26.1183 33.3394 26.0753 33.0972 26.0753C32.8394 26.0753 32.6207 26.13 32.441 26.2394C32.2613 26.3488 32.1129 26.4991 31.9957 26.6906C31.8824 26.882 31.7984 27.1046 31.7437 27.3585C31.689 27.6124 31.6617 27.8839 31.6617 28.173Z" fill="#23233F"/>
</svg>
