<svg width="364" height="70" viewBox="0 0 312 48" fill="none" xmlns="http://www.w3.org/2000/svg">
<rect width="312" height="48" rx="24" fill="#23233F"/>
<path d="M58.148 22.292C58.148 21.428 58.76 20.924 59.6 20.924C60.428 20.924 61.052 21.428 61.052 22.292C61.052 23.144 60.428 23.66 59.6 23.66C58.76 23.66 58.148 23.144 58.148 22.292ZM62.588 22.292C62.588 20.72 61.292 19.58 59.6 19.58C57.896 19.58 56.6 20.72 56.6 22.292C56.6 23.864 57.896 24.992 59.6 24.992C61.292 24.992 62.588 23.864 62.588 22.292ZM57.848 27.212H63.632V30.044H65.216V25.94H57.848V27.212ZM66.632 21.704V20.42H65.216V18.98H63.632V25.496H65.216V24.104H66.632V22.808H65.216V21.704H66.632ZM73.4591 23.72C73.7111 22.328 73.7111 21.236 73.7111 20.468V19.784H68.0351V21.044H72.1511C72.1391 21.704 72.0911 22.508 71.9111 23.54L73.4591 23.72ZM74.1911 24.164C73.1591 24.308 72.0551 24.392 70.9631 24.44V22.352H69.4151V24.5C68.6951 24.512 68.0111 24.512 67.3991 24.512L67.5431 25.772C69.4391 25.76 72.0071 25.712 74.2871 25.292L74.1911 24.164ZM70.5911 26.516H69.0071V29.84H76.7231V28.58H70.5911V26.516ZM76.3751 22.34V18.968H74.7911V27.248H76.3751V23.648H77.6951V22.34H76.3751ZM87.5104 21.836V23.12H89.2384V27.044H90.8224V18.98H89.2384V21.836H87.5104ZM88.2424 24.38C86.5024 23.792 85.7464 22.436 85.7464 21.128V20.984H87.8944V19.724H81.9544V20.984H84.1264V21.14C84.1264 22.532 83.3344 23.984 81.5224 24.572L82.3264 25.832C83.6104 25.4 84.4744 24.524 84.9664 23.432C85.4464 24.428 86.2624 25.22 87.4744 25.616L88.2424 24.38ZM85.1224 28.58V26.372H83.5384V29.84H91.0744V28.58H85.1224ZM96.0535 22.1H97.7455V20.828H96.0535V19.34H94.5535V20.828H92.8255V22.1H94.5535V22.328C94.5535 24.032 93.9895 25.844 92.4175 26.768L93.3055 27.956C94.3015 27.38 94.9495 26.396 95.3215 25.244C95.7175 26.3 96.3535 27.176 97.3255 27.692L98.1775 26.516C96.6175 25.688 96.0535 23.996 96.0535 22.328V22.1ZM98.3695 23.156H97.1095V24.44H98.3695V29.528H99.8455V19.16H98.3695V23.156ZM100.601 18.968V30.02H102.101V18.968H100.601ZM111.617 28.844C110.141 28.844 109.385 28.592 109.385 28.016C109.385 27.44 110.141 27.176 111.617 27.176C113.093 27.176 113.849 27.44 113.849 28.016C113.849 28.592 113.093 28.844 111.617 28.844ZM111.617 25.976C109.229 25.976 107.789 26.708 107.789 28.016C107.789 29.312 109.229 30.044 111.617 30.044C114.005 30.044 115.457 29.312 115.457 28.016C115.457 26.708 114.005 25.976 111.617 25.976ZM112.445 24.176V23.264H115.517V22.004H109.445V20.708H115.457V19.448H107.873V23.264H110.861V24.176H106.661V25.436H116.657V24.176H112.445ZM121.24 19.712C119.512 19.712 118.204 20.852 118.204 22.436C118.204 24.032 119.512 25.16 121.24 25.16C122.968 25.16 124.288 24.032 124.288 22.436C124.288 20.852 122.968 19.712 121.24 19.712ZM121.24 21.068C122.092 21.068 122.74 21.572 122.74 22.436C122.74 23.3 122.092 23.804 121.24 23.804C120.388 23.804 119.74 23.3 119.74 22.436C119.74 21.572 120.388 21.068 121.24 21.068ZM125.32 18.968V30.056H126.904V18.968H125.32ZM117.94 27.812C119.848 27.812 122.44 27.788 124.816 27.308L124.72 26.168C122.392 26.516 119.68 26.528 117.736 26.528L117.94 27.812ZM131.919 26.48C131.175 26.48 130.623 25.976 130.623 25.136C130.623 24.296 131.175 23.78 131.919 23.78C132.663 23.78 133.203 24.296 133.203 25.124C133.203 25.976 132.663 26.48 131.919 26.48ZM131.919 22.496C130.311 22.496 129.111 23.588 129.111 25.124C129.111 26.684 130.311 27.776 131.919 27.776C133.515 27.776 134.703 26.684 134.703 25.124C134.703 23.588 133.515 22.496 131.919 22.496ZM132.699 19.172H131.115V20.612H128.667V21.872H135.099V20.612H132.699V19.172ZM138.987 23.3H137.403V18.98H135.819V30.032H137.403V24.608H138.987V23.3ZM140.378 20.12V21.38H144.062C143.834 23.828 142.61 25.556 139.79 26.912L140.618 28.16C144.542 26.264 145.682 23.504 145.682 20.12H140.378ZM147.374 18.968V30.02H148.97V18.968H147.374Z" fill="white"/>
<path d="M32 35C26.4772 35 22 30.5228 22 25C22 19.4772 26.4772 15 32 15C37.5228 15 42 19.4772 42 25C41.9939 30.5203 37.5203 34.9939 32 35ZM31.984 33H32C36.4167 32.9956 39.9942 29.4127 39.992 24.996C39.9898 20.5793 36.4087 17 31.992 17C27.5753 17 23.9942 20.5793 23.992 24.996C23.9898 29.4127 27.5673 32.9956 31.984 33ZM30 30L26.7057 26.7057C26.3159 26.3159 26.3159 25.6841 26.7057 25.2943C27.0949 24.9051 27.7257 24.9045 28.1157 25.293L30 27.17L35.88 21.29C36.2717 20.8983 36.9072 20.8994 37.2975 21.2925C37.6859 21.6836 37.6848 22.3152 37.295 22.705L30 30Z" fill="white" fill-opacity="0.4"/>
</svg>
