<svg width="40" height="10" viewBox="0 0 40 10" fill="none" xmlns="http://www.w3.org/2000/svg">
<path d="M4.30859 5.25586H2.11719L2.10547 4.04883H3.94531C4.26953 4.04883 4.53516 4.00781 4.74219 3.92578C4.94922 3.83984 5.10352 3.7168 5.20508 3.55664C5.31055 3.39258 5.36328 3.19336 5.36328 2.95898C5.36328 2.69336 5.3125 2.47852 5.21094 2.31445C5.11328 2.15039 4.95898 2.03125 4.74805 1.95703C4.54102 1.88281 4.27344 1.8457 3.94531 1.8457H2.72656V9H0.96875V0.46875H3.94531C4.44141 0.46875 4.88477 0.515625 5.27539 0.609375C5.66992 0.703125 6.00391 0.845703 6.27734 1.03711C6.55078 1.22852 6.75977 1.4707 6.9043 1.76367C7.04883 2.05273 7.12109 2.39648 7.12109 2.79492C7.12109 3.14648 7.04102 3.4707 6.88086 3.76758C6.72461 4.06445 6.47656 4.30664 6.13672 4.49414C5.80078 4.68164 5.36133 4.78516 4.81836 4.80469L4.30859 5.25586ZM4.23242 9H1.63672L2.32227 7.62891H4.23242C4.54102 7.62891 4.79297 7.58008 4.98828 7.48242C5.18359 7.38086 5.32812 7.24414 5.42188 7.07227C5.51562 6.90039 5.5625 6.70312 5.5625 6.48047C5.5625 6.23047 5.51953 6.01367 5.43359 5.83008C5.35156 5.64648 5.21875 5.50586 5.03516 5.4082C4.85156 5.30664 4.60938 5.25586 4.30859 5.25586H2.61523L2.62695 4.04883H4.73633L5.14062 4.52344C5.66016 4.51562 6.07812 4.60742 6.39453 4.79883C6.71484 4.98633 6.94727 5.23047 7.0918 5.53125C7.24023 5.83203 7.31445 6.1543 7.31445 6.49805C7.31445 7.04492 7.19531 7.50586 6.95703 7.88086C6.71875 8.25195 6.36914 8.53125 5.9082 8.71875C5.45117 8.90625 4.89258 9 4.23242 9ZM8.25781 5.89453V5.77148C8.25781 5.30664 8.32422 4.87891 8.45703 4.48828C8.58984 4.09375 8.7832 3.75195 9.03711 3.46289C9.29102 3.17383 9.60352 2.94922 9.97461 2.78906C10.3457 2.625 10.7715 2.54297 11.252 2.54297C11.7324 2.54297 12.1602 2.625 12.5352 2.78906C12.9102 2.94922 13.2246 3.17383 13.4785 3.46289C13.7363 3.75195 13.9316 4.09375 14.0645 4.48828C14.1973 4.87891 14.2637 5.30664 14.2637 5.77148V5.89453C14.2637 6.35547 14.1973 6.7832 14.0645 7.17773C13.9316 7.56836 13.7363 7.91016 13.4785 8.20312C13.2246 8.49219 12.9121 8.7168 12.541 8.87695C12.1699 9.03711 11.7441 9.11719 11.2637 9.11719C10.7832 9.11719 10.3555 9.03711 9.98047 8.87695C9.60938 8.7168 9.29492 8.49219 9.03711 8.20312C8.7832 7.91016 8.58984 7.56836 8.45703 7.17773C8.32422 6.7832 8.25781 6.35547 8.25781 5.89453ZM9.94531 5.77148V5.89453C9.94531 6.16016 9.96875 6.4082 10.0156 6.63867C10.0625 6.86914 10.1367 7.07227 10.2383 7.24805C10.3438 7.41992 10.4805 7.55469 10.6484 7.65234C10.8164 7.75 11.0215 7.79883 11.2637 7.79883C11.498 7.79883 11.6992 7.75 11.8672 7.65234C12.0352 7.55469 12.1699 7.41992 12.2715 7.24805C12.373 7.07227 12.4473 6.86914 12.4941 6.63867C12.5449 6.4082 12.5703 6.16016 12.5703 5.89453V5.77148C12.5703 5.51367 12.5449 5.27148 12.4941 5.04492C12.4473 4.81445 12.3711 4.61133 12.2656 4.43555C12.1641 4.25586 12.0293 4.11523 11.8613 4.01367C11.6934 3.91211 11.4902 3.86133 11.252 3.86133C11.0137 3.86133 10.8105 3.91211 10.6426 4.01367C10.4785 4.11523 10.3438 4.25586 10.2383 4.43555C10.1367 4.61133 10.0625 4.81445 10.0156 5.04492C9.96875 5.27148 9.94531 5.51367 9.94531 5.77148ZM18.4062 2.66016V3.85547H14.7148V2.66016H18.4062ZM15.6289 1.0957H17.3164V7.08984C17.3164 7.27344 17.3398 7.41406 17.3867 7.51172C17.4375 7.60938 17.5117 7.67773 17.6094 7.7168C17.707 7.75195 17.8301 7.76953 17.9785 7.76953C18.084 7.76953 18.1777 7.76562 18.2598 7.75781C18.3457 7.74609 18.418 7.73438 18.4766 7.72266L18.4824 8.96484C18.3379 9.01172 18.1816 9.04883 18.0137 9.07617C17.8457 9.10352 17.6602 9.11719 17.457 9.11719C17.0859 9.11719 16.7617 9.05664 16.4844 8.93555C16.2109 8.81055 16 8.61133 15.8516 8.33789C15.7031 8.06445 15.6289 7.70508 15.6289 7.25977V1.0957ZM22.4727 2.66016V3.85547H18.7812V2.66016H22.4727ZM19.6953 1.0957H21.3828V7.08984C21.3828 7.27344 21.4062 7.41406 21.4531 7.51172C21.5039 7.60938 21.5781 7.67773 21.6758 7.7168C21.7734 7.75195 21.8965 7.76953 22.0449 7.76953C22.1504 7.76953 22.2441 7.76562 22.3262 7.75781C22.4121 7.74609 22.4844 7.73438 22.543 7.72266L22.5488 8.96484C22.4043 9.01172 22.248 9.04883 22.0801 9.07617C21.9121 9.10352 21.7266 9.11719 21.5234 9.11719C21.1523 9.11719 20.8281 9.05664 20.5508 8.93555C20.2773 8.81055 20.0664 8.61133 19.918 8.33789C19.7695 8.06445 19.6953 7.70508 19.6953 7.25977V1.0957ZM23.0117 5.89453V5.77148C23.0117 5.30664 23.0781 4.87891 23.2109 4.48828C23.3438 4.09375 23.5371 3.75195 23.791 3.46289C24.0449 3.17383 24.3574 2.94922 24.7285 2.78906C25.0996 2.625 25.5254 2.54297 26.0059 2.54297C26.4863 2.54297 26.9141 2.625 27.2891 2.78906C27.6641 2.94922 27.9785 3.17383 28.2324 3.46289C28.4902 3.75195 28.6855 4.09375 28.8184 4.48828C28.9512 4.87891 29.0176 5.30664 29.0176 5.77148V5.89453C29.0176 6.35547 28.9512 6.7832 28.8184 7.17773C28.6855 7.56836 28.4902 7.91016 28.2324 8.20312C27.9785 8.49219 27.666 8.7168 27.2949 8.87695C26.9238 9.03711 26.498 9.11719 26.0176 9.11719C25.5371 9.11719 25.1094 9.03711 24.7344 8.87695C24.3633 8.7168 24.0488 8.49219 23.791 8.20312C23.5371 7.91016 23.3438 7.56836 23.2109 7.17773C23.0781 6.7832 23.0117 6.35547 23.0117 5.89453ZM24.6992 5.77148V5.89453C24.6992 6.16016 24.7227 6.4082 24.7695 6.63867C24.8164 6.86914 24.8906 7.07227 24.9922 7.24805C25.0977 7.41992 25.2344 7.55469 25.4023 7.65234C25.5703 7.75 25.7754 7.79883 26.0176 7.79883C26.252 7.79883 26.4531 7.75 26.6211 7.65234C26.7891 7.55469 26.9238 7.41992 27.0254 7.24805C27.127 7.07227 27.2012 6.86914 27.248 6.63867C27.2988 6.4082 27.3242 6.16016 27.3242 5.89453V5.77148C27.3242 5.51367 27.2988 5.27148 27.248 5.04492C27.2012 4.81445 27.125 4.61133 27.0195 4.43555C26.918 4.25586 26.7832 4.11523 26.6152 4.01367C26.4473 3.91211 26.2441 3.86133 26.0059 3.86133C25.7676 3.86133 25.5645 3.91211 25.3965 4.01367C25.2324 4.11523 25.0977 4.25586 24.9922 4.43555C24.8906 4.61133 24.8164 4.81445 24.7695 5.04492C24.7227 5.27148 24.6992 5.51367 24.6992 5.77148ZM31.7422 3.97266V9H30.0488V2.66016H31.6367L31.7422 3.97266ZM31.5078 5.60742H31.0391C31.0391 5.16602 31.0918 4.75977 31.1973 4.38867C31.3066 4.01367 31.4648 3.68945 31.6719 3.41602C31.8828 3.13867 32.1426 2.92383 32.4512 2.77148C32.7598 2.61914 33.1172 2.54297 33.5234 2.54297C33.8047 2.54297 34.0625 2.58594 34.2969 2.67188C34.5312 2.75391 34.7324 2.88477 34.9004 3.06445C35.0723 3.24023 35.2051 3.4707 35.2988 3.75586C35.3926 4.03711 35.4395 4.375 35.4395 4.76953V9H33.752V4.95703C33.752 4.66797 33.7129 4.44531 33.6348 4.28906C33.5566 4.13281 33.4453 4.02344 33.3008 3.96094C33.1602 3.89844 32.9902 3.86719 32.791 3.86719C32.5723 3.86719 32.3809 3.91211 32.2168 4.00195C32.0566 4.0918 31.9238 4.2168 31.8184 4.37695C31.7129 4.5332 31.6348 4.7168 31.584 4.92773C31.5332 5.13867 31.5078 5.36523 31.5078 5.60742ZM35.2812 5.41406L34.6777 5.49023C34.6777 5.07617 34.7285 4.69141 34.8301 4.33594C34.9355 3.98047 35.0898 3.66797 35.293 3.39844C35.5 3.12891 35.7559 2.91992 36.0605 2.77148C36.3652 2.61914 36.7168 2.54297 37.1152 2.54297C37.4199 2.54297 37.6973 2.58789 37.9473 2.67773C38.1973 2.76367 38.4102 2.90234 38.5859 3.09375C38.7656 3.28125 38.9023 3.52734 38.9961 3.83203C39.0938 4.13672 39.1426 4.50977 39.1426 4.95117V9H37.4492V4.95117C37.4492 4.6582 37.4102 4.43555 37.332 4.2832C37.2578 4.12695 37.1484 4.01953 37.0039 3.96094C36.8633 3.89844 36.6953 3.86719 36.5 3.86719C36.2969 3.86719 36.1191 3.9082 35.9668 3.99023C35.8145 4.06836 35.6875 4.17773 35.5859 4.31836C35.4844 4.45898 35.4082 4.62305 35.3574 4.81055C35.3066 4.99414 35.2812 5.19531 35.2812 5.41406Z" fill="#9F70F1"/>
</svg>
