<svg width="44" height="24" viewBox="0 0 22 12" fill="none" xmlns="http://www.w3.org/2000/svg">
<path d="M1.27877 5.9914C2.56277 5.7274 3.43877 5.1154 3.93077 4.3114C4.42277 5.0314 5.25077 5.5834 6.48677 5.8234L7.09877 4.5994C5.49077 4.3114 4.73477 3.5434 4.68677 2.6674H6.84677V1.4434H4.68677V0.363398H3.10277V1.4434H0.942766V2.6674H3.10277C3.05477 3.6034 2.29877 4.4554 0.642766 4.7674L1.27877 5.9914ZM7.29077 6.1354C4.97477 6.4474 2.29877 6.4594 0.282766 6.4594L0.474766 7.7434C1.26677 7.7434 2.15477 7.7434 3.09077 7.7074V11.0674H4.67477V7.6114C5.57477 7.5394 6.49877 7.4314 7.38677 7.2754L7.29077 6.1354ZM7.91477 0.351398V11.3914H9.49877V0.351398H7.91477ZM20.9578 5.3914C18.4378 4.9834 17.0818 3.3274 17.0818 1.7554V0.963398H15.3898V1.7554C15.3898 3.2914 14.0218 4.9834 11.5258 5.3914L12.1738 6.6994C14.1058 6.3514 15.5098 5.3074 16.2298 3.9514C16.9498 5.3194 18.3658 6.3514 20.3098 6.6994L20.9578 5.3914ZM17.0338 8.8234V6.3514H15.4498V8.8234H11.2858V10.0954H21.2938V8.8234H17.0338Z" fill="white"/>
</svg>
