<svg width="630" height="164" viewBox="0 0 315 82" fill="none" xmlns="http://www.w3.org/2000/svg">
<path opacity="0.6" d="M21.9753 33.889H19.9683V32.692H19.2303V33.889H17.2053V34.492H21.9753V33.889ZM19.5993 38.236C18.9063 38.236 18.3843 37.732 18.3843 37.003C18.3843 36.283 18.9063 35.779 19.5993 35.779C20.2833 35.779 20.8053 36.283 20.8053 37.003C20.8053 37.732 20.2833 38.236 19.5993 38.236ZM19.5993 35.149C18.5013 35.149 17.7003 35.923 17.7003 37.003C17.7003 38.101 18.5013 38.866 19.5993 38.866C20.6883 38.866 21.4893 38.101 21.4893 37.003C21.4893 35.923 20.6883 35.149 19.5993 35.149ZM23.1273 32.602V35.977H21.8043V36.58H23.1273V40.666H23.8653V32.602H23.1273ZM29.1386 40.09C27.8696 40.09 27.1226 39.775 27.1226 39.226C27.1226 38.677 27.8696 38.362 29.1386 38.362C30.3986 38.362 31.1546 38.677 31.1546 39.226C31.1546 39.775 30.3986 40.09 29.1386 40.09ZM29.1386 37.786C27.4106 37.786 26.3756 38.299 26.3756 39.226C26.3756 40.153 27.4106 40.657 29.1386 40.657C30.8756 40.657 31.9016 40.153 31.9016 39.226C31.9016 38.299 30.8756 37.786 29.1386 37.786ZM28.0226 35.644C28.3556 35.698 28.7336 35.734 29.1386 35.734C29.5526 35.734 29.9306 35.698 30.2636 35.644V36.589H28.0226V35.644ZM27.0596 34.24C27.0596 33.655 27.8516 33.313 29.1386 33.313C30.4256 33.313 31.2176 33.655 31.2176 34.24C31.2176 34.816 30.4256 35.167 29.1386 35.167C27.8516 35.167 27.0596 34.816 27.0596 34.24ZM30.9926 36.589V35.446C31.6136 35.194 31.9736 34.78 31.9736 34.24C31.9736 33.295 30.8936 32.737 29.1386 32.737C27.3926 32.737 26.3036 33.295 26.3036 34.24C26.3036 34.789 26.6546 35.194 27.2936 35.455V36.589H25.4846V37.183H32.7926V36.589H30.9926ZM37.4179 33.286C38.7409 33.286 39.4969 33.592 39.4969 34.132C39.4969 34.672 38.7409 34.978 37.4179 34.978C36.0949 34.978 35.3389 34.672 35.3389 34.132C35.3389 33.592 36.0949 33.286 37.4179 33.286ZM37.4179 35.527C39.1909 35.527 40.2529 35.041 40.2529 34.132C40.2529 33.223 39.1909 32.728 37.4179 32.728C35.6449 32.728 34.5829 33.223 34.5829 34.132C34.5829 35.041 35.6449 35.527 37.4179 35.527ZM35.3929 39.181H40.1359V37.363H34.6459V37.921H39.4069V38.641H34.6729V40.576H40.3789V40H35.3929V39.181ZM33.7639 36.076V36.67H41.0719V36.076H33.7639ZM50.1886 38.632H50.9356V32.602H50.1886V34.492H48.4246V35.104H50.1886V38.632ZM49.0006 36.724C47.8396 36.292 47.0476 35.23 47.0476 34.105V33.079H46.3096V34.078C46.3096 35.311 45.4996 36.454 44.2936 36.895L44.6806 37.48C45.6256 37.102 46.3456 36.337 46.6876 35.374C47.0296 36.247 47.7226 36.94 48.6136 37.291L49.0006 36.724ZM46.4806 39.883V37.966H45.7426V40.486H51.1246V39.883H46.4806ZM56.3439 36.247C55.4979 36.418 54.7779 36.463 53.6259 36.463V35.365H55.9389V34.798H53.6259V33.781H56.0289V33.187H52.9149V37.066H53.4279C54.7239 37.066 55.4889 37.03 56.4159 36.841L56.3439 36.247ZM53.9499 38.506H58.6389V40.666H59.3769V37.912H53.9499V38.506ZM58.6659 32.602V34.699H57.5859V32.746H56.8839V37.435H57.5859V35.302H58.6659V37.489H59.3769V32.602H58.6659ZM63.2102 38.254C62.4812 38.254 61.9502 37.732 61.9502 37.012C61.9502 36.283 62.4812 35.761 63.2102 35.761C63.9482 35.761 64.4792 36.283 64.4792 37.012C64.4792 37.732 63.9482 38.254 63.2102 38.254ZM63.2102 35.149C62.0762 35.149 61.2572 35.923 61.2572 37.012C61.2572 38.11 62.0762 38.866 63.2102 38.866C64.3622 38.866 65.1812 38.11 65.1812 37.012C65.1812 35.923 64.3622 35.149 63.2102 35.149ZM63.5702 32.692H62.8322V33.889H60.7982V34.483H65.5592V33.889H63.5702V32.692ZM68.3852 35.914H67.0622V32.602H66.3242V40.666H67.0622V36.535H68.3852V35.914ZM71.9845 33.295H71.2555V34.744C71.2555 36.274 70.2745 37.822 69.0865 38.389L69.5365 38.992C70.4815 38.506 71.2555 37.498 71.6245 36.283C72.0115 37.435 72.7855 38.389 73.7035 38.839L74.1445 38.245C72.9475 37.705 71.9845 36.22 71.9845 34.744V33.295ZM74.9905 32.593V40.684H75.7285V32.593H74.9905ZM80.7318 36.481H78.4998V33.889H80.7318V36.481ZM83.3058 34.618V35.743H81.4518V34.618H83.3058ZM81.4518 36.346H83.3058V38.488H84.0528V32.602H83.3058V34.015H81.4518V33.304H77.7708V37.066H81.4518V36.346ZM79.5978 39.883V37.966H78.8598V40.486H84.2418V39.883H79.5978ZM90.6315 34.033H92.4225V33.421H88.0575V34.033H89.9025V35.059C89.9025 36.427 88.9305 37.957 87.7785 38.533L88.2105 39.118C89.1195 38.65 89.9025 37.624 90.2715 36.445C90.6405 37.525 91.3965 38.47 92.2965 38.92L92.7195 38.326C91.5495 37.777 90.6315 36.346 90.6315 35.059V34.033ZM95.4555 35.851H94.1235V32.602H93.3855V40.666H94.1235V36.472H95.4555V35.851ZM99.8468 40.09C98.5688 40.09 97.8218 39.775 97.8218 39.208C97.8218 38.641 98.5688 38.326 99.8468 38.326C101.107 38.326 101.854 38.641 101.854 39.208C101.854 39.775 101.107 40.09 99.8468 40.09ZM99.8468 37.75C98.1188 37.75 97.0748 38.272 97.0748 39.208C97.0748 40.144 98.1188 40.666 99.8468 40.666C101.557 40.666 102.601 40.144 102.601 39.208C102.601 38.272 101.557 37.75 99.8468 37.75ZM100.216 36.58V35.644H102.646V35.05H97.8488V33.556H102.592V32.962H97.1108V35.644H99.4778V36.58H96.1928V37.174H103.501V36.58H100.216ZM108.117 33.097C106.443 33.097 105.183 33.988 105.183 35.329C105.183 36.679 106.443 37.561 108.117 37.561C109.791 37.561 111.051 36.679 111.051 35.329C111.051 33.988 109.791 33.097 108.117 33.097ZM108.117 33.7C109.395 33.7 110.349 34.357 110.349 35.329C110.349 36.31 109.395 36.958 108.117 36.958C106.848 36.958 105.885 36.31 105.885 35.329C105.885 34.357 106.848 33.7 108.117 33.7ZM104.463 38.983V39.595H111.798V38.983H104.463ZM116.774 39.064V37.543H119.357V36.949H114.389V35.644H119.168V33.187H113.642V33.79H118.448V35.05H113.66V37.543H116.027V39.064H112.742V39.667H120.077V39.064H116.774ZM129.887 32.602H129.149V38.56H129.887V32.602ZM128.231 36.859C127.034 36.49 126.188 35.536 126.188 34.474V34.267H128.015V33.673H126.197V32.629H125.459V33.673H123.623V34.267H125.459V34.474C125.459 35.599 124.64 36.616 123.434 37.012L123.794 37.588C124.748 37.264 125.486 36.562 125.837 35.671C126.206 36.499 126.944 37.138 127.88 37.435L128.231 36.859ZM125.432 39.883V38.011H124.694V40.486H130.13V39.883H125.432ZM138.85 36.589H137.653C137.878 35.428 137.878 34.573 137.878 33.817V33.115H132.46V33.709H137.158V33.817C137.158 34.573 137.158 35.428 136.906 36.589H131.551V37.192H134.809V40.675H135.556V37.192H138.85V36.589ZM142.783 36.859C144.034 36.67 145.195 36.049 145.708 35.176C146.221 36.049 147.373 36.67 148.624 36.859L148.885 36.265C147.445 36.067 146.077 35.176 146.077 34.186H148.651V33.592H146.077V32.593H145.339V33.592H142.765V34.186H145.33C145.33 35.185 143.971 36.067 142.513 36.265L142.783 36.859ZM149.362 37.471H142.063V38.074H145.339V40.675H146.077V38.074H149.362V37.471ZM150.765 33.457V34.069H153.726C153.555 35.977 152.448 37.525 150.387 38.56L150.792 39.136C153.402 37.831 154.455 35.752 154.455 33.457H150.765ZM157.839 35.869H156.543V32.593H155.805V40.666H156.543V36.481H157.839V35.869ZM159.603 35.014C159.603 34.258 160.197 33.736 161.025 33.736C161.844 33.736 162.438 34.258 162.438 35.014C162.438 35.779 161.844 36.283 161.025 36.283C160.197 36.283 159.603 35.779 159.603 35.014ZM161.394 36.886C162.429 36.751 163.158 36.022 163.158 35.014C163.158 33.88 162.258 33.115 161.025 33.115C159.774 33.115 158.883 33.88 158.883 35.014C158.883 36.022 159.603 36.76 160.656 36.886V38.281C159.9 38.299 159.162 38.308 158.523 38.308L158.622 38.929C160.044 38.929 161.925 38.902 163.635 38.614L163.572 38.074C162.879 38.173 162.132 38.218 161.394 38.254V36.886ZM166.101 35.923H164.823V32.584H164.085V40.666H164.823V36.544H166.101V35.923ZM172.778 40.09C171.5 40.09 170.753 39.775 170.753 39.208C170.753 38.641 171.5 38.326 172.778 38.326C174.038 38.326 174.785 38.641 174.785 39.208C174.785 39.775 174.038 40.09 172.778 40.09ZM172.778 37.75C171.05 37.75 170.006 38.272 170.006 39.208C170.006 40.144 171.05 40.666 172.778 40.666C174.488 40.666 175.532 40.144 175.532 39.208C175.532 38.272 174.488 37.75 172.778 37.75ZM173.147 36.58V35.644H175.577V35.05H170.78V33.556H175.523V32.962H170.042V35.644H172.409V36.58H169.124V37.174H176.432V36.58H173.147ZM180.266 33.295H179.537V34.744C179.537 36.274 178.556 37.822 177.368 38.389L177.818 38.992C178.763 38.506 179.537 37.498 179.906 36.283C180.293 37.435 181.067 38.389 181.985 38.839L182.426 38.245C181.229 37.705 180.266 36.22 180.266 34.744V33.295ZM183.272 32.593V40.684H184.01V32.593H183.272ZM187.51 38.209C186.862 38.209 186.457 37.39 186.457 36.067C186.457 34.771 186.862 33.952 187.51 33.952C188.14 33.952 188.554 34.771 188.554 36.067C188.554 37.39 188.14 38.209 187.51 38.209ZM190.237 35.734H189.22C189.13 34.213 188.482 33.268 187.51 33.268C186.457 33.268 185.782 34.348 185.782 36.067C185.782 37.813 186.457 38.893 187.51 38.893C188.5 38.893 189.157 37.921 189.22 36.337H190.237V40.27H190.939V32.773H190.237V35.734ZM191.839 32.593V40.666H192.541V32.593H191.839ZM198.544 34.699H200.065V34.096H198.553V32.89H197.842V34.096H196.321V34.699H197.842V35.068C197.842 36.391 197.212 37.795 196.123 38.434L196.564 38.992C197.356 38.524 197.923 37.624 198.202 36.598C198.499 37.561 199.066 38.371 199.858 38.812L200.281 38.263C199.201 37.669 198.544 36.355 198.544 35.068V34.699ZM202.369 32.593V35.851H201.307V32.773H200.614V40.27H201.307V36.463H202.369V40.666H203.08V32.593H202.369ZM211.098 32.602H210.36V37.597H211.098V32.602ZM209.433 36.202C208.308 36.391 207.354 36.427 205.671 36.427V35.374H208.56V34.789H205.671V33.781H208.785V33.187H204.933V37.021H205.59C207.354 37.021 208.335 36.985 209.514 36.787L209.433 36.202ZM208.416 40.081C207.192 40.081 206.445 39.748 206.445 39.19C206.445 38.614 207.192 38.29 208.416 38.29C209.649 38.29 210.396 38.614 210.396 39.19C210.396 39.748 209.649 40.081 208.416 40.081ZM208.416 37.714C206.742 37.714 205.716 38.245 205.716 39.19C205.716 40.126 206.742 40.657 208.416 40.657C210.099 40.657 211.125 40.126 211.125 39.19C211.125 38.245 210.099 37.714 208.416 37.714ZM216.101 36.229H213.815V34.897H216.101V36.229ZM216.821 33.106H216.101V34.321H213.815V33.106H213.086V36.823H216.821V33.106ZM216.452 40.081C215.246 40.081 214.526 39.739 214.526 39.163C214.526 38.587 215.246 38.254 216.452 38.254C217.64 38.254 218.369 38.587 218.369 39.163C218.369 39.739 217.64 40.081 216.452 40.081ZM216.452 37.66C214.805 37.66 213.788 38.209 213.788 39.163C213.788 40.117 214.805 40.666 216.452 40.666C218.09 40.666 219.107 40.117 219.107 39.163C219.107 38.209 218.09 37.66 216.452 37.66ZM219.017 34.627V32.593H218.279V37.453H219.017V35.239H220.214V34.627H219.017ZM224.678 33.097C223.004 33.097 221.744 33.988 221.744 35.329C221.744 36.679 223.004 37.561 224.678 37.561C226.352 37.561 227.612 36.679 227.612 35.329C227.612 33.988 226.352 33.097 224.678 33.097ZM224.678 33.7C225.956 33.7 226.91 34.357 226.91 35.329C226.91 36.31 225.956 36.958 224.678 36.958C223.409 36.958 222.446 36.31 222.446 35.329C222.446 34.357 223.409 33.7 224.678 33.7ZM221.024 38.983V39.595H228.359V38.983H221.024ZM233.335 39.064V37.543H235.918V36.949H230.95V35.644H235.729V33.187H230.203V33.79H235.009V35.05H230.221V37.543H232.588V39.064H229.303V39.667H236.638V39.064H233.335ZM240.652 35.131C240.652 34.33 241.237 33.754 242.029 33.754C242.812 33.754 243.397 34.33 243.397 35.131C243.397 35.932 242.812 36.508 242.029 36.508C241.237 36.508 240.652 35.932 240.652 35.131ZM245.728 34.456V35.797H243.991C244.063 35.59 244.099 35.365 244.099 35.131C244.099 34.888 244.063 34.663 243.991 34.456H245.728ZM245.728 36.391V38.56H246.475V32.602H245.728V33.862H243.676C243.298 33.394 242.722 33.106 242.029 33.106C240.841 33.106 239.95 33.952 239.95 35.131C239.95 36.31 240.841 37.156 242.029 37.156C242.722 37.156 243.307 36.868 243.685 36.391H245.728ZM242.056 39.883V37.948H241.309V40.486H246.7V39.883H242.056ZM254.007 34.339V35.302H251.901V35.878H254.007V36.715H254.754V32.593H254.007V33.763H252.18C252.234 33.511 252.261 33.259 252.261 32.989H248.652V33.592H251.46C251.325 34.87 250.2 35.833 248.229 36.292L248.499 36.895C250.281 36.472 251.514 35.608 252.018 34.339H254.007ZM250.299 40V39.064H254.754V37.084H249.552V37.678H254.016V38.506H249.57V40.585H255.024V40H250.299ZM259.415 36.679H261.152V36.076H257.759V33.961H261.116V33.349H257.03V36.679H258.677V38.281C257.894 38.308 257.129 38.308 256.436 38.308L256.526 38.929C258.056 38.929 259.991 38.893 261.755 38.623L261.692 38.083C260.972 38.173 260.189 38.218 259.415 38.254V36.679ZM262.223 32.584V40.684H262.961V32.584H262.223ZM269.135 35.896H267.74C268.01 35.176 268.127 34.411 268.127 33.619H265.013V34.222H267.398C267.263 35.914 266.399 37.363 264.671 38.398L265.103 38.929C266.219 38.263 266.993 37.426 267.479 36.49H269.135V40.261H269.837V32.809H269.135V35.896ZM270.818 32.593V40.666H271.52V32.593H270.818ZM278.206 36.679H279.943V36.076H276.55V33.961H279.907V33.349H275.821V36.679H277.468V38.281C276.685 38.308 275.92 38.308 275.227 38.308L275.317 38.929C276.847 38.929 278.782 38.893 280.546 38.623L280.483 38.083C279.763 38.173 278.98 38.218 278.206 38.254V36.679ZM281.014 32.584V40.684H281.752V32.584H281.014ZM289.15 34.204C289.15 35.176 289.15 36.31 288.844 37.858L289.582 37.939C289.888 36.31 289.888 35.203 289.888 34.204V33.403H284.227V34.006H289.15V34.204ZM287.035 38.929V36.04H286.297V38.929H283.462V39.532H290.761V38.929H287.035ZM292.613 39.0332V39.688C292.613 39.9546 292.545 40.2358 292.411 40.5317C292.276 40.8306 292.087 41.0796 291.844 41.2788L291.382 40.958C291.476 40.8291 291.555 40.6973 291.62 40.5625C291.684 40.4307 291.732 40.293 291.765 40.1494C291.8 40.0088 291.817 39.8594 291.817 39.7012V39.0332H292.613ZM27.0026 51.889H24.9956V50.692H24.2576V51.889H22.2326V52.492H27.0026V51.889ZM24.6266 56.236C23.9336 56.236 23.4116 55.732 23.4116 55.003C23.4116 54.283 23.9336 53.779 24.6266 53.779C25.3106 53.779 25.8326 54.283 25.8326 55.003C25.8326 55.732 25.3106 56.236 24.6266 56.236ZM24.6266 53.149C23.5286 53.149 22.7276 53.923 22.7276 55.003C22.7276 56.101 23.5286 56.866 24.6266 56.866C25.7156 56.866 26.5166 56.101 26.5166 55.003C26.5166 53.923 25.7156 53.149 24.6266 53.149ZM28.1546 50.602V53.977H26.8316V54.58H28.1546V58.666H28.8926V50.602H28.1546ZM34.1659 58.09C32.8969 58.09 32.1499 57.775 32.1499 57.226C32.1499 56.677 32.8969 56.362 34.1659 56.362C35.4259 56.362 36.1819 56.677 36.1819 57.226C36.1819 57.775 35.4259 58.09 34.1659 58.09ZM34.1659 55.786C32.4379 55.786 31.4029 56.299 31.4029 57.226C31.4029 58.153 32.4379 58.657 34.1659 58.657C35.9029 58.657 36.9289 58.153 36.9289 57.226C36.9289 56.299 35.9029 55.786 34.1659 55.786ZM33.0499 53.644C33.3829 53.698 33.7609 53.734 34.1659 53.734C34.5799 53.734 34.9579 53.698 35.2909 53.644V54.589H33.0499V53.644ZM32.0869 52.24C32.0869 51.655 32.8789 51.313 34.1659 51.313C35.4529 51.313 36.2449 51.655 36.2449 52.24C36.2449 52.816 35.4529 53.167 34.1659 53.167C32.8789 53.167 32.0869 52.816 32.0869 52.24ZM36.0199 54.589V53.446C36.6409 53.194 37.0009 52.78 37.0009 52.24C37.0009 51.295 35.9209 50.737 34.1659 50.737C32.4199 50.737 31.3309 51.295 31.3309 52.24C31.3309 52.789 31.6819 53.194 32.3209 53.455V54.589H30.5119V55.183H37.8199V54.589H36.0199ZM42.4452 51.286C43.7682 51.286 44.5242 51.592 44.5242 52.132C44.5242 52.672 43.7682 52.978 42.4452 52.978C41.1222 52.978 40.3662 52.672 40.3662 52.132C40.3662 51.592 41.1222 51.286 42.4452 51.286ZM42.4452 53.527C44.2182 53.527 45.2802 53.041 45.2802 52.132C45.2802 51.223 44.2182 50.728 42.4452 50.728C40.6722 50.728 39.6102 51.223 39.6102 52.132C39.6102 53.041 40.6722 53.527 42.4452 53.527ZM40.4202 57.181H45.1632V55.363H39.6732V55.921H44.4342V56.641H39.7002V58.576H45.4062V58H40.4202V57.181ZM38.7912 54.076V54.67H46.0992V54.076H38.7912ZM55.216 56.632H55.963V50.602H55.216V52.492H53.452V53.104H55.216V56.632ZM54.028 54.724C52.867 54.292 52.075 53.23 52.075 52.105V51.079H51.337V52.078C51.337 53.311 50.527 54.454 49.321 54.895L49.708 55.48C50.653 55.102 51.373 54.337 51.715 53.374C52.057 54.247 52.75 54.94 53.641 55.291L54.028 54.724ZM51.508 57.883V55.966H50.77V58.486H56.152V57.883H51.508ZM61.3713 54.247C60.5253 54.418 59.8053 54.463 58.6533 54.463V53.365H60.9663V52.798H58.6533V51.781H61.0563V51.187H57.9423V55.066H58.4553C59.7513 55.066 60.5163 55.03 61.4433 54.841L61.3713 54.247ZM58.9773 56.506H63.6663V58.666H64.4043V55.912H58.9773V56.506ZM63.6933 50.602V52.699H62.6133V50.746H61.9113V55.435H62.6133V53.302H63.6933V55.489H64.4043V50.602H63.6933ZM68.2376 56.254C67.5086 56.254 66.9776 55.732 66.9776 55.012C66.9776 54.283 67.5086 53.761 68.2376 53.761C68.9756 53.761 69.5066 54.283 69.5066 55.012C69.5066 55.732 68.9756 56.254 68.2376 56.254ZM68.2376 53.149C67.1036 53.149 66.2846 53.923 66.2846 55.012C66.2846 56.11 67.1036 56.866 68.2376 56.866C69.3896 56.866 70.2086 56.11 70.2086 55.012C70.2086 53.923 69.3896 53.149 68.2376 53.149ZM68.5976 50.692H67.8596V51.889H65.8256V52.483H70.5866V51.889H68.5976V50.692ZM73.4126 53.914H72.0896V50.602H71.3516V58.666H72.0896V54.535H73.4126V53.914ZM77.0299 52.033H78.9289V51.421H74.4199V52.033H76.2919V53.059C76.2919 54.454 75.3109 55.975 74.1499 56.524L74.5819 57.118C75.4999 56.65 76.2919 55.633 76.6609 54.454C77.0479 55.561 77.8399 56.488 78.7759 56.92L79.1899 56.326C78.0019 55.822 77.0299 54.427 77.0299 53.059V52.033ZM80.0179 50.602V58.666H80.7559V50.602H80.0179ZM85.5346 52.915C85.5346 52.177 86.1196 51.655 86.9026 51.655C87.6766 51.655 88.2616 52.177 88.2616 52.915C88.2616 53.653 87.6766 54.175 86.9026 54.175C86.1196 54.175 85.5346 53.653 85.5346 52.915ZM88.9816 52.915C88.9816 51.817 88.0996 51.052 86.9026 51.052C85.6966 51.052 84.8146 51.817 84.8146 52.915C84.8146 54.013 85.6966 54.778 86.9026 54.778C88.0996 54.778 88.9816 54.013 88.9816 52.915ZM86.2276 55.489H85.5076V58.459H85.8946C86.4436 58.459 87.1996 58.414 87.9646 58.162L87.8476 57.577C87.2896 57.757 86.6956 57.829 86.2276 57.847V55.489ZM89.7016 58.135C89.2066 58.135 88.8646 57.883 88.8646 57.514C88.8646 57.145 89.2066 56.902 89.7016 56.902C90.1876 56.902 90.5386 57.145 90.5386 57.514C90.5386 57.883 90.1876 58.135 89.7016 58.135ZM89.7016 56.38C88.8286 56.38 88.2076 56.821 88.2076 57.514C88.2076 58.216 88.8286 58.657 89.7016 58.657C90.5746 58.657 91.1956 58.216 91.1956 57.514C91.1956 56.821 90.5746 56.38 89.7016 56.38ZM90.0616 54.814H89.3416V55.543H87.6676V56.092H91.7266V55.543H90.0616V54.814ZM90.9256 52.402V50.593H90.1876V54.616H90.9256V53.014H92.1226V52.402H90.9256ZM99.4119 53.023H94.6599V50.89H93.9219V53.626H99.4119V53.023ZM94.6059 56.11H93.8679V58.468H99.4569V57.865H94.6059V56.11ZM92.9319 54.706V55.3H100.249V54.706H92.9319ZM109.321 50.593V58.684H110.059V50.593H109.321ZM105.802 51.214C104.605 51.214 103.75 52.312 103.75 54.031C103.75 55.75 104.605 56.848 105.802 56.848C106.999 56.848 107.854 55.75 107.854 54.031C107.854 52.312 106.999 51.214 105.802 51.214ZM105.802 51.88C106.585 51.88 107.143 52.726 107.143 54.031C107.143 55.345 106.585 56.191 105.802 56.191C105.01 56.191 104.452 55.345 104.452 54.031C104.452 52.726 105.01 51.88 105.802 51.88ZM116.394 54.391C115.233 53.995 114.441 52.987 114.441 51.898V51.007H113.703V51.835C113.703 53.068 112.92 54.166 111.696 54.607L112.083 55.192C113.028 54.832 113.748 54.094 114.081 53.149C114.441 53.977 115.134 54.643 116.007 54.967L116.394 54.391ZM115.431 58.081C114.234 58.081 113.505 57.748 113.505 57.19C113.505 56.623 114.234 56.29 115.431 56.29C116.619 56.29 117.348 56.623 117.348 57.19C117.348 57.748 116.619 58.081 115.431 58.081ZM115.431 55.714C113.784 55.714 112.767 56.245 112.767 57.19C112.767 58.126 113.784 58.657 115.431 58.657C117.069 58.657 118.086 58.126 118.086 57.19C118.086 56.245 117.069 55.714 115.431 55.714ZM117.996 52.681V50.602H117.258V55.489H117.996V53.293H119.193V52.681H117.996ZM126.906 54.391C125.745 53.995 124.953 52.987 124.953 51.898V51.007H124.215V51.835C124.215 53.068 123.432 54.166 122.208 54.607L122.595 55.192C123.54 54.832 124.26 54.094 124.593 53.149C124.953 53.977 125.646 54.643 126.519 54.967L126.906 54.391ZM125.943 58.081C124.746 58.081 124.017 57.748 124.017 57.19C124.017 56.623 124.746 56.29 125.943 56.29C127.131 56.29 127.86 56.623 127.86 57.19C127.86 57.748 127.131 58.081 125.943 58.081ZM125.943 55.714C124.296 55.714 123.279 56.245 123.279 57.19C123.279 58.126 124.296 58.657 125.943 58.657C127.581 58.657 128.598 58.126 128.598 57.19C128.598 56.245 127.581 55.714 125.943 55.714ZM128.508 52.681V50.602H127.77V55.489H128.508V53.293H129.705V52.681H128.508ZM131.54 52.177H133.817V51.574H130.811V56.677H131.342C132.548 56.677 133.367 56.641 134.33 56.434L134.267 55.822C133.385 56.011 132.62 56.056 131.54 56.065V52.177ZM136.67 50.593V53.833H135.527V50.773H134.834V58.261H135.527V54.436H136.67V58.666H137.381V50.593H136.67ZM142.15 54.229H139.864V52.897H142.15V54.229ZM142.87 51.106H142.15V52.321H139.864V51.106H139.135V54.823H142.87V51.106ZM142.501 58.081C141.295 58.081 140.575 57.739 140.575 57.163C140.575 56.587 141.295 56.254 142.501 56.254C143.689 56.254 144.418 56.587 144.418 57.163C144.418 57.739 143.689 58.081 142.501 58.081ZM142.501 55.66C140.854 55.66 139.837 56.209 139.837 57.163C139.837 58.117 140.854 58.666 142.501 58.666C144.139 58.666 145.156 58.117 145.156 57.163C145.156 56.209 144.139 55.66 142.501 55.66ZM145.066 52.627V50.593H144.328V55.453H145.066V53.239H146.263V52.627H145.066ZM150.726 51.466C151.995 51.466 152.805 51.844 152.805 52.483C152.805 53.122 151.995 53.491 150.726 53.491C149.457 53.491 148.647 53.122 148.647 52.483C148.647 51.844 149.457 51.466 150.726 51.466ZM150.726 54.085C152.454 54.085 153.561 53.491 153.561 52.483C153.561 51.475 152.454 50.872 150.726 50.872C148.998 50.872 147.891 51.475 147.891 52.483C147.891 53.491 148.998 54.085 150.726 54.085ZM148.755 56.146H148.017V58.486H153.57V57.883H148.755V56.146ZM147.072 54.841V55.435H154.371V54.841H147.072ZM162.714 51.583H160.635V50.593H159.897V51.583H157.809V52.177H162.714V51.583ZM159.024 54.13C159.024 53.563 159.528 53.203 160.266 53.203C160.995 53.203 161.499 53.563 161.499 54.13C161.499 54.688 160.995 55.048 160.266 55.048C159.528 55.048 159.024 54.688 159.024 54.13ZM160.635 55.606C161.589 55.489 162.201 54.931 162.201 54.13C162.201 53.221 161.418 52.636 160.266 52.636C159.114 52.636 158.322 53.221 158.322 54.13C158.322 54.94 158.943 55.498 159.897 55.615V56.479C159.096 56.506 158.322 56.515 157.638 56.515L157.746 57.136C159.231 57.136 161.175 57.109 162.975 56.812L162.921 56.263C162.183 56.362 161.4 56.416 160.635 56.452V55.606ZM163.434 50.593V58.666H164.172V50.593H163.434ZM170.103 55.363V55.912H171.741V56.74H172.479V50.593H171.741V55.363H170.103ZM168.456 51.466C169.221 51.466 169.743 51.808 169.743 52.321C169.743 52.843 169.221 53.185 168.456 53.185C167.691 53.185 167.169 52.843 167.169 52.321C167.169 51.808 167.691 51.466 168.456 51.466ZM168.456 53.734C169.635 53.734 170.445 53.185 170.445 52.321C170.445 51.475 169.635 50.917 168.456 50.917C167.277 50.917 166.467 51.475 166.467 52.321C166.467 53.185 167.277 53.734 168.456 53.734ZM168.168 56.452H168.906V54.859C169.635 54.814 170.382 54.733 171.093 54.625L171.03 54.094C169.32 54.31 167.322 54.328 165.828 54.328L165.927 54.94C166.593 54.94 167.367 54.931 168.168 54.895V56.452ZM167.718 57.883V56.137H166.98V58.486H172.686V57.883H167.718ZM179.156 53.572C177.887 53.833 176.708 53.932 175.385 53.932V51.061H174.647V54.553H175.304C176.699 54.553 177.914 54.454 179.255 54.184L179.156 53.572ZM176.267 56.137H180.047V57.955H176.267V56.137ZM175.547 58.549H180.767V55.552H175.547V58.549ZM180.029 50.584V55.165H180.767V50.584H180.029ZM188.299 50.593V58.684H189.037V50.593H188.299ZM184.78 51.214C183.583 51.214 182.728 52.312 182.728 54.031C182.728 55.75 183.583 56.848 184.78 56.848C185.977 56.848 186.832 55.75 186.832 54.031C186.832 52.312 185.977 51.214 184.78 51.214ZM184.78 51.88C185.563 51.88 186.121 52.726 186.121 54.031C186.121 55.345 185.563 56.191 184.78 56.191C183.988 56.191 183.43 55.345 183.43 54.031C183.43 52.726 183.988 51.88 184.78 51.88ZM195.472 55.12C195.805 55.201 196.192 55.246 196.588 55.246C196.993 55.246 197.38 55.201 197.722 55.12V57.019H195.472V55.12ZM196.588 51.682C197.884 51.682 198.82 52.276 198.82 53.176C198.82 54.076 197.884 54.67 196.588 54.67C195.292 54.67 194.365 54.076 194.365 53.176C194.365 52.276 195.292 51.682 196.588 51.682ZM198.46 57.019V54.832C199.126 54.481 199.522 53.905 199.522 53.176C199.522 51.916 198.307 51.106 196.588 51.106C194.878 51.106 193.654 51.916 193.654 53.176C193.654 53.905 194.059 54.49 194.734 54.841V57.019H192.934V57.631H200.269V57.019H198.46ZM205.515 52.888V53.5H207.126V55.489H207.873V50.593H207.126V52.888H205.515ZM206.001 54.571C204.813 54.22 203.976 53.32 203.976 52.312V52.159H205.758V51.565H203.976V50.548H203.238V51.565H201.447V52.159H203.238V52.312C203.238 53.401 202.428 54.382 201.24 54.787L201.6 55.354C202.554 55.039 203.283 54.355 203.625 53.473C203.994 54.256 204.723 54.859 205.65 55.147L206.001 54.571ZM205.2 58.081C203.985 58.081 203.256 57.739 203.256 57.172C203.256 56.614 203.985 56.272 205.2 56.272C206.433 56.272 207.162 56.614 207.162 57.172C207.162 57.739 206.424 58.081 205.2 58.081ZM205.2 55.696C203.544 55.696 202.518 56.236 202.518 57.172C202.518 58.117 203.544 58.657 205.2 58.657C206.874 58.657 207.9 58.117 207.9 57.172C207.9 56.236 206.874 55.696 205.2 55.696ZM213.146 51.286C214.469 51.286 215.225 51.592 215.225 52.132C215.225 52.672 214.469 52.978 213.146 52.978C211.823 52.978 211.067 52.672 211.067 52.132C211.067 51.592 211.823 51.286 213.146 51.286ZM213.146 53.527C214.919 53.527 215.981 53.041 215.981 52.132C215.981 51.223 214.919 50.728 213.146 50.728C211.373 50.728 210.311 51.223 210.311 52.132C210.311 53.041 211.373 53.527 213.146 53.527ZM211.121 57.181H215.864V55.363H210.374V55.921H215.135V56.641H210.401V58.576H216.107V58H211.121V57.181ZM209.492 54.076V54.67H216.8V54.076H209.492ZM224.81 51.331H222.866V50.539H222.128V51.331H220.175V51.889H224.81V51.331ZM221.309 53.383C221.309 52.96 221.768 52.699 222.497 52.699C223.208 52.699 223.676 52.96 223.676 53.383C223.676 53.806 223.208 54.076 222.497 54.076C221.768 54.076 221.309 53.806 221.309 53.383ZM225.053 54.931C224.351 55.039 223.604 55.093 222.866 55.129V54.571C223.793 54.472 224.378 54.04 224.378 53.383C224.378 52.645 223.622 52.186 222.497 52.186C221.354 52.186 220.607 52.645 220.607 53.383C220.607 54.049 221.192 54.481 222.128 54.571V55.156C221.354 55.183 220.616 55.183 219.977 55.183L220.058 55.777C221.471 55.768 223.379 55.759 225.107 55.462L225.053 54.931ZM220.958 57.001H225.53V58.666H226.268V56.416H220.958V57.001ZM227.447 53.041H226.268V50.602H225.53V56.011H226.268V53.653H227.447V53.041ZM234.916 50.602H234.178V56.497H234.916V50.602ZM229.201 53.14C229.201 52.357 229.795 51.799 230.578 51.799C231.379 51.799 231.973 52.357 231.973 53.14C231.973 53.941 231.379 54.499 230.578 54.499C229.795 54.499 229.201 53.941 229.201 53.14ZM232.693 53.14C232.693 51.979 231.784 51.16 230.578 51.16C229.381 51.16 228.481 51.979 228.481 53.14C228.481 54.31 229.381 55.138 230.578 55.138C231.784 55.138 232.693 54.31 232.693 53.14ZM230.461 57.883V55.894H229.723V58.486H235.159V57.883H230.461ZM241.657 53.419H242.674V55.597H243.385V50.602H242.674V52.816H241.657V50.719H240.964V55.471H241.657V53.419ZM240.631 51.52H238.948V50.638H238.219V51.52H236.527V52.105H240.622L240.631 51.52ZM238.588 53.059C239.218 53.059 239.65 53.392 239.65 53.896C239.65 54.4 239.218 54.724 238.588 54.724C237.949 54.724 237.526 54.4 237.526 53.896C237.526 53.392 237.949 53.059 238.588 53.059ZM238.588 55.273C239.605 55.273 240.307 54.724 240.307 53.896C240.307 53.059 239.605 52.51 238.588 52.51C237.571 52.51 236.86 53.059 236.86 53.896C236.86 54.724 237.571 55.273 238.588 55.273ZM242.395 55.831H241.666V56.11C241.666 56.704 241.288 57.478 240.532 57.928C239.785 57.514 239.416 56.794 239.416 56.11V55.831H238.705V56.11C238.705 56.848 238.093 57.676 237.085 58.018L237.427 58.567C238.201 58.288 238.759 57.757 239.056 57.127C239.299 57.784 239.776 58.351 240.55 58.639C241.297 58.333 241.783 57.739 242.026 57.1C242.296 57.757 242.863 58.288 243.673 58.567L244.015 58.018C242.998 57.694 242.395 56.902 242.395 56.11V55.831ZM245.931 51.979H248.946V51.367H245.193V56.668H245.832C247.353 56.668 248.415 56.614 249.648 56.38L249.567 55.768C248.397 55.975 247.362 56.038 245.931 56.038V51.979ZM252.393 53.779H251.061V50.593H250.323V58.684H251.061V54.391H252.393V53.779ZM259.601 53.023H254.849V50.89H254.111V53.626H259.601V53.023ZM254.795 56.11H254.057V58.468H259.646V57.865H254.795V56.11ZM253.121 54.706V55.3H260.438V54.706H253.121ZM266.351 51.295H265.622V52.744C265.622 54.211 264.704 55.759 263.543 56.353L263.984 56.947C264.893 56.461 265.64 55.453 265.991 54.274C266.36 55.381 267.089 56.326 267.944 56.785L268.403 56.2C267.269 55.633 266.351 54.166 266.351 52.744V51.295ZM271.184 53.869H269.852V50.602H269.114V58.666H269.852V54.481H271.184V53.869ZM278.536 50.602H277.798V54.778H278.536V50.602ZM276.808 53.968C275.611 53.572 274.765 52.564 274.765 51.448V50.836H274.027V51.448C274.027 52.618 273.19 53.698 271.975 54.121L272.353 54.697C273.307 54.355 274.054 53.617 274.405 52.69C274.774 53.545 275.512 54.22 276.439 54.544L276.808 53.968ZM274.063 57.991V57.127H278.545V55.183H273.316V55.759H277.816V56.569H273.334V58.576H278.815V57.991H274.063ZM283.846 51.286C285.169 51.286 285.925 51.592 285.925 52.132C285.925 52.672 285.169 52.978 283.846 52.978C282.523 52.978 281.767 52.672 281.767 52.132C281.767 51.592 282.523 51.286 283.846 51.286ZM283.846 53.527C285.619 53.527 286.681 53.041 286.681 52.132C286.681 51.223 285.619 50.728 283.846 50.728C282.073 50.728 281.011 51.223 281.011 52.132C281.011 53.041 282.073 53.527 283.846 53.527ZM281.821 57.181H286.564V55.363H281.074V55.921H285.835V56.641H281.101V58.576H286.807V58H281.821V57.181ZM280.192 54.076V54.67H287.5V54.076H280.192ZM129.093 70.672C129.093 69.979 129.669 69.475 130.452 69.475C131.244 69.475 131.82 69.979 131.82 70.672C131.82 71.383 131.244 71.878 130.452 71.878C129.669 71.878 129.093 71.383 129.093 70.672ZM132.54 70.672C132.54 69.619 131.667 68.881 130.452 68.881C129.246 68.881 128.373 69.619 128.373 70.672C128.373 71.743 129.246 72.481 130.452 72.481C131.667 72.481 132.54 71.743 132.54 70.672ZM130.101 75.064H134.484V73.084H129.354V73.669H133.755V74.515H129.381V76.558H134.781V75.964H130.101V75.064ZM134.484 70.33V68.593H133.746V72.706H134.484V70.942H135.681V70.33H134.484ZM145.68 71.671C144.213 71.455 142.773 70.456 142.773 69.331V68.881H141.999V69.331C141.999 70.483 140.577 71.455 139.11 71.671L139.407 72.265C140.667 72.049 141.882 71.356 142.386 70.375C142.908 71.347 144.123 72.049 145.374 72.265L145.68 71.671ZM146.031 73.138H138.741V73.75H141.999V76.675H142.737V73.75H146.04L146.031 73.138ZM152.277 75.982H150.855V74.893H152.277V75.982ZM152.277 74.344H150.855V73.327H150.162V76.558H152.961V73.327H152.277V74.344ZM151.449 72.058C150.648 72.058 150.072 71.536 150.072 70.807C150.072 70.078 150.648 69.565 151.449 69.565C152.25 69.565 152.826 70.078 152.826 70.807C152.826 71.536 152.25 72.058 151.449 72.058ZM155.148 71.095V72.868H155.895V68.602H155.148V70.492H153.501C153.348 69.565 152.538 68.953 151.449 68.953C150.243 68.953 149.37 69.7 149.37 70.807C149.37 71.914 150.243 72.67 151.449 72.67C152.556 72.67 153.366 72.04 153.51 71.095H155.148ZM155.247 73.273H154.527V73.957C154.527 74.785 154.023 75.658 153.06 76.072L153.438 76.63C154.14 76.324 154.626 75.766 154.887 75.109C155.13 75.775 155.616 76.324 156.345 76.63L156.714 76.072C155.751 75.694 155.247 74.812 155.247 73.957V73.273ZM164.408 71.113C162.977 70.933 161.555 70.042 161.555 69.043V68.683H160.799V69.043C160.799 70.069 159.386 70.933 157.937 71.113L158.207 71.707C159.467 71.509 160.673 70.879 161.177 69.979C161.69 70.879 162.887 71.509 164.138 71.707L164.408 71.113ZM163.139 75.964H159.17V74.938H163.139V75.964ZM163.139 74.371H159.17V73.426H158.441V76.558H163.868V73.426H163.139V74.371ZM157.514 72.274V72.868H164.822V72.274H157.514ZM167.044 69.376H166.306V74.578H166.972C168.259 74.578 169.528 74.488 170.932 74.2L170.851 73.57C169.51 73.84 168.259 73.948 167.044 73.948V69.376ZM171.679 68.593V76.657H172.417V68.593H171.679ZM175.161 69.979H178.176V69.367H174.423V74.668H175.062C176.583 74.668 177.645 74.614 178.878 74.38L178.797 73.768C177.627 73.975 176.592 74.038 175.161 74.038V69.979ZM181.623 71.779H180.291V68.593H179.553V76.684H180.291V72.391H181.623V71.779ZM182.517 75.5693C182.517 75.4316 182.559 75.3159 182.644 75.2222C182.732 75.1255 182.858 75.0771 183.022 75.0771C183.186 75.0771 183.311 75.1255 183.396 75.2222C183.483 75.3159 183.527 75.4316 183.527 75.5693C183.527 75.7041 183.483 75.8184 183.396 75.9121C183.311 76.0059 183.186 76.0527 183.022 76.0527C182.858 76.0527 182.732 76.0059 182.644 75.9121C182.559 75.8184 182.517 75.7041 182.517 75.5693Z" fill="white"/>
<path d="M27.5608 4.204H25.0408V3.016H23.4568V4.204H20.9248V5.44H27.5608V4.204ZM23.0128 7.948C23.0128 7.384 23.5168 7.072 24.2488 7.072C24.9928 7.072 25.4848 7.384 25.4848 7.948C25.4848 8.524 24.9928 8.836 24.2488 8.836C23.5168 8.836 23.0128 8.524 23.0128 7.948ZM25.0408 9.952C26.2168 9.724 26.9848 8.98 26.9848 7.948C26.9848 6.712 25.8568 5.872 24.2488 5.872C22.6288 5.872 21.5008 6.712 21.5008 7.948C21.5008 8.98 22.2688 9.724 23.4568 9.952V10.888C22.4728 10.912 21.5368 10.912 20.7088 10.912L20.9008 12.196C22.8568 12.196 25.4128 12.184 27.8248 11.74L27.7048 10.588C26.8408 10.708 25.9408 10.768 25.0408 10.828V9.952ZM28.2808 2.98V14.032H29.8648V2.98H28.2808ZM37.3279 9.4V10.48H39.4039V11.356H40.9879V2.98H39.4039V9.4H37.3279ZM35.2039 4.504C35.9359 4.504 36.4519 4.792 36.4519 5.332C36.4519 5.872 35.9359 6.148 35.2039 6.148C34.4599 6.148 33.9439 5.872 33.9439 5.332C33.9439 4.792 34.4599 4.504 35.2039 4.504ZM35.2039 7.3C36.8119 7.3 37.9519 6.508 37.9519 5.332C37.9519 4.156 36.8119 3.352 35.2039 3.352C33.5839 3.352 32.4559 4.156 32.4559 5.332C32.4559 6.508 33.5839 7.3 35.2039 7.3ZM34.6159 12.58V11.068H36.1399V8.98C37.0279 8.908 37.9159 8.812 38.7799 8.668L38.6719 7.54C36.3439 7.84 33.6559 7.864 31.6399 7.876L31.8439 9.136C32.6719 9.136 33.5959 9.124 34.5679 9.076V10.552H33.0319V13.84H41.2279V12.58H34.6159ZM49.4109 6.88C47.9589 7.204 46.5669 7.312 44.9229 7.336V3.616H43.3509V8.644H44.3109C46.2909 8.644 47.9109 8.524 49.6029 8.164L49.4109 6.88ZM46.1109 10.876H50.3469V12.664H46.1109V10.876ZM44.5509 13.9H51.8949V9.628H44.5509V13.9ZM50.3109 2.968V9.16H51.8949V2.968H50.3109ZM56.25 10.3C55.65 10.3 55.29 9.472 55.29 7.768C55.29 6.076 55.65 5.248 56.25 5.248C56.862 5.248 57.21 6.076 57.21 7.768C57.21 9.472 56.862 10.3 56.25 10.3ZM59.502 7.048H58.626C58.446 4.984 57.558 3.76 56.25 3.76C54.786 3.76 53.862 5.272 53.862 7.768C53.862 10.276 54.786 11.788 56.25 11.788C57.594 11.788 58.494 10.492 58.638 8.332H59.502V13.54H60.978V3.16H59.502V7.048ZM61.746 2.968V14.02H63.246V2.968H61.746ZM70.4811 7.204H69.2451C69.5091 6.304 69.6051 5.332 69.6051 4.288H65.2731V5.548H68.0331C67.8411 7.708 66.8691 9.304 64.6611 10.624L65.5611 11.74C67.1211 10.828 68.1291 9.736 68.7531 8.476H70.4811V13.54H71.9571V3.22H70.4811V7.204ZM72.8091 2.968V14.02H74.3091V2.968H72.8091ZM85.0247 10.036H83.6087V5.356H85.0247V10.036ZM87.5567 6.988H86.4887V4.108H82.1327V11.272H86.4887V8.272H87.5567V13.528H89.0327V3.148H87.5567V6.988ZM89.8007 2.968V14.02H91.3007V2.968H89.8007ZM97.1438 3.832H95.5598V5.44C95.5598 7.588 94.6478 9.724 92.7158 10.552L93.6638 11.86C94.9838 11.236 95.8838 10.048 96.3758 8.572C96.8678 9.928 97.7198 11.02 98.9918 11.596L99.8918 10.312C98.0198 9.508 97.1438 7.492 97.1438 5.44V3.832ZM100.432 2.968V14.056H102.016V2.968H100.432ZM108.171 5.344H110.451V4.036H104.259V5.344H106.563V5.956C106.563 7.84 105.663 9.868 103.815 10.696L104.715 11.956C106.011 11.368 106.899 10.156 107.391 8.716C107.883 10.048 108.759 11.128 110.043 11.68L110.907 10.432C109.059 9.664 108.171 7.756 108.171 5.956V5.344ZM111.471 2.98V14.032H113.055V2.98H111.471ZM122.162 4.78H116.186V7.42H123.914V6.352H117.746V5.776H123.722V3.172H116.162V4.24H122.162V4.78ZM117.65 12.268H123.758V9.64H116.066V10.708H122.186V11.272H116.078V13.936H124.058V12.868H117.65V12.268ZM114.938 7.948V9.088H124.946V7.948H114.938ZM131.593 6.628H136.321V8.176H131.593V6.628ZM134.749 11.464V9.436H137.881V3.664H136.321V5.38H131.593V3.664H130.021V9.436H133.165V11.464H128.965V12.748H138.973V11.464H134.749ZM146.988 6.448H147.924V8.584H149.424V2.992H147.924V5.188H146.988V3.184H145.512V8.548H146.988V6.448ZM144.852 6.664C143.844 6.844 142.968 6.916 142.02 6.928V3.58H140.448V8.224H141.192C142.536 8.224 143.676 8.176 144.984 7.924L144.852 6.664ZM143.52 12.676V11.98H149.424V8.98H141.912V10.204H147.84V10.84H141.936V13.9H149.772V12.676H143.52ZM163.668 6.904C161.16 6.556 159.888 5.116 159.888 3.832V3.304H158.196V3.832C158.196 5.128 156.936 6.556 154.416 6.904L155.016 8.176C156.948 7.888 158.34 6.988 159.048 5.8C159.756 6.988 161.136 7.888 163.068 8.176L163.668 6.904ZM164.028 8.992H154.044V10.276H158.208V14.044H159.792V10.276H164.028V8.992ZM177.239 2.98H175.643V9.232H177.239V2.98ZM171.215 4.864C172.055 4.864 172.679 5.368 172.679 6.196C172.679 7.024 172.055 7.528 171.215 7.528C170.375 7.528 169.763 7.024 169.763 6.196C169.763 5.368 170.375 4.864 171.215 4.864ZM171.215 8.848C172.943 8.848 174.227 7.744 174.227 6.196C174.227 4.648 172.943 3.544 171.215 3.544C169.511 3.544 168.215 4.648 168.215 6.196C168.215 7.744 169.511 8.848 171.215 8.848ZM176.123 9.688H174.563V10.06C174.563 10.876 174.191 11.8 173.303 12.46C172.427 11.848 172.079 10.936 172.079 10.06V9.688H170.543V10.06C170.543 11.128 169.943 12.22 168.479 12.712L169.259 13.864C170.255 13.504 170.927 12.856 171.311 12.052C171.671 12.892 172.307 13.612 173.315 13.984C174.323 13.588 174.959 12.856 175.319 12.016C175.691 12.856 176.375 13.516 177.419 13.864L178.187 12.712C176.723 12.268 176.123 11.2 176.123 10.06V9.688ZM184.882 11.488V9.184H188.038V7.912H181.858V5.008H187.954V3.736H180.262V9.184H183.298V11.488H179.098V12.784H189.106V11.488H184.882ZM191.241 12.028H197.409V13.996H198.993V10.78H191.241V12.028ZM195.933 8.896V8.104H199.149V6.904H192.945V6.184H198.921V3.196H191.361V4.396H197.361V5.068H191.385V8.104H194.349V8.896H190.137V10.156H200.145V8.896H195.933ZM210.608 4.612H208.196V3.172H206.612V4.612H204.164V5.896H210.608V4.612ZM207.392 10.444C206.72 10.444 206.204 9.952 206.204 9.136C206.204 8.32 206.72 7.828 207.392 7.828C208.076 7.828 208.604 8.32 208.604 9.136C208.604 9.952 208.076 10.444 207.392 10.444ZM207.392 6.496C205.88 6.496 204.74 7.612 204.74 9.136C204.74 10.66 205.88 11.776 207.392 11.776C208.916 11.776 210.056 10.66 210.056 9.136C210.056 7.612 208.916 6.496 207.392 6.496ZM211.856 2.98V7.324H210.404V8.608H211.856V14.032H213.44V2.98H211.856ZM220.172 12.844C218.696 12.844 217.94 12.592 217.94 12.028C217.94 11.464 218.696 11.224 220.172 11.224C221.648 11.224 222.404 11.464 222.404 12.028C222.404 12.592 221.648 12.844 220.172 12.844ZM220.172 10.024C217.784 10.024 216.344 10.744 216.344 12.028C216.344 13.312 217.784 14.044 220.172 14.044C222.56 14.044 224.012 13.312 224.012 12.028C224.012 10.744 222.56 10.024 220.172 10.024ZM219.032 7.3C219.392 7.348 219.776 7.372 220.196 7.372C220.604 7.372 220.988 7.348 221.336 7.312V8.224H219.032V7.3ZM220.196 4.348C221.708 4.348 222.572 4.648 222.572 5.272C222.572 5.872 221.708 6.184 220.196 6.184C218.696 6.184 217.832 5.872 217.832 5.272C217.832 4.648 218.696 4.348 220.196 4.348ZM222.92 8.224V6.904C223.736 6.544 224.204 5.992 224.204 5.272C224.204 3.952 222.644 3.148 220.196 3.148C217.76 3.148 216.2 3.952 216.2 5.272C216.2 5.98 216.656 6.532 217.448 6.892V8.224H215.204V9.472H225.188V8.224H222.92ZM229.435 10.48C228.691 10.48 228.139 9.976 228.139 9.136C228.139 8.296 228.691 7.78 229.435 7.78C230.179 7.78 230.719 8.296 230.719 9.124C230.719 9.976 230.179 10.48 229.435 10.48ZM229.435 6.496C227.827 6.496 226.627 7.588 226.627 9.124C226.627 10.684 227.827 11.776 229.435 11.776C231.031 11.776 232.219 10.684 232.219 9.124C232.219 7.588 231.031 6.496 229.435 6.496ZM230.215 3.172H228.631V4.612H226.183V5.872H232.615V4.612H230.215V3.172ZM236.503 7.3H234.919V2.98H233.335V14.032H234.919V8.608H236.503V7.3ZM241.566 3.832H239.982V5.44C239.982 7.588 239.07 9.724 237.138 10.552L238.086 11.86C239.406 11.236 240.306 10.048 240.798 8.572C241.29 9.928 242.142 11.02 243.414 11.596L244.314 10.312C242.442 9.508 241.566 7.492 241.566 5.44V3.832ZM244.854 2.968V14.056H246.438V2.968H244.854ZM257.741 2.98H256.241V9.268H257.741V2.98ZM249.101 9.592C250.577 8.968 251.633 8.152 252.281 7.12H253.985V9.124H255.461V3.184H253.985V5.86H252.869C253.061 5.224 253.157 4.516 253.157 3.736H248.885V5.008H251.501C251.285 6.52 250.313 7.648 248.321 8.44L249.101 9.592ZM256.445 9.616H254.873V10.096C254.873 10.912 254.513 11.872 253.625 12.52C252.749 11.908 252.401 10.984 252.401 10.096V9.616H250.865V10.096C250.865 11.188 250.265 12.292 248.813 12.784L249.581 13.948C250.589 13.588 251.249 12.928 251.633 12.1C251.993 12.952 252.617 13.672 253.637 14.044C254.621 13.648 255.257 12.916 255.641 12.064C256.013 12.916 256.685 13.588 257.729 13.948L258.509 12.784C257.033 12.34 256.445 11.248 256.445 10.096V9.616ZM268.852 6.076C266.368 5.8 265.168 4.552 265.168 3.436V3.1H263.536V3.436C263.536 4.564 262.336 5.788 259.852 6.076L260.404 7.3C262.288 7.06 263.656 6.292 264.352 5.236C265.06 6.292 266.404 7.072 268.288 7.3L268.852 6.076ZM266.524 12.676H262.096V11.716H266.524V12.676ZM266.524 10.528H262.096V9.604H260.524V13.9H268.084V9.604H266.524V10.528ZM259.36 7.804V9.052H269.344V7.804H259.36ZM272.547 4.024H270.975V11.308H271.959C273.639 11.308 275.475 11.188 277.359 10.792L277.191 9.472C275.571 9.796 273.999 9.916 272.547 9.952V4.024ZM278.043 2.968V14.02H279.627V2.968H278.043ZM281.702 4.108V5.38H283.19C283.106 7.6 282.674 9.196 281.21 10.816L282.446 11.716C284.414 9.532 284.69 7.156 284.69 4.108H281.702ZM285.074 4.108V5.38H286.25C286.166 7.84 285.77 9.688 284.306 11.536L285.554 12.412C287.486 10.024 287.738 7.3 287.738 4.108H285.074ZM291.65 7.3H290.222V2.968H288.626V14.02H290.222V8.608H291.65V7.3ZM295.412 10.4395H294.012C294.016 10.084 294.045 9.7793 294.1 9.52539C294.158 9.27148 294.254 9.04297 294.387 8.83984C294.52 8.63281 294.699 8.42188 294.926 8.20703C295.105 8.03906 295.266 7.88086 295.406 7.73242C295.551 7.58008 295.664 7.42188 295.746 7.25781C295.828 7.08984 295.869 6.90039 295.869 6.68945C295.869 6.45117 295.83 6.25195 295.752 6.0918C295.678 5.93164 295.566 5.81055 295.418 5.72852C295.273 5.64258 295.092 5.59961 294.873 5.59961C294.693 5.59961 294.523 5.63672 294.363 5.71094C294.203 5.78516 294.074 5.90039 293.977 6.05664C293.879 6.20898 293.826 6.4082 293.818 6.6543H292.266C292.277 6.14258 292.398 5.7168 292.629 5.37695C292.859 5.0332 293.17 4.77734 293.561 4.60938C293.951 4.4375 294.389 4.35156 294.873 4.35156C295.408 4.35156 295.865 4.44141 296.244 4.62109C296.627 4.79688 296.918 5.05469 297.117 5.39453C297.32 5.73438 297.422 6.14453 297.422 6.625C297.422 6.96875 297.355 7.27734 297.223 7.55078C297.09 7.82031 296.914 8.07227 296.695 8.30664C296.477 8.54102 296.24 8.77734 295.986 9.01562C295.764 9.21484 295.613 9.42773 295.535 9.6543C295.457 9.88086 295.416 10.1426 295.412 10.4395ZM293.865 12.2617C293.865 12.0273 293.943 11.832 294.1 11.6758C294.26 11.5195 294.475 11.4414 294.744 11.4414C295.014 11.4414 295.227 11.5195 295.383 11.6758C295.543 11.832 295.623 12.0273 295.623 12.2617C295.623 12.4883 295.543 12.6797 295.383 12.8359C295.227 12.9922 295.014 13.0703 294.744 13.0703C294.475 13.0703 294.26 12.9922 294.1 12.8359C293.943 12.6797 293.865 12.4883 293.865 12.2617Z" fill="white"/>
</svg>
