<svg width="57" height="15" viewBox="0 0 57 15" fill="none" xmlns="http://www.w3.org/2000/svg">
<path d="M5.862 1.532V1.788C5.862 5.98 4.63 8.78 0.262 11.084L1.43 12.7C6.742 9.916 7.926 6.092 7.926 1.532H5.862ZM1.142 1.532V3.212H7.158V1.532H1.142ZM6.07 5.164L0.358 5.484L0.63 7.276L6.07 6.78V5.164ZM10.662 0.108V14.924H12.79V0.108H10.662ZM7.91 5.788V7.516H11.782V5.788H7.91ZM18.1808 8.796V14.972H20.3088V8.796H18.1808ZM23.3968 8.796V14.972H25.5248V8.796H23.3968ZM15.1088 8.364V10.06H28.5328V8.364H15.1088ZM16.6608 0.811999V6.78H26.9328V0.811999H16.6608ZM24.8368 2.476V5.1H18.7568V2.476H24.8368ZM40.0835 0.108V14.924H42.2115V0.108H40.0835ZM30.6115 1.516V10.716H32.7235V1.516H30.6115ZM30.6115 9.468V11.276H31.9235C34.1795 11.276 36.6275 11.116 39.1715 10.588L38.9315 8.828C36.4835 9.308 34.0835 9.468 31.9235 9.468H30.6115ZM45.3463 9.852V11.58H46.6263C49.2663 11.58 51.3623 11.516 53.6823 11.148L53.4903 9.468C51.2023 9.804 49.2183 9.852 46.6263 9.852H45.3463ZM45.3463 1.34V10.412H47.4583V3.068H52.8503V1.34H45.3463ZM46.9783 5.452V7.116H52.2263V5.452H46.9783ZM54.7543 0.108V14.924H56.8983V0.108H54.7543Z" fill="white"/>
</svg>
