<svg width="44" height="24" viewBox="0 0 22 12" fill="none" xmlns="http://www.w3.org/2000/svg">
<path d="M2.26277 3.0394C2.26277 2.3674 2.77877 1.9834 3.53477 1.9834C4.29077 1.9834 4.83077 2.3674 4.83077 3.0394C4.83077 3.7114 4.29077 4.0954 3.53477 4.0954C2.77877 4.0954 2.26277 3.7114 2.26277 3.0394ZM6.84677 5.7754C6.05477 5.8954 5.19077 5.9554 4.33877 6.0034V5.2114C5.51477 4.9474 6.29477 4.1194 6.29477 3.0394C6.29477 1.7194 5.14277 0.795398 3.53477 0.795398C1.93877 0.795398 0.786766 1.7194 0.786766 3.0394C0.786766 4.1314 1.57877 4.9594 2.75477 5.2114V6.0634C1.84277 6.0874 0.966766 6.0874 0.210766 6.0874L0.402766 7.3474C2.22677 7.3474 4.71077 7.3114 6.94277 6.8914L6.84677 5.7754ZM3.23477 8.0674H1.65077V11.2114H9.37877V9.9514H3.23477V8.0674ZM9.00677 3.8194V0.351398H7.42277V8.7874H9.00677V5.1274H10.3988V3.8194H9.00677ZM15.3778 7.2034H17.3098V8.8954H15.3778V7.2034ZM18.8698 8.8954V7.2034H20.4178V5.9434H14.0098V4.7314H20.1658V1.0594H12.4258V2.3194H18.6058V3.4954H12.4378V7.2034H13.8178V8.8954H11.2738V10.1914H21.2938V8.8954H18.8698Z" fill="white"/>
</svg>
