<svg width="218" height="28" viewBox="0 0 109 14" fill="none" xmlns="http://www.w3.org/2000/svg">
<path d="M6.39605 1.906C8.31405 1.906 9.61605 2.606 9.61605 3.712C9.61605 4.818 8.31405 5.532 6.39605 5.532C4.49205 5.532 3.19005 4.818 3.19005 3.712C3.19005 2.606 4.49205 1.906 6.39605 1.906ZM6.39605 6.456C9.01405 6.456 10.792 5.392 10.792 3.712C10.792 2.032 9.01405 0.981999 6.39605 0.981999C3.79205 0.981999 2.01405 2.032 2.01405 3.712C2.01405 5.392 3.79205 6.456 6.39605 6.456ZM12.108 7.632H0.740047V8.57H3.66605V13.036H4.82805V8.57H7.97805V13.036H9.14005V8.57H12.108V7.632ZM17.959 2.704H20.815V1.766H13.969V2.704H16.811V4.16C16.811 6.386 15.313 8.766 13.521 9.648L14.193 10.558C15.621 9.802 16.839 8.192 17.385 6.344C17.959 8.08 19.163 9.578 20.563 10.292L21.249 9.396C19.429 8.528 17.959 6.246 17.959 4.16V2.704ZM22.817 0.478V5.042H20.101V5.98H22.817V13.05H23.965V0.478H22.817ZM36.5079 3.782H29.1579V1.822H36.3819V0.897999H28.0099V4.706H36.5079V3.782ZM29.0179 10.698H36.3959V7.744H27.8559V8.64H35.2619V9.844H27.8979V12.882H36.7739V11.986H29.0179V10.698ZM26.4979 5.714V6.652H37.8659V5.714H26.4979ZM42.2188 9.214C41.2108 9.214 40.5808 7.94 40.5808 5.882C40.5808 3.866 41.2108 2.592 42.2188 2.592C43.1988 2.592 43.8428 3.866 43.8428 5.882C43.8428 7.94 43.1988 9.214 42.2188 9.214ZM46.4608 5.364H44.8788C44.7388 2.998 43.7308 1.528 42.2188 1.528C40.5808 1.528 39.5308 3.208 39.5308 5.882C39.5308 8.598 40.5808 10.278 42.2188 10.278C43.7588 10.278 44.7808 8.766 44.8788 6.302H46.4608V12.42H47.5528V0.758H46.4608V5.364ZM48.9528 0.478V13.036H50.0448V0.478H48.9528ZM59.2137 5.616H57.0437C57.4637 4.496 57.6457 3.306 57.6457 2.074H52.8017V3.012H56.5117C56.3017 5.644 54.9577 7.898 52.2697 9.508L52.9417 10.334C54.6777 9.298 55.8817 7.996 56.6377 6.54H59.2137V12.406H60.3057V0.814H59.2137V5.616ZM61.8317 0.478V13.036H62.9237V0.478H61.8317ZM76.0689 2.018H72.9329V0.478H71.7849V2.018H68.6629V2.942H76.0689V2.018ZM70.4549 5.966C70.4549 5.098 71.2249 4.538 72.3589 4.538C73.4929 4.538 74.2769 5.098 74.2769 5.966C74.2769 6.848 73.4929 7.408 72.3589 7.408C71.2249 7.408 70.4549 6.848 70.4549 5.966ZM75.3689 5.966C75.3689 4.566 74.1369 3.642 72.3589 3.642C70.5809 3.642 69.3629 4.566 69.3629 5.966C69.3629 7.38 70.5809 8.304 72.3589 8.304C74.1369 8.304 75.3689 7.38 75.3689 5.966ZM71.7009 9.158H70.5529V12.756H78.9249V11.818H71.7009V9.158ZM78.3649 4.622V0.478H77.2169V9.9H78.3649V5.588H80.2129V4.622H78.3649ZM86.6101 2.662H90.1241V8.92H86.6101V2.662ZM85.4901 9.844H91.2441V1.738H85.4901V9.844ZM96.7181 5.49H94.6461V0.492H93.4981V13.036H94.6461V6.456H96.7181V5.49ZM99.811 2.634H104.613V1.668H98.677V9.942H99.685C102.219 9.942 103.857 9.858 105.789 9.508L105.663 8.542C103.815 8.892 102.233 8.962 99.811 8.962V2.634ZM106.993 0.478V13.064H108.141V0.478H106.993Z" fill="white"/>
</svg>
