<svg width="48" height="18" viewBox="0 0 37 14" fill="none" xmlns="http://www.w3.org/2000/svg">
<path d="M8.884 0.422V13.106H10.046V0.422H8.884ZM3.368 1.402C1.506 1.402 0.162 3.124 0.162 5.812C0.162 8.514 1.506 10.236 3.368 10.236C5.244 10.236 6.588 8.514 6.588 5.812C6.588 3.124 5.244 1.402 3.368 1.402ZM3.368 2.452C4.614 2.452 5.468 3.768 5.468 5.812C5.468 7.87 4.614 9.214 3.368 9.214C2.136 9.214 1.268 7.87 1.268 5.812C1.268 3.768 2.136 2.452 3.368 2.452ZM13.0269 1.892V9.704H17.8569V1.892H13.0269ZM16.7649 2.816V8.78H14.1189V2.816H16.7649ZM22.2109 0.436V13.092H23.3309V0.436H22.2109ZM17.2689 5.196V6.162H20.1809V5.196H17.2689ZM19.7049 0.701999V12.462H20.8109V0.701999H19.7049ZM28.9998 0.897999C27.1238 0.897999 25.7378 2.046 25.7378 3.712C25.7378 5.364 27.1238 6.512 28.9998 6.512C30.8898 6.512 32.2758 5.364 32.2758 3.712C32.2758 2.046 30.8898 0.897999 28.9998 0.897999ZM28.9998 1.85C30.2318 1.85 31.1418 2.62 31.1418 3.712C31.1418 4.804 30.2318 5.56 28.9998 5.56C27.7818 5.56 26.8578 4.804 26.8578 3.712C26.8578 2.62 27.7818 1.85 28.9998 1.85ZM34.6558 0.436V6.918H35.8318V0.436H34.6558ZM27.6418 7.534V8.472H34.6838V9.746H27.6698V12.518H28.8038V10.614H35.8318V7.534H27.6418ZM27.6698 12V12.924H36.2518V12H27.6698Z" fill="white"/>
</svg>
