<svg width="248" height="70" viewBox="0 0 124 35" fill="none" xmlns="http://www.w3.org/2000/svg">
<path d="M10.0461 11.5912H11.2081V2.21124H10.0461V5.15124H7.30212V6.10324H10.0461V11.5912ZM8.19812 8.62324C6.39212 7.95124 5.16012 6.29924 5.16012 4.54924V2.95324H4.01212V4.50724C4.01212 6.42524 2.75212 8.20324 0.876117 8.88924L1.47812 9.79924C2.94812 9.21124 4.06812 8.02124 4.60012 6.52324C5.13212 7.88124 6.21012 8.95924 7.59612 9.50524L8.19812 8.62324ZM4.27812 13.5372V10.5552H3.13012V14.4752H11.5021V13.5372H4.27812ZM24.493 4.03124H19.999V2.39324H18.851V4.03124H14.301V4.96924H24.493V4.03124ZM16.457 8.20324C16.457 7.27924 17.591 6.71924 19.425 6.71924C21.231 6.71924 22.351 7.27924 22.351 8.20324C22.351 9.14124 21.231 9.70124 19.425 9.70124C17.591 9.70124 16.457 9.14124 16.457 8.20324ZM19.999 12.3472V10.5832C22.183 10.4432 23.513 9.60324 23.513 8.20324C23.513 6.69124 21.931 5.82324 19.425 5.82324C16.877 5.82324 15.295 6.69124 15.295 8.20324C15.295 9.60324 16.639 10.4572 18.851 10.5832V12.3472H13.741V13.2852H25.123V12.3472H19.999ZM30.3019 11.0032C29.1679 11.0032 28.3419 10.1912 28.3419 9.07124C28.3419 7.93724 29.1679 7.12524 30.3019 7.12524C31.4499 7.12524 32.2759 7.93724 32.2759 9.07124C32.2759 10.1912 31.4499 11.0032 30.3019 11.0032ZM30.3019 6.17324C28.5379 6.17324 27.2639 7.37724 27.2639 9.07124C27.2639 10.7792 28.5379 11.9552 30.3019 11.9552C32.0939 11.9552 33.3679 10.7792 33.3679 9.07124C33.3679 7.37724 32.0939 6.17324 30.3019 6.17324ZM30.8619 2.35124H29.7139V4.21324H26.5499V5.13724H33.9559V4.21324H30.8619V2.35124ZM38.3519 7.36324H36.2939V2.21124H35.1459V14.7552H36.2939V8.32924H38.3519V7.36324ZM49.5648 5.97724H42.1728V2.65924H41.0248V6.91524H49.5648V5.97724ZM42.0888 10.7792H40.9408V14.4472H49.6348V13.5092H42.0888V10.7792ZM39.4848 8.59524V9.51924H50.8668V8.59524H39.4848ZM62.1221 8.27324C60.5401 7.62924 59.5741 6.18724 59.5741 4.73124V4.68924H61.8141V3.76524H59.5741V2.29524H58.4821V3.76524H56.2141V4.68924H58.4821V4.73124C58.4821 6.25724 57.5581 7.82524 55.9621 8.49724L56.5221 9.36524C57.7541 8.83324 58.6361 7.79724 59.0421 6.55124C59.4901 7.68524 60.3581 8.65124 61.5761 9.12724L62.1221 8.27324ZM59.3361 11.1572H65.3421V13.6632H59.3361V11.1572ZM58.2161 14.5872H66.4621V10.2472H58.2161V14.5872ZM65.3561 2.21124V5.41724H63.7741V2.42124H62.6961V9.47724H63.7741V6.35524H65.3561V9.60324H66.4621V2.21124H65.3561ZM75.967 8.74924H72.845V4.38124H75.967V8.74924ZM71.697 8.74924H69.779V9.68724H79.033V8.74924H77.115V4.38124H79.061V3.45724H69.751V4.38124H71.697V8.74924ZM68.743 12.1932V13.1452H80.125V12.1932H68.743Z" fill="white"/>
<path d="M3.55957 24.5708V31.7192H2.65625V25.6987L0.834961 26.3628V25.5474L3.41797 24.5708H3.55957ZM13.775 26.6392C12.215 26.3992 10.635 25.3292 10.635 24.1592V23.7192H9.795V24.1592C9.795 25.3592 8.225 26.4192 6.635 26.6592L6.955 27.2992C8.335 27.0692 9.665 26.3092 10.215 25.2592C10.785 26.2892 12.105 27.0492 13.465 27.2792L13.775 26.6392ZM7.995 29.6792H7.175V32.2592H13.385V31.5892H7.995V29.6792ZM6.135 28.0592V28.7192H9.865V30.5292H10.685V28.7192H14.275V28.0592H6.135ZM18.2942 24.5892C19.1642 24.5892 19.7842 25.0592 19.7842 25.7592C19.7842 26.4592 19.1642 26.9292 18.2942 26.9292C17.4142 26.9292 16.7942 26.4592 16.7942 25.7592C16.7942 25.0592 17.4142 24.5892 18.2942 24.5892ZM18.2942 27.5992C19.6242 27.5992 20.5742 26.8492 20.5742 25.7592C20.5742 24.6592 19.6242 23.9092 18.2942 23.9092C16.9542 23.9092 16.0042 24.6592 16.0042 25.7592C16.0042 26.8492 16.9542 27.5992 18.2942 27.5992ZM21.2442 28.0392C19.2742 28.3392 17.0042 28.3592 15.3342 28.3592L15.4442 29.0492C16.1842 29.0492 17.0342 29.0392 17.9242 28.9992V32.1792H18.7442V28.9492C19.5942 28.8992 20.4642 28.7992 21.3142 28.6492L21.2442 28.0392ZM21.8942 23.4992V32.4692H22.7142V23.4992H21.8942ZM31.5039 27.8292C30.3739 27.3692 29.6839 26.3392 29.6839 25.2992V25.2692H31.2839V24.6092H29.6839V23.5592H28.9039V24.6092H27.2839V25.2692H28.9039V25.2992C28.9039 26.3892 28.2439 27.5092 27.1039 27.9892L27.5039 28.6092C28.3839 28.2292 29.0139 27.4892 29.3039 26.5992C29.6239 27.4092 30.2439 28.0992 31.1139 28.4392L31.5039 27.8292ZM29.5139 29.8892H33.8039V31.6792H29.5139V29.8892ZM28.7139 32.3392H34.6039V29.2392H28.7139V32.3392ZM33.8139 23.4992V25.7892H32.6839V23.6492H31.9139V28.6892H32.6839V26.4592H33.8139V28.7792H34.6039V23.4992H33.8139ZM38.2431 25.1192H39.7431V29.4792C39.2331 29.4992 38.7331 29.5192 38.2431 29.5292V25.1192ZM40.5431 25.1192H41.5331V24.4592H36.4531V25.1192H37.4531V29.5392C37.0231 29.5492 36.6131 29.5492 36.2331 29.5492L36.3231 30.2392C37.9531 30.2292 40.1131 30.2092 42.0431 29.8992L41.9931 29.2992C41.5231 29.3592 41.0331 29.4092 40.5431 29.4292V25.1192ZM42.7731 23.4992V32.4592H43.5931V23.4992H42.7731ZM46.3523 26.2992C46.3523 25.4092 47.0023 24.7792 47.8823 24.7792C48.7523 24.7792 49.4123 25.4092 49.4123 26.2992C49.4123 27.1792 48.7523 27.7892 47.8823 27.7892C47.0023 27.7892 46.3523 27.1792 46.3523 26.2992ZM51.9923 26.6492V30.0992H52.8223V23.4892H51.9923V25.9792H50.1723C50.0223 24.8392 49.0923 24.0592 47.8823 24.0592C46.5623 24.0592 45.5723 24.9892 45.5723 26.2992C45.5723 27.5892 46.5623 28.5092 47.8823 28.5092C49.0823 28.5092 49.9923 27.7492 50.1623 26.6492H51.9923ZM47.9123 31.5892V29.4392H47.0823V32.2592H53.0723V31.5892H47.9123ZM58.6816 24.2592C60.1516 24.2592 60.9916 24.5992 60.9916 25.1992C60.9916 25.7992 60.1516 26.1392 58.6816 26.1392C57.2116 26.1392 56.3716 25.7992 56.3716 25.1992C56.3716 24.5992 57.2116 24.2592 58.6816 24.2592ZM58.6816 26.7492C60.6516 26.7492 61.8316 26.2092 61.8316 25.1992C61.8316 24.1892 60.6516 23.6392 58.6816 23.6392C56.7116 23.6392 55.5316 24.1892 55.5316 25.1992C55.5316 26.2092 56.7116 26.7492 58.6816 26.7492ZM56.4316 30.8092H61.7016V28.7892H55.6016V29.4092H60.8916V30.2092H55.6316V32.3592H61.9716V31.7192H56.4316V30.8092ZM54.6216 27.3592V28.0192H62.7416V27.3592H54.6216ZM72.8713 30.1992H73.7013V23.4992H72.8713V25.5992H70.9113V26.2792H72.8713V30.1992ZM71.5513 28.0792C70.2613 27.5992 69.3813 26.4192 69.3813 25.1692V24.0292H68.5613V25.1392C68.5613 26.5092 67.6613 27.7792 66.3213 28.2692L66.7513 28.9192C67.8013 28.4992 68.6013 27.6492 68.9813 26.5792C69.3613 27.5492 70.1313 28.3192 71.1213 28.7092L71.5513 28.0792ZM68.7513 31.5892V29.4592H67.9313V32.2592H73.9113V31.5892H68.7513ZM79.7105 27.5492C78.7705 27.7392 77.9705 27.7892 76.6905 27.7892V26.5692H79.2605V25.9392H76.6905V24.8092H79.3605V24.1492H75.9005V28.4592H76.4705C77.9105 28.4592 78.7605 28.4192 79.7905 28.2092L79.7105 27.5492ZM77.0505 30.0592H82.2605V32.4592H83.0805V29.3992H77.0505V30.0592ZM82.2905 23.4992V25.8292H81.0905V23.6592H80.3105V28.8692H81.0905V26.4992H82.2905V28.9292H83.0805V23.4992H82.2905ZM86.9297 29.6992C86.2297 29.6992 85.7397 29.1292 85.7397 28.3292C85.7397 27.5492 86.2297 26.9792 86.9297 26.9792C87.6197 26.9792 88.1197 27.5492 88.1197 28.3292C88.1197 29.1292 87.6197 29.6992 86.9297 29.6992ZM86.9297 26.2892C85.8197 26.2892 85.0097 27.1292 85.0097 28.3292C85.0097 29.5492 85.8197 30.3792 86.9297 30.3792C88.0397 30.3792 88.8497 29.5492 88.8497 28.3292C88.8497 27.1292 88.0397 26.2892 86.9297 26.2892ZM87.3297 23.7492H86.5197V25.0192H84.6997V25.6892H89.1497V25.0192H87.3297V23.7492ZM91.5197 23.4792V27.2692H90.3697V23.6892H89.5997V32.0192H90.3697V27.9392H91.5197V32.4492H92.3097V23.4792H91.5197ZM94.7089 27.8492C96.0989 27.6092 97.4189 26.8592 97.9689 25.7992C98.5089 26.8592 99.8389 27.6092 101.229 27.8492L101.549 27.1992C99.9689 26.9692 98.4189 25.9392 98.4189 24.7592V24.7092H101.229V24.0492H94.6789V24.7092H97.5089V24.7592C97.5089 25.9392 95.9589 26.9692 94.3989 27.1992L94.7089 27.8492ZM102.019 28.5992H93.9189V29.2692H97.5389V32.4592H98.3589V29.2692H102.029L102.019 28.5992ZM105.768 24.3392H104.978V26.0492C104.978 27.5892 104.238 29.1992 103.008 29.9192L103.518 30.5292C104.408 29.9792 105.058 28.9692 105.378 27.7792C105.698 28.8692 106.298 29.8192 107.148 30.3392L107.618 29.6992C106.438 28.9792 105.768 27.4592 105.768 26.0192V24.3392ZM108.128 26.7092H106.648V27.3892H108.128V32.0192H108.898V23.6892H108.128V26.7092ZM109.948 23.4892V32.4592H110.728V23.4892H109.948ZM115.117 28.5192C115.487 28.6092 115.917 28.6592 116.357 28.6592C116.807 28.6592 117.237 28.6092 117.617 28.5192V30.6292H115.117V28.5192ZM116.357 24.6992C117.797 24.6992 118.837 25.3592 118.837 26.3592C118.837 27.3592 117.797 28.0192 116.357 28.0192C114.917 28.0192 113.887 27.3592 113.887 26.3592C113.887 25.3592 114.917 24.6992 116.357 24.6992ZM118.437 30.6292V28.1992C119.177 27.8092 119.617 27.1692 119.617 26.3592C119.617 24.9592 118.267 24.0592 116.357 24.0592C114.457 24.0592 113.097 24.9592 113.097 26.3592C113.097 27.1692 113.547 27.8192 114.297 28.2092V30.6292H112.297V31.3092H120.447V30.6292H118.437ZM121.68 31.2407C121.68 31.0877 121.727 30.9591 121.821 30.855C121.919 30.7476 122.059 30.6938 122.241 30.6938C122.424 30.6938 122.562 30.7476 122.656 30.855C122.754 30.9591 122.803 31.0877 122.803 31.2407C122.803 31.3905 122.754 31.5174 122.656 31.6216C122.562 31.7257 122.424 31.7778 122.241 31.7778C122.059 31.7778 121.919 31.7257 121.821 31.6216C121.727 31.5174 121.68 31.3905 121.68 31.2407Z" fill="white" fill-opacity="0.7"/>
</svg>
