<svg width="292" height="70" viewBox="0 0 146 35" fill="none" xmlns="http://www.w3.org/2000/svg">
<path d="M38.1541 10.9821H40.0021V1.4621H38.1541V4.2061H35.7881V5.7041H38.1541V10.9821ZM36.9221 7.6781C34.9061 6.9641 34.0381 5.3261 34.0381 3.6461V2.2461H32.1621V3.6321C32.1621 5.4661 31.2661 7.2581 29.1381 7.9721L30.1041 9.4141C31.6021 8.8681 32.5961 7.8181 33.1421 6.4881C33.6741 7.6781 34.5981 8.6161 35.9421 9.1061L36.9221 7.6781ZM33.3381 12.6621V10.0301H31.4901V14.1321H40.2821V12.6621H33.3381ZM53.245 3.0721H48.835V1.5881H46.987V3.0721H42.605V4.5421H53.245V3.0721ZM45.433 7.6081C45.433 6.8801 46.301 6.5161 47.897 6.5161C49.521 6.5161 50.389 6.8801 50.389 7.6081C50.389 8.3501 49.521 8.6861 47.897 8.6861C46.301 8.6861 45.433 8.3501 45.433 7.6081ZM48.835 11.5701V10.0861C50.977 9.8761 52.279 8.9941 52.279 7.6081C52.279 6.0261 50.599 5.0881 47.897 5.0881C45.223 5.0881 43.529 6.0261 43.529 7.6081C43.529 8.9941 44.845 9.8901 46.987 10.0861V11.5701H42.101V13.0681H53.791V11.5701H48.835ZM58.7039 10.2121C57.8359 10.2121 57.1919 9.6241 57.1919 8.6441C57.1919 7.6641 57.8359 7.0621 58.7039 7.0621C59.5719 7.0621 60.2019 7.6641 60.2019 8.6301C60.2019 9.6241 59.5719 10.2121 58.7039 10.2121ZM58.7039 5.5641C56.8279 5.5641 55.4279 6.8381 55.4279 8.6301C55.4279 10.4501 56.8279 11.7241 58.7039 11.7241C60.5659 11.7241 61.9519 10.4501 61.9519 8.6301C61.9519 6.8381 60.5659 5.5641 58.7039 5.5641ZM59.6139 1.6861H57.7659V3.3661H54.9099V4.8361H62.4139V3.3661H59.6139V1.6861ZM66.9499 6.5021H65.1019V1.4621H63.2539V14.3561H65.1019V8.0281H66.9499V6.5021ZM78.2468 4.9481H71.1488V1.9241H69.3008V6.4181H78.2468V4.9481ZM71.0368 10.2401H69.1748V14.0761H78.3168V12.6061H71.0368V10.2401ZM67.8588 7.7341V9.2181H79.5348V7.7341H67.8588ZM90.6081 7.3141C88.9981 6.7541 88.2841 5.5221 88.2841 4.2481H90.2301V2.7921H88.2841V1.5461H86.5341V2.7921H84.5741V4.2481H86.5341C86.5341 5.6061 85.8481 6.9221 84.2101 7.5381L85.0501 8.8961C86.2261 8.4621 86.9961 7.6501 87.4301 6.6561C87.8921 7.5661 88.6481 8.2941 89.7821 8.6861L90.6081 7.3141ZM88.2981 11.0101H93.4081V12.7601H88.2981V11.0101ZM86.4781 14.2021H95.2141V9.5541H86.4781V14.2021ZM93.4641 1.4621V4.5281H92.4981V1.6721H90.7901V8.9241H92.4981V6.0261H93.4641V8.9941H95.2141V1.4621H93.4641ZM104.229 7.9161H101.597V4.0521H104.229V7.9161ZM99.763 7.9161H98.083V9.3861H107.771V7.9161H106.063V4.0521H107.813V2.5821H98.013V4.0521H99.763V7.9161ZM97.103 11.3601V12.8581H108.779V11.3601H97.103Z" fill="white"/>
<path d="M7.84391 29.6321H8.67391V22.9321H7.84391V25.0321H5.88391V25.7121H7.84391V29.6321ZM6.52391 27.5121C5.23391 27.0321 4.35391 25.8521 4.35391 24.6021V23.4621H3.53391V24.5721C3.53391 25.9421 2.63391 27.2121 1.29391 27.7021L1.72391 28.3521C2.77391 27.9321 3.57391 27.0821 3.95391 26.0121C4.33391 26.9821 5.10391 27.7521 6.09391 28.1421L6.52391 27.5121ZM3.72391 31.0221V28.8921H2.90391V31.6921H8.88391V31.0221H3.72391ZM18.1631 24.2321H14.9531V23.0621H14.1331V24.2321H10.8831V24.9021H18.1631V24.2321ZM12.4231 27.2121C12.4231 26.5521 13.2331 26.1521 14.5431 26.1521C15.8331 26.1521 16.6331 26.5521 16.6331 27.2121C16.6331 27.8821 15.8331 28.2821 14.5431 28.2821C13.2331 28.2821 12.4231 27.8821 12.4231 27.2121ZM14.9531 30.1721V28.9121C16.5131 28.8121 17.4631 28.2121 17.4631 27.2121C17.4631 26.1321 16.3331 25.5121 14.5431 25.5121C12.7231 25.5121 11.5931 26.1321 11.5931 27.2121C11.5931 28.2121 12.5531 28.8221 14.1331 28.9121V30.1721H10.4831V30.8421H18.6131V30.1721H14.9531ZM22.3123 29.2121C21.5023 29.2121 20.9123 28.6321 20.9123 27.8321C20.9123 27.0221 21.5023 26.4421 22.3123 26.4421C23.1323 26.4421 23.7223 27.0221 23.7223 27.8321C23.7223 28.6321 23.1323 29.2121 22.3123 29.2121ZM22.3123 25.7621C21.0523 25.7621 20.1423 26.6221 20.1423 27.8321C20.1423 29.0521 21.0523 29.8921 22.3123 29.8921C23.5923 29.8921 24.5023 29.0521 24.5023 27.8321C24.5023 26.6221 23.5923 25.7621 22.3123 25.7621ZM22.7123 23.0321H21.8923V24.3621H19.6323V25.0221H24.9223V24.3621H22.7123V23.0321ZM28.0623 26.6121H26.5923V22.9321H25.7723V31.8921H26.5923V27.3021H28.0623V26.6121ZM36.0716 25.6221H30.7916V23.2521H29.9716V26.2921H36.0716V25.6221ZM30.7316 29.0521H29.9116V31.6721H36.1216V31.0021H30.7316V29.0521ZM28.8716 27.4921V28.1521H37.0016V27.4921H28.8716ZM45.0312 27.2621C43.9013 26.8021 43.2113 25.7721 43.2113 24.7321V24.7021H44.8113V24.0421H43.2113V22.9921H42.4313V24.0421H40.8113V24.7021H42.4313V24.7321C42.4313 25.8221 41.7713 26.9421 40.6313 27.4221L41.0313 28.0421C41.9113 27.6621 42.5413 26.9221 42.8313 26.0321C43.1513 26.8421 43.7713 27.5321 44.6413 27.8721L45.0312 27.2621ZM43.0413 29.3221H47.3313V31.1121H43.0413V29.3221ZM42.2413 31.7721H48.1313V28.6721H42.2413V31.7721ZM47.3413 22.9321V25.2221H46.2113V23.0821H45.4413V28.1221H46.2113V25.8921H47.3413V28.2121H48.1313V22.9321H47.3413ZM54.9205 27.6021H52.6905V24.4821H54.9205V27.6021ZM51.8705 27.6021H50.5005V28.2721H57.1105V27.6021H55.7405V24.4821H57.1305V23.8221H50.4805V24.4821H51.8705V27.6021ZM49.7605 30.0621V30.7421H57.8905V30.0621H49.7605ZM62.8193 27.1531H63.4639C63.7796 27.1531 64.04 27.101 64.2451 26.9968C64.4535 26.8894 64.6081 26.7445 64.709 26.5623C64.8132 26.3767 64.8652 26.1684 64.8652 25.9373C64.8652 25.6638 64.8197 25.4343 64.7285 25.2488C64.6374 25.0632 64.5007 24.9233 64.3184 24.8289C64.1361 24.7345 63.9049 24.6873 63.625 24.6873C63.3711 24.6873 63.1465 24.7377 62.9512 24.8386C62.7591 24.9363 62.6077 25.0763 62.4971 25.2585C62.3896 25.4408 62.3359 25.6557 62.3359 25.9031H61.4326C61.4326 25.5417 61.5238 25.213 61.7061 24.9167C61.8883 24.6205 62.1439 24.3845 62.4727 24.2087C62.8047 24.033 63.1888 23.9451 63.625 23.9451C64.0547 23.9451 64.4307 24.0216 64.7529 24.1746C65.0752 24.3243 65.3258 24.5489 65.5049 24.8484C65.6839 25.1446 65.7734 25.5141 65.7734 25.9568C65.7734 26.1358 65.7311 26.3279 65.6465 26.533C65.5651 26.7348 65.4365 26.9236 65.2607 27.0994C65.0882 27.2751 64.8636 27.42 64.5869 27.5339C64.3102 27.6446 63.9782 27.7 63.5908 27.7H62.8193V27.1531ZM62.8193 27.8953V27.3533H63.5908C64.0433 27.3533 64.4176 27.407 64.7139 27.5144C65.0101 27.6218 65.2428 27.7651 65.4121 27.9441C65.5846 28.1231 65.7051 28.3201 65.7734 28.5349C65.8451 28.7465 65.8809 28.9581 65.8809 29.1697C65.8809 29.5017 65.8239 29.7963 65.71 30.0535C65.5993 30.3106 65.4414 30.5287 65.2363 30.7078C65.0345 30.8868 64.7969 31.0219 64.5234 31.113C64.25 31.2042 63.9521 31.2498 63.6299 31.2498C63.3206 31.2498 63.0293 31.2058 62.7559 31.1179C62.4857 31.03 62.2464 30.9031 62.0381 30.7371C61.8298 30.5678 61.667 30.3611 61.5498 30.1169C61.4326 29.8695 61.374 29.588 61.374 29.2722H62.2773C62.2773 29.5196 62.3311 29.7361 62.4385 29.9216C62.5492 30.1072 62.7054 30.252 62.9072 30.3562C63.1123 30.4571 63.3532 30.5076 63.6299 30.5076C63.9066 30.5076 64.1442 30.4604 64.3428 30.366C64.5446 30.2683 64.6992 30.1218 64.8066 29.9265C64.9173 29.7312 64.9727 29.4854 64.9727 29.1892C64.9727 28.893 64.9108 28.6505 64.7871 28.4617C64.6634 28.2696 64.4876 28.128 64.2598 28.0369C64.0352 27.9425 63.7699 27.8953 63.4639 27.8953H62.8193ZM67.4052 24.0821V24.7521H70.0952C69.9752 26.6121 69.1252 28.2321 67.0652 29.3821L67.5452 29.9721C70.0952 28.5321 70.9052 26.3921 70.9052 24.0821H67.4052ZM73.8852 22.9221V26.5321H72.6652V23.1621H71.8952V31.4421H72.6652V27.2021H73.8852V31.8921H74.6752V22.9221H73.8852ZM82.5444 24.4921H77.3044V26.4121H83.5144V25.8221H78.1144V25.0521H83.3544V23.1821H77.2844V23.7621H82.5444V24.4921ZM78.0644 30.3521H83.3844V28.4421H77.2344V29.0321H82.5744V29.7821H77.2544V31.7721H83.6644V31.1821H78.0644V30.3521ZM76.2644 27.0921V27.7121H84.3944V27.0921H76.2644ZM94.5041 29.6321H95.3341V22.9321H94.5041V25.0321H92.5441V25.7121H94.5041V29.6321ZM93.1841 27.5121C91.8941 27.0321 91.0141 25.8521 91.0141 24.6021V23.4621H90.1941V24.5721C90.1941 25.9421 89.2941 27.2121 87.9541 27.7021L88.3841 28.3521C89.4341 27.9321 90.2341 27.0821 90.6141 26.0121C90.9941 26.9821 91.7641 27.7521 92.7541 28.1421L93.1841 27.5121ZM90.3841 31.0221V28.8921H89.5641V31.6921H95.5441V31.0221H90.3841ZM101.343 26.9821C100.403 27.1721 99.6033 27.2221 98.3233 27.2221V26.0021H100.893V25.3721H98.3233V24.2421H100.993V23.5821H97.5333V27.8921H98.1033C99.5433 27.8921 100.393 27.8521 101.423 27.6421L101.343 26.9821ZM98.6833 29.4921H103.893V31.8921H104.713V28.8321H98.6833V29.4921ZM103.923 22.9321V25.2621H102.723V23.0921H101.943V28.3021H102.723V25.9321H103.923V28.3621H104.713V22.9321H103.923ZM108.563 29.1321C107.863 29.1321 107.373 28.5621 107.373 27.7621C107.373 26.9821 107.863 26.4121 108.563 26.4121C109.253 26.4121 109.753 26.9821 109.753 27.7621C109.753 28.5621 109.253 29.1321 108.563 29.1321ZM108.563 25.7221C107.453 25.7221 106.643 26.5621 106.643 27.7621C106.643 28.9821 107.453 29.8121 108.563 29.8121C109.673 29.8121 110.483 28.9821 110.483 27.7621C110.483 26.5621 109.673 25.7221 108.563 25.7221ZM108.963 23.1821H108.153V24.4521H106.333V25.1221H110.783V24.4521H108.963V23.1821ZM113.153 22.9121V26.7021H112.003V23.1221H111.233V31.4521H112.003V27.3721H113.153V31.8821H113.943V22.9121H113.153ZM116.342 27.2821C117.732 27.0421 119.052 26.2921 119.602 25.2321C120.142 26.2921 121.472 27.0421 122.862 27.2821L123.182 26.6321C121.602 26.4021 120.052 25.3721 120.052 24.1921V24.1421H122.862V23.4821H116.312V24.1421H119.142V24.1921C119.142 25.3721 117.592 26.4021 116.032 26.6321L116.342 27.2821ZM123.652 28.0321H115.552V28.7021H119.172V31.8921H119.992V28.7021H123.662L123.652 28.0321ZM127.401 23.7721H126.611V25.4821C126.611 27.0221 125.871 28.6321 124.641 29.3521L125.151 29.9621C126.041 29.4121 126.691 28.4021 127.011 27.2121C127.331 28.3021 127.931 29.2521 128.781 29.7721L129.251 29.1321C128.071 28.4121 127.401 26.8921 127.401 25.4521V23.7721ZM129.761 26.1421H128.281V26.8221H129.761V31.4521H130.531V23.1221H129.761V26.1421ZM131.581 22.9221V31.8921H132.361V22.9221H131.581ZM136.75 27.9521C137.12 28.0421 137.55 28.0921 137.99 28.0921C138.44 28.0921 138.87 28.0421 139.25 27.9521V30.0621H136.75V27.9521ZM137.99 24.1321C139.43 24.1321 140.47 24.7921 140.47 25.7921C140.47 26.7921 139.43 27.4521 137.99 27.4521C136.55 27.4521 135.52 26.7921 135.52 25.7921C135.52 24.7921 136.55 24.1321 137.99 24.1321ZM140.07 30.0621V27.6321C140.81 27.2421 141.25 26.6021 141.25 25.7921C141.25 24.3921 139.9 23.4921 137.99 23.4921C136.09 23.4921 134.73 24.3921 134.73 25.7921C134.73 26.6021 135.18 27.2521 135.93 27.6421V30.0621H133.93V30.7421H142.08V30.0621H140.07ZM143.312 30.6736C143.312 30.5206 143.36 30.392 143.454 30.2878C143.552 30.1804 143.692 30.1267 143.874 30.1267C144.056 30.1267 144.195 30.1804 144.289 30.2878C144.387 30.392 144.436 30.5206 144.436 30.6736C144.436 30.8233 144.387 30.9503 144.289 31.0544C144.195 31.1586 144.056 31.2107 143.874 31.2107C143.692 31.2107 143.552 31.1586 143.454 31.0544C143.36 30.9503 143.312 30.8233 143.312 30.6736Z" fill="white" fill-opacity="0.7"/>
</svg>
