<svg width="124" height="34" viewBox="0 0 124 34" fill="none" xmlns="http://www.w3.org/2000/svg">
<path d="M10.0461 10.872H11.2081V1.492H10.0461V4.432H7.30212V5.384H10.0461V10.872ZM8.19812 7.904C6.39212 7.232 5.16012 5.58 5.16012 3.83V2.234H4.01212V3.788C4.01212 5.706 2.75212 7.484 0.876117 8.17L1.47812 9.08C2.94812 8.492 4.06812 7.302 4.60012 5.804C5.13212 7.162 6.21012 8.24 7.59612 8.786L8.19812 7.904ZM4.27812 12.818V9.836H3.13012V13.756H11.5021V12.818H4.27812ZM24.493 3.312H19.999V1.674H18.851V3.312H14.301V4.25H24.493V3.312ZM16.457 7.484C16.457 6.56 17.591 6 19.425 6C21.231 6 22.351 6.56 22.351 7.484C22.351 8.422 21.231 8.982 19.425 8.982C17.591 8.982 16.457 8.422 16.457 7.484ZM19.999 11.628V9.864C22.183 9.724 23.513 8.884 23.513 7.484C23.513 5.972 21.931 5.104 19.425 5.104C16.877 5.104 15.295 5.972 15.295 7.484C15.295 8.884 16.639 9.738 18.851 9.864V11.628H13.741V12.566H25.123V11.628H19.999ZM30.3019 10.284C29.1679 10.284 28.3419 9.472 28.3419 8.352C28.3419 7.218 29.1679 6.406 30.3019 6.406C31.4499 6.406 32.2759 7.218 32.2759 8.352C32.2759 9.472 31.4499 10.284 30.3019 10.284ZM30.3019 5.454C28.5379 5.454 27.2639 6.658 27.2639 8.352C27.2639 10.06 28.5379 11.236 30.3019 11.236C32.0939 11.236 33.3679 10.06 33.3679 8.352C33.3679 6.658 32.0939 5.454 30.3019 5.454ZM30.8619 1.632H29.7139V3.494H26.5499V4.418H33.9559V3.494H30.8619V1.632ZM38.3519 6.644H36.2939V1.492H35.1459V14.036H36.2939V7.61H38.3519V6.644ZM49.5648 5.258H42.1728V1.94H41.0248V6.196H49.5648V5.258ZM42.0888 10.06H40.9408V13.728H49.6348V12.79H42.0888V10.06ZM39.4848 7.876V8.8H50.8668V7.876H39.4848ZM62.1221 7.554C60.5401 6.91 59.5741 5.468 59.5741 4.012V3.97H61.8141V3.046H59.5741V1.576H58.4821V3.046H56.2141V3.97H58.4821V4.012C58.4821 5.538 57.5581 7.106 55.9621 7.778L56.5221 8.646C57.7541 8.114 58.6361 7.078 59.0421 5.832C59.4901 6.966 60.3581 7.932 61.5761 8.408L62.1221 7.554ZM59.3361 10.438H65.3421V12.944H59.3361V10.438ZM58.2161 13.868H66.4621V9.528H58.2161V13.868ZM65.3561 1.492V4.698H63.7741V1.702H62.6961V8.758H63.7741V5.636H65.3561V8.884H66.4621V1.492H65.3561ZM75.967 8.03H72.845V3.662H75.967V8.03ZM71.697 8.03H69.779V8.968H79.033V8.03H77.115V3.662H79.061V2.738H69.751V3.662H71.697V8.03ZM68.743 11.474V12.426H80.125V11.474H68.743Z" fill="white"/>
<path d="M5.24902 30.2578V31H0.595703V30.3506L2.9248 27.7578C3.21126 27.4388 3.43262 27.1686 3.58887 26.9473C3.74837 26.7227 3.85905 26.5225 3.9209 26.3467C3.986 26.1676 4.01855 25.9854 4.01855 25.7998C4.01855 25.5654 3.96973 25.3538 3.87207 25.165C3.77767 24.973 3.6377 24.82 3.45215 24.7061C3.2666 24.5921 3.04199 24.5352 2.77832 24.5352C2.46257 24.5352 2.19889 24.597 1.9873 24.7207C1.77897 24.8411 1.62272 25.0104 1.51855 25.2285C1.41439 25.4466 1.3623 25.6973 1.3623 25.9805H0.458984C0.458984 25.5801 0.546875 25.2139 0.722656 24.8818C0.898438 24.5498 1.15885 24.2861 1.50391 24.0908C1.84896 23.8923 2.27376 23.793 2.77832 23.793C3.22754 23.793 3.61165 23.8727 3.93066 24.0322C4.24967 24.1885 4.49382 24.4098 4.66309 24.6963C4.83561 24.9795 4.92188 25.3115 4.92188 25.6924C4.92188 25.9007 4.88607 26.1123 4.81445 26.3271C4.74609 26.5387 4.65007 26.7503 4.52637 26.9619C4.40592 27.1735 4.26432 27.3818 4.10156 27.5869C3.94206 27.792 3.77116 27.9938 3.58887 28.1924L1.68457 30.2578H5.24902ZM9.785 22.97V23.41C9.785 24.62 8.205 25.68 6.605 25.92L6.935 26.58C8.765 26.26 10.495 25.05 10.495 23.41V22.97H9.785ZM9.915 22.97V23.41C9.915 25.01 11.655 26.25 13.485 26.56L13.795 25.91C12.225 25.67 10.625 24.59 10.625 23.41V22.97H9.915ZM6.115 27.34V28.02H14.305V27.34H6.115ZM9.855 27.76V29.84H10.685V27.76H9.855ZM7.155 30.9V31.58H13.395V30.9H7.155ZM7.155 28.97V31.12H7.975V28.97H7.155ZM18.2742 23.16C16.9342 23.16 15.9742 23.91 15.9742 25.02C15.9742 26.12 16.9342 26.89 18.2742 26.89C19.6242 26.89 20.5842 26.12 20.5842 25.02C20.5842 23.91 19.6242 23.16 18.2742 23.16ZM18.2742 23.85C19.1542 23.85 19.7842 24.33 19.7842 25.02C19.7842 25.72 19.1542 26.19 18.2742 26.19C17.3942 26.19 16.7642 25.72 16.7642 25.02C16.7642 24.33 17.3942 23.85 18.2742 23.85ZM17.9042 27.89V31.5H18.7342V27.89H17.9042ZM21.9042 22.74V31.79H22.7242V22.74H21.9042ZM15.4142 28.34C17.0642 28.34 19.2842 28.31 21.3242 27.94L21.2642 27.32C19.2742 27.62 16.9842 27.64 15.3042 27.64L15.4142 28.34ZM33.8239 22.75V28.07H34.6139V22.75H33.8239ZM32.4139 25.05V25.74H34.1539V25.05H32.4139ZM31.9039 22.9V27.98H32.6839V22.9H31.9039ZM28.6839 28.54V31.66H34.6139V28.54H28.6839ZM33.8139 29.2V30.99H29.4939V29.2H33.8139ZM28.8839 24.31V24.57C28.8839 25.67 28.2039 26.79 27.0639 27.27L27.4739 27.9C28.7839 27.33 29.5139 25.99 29.5139 24.57V24.31H28.8839ZM29.0439 24.31V24.57C29.0439 25.92 29.7839 27.2 31.1039 27.73L31.4939 27.11C30.3639 26.66 29.6639 25.61 29.6639 24.57V24.31H29.0439ZM27.2439 23.87V24.54H31.2739V23.87H27.2439ZM28.8839 22.81V24.18H29.6639V22.81H28.8839ZM42.7831 22.74V31.78H43.6131V22.74H42.7831ZM36.4231 23.71V24.39H41.5431V23.71H36.4231ZM36.2831 29.55C37.9331 29.54 40.1031 29.51 42.0531 29.2L42.0031 28.59C40.0831 28.82 37.8631 28.84 36.1831 28.84L36.2831 29.55ZM37.4231 24.22V29.03H38.2231V24.22H37.4231ZM39.7331 24.22V29.03H40.5431V24.22H39.7331ZM49.9023 25.25V25.92H52.3823V25.25H49.9023ZM52.0023 22.75V29.4H52.8323V22.75H52.0023ZM47.0623 30.9V31.58H53.0823V30.9H47.0623ZM47.0623 28.73V31.19H47.8923V28.73H47.0623ZM47.8623 23.32C46.5323 23.32 45.5323 24.25 45.5323 25.56C45.5323 26.87 46.5323 27.8 47.8623 27.8C49.1923 27.8 50.1923 26.87 50.1923 25.56C50.1923 24.25 49.1923 23.32 47.8623 23.32ZM47.8623 24.05C48.7323 24.05 49.3923 24.67 49.3923 25.56C49.3923 26.45 48.7323 27.07 47.8623 27.07C46.9823 27.07 46.3323 26.45 46.3323 25.56C46.3323 24.67 46.9823 24.05 47.8623 24.05ZM58.6816 22.89C56.6816 22.89 55.5016 23.45 55.5016 24.46C55.5016 25.47 56.6816 26.03 58.6816 26.03C60.6716 26.03 61.8616 25.47 61.8616 24.46C61.8616 23.45 60.6716 22.89 58.6816 22.89ZM58.6816 23.52C60.1516 23.52 61.0016 23.86 61.0016 24.46C61.0016 25.06 60.1516 25.4 58.6816 25.4C57.2016 25.4 56.3516 25.06 56.3516 24.46C56.3516 23.86 57.2016 23.52 58.6816 23.52ZM54.5916 26.63V27.3H62.7616V26.63H54.5916ZM55.5816 28.07V28.71H60.9016V29.51H55.6016V31.21H56.4216V30.11H61.7216V28.07H55.5816ZM55.6016 31.03V31.68H61.9916V31.03H55.6016ZM70.9113 24.87V25.56H73.1913V24.87H70.9113ZM68.5413 23.29V24.4C68.5413 25.78 67.6313 27.06 66.2913 27.56L66.7213 28.22C68.2313 27.61 69.2113 26.15 69.2113 24.4V23.29H68.5413ZM68.7013 23.29V24.43C68.7013 26.04 69.6713 27.44 71.1113 28L71.5613 27.36C70.2513 26.88 69.3713 25.69 69.3713 24.43V23.29H68.7013ZM72.8813 22.75V29.51H73.7113V22.75H72.8813ZM67.9013 30.9V31.58H73.9313V30.9H67.9013ZM67.9013 28.76V31.22H68.7313V28.76H67.9013ZM75.8605 27.06V27.75H76.4405C77.8905 27.75 78.7505 27.71 79.7905 27.51L79.7105 26.83C78.7005 27.03 77.8605 27.06 76.4405 27.06H75.8605ZM75.8605 23.4V27.43H76.6605V24.08H79.3605V23.4H75.8605ZM76.4105 25.2V25.85H79.2505V25.2H76.4105ZM82.3005 22.74V28.22H83.0905V22.74H82.3005ZM80.8405 25.1V25.78H82.5505V25.1H80.8405ZM80.3105 22.91V28.17H81.0905V22.91H80.3105ZM77.0305 28.7V29.38H82.2705V31.78H83.0905V28.7H77.0305ZM84.6597 24.28V24.96H89.1397V24.28H84.6597ZM86.8997 25.56C85.7797 25.56 84.9597 26.41 84.9597 27.63C84.9597 28.84 85.7797 29.69 86.8997 29.69C88.0297 29.69 88.8497 28.84 88.8497 27.63C88.8497 26.41 88.0297 25.56 86.8997 25.56ZM86.8997 26.27C87.5997 26.27 88.1097 26.83 88.1097 27.63C88.1097 28.43 87.5997 28.99 86.8997 28.99C86.2097 28.99 85.7097 28.43 85.7097 27.63C85.7097 26.83 86.2097 26.27 86.8997 26.27ZM91.5297 22.74V31.78H92.3297V22.74H91.5297ZM90.0897 26.54V27.23H91.7997V26.54H90.0897ZM89.5997 22.94V31.34H90.3797V22.94H89.5997ZM86.4997 23V24.7H87.3197V23H86.4997ZM97.4989 23.63V24.01C97.4989 25.2 95.9489 26.24 94.3589 26.47L94.6789 27.13C96.4989 26.82 98.2189 25.63 98.2189 24.01V23.63H97.4989ZM97.7089 23.63V24.01C97.7089 25.63 99.4189 26.82 101.249 27.13L101.559 26.47C99.9789 26.24 98.4189 25.2 98.4189 24.01V23.63H97.7089ZM97.5289 28.33V31.78H98.3489V28.33H97.5289ZM93.8789 27.89V28.57H102.049V27.89H93.8789ZM94.6389 23.3V23.97H101.259V23.3H94.6389ZM106.638 25.97V26.66H108.368V25.97H106.638ZM104.948 23.59V25.31C104.948 26.86 104.208 28.48 102.968 29.21L103.488 29.84C104.808 29.03 105.598 27.2 105.598 25.31V23.59H104.948ZM105.108 23.59V25.28C105.108 27.04 105.838 28.84 107.138 29.64L107.618 28.99C106.428 28.27 105.748 26.73 105.748 25.28V23.59H105.108ZM109.958 22.74V31.78H110.758V22.74H109.958ZM108.128 22.93V31.33H108.908V22.93H108.128ZM114.277 27.39V30.1H115.097V27.39H114.277ZM117.617 27.39V30.1H118.447V27.39H117.617ZM112.277 29.94V30.63H120.467V29.94H112.277ZM116.357 23.31C114.437 23.31 113.067 24.22 113.067 25.64C113.067 27.05 114.437 27.96 116.357 27.96C118.267 27.96 119.637 27.05 119.637 25.64C119.637 24.22 118.267 23.31 116.357 23.31ZM116.357 23.97C117.807 23.97 118.837 24.63 118.837 25.64C118.837 26.64 117.807 27.3 116.357 27.3C114.907 27.3 113.867 26.64 113.867 25.64C113.867 24.63 114.907 23.97 116.357 23.97ZM121.68 30.5215C121.68 30.3685 121.727 30.2399 121.821 30.1357C121.919 30.0283 122.059 29.9746 122.241 29.9746C122.424 29.9746 122.562 30.0283 122.656 30.1357C122.754 30.2399 122.803 30.3685 122.803 30.5215C122.803 30.6712 122.754 30.7982 122.656 30.9023C122.562 31.0065 122.424 31.0586 122.241 31.0586C122.059 31.0586 121.919 31.0065 121.821 30.9023C121.727 30.7982 121.68 30.6712 121.68 30.5215Z" fill="white" fill-opacity="0.7"/>
</svg>
