<svg width="292" height="68" viewBox="0 0 146 34" fill="none" xmlns="http://www.w3.org/2000/svg">
<path d="M38.1541 10.83H40.0021V1.31H38.1541V4.054H35.7881V5.552H38.1541V10.83ZM36.9221 7.526C34.9061 6.812 34.0381 5.174 34.0381 3.494V2.094H32.1621V3.48C32.1621 5.314 31.2661 7.106 29.1381 7.82L30.1041 9.262C31.6021 8.716 32.5961 7.666 33.1421 6.336C33.6741 7.526 34.5981 8.464 35.9421 8.954L36.9221 7.526ZM33.3381 12.51V9.878H31.4901V13.98H40.2821V12.51H33.3381ZM53.245 2.92H48.835V1.436H46.987V2.92H42.605V4.39H53.245V2.92ZM45.433 7.456C45.433 6.728 46.301 6.364 47.897 6.364C49.521 6.364 50.389 6.728 50.389 7.456C50.389 8.198 49.521 8.534 47.897 8.534C46.301 8.534 45.433 8.198 45.433 7.456ZM48.835 11.418V9.934C50.977 9.724 52.279 8.842 52.279 7.456C52.279 5.874 50.599 4.936 47.897 4.936C45.223 4.936 43.529 5.874 43.529 7.456C43.529 8.842 44.845 9.738 46.987 9.934V11.418H42.101V12.916H53.791V11.418H48.835ZM58.7039 10.06C57.8359 10.06 57.1919 9.472 57.1919 8.492C57.1919 7.512 57.8359 6.91 58.7039 6.91C59.5719 6.91 60.2019 7.512 60.2019 8.478C60.2019 9.472 59.5719 10.06 58.7039 10.06ZM58.7039 5.412C56.8279 5.412 55.4279 6.686 55.4279 8.478C55.4279 10.298 56.8279 11.572 58.7039 11.572C60.5659 11.572 61.9519 10.298 61.9519 8.478C61.9519 6.686 60.5659 5.412 58.7039 5.412ZM59.6139 1.534H57.7659V3.214H54.9099V4.684H62.4139V3.214H59.6139V1.534ZM66.9499 6.35H65.1019V1.31H63.2539V14.204H65.1019V7.876H66.9499V6.35ZM78.2468 4.796H71.1488V1.772H69.3008V6.266H78.2468V4.796ZM71.0368 10.088H69.1748V13.924H78.3168V12.454H71.0368V10.088ZM67.8588 7.582V9.066H79.5348V7.582H67.8588ZM86.5761 7.386H90.6641V2.402H84.7421V3.872H88.8441V5.93H84.7561V11.25H85.8481C88.0881 11.25 89.8661 11.166 91.7981 10.816L91.6301 9.318C89.9501 9.612 88.4241 9.71 86.5761 9.724V7.386ZM96.1941 6.168H94.3461V1.296H92.4981V14.232H94.3461V7.694H96.1941V6.168ZM107.813 1.324H105.951V10.578H107.813V1.324ZM99.091 5.412C99.091 4.348 99.847 3.732 100.799 3.732C101.765 3.732 102.493 4.348 102.493 5.412C102.493 6.448 101.765 7.078 100.799 7.078C99.847 7.078 99.091 6.448 99.091 5.412ZM104.299 5.412C104.299 3.508 102.773 2.136 100.799 2.136C98.825 2.136 97.285 3.508 97.285 5.412C97.285 7.288 98.825 8.674 100.799 8.674C102.773 8.674 104.299 7.288 104.299 5.412ZM101.079 12.51V9.668H99.231V13.98H108.135V12.51H101.079Z" fill="white"/>
<path d="M7.84391 29.48H8.67391V22.78H7.84391V24.88H5.88391V25.56H7.84391V29.48ZM6.52391 27.36C5.23391 26.88 4.35391 25.7 4.35391 24.45V23.31H3.53391V24.42C3.53391 25.79 2.63391 27.06 1.29391 27.55L1.72391 28.2C2.77391 27.78 3.57391 26.93 3.95391 25.86C4.33391 26.83 5.10391 27.6 6.09391 27.99L6.52391 27.36ZM3.72391 30.87V28.74H2.90391V31.54H8.88391V30.87H3.72391ZM18.1631 24.08H14.9531V22.91H14.1331V24.08H10.8831V24.75H18.1631V24.08ZM12.4231 27.06C12.4231 26.4 13.2331 26 14.5431 26C15.8331 26 16.6331 26.4 16.6331 27.06C16.6331 27.73 15.8331 28.13 14.5431 28.13C13.2331 28.13 12.4231 27.73 12.4231 27.06ZM14.9531 30.02V28.76C16.5131 28.66 17.4631 28.06 17.4631 27.06C17.4631 25.98 16.3331 25.36 14.5431 25.36C12.7231 25.36 11.5931 25.98 11.5931 27.06C11.5931 28.06 12.5531 28.67 14.1331 28.76V30.02H10.4831V30.69H18.6131V30.02H14.9531ZM22.3123 29.06C21.5023 29.06 20.9123 28.48 20.9123 27.68C20.9123 26.87 21.5023 26.29 22.3123 26.29C23.1323 26.29 23.7223 26.87 23.7223 27.68C23.7223 28.48 23.1323 29.06 22.3123 29.06ZM22.3123 25.61C21.0523 25.61 20.1423 26.47 20.1423 27.68C20.1423 28.9 21.0523 29.74 22.3123 29.74C23.5923 29.74 24.5023 28.9 24.5023 27.68C24.5023 26.47 23.5923 25.61 22.3123 25.61ZM22.7123 22.88H21.8923V24.21H19.6323V24.87H24.9223V24.21H22.7123V22.88ZM28.0623 26.46H26.5923V22.78H25.7723V31.74H26.5923V27.15H28.0623V26.46ZM36.0716 25.47H30.7916V23.1H29.9716V26.14H36.0716V25.47ZM30.7316 28.9H29.9116V31.52H36.1216V30.85H30.7316V28.9ZM28.8716 27.34V28H37.0016V27.34H28.8716ZM41.7313 26.82H44.9613V23.6H40.9013V24.27H44.1513V26.15H40.9313V29.58H41.6413C43.3513 29.58 44.5513 29.51 45.9513 29.26L45.8613 28.58C44.5213 28.84 43.3613 28.9 41.7313 28.9V26.82ZM48.9413 26.33H47.4713V22.76H46.6513V31.75H47.4713V27.02H48.9413V26.33ZM57.1205 22.78H56.3005V29.33H57.1205V22.78ZM50.7705 25.6C50.7705 24.73 51.4305 24.11 52.3005 24.11C53.1905 24.11 53.8505 24.73 53.8505 25.6C53.8505 26.49 53.1905 27.11 52.3005 27.11C51.4305 27.11 50.7705 26.49 50.7705 25.6ZM54.6505 25.6C54.6505 24.31 53.6405 23.4 52.3005 23.4C50.9705 23.4 49.9705 24.31 49.9705 25.6C49.9705 26.9 50.9705 27.82 52.3005 27.82C53.6405 27.82 54.6505 26.9 54.6505 25.6ZM52.1705 30.87V28.66H51.3505V31.54H57.3905V30.87H52.1705ZM66.1592 30.2578V31H61.5059V30.3506L63.835 27.7578C64.1214 27.4388 64.3428 27.1686 64.499 26.9473C64.6585 26.7227 64.7692 26.5225 64.8311 26.3467C64.8962 26.1676 64.9287 25.9854 64.9287 25.7998C64.9287 25.5654 64.8799 25.3538 64.7822 25.165C64.6878 24.973 64.5479 24.82 64.3623 24.7061C64.1768 24.5921 63.9521 24.5352 63.6885 24.5352C63.3727 24.5352 63.109 24.597 62.8975 24.7207C62.6891 24.8411 62.5329 25.0104 62.4287 25.2285C62.3245 25.4466 62.2725 25.6973 62.2725 25.9805H61.3691C61.3691 25.5801 61.457 25.2139 61.6328 24.8818C61.8086 24.5498 62.069 24.2861 62.4141 24.0908C62.7591 23.8923 63.1839 23.793 63.6885 23.793C64.1377 23.793 64.5218 23.8727 64.8408 24.0322C65.1598 24.1885 65.404 24.4098 65.5732 24.6963C65.7458 24.9795 65.832 25.3115 65.832 25.6924C65.832 25.9007 65.7962 26.1123 65.7246 26.3271C65.6562 26.5387 65.5602 26.7503 65.4365 26.9619C65.3161 27.1735 65.1745 27.3818 65.0117 27.5869C64.8522 27.792 64.6813 27.9938 64.499 28.1924L62.5947 30.2578H66.1592ZM67.4052 23.93V24.6H70.0952C69.9752 26.46 69.1252 28.08 67.0652 29.23L67.5452 29.82C70.0952 28.38 70.9052 26.24 70.9052 23.93H67.4052ZM73.8852 22.77V26.38H72.6652V23.01H71.8952V31.29H72.6652V27.05H73.8852V31.74H74.6752V22.77H73.8852ZM82.5444 24.34H77.3044V26.26H83.5144V25.67H78.1144V24.9H83.3544V23.03H77.2844V23.61H82.5444V24.34ZM78.0644 30.2H83.3844V28.29H77.2344V28.88H82.5744V29.63H77.2544V31.62H83.6644V31.03H78.0644V30.2ZM76.2644 26.94V27.56H84.3944V26.94H76.2644ZM94.5041 29.48H95.3341V22.78H94.5041V24.88H92.5441V25.56H94.5041V29.48ZM93.1841 27.36C91.8941 26.88 91.0141 25.7 91.0141 24.45V23.31H90.1941V24.42C90.1941 25.79 89.2941 27.06 87.9541 27.55L88.3841 28.2C89.4341 27.78 90.2341 26.93 90.6141 25.86C90.9941 26.83 91.7641 27.6 92.7541 27.99L93.1841 27.36ZM90.3841 30.87V28.74H89.5641V31.54H95.5441V30.87H90.3841ZM101.343 26.83C100.403 27.02 99.6033 27.07 98.3233 27.07V25.85H100.893V25.22H98.3233V24.09H100.993V23.43H97.5333V27.74H98.1033C99.5433 27.74 100.393 27.7 101.423 27.49L101.343 26.83ZM98.6833 29.34H103.893V31.74H104.713V28.68H98.6833V29.34ZM103.923 22.78V25.11H102.723V22.94H101.943V28.15H102.723V25.78H103.923V28.21H104.713V22.78H103.923ZM108.563 28.98C107.863 28.98 107.373 28.41 107.373 27.61C107.373 26.83 107.863 26.26 108.563 26.26C109.253 26.26 109.753 26.83 109.753 27.61C109.753 28.41 109.253 28.98 108.563 28.98ZM108.563 25.57C107.453 25.57 106.643 26.41 106.643 27.61C106.643 28.83 107.453 29.66 108.563 29.66C109.673 29.66 110.483 28.83 110.483 27.61C110.483 26.41 109.673 25.57 108.563 25.57ZM108.963 23.03H108.153V24.3H106.333V24.97H110.783V24.3H108.963V23.03ZM113.153 22.76V26.55H112.003V22.97H111.233V31.3H112.003V27.22H113.153V31.73H113.943V22.76H113.153ZM116.342 27.13C117.732 26.89 119.052 26.14 119.602 25.08C120.142 26.14 121.472 26.89 122.862 27.13L123.182 26.48C121.602 26.25 120.052 25.22 120.052 24.04V23.99H122.862V23.33H116.312V23.99H119.142V24.04C119.142 25.22 117.592 26.25 116.032 26.48L116.342 27.13ZM123.652 27.88H115.552V28.55H119.172V31.74H119.992V28.55H123.662L123.652 27.88ZM127.401 23.62H126.611V25.33C126.611 26.87 125.871 28.48 124.641 29.2L125.151 29.81C126.041 29.26 126.691 28.25 127.011 27.06C127.331 28.15 127.931 29.1 128.781 29.62L129.251 28.98C128.071 28.26 127.401 26.74 127.401 25.3V23.62ZM129.761 25.99H128.281V26.67H129.761V31.3H130.531V22.97H129.761V25.99ZM131.581 22.77V31.74H132.361V22.77H131.581ZM136.75 27.8C137.12 27.89 137.55 27.94 137.99 27.94C138.44 27.94 138.87 27.89 139.25 27.8V29.91H136.75V27.8ZM137.99 23.98C139.43 23.98 140.47 24.64 140.47 25.64C140.47 26.64 139.43 27.3 137.99 27.3C136.55 27.3 135.52 26.64 135.52 25.64C135.52 24.64 136.55 23.98 137.99 23.98ZM140.07 29.91V27.48C140.81 27.09 141.25 26.45 141.25 25.64C141.25 24.24 139.9 23.34 137.99 23.34C136.09 23.34 134.73 24.24 134.73 25.64C134.73 26.45 135.18 27.1 135.93 27.49V29.91H133.93V30.59H142.08V29.91H140.07ZM143.312 30.5215C143.312 30.3685 143.36 30.2399 143.454 30.1357C143.552 30.0283 143.692 29.9746 143.874 29.9746C144.056 29.9746 144.195 30.0283 144.289 30.1357C144.387 30.2399 144.436 30.3685 144.436 30.5215C144.436 30.6712 144.387 30.7982 144.289 30.9023C144.195 31.0065 144.056 31.0586 143.874 31.0586C143.692 31.0586 143.552 31.0065 143.454 30.9023C143.36 30.7982 143.312 30.6712 143.312 30.5215Z" fill="white" fill-opacity="0.7"/>
</svg>
