<svg width="248" height="68" viewBox="0 0 124 34" fill="none" xmlns="http://www.w3.org/2000/svg">
<path d="M7.30212 4.418V5.384H10.4941V4.418H7.30212ZM3.98412 2.206V3.76C3.98412 5.692 2.71012 7.484 0.834117 8.184L1.43612 9.108C3.55012 8.254 4.92212 6.21 4.92212 3.76V2.206H3.98412ZM4.20812 2.206V3.802C4.20812 6.056 5.56612 8.016 7.58212 8.8L8.21212 7.904C6.37812 7.232 5.14612 5.566 5.14612 3.802V2.206H4.20812ZM10.0601 1.45V10.914H11.2221V1.45H10.0601ZM3.08812 12.86V13.812H11.5301V12.86H3.08812ZM3.08812 9.864V13.308H4.25012V9.864H3.08812ZM14.259 3.284V4.236H24.535V3.284H14.259ZM13.699 11.656V12.622H25.165V11.656H13.699ZM18.837 9.654V12.034H19.985V9.654H18.837ZM19.397 5.09C16.849 5.09 15.267 5.972 15.267 7.498C15.267 9.024 16.849 9.906 19.397 9.906C21.959 9.906 23.541 9.024 23.541 7.498C23.541 5.972 21.959 5.09 19.397 5.09ZM19.397 6C21.245 6 22.365 6.56 22.365 7.498C22.365 8.436 21.245 8.982 19.397 8.982C17.563 8.982 16.429 8.436 16.429 7.498C16.429 6.56 17.563 6 19.397 6ZM18.837 1.646V3.872H19.985V1.646H18.837ZM35.1459 1.436V14.092H36.3079V1.436H35.1459ZM36.0279 6.63V7.61H38.3799V6.63H36.0279ZM26.5079 3.452V4.404H33.9699V3.452H26.5079ZM30.2879 5.454C28.5099 5.454 27.2079 6.658 27.2079 8.366C27.2079 10.074 28.5099 11.278 30.2879 11.278C32.0799 11.278 33.3679 10.074 33.3679 8.366C33.3679 6.658 32.0799 5.454 30.2879 5.454ZM30.2879 6.42C31.4359 6.42 32.2619 7.218 32.2619 8.366C32.2619 9.5 31.4359 10.312 30.2879 10.312C29.1399 10.312 28.3139 9.5 28.3139 8.366C28.3139 7.218 29.1399 6.42 30.2879 6.42ZM29.6859 1.59V3.886H30.8479V1.59H29.6859ZM40.9968 5.23V6.182H49.5928V5.23H40.9968ZM39.4428 7.876V8.828H50.9228V7.876H39.4428ZM40.9968 1.898V5.706H42.1448V1.898H40.9968ZM40.9128 12.832V13.784H49.6628V12.832H40.9128ZM40.9128 10.088V13.084H42.0608V10.088H40.9128ZM65.3701 1.45V8.898H66.4761V1.45H65.3701ZM63.3961 4.67V5.636H65.8321V4.67H63.3961ZM62.6821 1.66V8.772H63.7741V1.66H62.6821ZM58.1741 9.556V13.924H66.4761V9.556H58.1741ZM65.3561 10.48V12.986H59.3081V10.48H65.3561ZM58.4541 3.634V3.998C58.4541 5.538 57.5021 7.106 55.9061 7.778L56.4801 8.66C58.3141 7.862 59.3361 5.986 59.3361 3.998V3.634H58.4541ZM58.6781 3.634V3.998C58.6781 5.888 59.7141 7.68 61.5621 8.422L62.1081 7.554C60.5261 6.924 59.5461 5.454 59.5461 3.998V3.634H58.6781ZM56.1581 3.018V3.956H61.8001V3.018H56.1581ZM58.4541 1.534V3.452H59.5461V1.534H58.4541ZM68.701 11.502V12.468H80.167V11.502H68.701ZM69.695 2.696V3.648H79.089V2.696H69.695ZM69.723 8.044V8.996H79.075V8.044H69.723ZM71.669 3.578V8.142H72.831V3.578H71.669ZM75.981 3.578V8.142H77.129V3.578H75.981Z" fill="white"/>
<path d="M3.55957 23.8516V31H2.65625V24.9795L0.834961 25.6436V24.8281L3.41797 23.8516H3.55957ZM9.785 22.97V23.41C9.785 24.62 8.205 25.68 6.605 25.92L6.935 26.58C8.765 26.26 10.495 25.05 10.495 23.41V22.97H9.785ZM9.915 22.97V23.41C9.915 25.01 11.655 26.25 13.485 26.56L13.795 25.91C12.225 25.67 10.625 24.59 10.625 23.41V22.97H9.915ZM6.115 27.34V28.02H14.305V27.34H6.115ZM9.855 27.76V29.84H10.685V27.76H9.855ZM7.155 30.9V31.58H13.395V30.9H7.155ZM7.155 28.97V31.12H7.975V28.97H7.155ZM18.2742 23.16C16.9342 23.16 15.9742 23.91 15.9742 25.02C15.9742 26.12 16.9342 26.89 18.2742 26.89C19.6242 26.89 20.5842 26.12 20.5842 25.02C20.5842 23.91 19.6242 23.16 18.2742 23.16ZM18.2742 23.85C19.1542 23.85 19.7842 24.33 19.7842 25.02C19.7842 25.72 19.1542 26.19 18.2742 26.19C17.3942 26.19 16.7642 25.72 16.7642 25.02C16.7642 24.33 17.3942 23.85 18.2742 23.85ZM17.9042 27.89V31.5H18.7342V27.89H17.9042ZM21.9042 22.74V31.79H22.7242V22.74H21.9042ZM15.4142 28.34C17.0642 28.34 19.2842 28.31 21.3242 27.94L21.2642 27.32C19.2742 27.62 16.9842 27.64 15.3042 27.64L15.4142 28.34ZM33.8239 22.75V28.07H34.6139V22.75H33.8239ZM32.4139 25.05V25.74H34.1539V25.05H32.4139ZM31.9039 22.9V27.98H32.6839V22.9H31.9039ZM28.6839 28.54V31.66H34.6139V28.54H28.6839ZM33.8139 29.2V30.99H29.4939V29.2H33.8139ZM28.8839 24.31V24.57C28.8839 25.67 28.2039 26.79 27.0639 27.27L27.4739 27.9C28.7839 27.33 29.5139 25.99 29.5139 24.57V24.31H28.8839ZM29.0439 24.31V24.57C29.0439 25.92 29.7839 27.2 31.1039 27.73L31.4939 27.11C30.3639 26.66 29.6639 25.61 29.6639 24.57V24.31H29.0439ZM27.2439 23.87V24.54H31.2739V23.87H27.2439ZM28.8839 22.81V24.18H29.6639V22.81H28.8839ZM42.7831 22.74V31.78H43.6131V22.74H42.7831ZM36.4231 23.71V24.39H41.5431V23.71H36.4231ZM36.2831 29.55C37.9331 29.54 40.1031 29.51 42.0531 29.2L42.0031 28.59C40.0831 28.82 37.8631 28.84 36.1831 28.84L36.2831 29.55ZM37.4231 24.22V29.03H38.2231V24.22H37.4231ZM39.7331 24.22V29.03H40.5431V24.22H39.7331ZM49.9023 25.25V25.92H52.3823V25.25H49.9023ZM52.0023 22.75V29.4H52.8323V22.75H52.0023ZM47.0623 30.9V31.58H53.0823V30.9H47.0623ZM47.0623 28.73V31.19H47.8923V28.73H47.0623ZM47.8623 23.32C46.5323 23.32 45.5323 24.25 45.5323 25.56C45.5323 26.87 46.5323 27.8 47.8623 27.8C49.1923 27.8 50.1923 26.87 50.1923 25.56C50.1923 24.25 49.1923 23.32 47.8623 23.32ZM47.8623 24.05C48.7323 24.05 49.3923 24.67 49.3923 25.56C49.3923 26.45 48.7323 27.07 47.8623 27.07C46.9823 27.07 46.3323 26.45 46.3323 25.56C46.3323 24.67 46.9823 24.05 47.8623 24.05ZM58.6816 22.89C56.6816 22.89 55.5016 23.45 55.5016 24.46C55.5016 25.47 56.6816 26.03 58.6816 26.03C60.6716 26.03 61.8616 25.47 61.8616 24.46C61.8616 23.45 60.6716 22.89 58.6816 22.89ZM58.6816 23.52C60.1516 23.52 61.0016 23.86 61.0016 24.46C61.0016 25.06 60.1516 25.4 58.6816 25.4C57.2016 25.4 56.3516 25.06 56.3516 24.46C56.3516 23.86 57.2016 23.52 58.6816 23.52ZM54.5916 26.63V27.3H62.7616V26.63H54.5916ZM55.5816 28.07V28.71H60.9016V29.51H55.6016V31.21H56.4216V30.11H61.7216V28.07H55.5816ZM55.6016 31.03V31.68H61.9916V31.03H55.6016ZM70.9113 24.87V25.56H73.1913V24.87H70.9113ZM68.5413 23.29V24.4C68.5413 25.78 67.6313 27.06 66.2913 27.56L66.7213 28.22C68.2313 27.61 69.2113 26.15 69.2113 24.4V23.29H68.5413ZM68.7013 23.29V24.43C68.7013 26.04 69.6713 27.44 71.1113 28L71.5613 27.36C70.2513 26.88 69.3713 25.69 69.3713 24.43V23.29H68.7013ZM72.8813 22.75V29.51H73.7113V22.75H72.8813ZM67.9013 30.9V31.58H73.9313V30.9H67.9013ZM67.9013 28.76V31.22H68.7313V28.76H67.9013ZM75.8605 27.06V27.75H76.4405C77.8905 27.75 78.7505 27.71 79.7905 27.51L79.7105 26.83C78.7005 27.03 77.8605 27.06 76.4405 27.06H75.8605ZM75.8605 23.4V27.43H76.6605V24.08H79.3605V23.4H75.8605ZM76.4105 25.2V25.85H79.2505V25.2H76.4105ZM82.3005 22.74V28.22H83.0905V22.74H82.3005ZM80.8405 25.1V25.78H82.5505V25.1H80.8405ZM80.3105 22.91V28.17H81.0905V22.91H80.3105ZM77.0305 28.7V29.38H82.2705V31.78H83.0905V28.7H77.0305ZM84.6597 24.28V24.96H89.1397V24.28H84.6597ZM86.8997 25.56C85.7797 25.56 84.9597 26.41 84.9597 27.63C84.9597 28.84 85.7797 29.69 86.8997 29.69C88.0297 29.69 88.8497 28.84 88.8497 27.63C88.8497 26.41 88.0297 25.56 86.8997 25.56ZM86.8997 26.27C87.5997 26.27 88.1097 26.83 88.1097 27.63C88.1097 28.43 87.5997 28.99 86.8997 28.99C86.2097 28.99 85.7097 28.43 85.7097 27.63C85.7097 26.83 86.2097 26.27 86.8997 26.27ZM91.5297 22.74V31.78H92.3297V22.74H91.5297ZM90.0897 26.54V27.23H91.7997V26.54H90.0897ZM89.5997 22.94V31.34H90.3797V22.94H89.5997ZM86.4997 23V24.7H87.3197V23H86.4997ZM97.4989 23.63V24.01C97.4989 25.2 95.9489 26.24 94.3589 26.47L94.6789 27.13C96.4989 26.82 98.2189 25.63 98.2189 24.01V23.63H97.4989ZM97.7089 23.63V24.01C97.7089 25.63 99.4189 26.82 101.249 27.13L101.559 26.47C99.9789 26.24 98.4189 25.2 98.4189 24.01V23.63H97.7089ZM97.5289 28.33V31.78H98.3489V28.33H97.5289ZM93.8789 27.89V28.57H102.049V27.89H93.8789ZM94.6389 23.3V23.97H101.259V23.3H94.6389ZM106.638 25.97V26.66H108.368V25.97H106.638ZM104.948 23.59V25.31C104.948 26.86 104.208 28.48 102.968 29.21L103.488 29.84C104.808 29.03 105.598 27.2 105.598 25.31V23.59H104.948ZM105.108 23.59V25.28C105.108 27.04 105.838 28.84 107.138 29.64L107.618 28.99C106.428 28.27 105.748 26.73 105.748 25.28V23.59H105.108ZM109.958 22.74V31.78H110.758V22.74H109.958ZM108.128 22.93V31.33H108.908V22.93H108.128ZM114.277 27.39V30.1H115.097V27.39H114.277ZM117.617 27.39V30.1H118.447V27.39H117.617ZM112.277 29.94V30.63H120.467V29.94H112.277ZM116.357 23.31C114.437 23.31 113.067 24.22 113.067 25.64C113.067 27.05 114.437 27.96 116.357 27.96C118.267 27.96 119.637 27.05 119.637 25.64C119.637 24.22 118.267 23.31 116.357 23.31ZM116.357 23.97C117.807 23.97 118.837 24.63 118.837 25.64C118.837 26.64 117.807 27.3 116.357 27.3C114.907 27.3 113.867 26.64 113.867 25.64C113.867 24.63 114.907 23.97 116.357 23.97ZM121.68 30.5215C121.68 30.3685 121.727 30.2399 121.821 30.1357C121.919 30.0283 122.059 29.9746 122.241 29.9746C122.424 29.9746 122.562 30.0283 122.656 30.1357C122.754 30.2399 122.803 30.3685 122.803 30.5215C122.803 30.6712 122.754 30.7982 122.656 30.9023C122.562 31.0065 122.424 31.0586 122.241 31.0586C122.059 31.0586 121.919 31.0065 121.821 30.9023C121.727 30.7982 121.68 30.6712 121.68 30.5215Z" fill="white" fill-opacity="0.7"/>
</svg>
