<svg width="131" height="13" viewBox="20 0 112 11" fill="none" xmlns="http://www.w3.org/2000/svg">
<path d="M3.504 7.588C2.46 7.588 1.728 6.46 1.728 4.708C1.728 2.968 2.46 1.84 3.504 1.84C4.536 1.84 5.268 2.968 5.268 4.708C5.268 6.46 4.536 7.588 3.504 7.588ZM3.504 0.952C1.92 0.952 0.792 2.416 0.792 4.708C0.792 7 1.92 8.464 3.504 8.464C5.088 8.464 6.204 7 6.204 4.708C6.204 2.416 5.088 0.952 3.504 0.952ZM10.692 4.42H8.916V0.136H7.932V10.888H8.916V5.248H10.692V4.42ZM19.4991 0.124V10.912H20.4831V0.124H19.4991ZM14.8071 0.952C13.2111 0.952 12.0711 2.416 12.0711 4.708C12.0711 7 13.2111 8.464 14.8071 8.464C16.4031 8.464 17.5431 7 17.5431 4.708C17.5431 2.416 16.4031 0.952 14.8071 0.952ZM14.8071 1.84C15.8511 1.84 16.5951 2.968 16.5951 4.708C16.5951 6.46 15.8511 7.588 14.8071 7.588C13.7511 7.588 13.0071 6.46 13.0071 4.708C13.0071 2.968 13.7511 1.84 14.8071 1.84ZM24.3821 1.972H28.4981V1.144H23.4101V8.236H24.2741C26.4461 8.236 27.8501 8.164 29.5061 7.864L29.3981 7.036C27.8141 7.336 26.4581 7.396 24.3821 7.396V1.972ZM30.5381 0.124V10.912H31.5221V0.124H30.5381ZM37.2363 10.7324H36.1172L39.4746 1.46875H40.5938L37.2363 10.7324ZM52.2998 0.124V10.9H53.2838V0.124H52.2998ZM45.0878 1.036V8.296H50.1518V1.036H49.1798V3.88H46.0598V1.036H45.0878ZM46.0598 4.66H49.1798V7.492H46.0598V4.66ZM64.3349 0.136H63.3509V5.668H64.3349V0.136ZM60.1469 4.336H57.0389V1.504H60.1469V4.336ZM61.1069 0.723999H56.0789V5.116H61.1069V0.723999ZM58.3589 9.988V8.8H64.3349V6.208H57.3629V6.976H63.3629V8.068H57.3989V10.768H64.7069V9.988H58.3589ZM70.97 5.464H68.066V3.52H70.97V5.464ZM71.942 3.964H74.426V8.092H75.422V0.124H74.426V3.16H71.942V0.844H70.97V2.74H68.066V0.844H67.094V6.256H71.942V3.964ZM69.482 9.844V7.312H68.498V10.648H75.674V9.844H69.482ZM86.809 1.696H82.957V0.292H81.973V1.696H78.073V2.5H86.809V1.696ZM79.921 5.272C79.921 4.48 80.893 4 82.465 4C84.013 4 84.973 4.48 84.973 5.272C84.973 6.076 84.013 6.556 82.465 6.556C80.893 6.556 79.921 6.076 79.921 5.272ZM82.957 8.824V7.312C84.829 7.192 85.969 6.472 85.969 5.272C85.969 3.976 84.613 3.232 82.465 3.232C80.281 3.232 78.925 3.976 78.925 5.272C78.925 6.472 80.077 7.204 81.973 7.312V8.824H77.593V9.628H87.349V8.824H82.957ZM97.9204 5.284C96.3364 4.828 95.2924 3.652 95.2924 2.356V2.176H97.6684V1.384H95.2924V0.0759997H94.3084V1.384H91.9204V2.176H94.3084V2.356C94.3084 3.772 93.2164 4.996 91.6204 5.476L92.1004 6.256C93.3604 5.848 94.3444 4.996 94.8124 3.88C95.2924 4.888 96.2284 5.68 97.4524 6.04L97.9204 5.284ZM100.152 7.744V6.952H93.1084V7.744H96.1084C95.9524 8.872 94.4284 9.82 92.7004 10.084L93.0484 10.84C94.6324 10.576 96.0244 9.82 96.6244 8.74C97.2364 9.808 98.6404 10.588 100.2 10.852L100.572 10.096C98.8444 9.82 97.3204 8.848 97.1404 7.744H100.152ZM99.9724 2.788V0.136H98.9884V6.376H99.9724V3.604H101.568V2.788H99.9724ZM103.295 1.288V2.08H107.339C107.135 4.636 105.695 6.7 102.803 8.08L103.331 8.884C106.907 7.132 108.335 4.396 108.335 1.288H103.295ZM110.507 0.124V10.888H111.491V0.124H110.507Z" fill="white" fill-opacity="0.7"/>
</svg>
