<svg width="17" height="10" viewBox="0 0 17 10" fill="none" xmlns="http://www.w3.org/2000/svg">
<path d="M4.63867 0.451172V9H2.95117V2.39648L0.923828 3.04102V1.71094L4.45703 0.451172H4.63867ZM10.9141 7.24805C10.9141 7.12695 10.8789 7.01758 10.8086 6.91992C10.7383 6.82227 10.6074 6.73242 10.416 6.65039C10.2285 6.56445 9.95703 6.48633 9.60156 6.41602C9.28125 6.3457 8.98242 6.25781 8.70508 6.15234C8.43164 6.04297 8.19336 5.91211 7.99023 5.75977C7.79102 5.60742 7.63477 5.42773 7.52148 5.2207C7.4082 5.00977 7.35156 4.76953 7.35156 4.5C7.35156 4.23438 7.4082 3.98438 7.52148 3.75C7.63867 3.51562 7.80469 3.30859 8.01953 3.12891C8.23828 2.94531 8.50391 2.80273 8.81641 2.70117C9.13281 2.5957 9.48828 2.54297 9.88281 2.54297C10.4336 2.54297 10.9062 2.63086 11.3008 2.80664C11.6992 2.98242 12.0039 3.22461 12.2148 3.5332C12.4297 3.83789 12.5371 4.18555 12.5371 4.57617H10.8496C10.8496 4.41211 10.8145 4.26562 10.7441 4.13672C10.6777 4.00391 10.5723 3.90039 10.4277 3.82617C10.2871 3.74805 10.1035 3.70898 9.87695 3.70898C9.68945 3.70898 9.52734 3.74219 9.39062 3.80859C9.25391 3.87109 9.14844 3.95703 9.07422 4.06641C9.00391 4.17188 8.96875 4.28906 8.96875 4.41797C8.96875 4.51562 8.98828 4.60352 9.02734 4.68164C9.07031 4.75586 9.13867 4.82422 9.23242 4.88672C9.32617 4.94922 9.44727 5.00781 9.5957 5.0625C9.74805 5.11328 9.93555 5.16016 10.1582 5.20312C10.6152 5.29688 11.0234 5.41992 11.3828 5.57227C11.7422 5.7207 12.0273 5.92383 12.2383 6.18164C12.4492 6.43555 12.5547 6.76953 12.5547 7.18359C12.5547 7.46484 12.4922 7.72266 12.3672 7.95703C12.2422 8.19141 12.0625 8.39648 11.8281 8.57227C11.5938 8.74414 11.3125 8.87891 10.9844 8.97656C10.6602 9.07031 10.2949 9.11719 9.88867 9.11719C9.29883 9.11719 8.79883 9.01172 8.38867 8.80078C7.98242 8.58984 7.67383 8.32227 7.46289 7.99805C7.25586 7.66992 7.15234 7.33398 7.15234 6.99023H8.75195C8.75977 7.2207 8.81836 7.40625 8.92773 7.54688C9.04102 7.6875 9.18359 7.78906 9.35547 7.85156C9.53125 7.91406 9.7207 7.94531 9.92383 7.94531C10.1426 7.94531 10.3242 7.91602 10.4688 7.85742C10.6133 7.79492 10.7227 7.71289 10.7969 7.61133C10.875 7.50586 10.9141 7.38477 10.9141 7.24805ZM16.7559 2.66016V3.85547H13.0645V2.66016H16.7559ZM13.9785 1.0957H15.666V7.08984C15.666 7.27344 15.6895 7.41406 15.7363 7.51172C15.7871 7.60938 15.8613 7.67773 15.959 7.7168C16.0566 7.75195 16.1797 7.76953 16.3281 7.76953C16.4336 7.76953 16.5273 7.76562 16.6094 7.75781C16.6953 7.74609 16.7676 7.73438 16.8262 7.72266L16.832 8.96484C16.6875 9.01172 16.5312 9.04883 16.3633 9.07617C16.1953 9.10352 16.0098 9.11719 15.8066 9.11719C15.4355 9.11719 15.1113 9.05664 14.834 8.93555C14.5605 8.81055 14.3496 8.61133 14.2012 8.33789C14.0527 8.06445 13.9785 7.70508 13.9785 7.25977V1.0957Z" fill="#9F70F1"/>
</svg>
