<svg width="100" height="30" viewBox="0 0 62 14" fill="none" xmlns="http://www.w3.org/2000/svg">
<g opacity="0.7">
<path d="M10 11.5V10.5C10 9.96957 9.78929 9.46086 9.41421 9.08579C9.03914 8.71071 8.53043 8.5 8 8.5H4C3.46957 8.5 2.96086 8.71071 2.58579 9.08579C2.21071 9.46086 2 9.96957 2 10.5V11.5H10Z" fill="white" stroke="white" stroke-linecap="round" stroke-linejoin="round"/>
<path d="M8 4.5C8 5.60457 7.10457 6.5 6 6.5C4.89543 6.5 4 5.60457 4 4.5C4 3.39543 4.89543 2.5 6 2.5C7.10457 2.5 8 3.39543 8 4.5Z" fill="white" stroke="white" stroke-linecap="round" stroke-linejoin="round"/>
</g>
<path d="M26.679 1.5581H25.777V8.8401H26.679V1.5581ZM24.655 6.7611C23.192 6.3101 22.158 5.1441 22.158 3.8461V3.5931H24.391V2.8671H22.169V1.5911H21.267V2.8671H19.023V3.5931H21.267V3.8461C21.267 5.2211 20.266 6.4641 18.792 6.9481L19.232 7.6521C20.398 7.2561 21.3 6.3981 21.729 5.3091C22.18 6.3211 23.082 7.1021 24.226 7.4651L24.655 6.7611ZM21.234 10.4571V8.1691H20.332V11.1941H26.976V10.4571H21.234ZM37.6341 6.4311H36.1711C36.4461 5.0121 36.4461 3.9671 36.4461 3.0431V2.1851H29.8241V2.9111H35.5661V3.0431C35.5661 3.9671 35.5661 5.0121 35.2581 6.4311H28.7131V7.1681H32.6951V11.4251H33.6081V7.1681H37.6341V6.4311ZM44.6408 7.0801C45.0478 7.1791 45.5208 7.2341 46.0048 7.2341C46.4998 7.2341 46.9728 7.1791 47.3908 7.0801V9.4011H44.6408V7.0801ZM46.0048 2.8781C47.5888 2.8781 48.7328 3.6041 48.7328 4.7041C48.7328 5.8041 47.5888 6.5301 46.0048 6.5301C44.4208 6.5301 43.2878 5.8041 43.2878 4.7041C43.2878 3.6041 44.4208 2.8781 46.0048 2.8781ZM48.2928 9.4011V6.7281C49.1068 6.2991 49.5908 5.5951 49.5908 4.7041C49.5908 3.1641 48.1058 2.1741 46.0048 2.1741C43.9148 2.1741 42.4188 3.1641 42.4188 4.7041C42.4188 5.5951 42.9138 6.3101 43.7388 6.7391V9.4011H41.5388V10.1491H50.5038V9.4011H48.2928ZM56.9159 4.3521V5.1001H58.8849V7.5311H59.7979V1.5471H58.8849V4.3521H56.9159ZM57.5099 6.4091C56.0579 5.9801 55.0349 4.8801 55.0349 3.6481V3.4611H57.2129V2.7351H55.0349V1.4921H54.1329V2.7351H51.9439V3.4611H54.1329V3.6481C54.1329 4.9791 53.1429 6.1781 51.6909 6.6731L52.1309 7.3661C53.2969 6.9811 54.1879 6.1451 54.6059 5.0671C55.0569 6.0241 55.9479 6.7611 57.0809 7.1131L57.5099 6.4091ZM56.5309 10.6991C55.0459 10.6991 54.1549 10.2811 54.1549 9.5881C54.1549 8.9061 55.0459 8.4881 56.5309 8.4881C58.0379 8.4881 58.9289 8.9061 58.9289 9.5881C58.9289 10.2811 58.0269 10.6991 56.5309 10.6991ZM56.5309 7.7841C54.5069 7.7841 53.2529 8.4441 53.2529 9.5881C53.2529 10.7431 54.5069 11.4031 56.5309 11.4031C58.5769 11.4031 59.8309 10.7431 59.8309 9.5881C59.8309 8.4441 58.5769 7.7841 56.5309 7.7841Z" fill="white" fill-opacity="0.7"/>
</svg>
