<svg width="100" height="30" viewBox="0 0 54 14" fill="none" xmlns="http://www.w3.org/2000/svg">
<path d="M8.96302 0.296V9.774H10.839V0.296H8.96302ZM2.20102 11.538V13.022H11.161V11.538H2.20102ZM2.20102 8.934V12.406H4.06302V8.934H2.20102ZM3.22302 2.844V3.306C3.22302 4.818 2.29902 6.344 0.171023 6.96L1.05302 8.416C3.55902 7.688 4.74902 5.63 4.74902 3.306V2.844H3.22302ZM3.57302 2.844V3.306C3.57302 5.532 4.76302 7.506 7.28302 8.206L8.15102 6.75C6.02302 6.162 5.08502 4.72 5.08502 3.306V2.844H3.57302ZM0.605023 1.78V3.236H7.68902V1.78H0.605023ZM3.22302 0.352V2.382H5.08502V0.352H3.22302ZM14.2819 1.038V2.508H22.4159V1.038H14.2819ZM12.9519 6.554V8.052H24.6699V6.554H12.9519ZM17.8099 7.604V13.26H19.6859V7.604H17.8099ZM21.4639 1.038V2.186C21.4639 3.53 21.4639 5.07 20.9599 7.24L22.7939 7.45C23.2979 5.154 23.2979 3.586 23.2979 2.186V1.038H21.4639ZM31.8932 6.862V10.502H33.7412V6.862H31.8932ZM36.5972 6.862V10.502H38.4592V6.862H36.5972ZM29.3172 10.236V11.748H41.0492V10.236H29.3172ZM35.1692 0.911999C32.3692 0.911999 30.3252 2.284 30.3252 4.398C30.3252 6.512 32.3692 7.87 35.1692 7.87C37.9552 7.87 40.0132 6.512 40.0132 4.398C40.0132 2.284 37.9552 0.911999 35.1692 0.911999ZM35.1692 2.368C36.9752 2.368 38.1792 3.11 38.1792 4.398C38.1792 5.672 36.9752 6.428 35.1692 6.428C33.3632 6.428 32.1592 5.672 32.1592 4.398C32.1592 3.11 33.3632 2.368 35.1692 2.368ZM45.0941 2.55V3.026C45.0941 4.496 44.1841 5.98 42.0981 6.568L42.9661 8.024C45.4441 7.31 46.5921 5.28 46.5921 3.026V2.55H45.0941ZM45.4441 2.55V3.026C45.4441 5.154 46.6341 7.044 49.1261 7.702L49.9661 6.26C47.8801 5.714 46.9561 4.356 46.9561 3.026V2.55H45.4441ZM42.5461 1.626V3.082H49.5041V1.626H42.5461ZM45.0941 0.24V2.2H46.9561V0.24H45.0941ZM49.1401 3.74V5.238H51.6181V3.74H49.1401ZM51.1701 0.282V8.108H53.0321V0.282H51.1701ZM48.6361 8.332C45.8921 8.332 44.1981 9.228 44.1981 10.782C44.1981 12.336 45.8921 13.246 48.6361 13.246C51.3801 13.246 53.0741 12.336 53.0741 10.782C53.0741 9.228 51.3801 8.332 48.6361 8.332ZM48.6361 9.746C50.3441 9.746 51.2261 10.082 51.2261 10.782C51.2261 11.482 50.3441 11.832 48.6361 11.832C46.9421 11.832 46.0601 11.482 46.0601 10.782C46.0601 10.082 46.9421 9.746 48.6361 9.746Z" fill="white"/>
</svg>
