<svg width="364" height="70" viewBox="0 0 312 48" fill="none" xmlns="http://www.w3.org/2000/svg">
<rect width="312" height="48" rx="24" fill="#23233F"/>
<path d="M121.362 24.32H119.91C120.186 22.772 120.186 21.644 120.186 20.612V19.616H112.518V20.888H118.638C118.638 21.836 118.614 22.916 118.338 24.32H111.378V25.592H115.506V30.032H117.114V25.592H121.362V24.32ZM125.117 27.98H131.213V24.872H123.521V26.096H129.629V26.816H123.533V29.948H131.489V28.724H125.117V27.98ZM131.033 22.868C131.237 21.776 131.237 20.876 131.237 20.168V19.412H123.641V20.672H129.677C129.665 21.284 129.629 21.98 129.449 22.868H122.405V24.116H132.413V22.868H131.033ZM138.928 27.752V25.724H142.372V24.932H135.748V23.192H142.12V19.916H134.752V20.72H141.16V22.4H134.776V25.724H137.932V27.752H133.552V28.556H143.332V27.752H138.928ZM152.955 27.752V25.724H156.399V24.932H149.775V23.192H156.147V19.916H148.779V20.72H155.187V22.4H148.803V25.724H151.959V27.752H147.579V28.556H157.359V27.752H152.955ZM166.094 21.344C166.094 22.676 166.094 24.284 165.662 26.48L166.646 26.588C167.066 24.26 167.066 22.712 167.066 21.344V20.264H159.686V21.068H166.094V21.344ZM158.642 27.5V28.316H168.374V27.5H158.642ZM178.501 19.136H177.517V26.996H178.501V19.136ZM170.881 22.52C170.881 21.476 171.673 20.732 172.717 20.732C173.785 20.732 174.577 21.476 174.577 22.52C174.577 23.588 173.785 24.332 172.717 24.332C171.673 24.332 170.881 23.588 170.881 22.52ZM175.537 22.52C175.537 20.972 174.325 19.88 172.717 19.88C171.121 19.88 169.921 20.972 169.921 22.52C169.921 24.08 171.121 25.184 172.717 25.184C174.325 25.184 175.537 24.08 175.537 22.52ZM172.561 28.844V26.192H171.577V29.648H178.825V28.844H172.561ZM183.864 26.672C182.892 26.672 182.184 25.976 182.184 25.016C182.184 24.044 182.892 23.348 183.864 23.348C184.848 23.348 185.556 24.044 185.556 25.016C185.556 25.976 184.848 26.672 183.864 26.672ZM183.864 22.532C182.352 22.532 181.26 23.564 181.26 25.016C181.26 26.48 182.352 27.488 183.864 27.488C185.4 27.488 186.492 26.48 186.492 25.016C186.492 23.564 185.4 22.532 183.864 22.532ZM184.344 19.256H183.36V20.852H180.648V21.644H186.996V20.852H184.344V19.256ZM190.764 23.552H189V19.136H188.016V29.888H189V24.38H190.764V23.552ZM192.383 20.288V21.08H196.427C196.223 23.636 194.783 25.7 191.891 27.08L192.419 27.884C195.995 26.132 197.423 23.396 197.423 20.288H192.383ZM199.595 19.124V29.888H200.579V19.124H199.595Z" fill="white"/>
<path d="M31.9567 22.356V25.807H36.7487C36.3027 28 34.4357 29.26 31.9567 29.26C29.0692 29.2202 26.7494 26.8682 26.7494 23.9805C26.7494 21.0928 29.0692 18.7407 31.9567 18.701C33.1569 18.6995 34.3202 19.1161 35.2467 19.879L37.8467 17.279C34.8643 14.657 30.5087 14.3198 27.1583 16.4514C23.8078 18.583 22.2677 22.6712 23.3789 26.4836C24.4902 30.296 27.9856 32.9164 31.9567 32.914C36.4237 32.914 40.4857 29.665 40.4857 23.98C40.4788 23.4326 40.4117 22.8877 40.2857 22.355L31.9567 22.356Z" fill="white"/>
</svg>
