<svg width="130" height="30" viewBox="0 0 116 24" fill="none" xmlns="http://www.w3.org/2000/svg">
<path d="M8.12722 7.204H5.60722V6.016H4.02322V7.204H1.49122V8.44H8.12722V7.204ZM3.57922 10.948C3.57922 10.384 4.08322 10.072 4.81522 10.072C5.55922 10.072 6.05122 10.384 6.05122 10.948C6.05122 11.524 5.55922 11.836 4.81522 11.836C4.08322 11.836 3.57922 11.524 3.57922 10.948ZM5.60722 12.952C6.78322 12.724 7.55122 11.98 7.55122 10.948C7.55122 9.712 6.42322 8.872 4.81522 8.872C3.19522 8.872 2.06722 9.712 2.06722 10.948C2.06722 11.98 2.83522 12.724 4.02322 12.952V13.888C3.03922 13.912 2.10322 13.912 1.27522 13.912L1.46722 15.196C3.42322 15.196 5.97922 15.184 8.39122 14.74L8.27122 13.588C7.40722 13.708 6.50722 13.768 5.60722 13.828V12.952ZM8.84722 5.98V17.032H10.4312V5.98H8.84722ZM17.8943 12.4V13.48H19.9703V14.356H21.5543V5.98H19.9703V12.4H17.8943ZM15.7703 7.504C16.5023 7.504 17.0183 7.792 17.0183 8.332C17.0183 8.872 16.5023 9.148 15.7703 9.148C15.0263 9.148 14.5103 8.872 14.5103 8.332C14.5103 7.792 15.0263 7.504 15.7703 7.504ZM15.7703 10.3C17.3783 10.3 18.5183 9.508 18.5183 8.332C18.5183 7.156 17.3783 6.352 15.7703 6.352C14.1503 6.352 13.0223 7.156 13.0223 8.332C13.0223 9.508 14.1503 10.3 15.7703 10.3ZM15.1823 15.58V14.068H16.7063V11.98C17.5943 11.908 18.4823 11.812 19.3463 11.668L19.2383 10.54C16.9103 10.84 14.2223 10.864 12.2063 10.876L12.4103 12.136C13.2383 12.136 14.1623 12.124 15.1343 12.076V13.552H13.5983V16.84H21.7943V15.58H15.1823ZM23.7973 7.108V8.392H27.4093C27.1213 10.84 25.7533 12.592 23.1853 13.912L24.0733 15.124C27.7453 13.264 29.0053 10.42 29.0053 7.108H23.7973ZM33.4933 10.192H31.9453V5.968H30.3613V17.008H31.9453V11.5H33.4933V10.192ZM41.9164 5.98V11.92H43.5124V5.98H41.9164ZM36.1684 12.4V16.9H43.5124V12.4H41.9404V13.432H37.7404V12.4H36.1684ZM37.7404 14.644H41.9404V15.64H37.7404V14.644ZM37.5004 6.436C35.7844 6.436 34.4884 7.528 34.4884 9.04C34.4884 10.564 35.7844 11.656 37.5004 11.656C39.2164 11.656 40.5004 10.564 40.5004 9.04C40.5004 7.528 39.2164 6.436 37.5004 6.436ZM37.5004 7.744C38.3404 7.744 38.9524 8.236 38.9524 9.04C38.9524 9.868 38.3404 10.348 37.5004 10.348C36.6604 10.348 36.0364 9.868 36.0364 9.04C36.0364 8.236 36.6604 7.744 37.5004 7.744ZM48.6475 13.672C47.6755 13.672 46.9675 12.976 46.9675 12.016C46.9675 11.044 47.6755 10.348 48.6475 10.348C49.6315 10.348 50.3395 11.044 50.3395 12.016C50.3395 12.976 49.6315 13.672 48.6475 13.672ZM48.6475 9.532C47.1355 9.532 46.0435 10.564 46.0435 12.016C46.0435 13.48 47.1355 14.488 48.6475 14.488C50.1835 14.488 51.2755 13.48 51.2755 12.016C51.2755 10.564 50.1835 9.532 48.6475 9.532ZM49.1275 6.256H48.1435V7.852H45.4315V8.644H51.7795V7.852H49.1275V6.256ZM55.5475 10.552H53.7835V6.136H52.7995V16.888H53.7835V11.38H55.5475V10.552ZM57.8985 10.888H61.7145V7.12H56.9025V7.924H60.7545V10.096H56.9265V14.308H57.7545C59.6985 14.308 61.0665 14.248 62.6865 13.96L62.5905 13.144C61.0425 13.42 59.7345 13.492 57.8985 13.492V10.888ZM64.4025 6.112V10.264H62.3505V11.068H64.4025V16.9H65.3865V6.112H64.4025ZM71.1339 7.276V8.092H75.0819C74.8539 10.636 73.3779 12.7 70.6299 14.08L71.1699 14.848C74.6499 13.108 76.0539 10.336 76.0539 7.276H71.1339ZM80.5659 10.492H78.8379V6.124H77.8539V16.888H78.8379V11.308H80.5659V10.492ZM82.2329 7.288V8.08H86.2769C86.0729 10.636 84.6329 12.7 81.7409 14.08L82.2689 14.884C85.8449 13.132 87.2729 10.396 87.2729 7.288H82.2329ZM89.4449 6.124V16.888H90.4289V6.124H89.4449Z" fill="#C5A3FF"/>
<path d="M107.712 12L102.408 6.6969C102.018 6.30648 101.385 6.3065 100.994 6.69696V6.69696C100.604 7.08744 100.604 7.72054 100.994 8.11102L104.887 12.004L100.995 15.8903C100.604 16.2805 100.604 16.9137 100.994 17.3043V17.3043C101.385 17.6946 102.018 17.6946 102.408 17.3043L107.712 12Z" fill="#C5A3FF"/>
</svg>
