<svg width="115" height="24" viewBox="0 0 115 24" fill="none" xmlns="http://www.w3.org/2000/svg">
<path d="M3.296 7.992C3.296 6.192 4.544 5.112 6.2 5.112C7.832 5.112 9.104 6.192 9.104 7.992C9.104 9.792 7.832 10.872 6.2 10.872C4.544 10.872 3.296 9.792 3.296 7.992ZM12.176 7.992C12.176 4.728 9.56 2.376 6.2 2.376C2.816 2.376 0.2 4.728 0.2 7.992C0.2 11.232 2.816 13.608 6.2 13.608C9.56 13.608 12.176 11.232 12.176 7.992ZM6.344 15.384H3.176V22.68H18.224V20.16H6.344V15.384ZM17.432 7.296V0.959999H14.264V17.04H17.432V9.888H20.36V7.296H17.432ZM37.4221 14.208H40.5901V0.959999H37.4221V2.928H32.1661V5.328H37.4221V6.744H32.1661V9.144H37.4221V14.208ZM34.6141 10.08C32.0221 10.56 29.6701 10.704 26.5501 10.752V2.088H23.3821V13.32H25.1821C29.1421 13.32 31.9261 13.2 34.9501 12.6L34.6141 10.08ZM33.1261 20.64C30.2221 20.64 28.7101 20.064 28.7101 18.816C28.7101 17.544 30.2221 16.968 33.1261 16.968C36.0061 16.968 37.5181 17.544 37.5181 18.816C37.5181 20.064 36.0061 20.64 33.1261 20.64ZM33.1261 14.496C28.4221 14.496 25.5421 16.08 25.5421 18.816C25.5421 21.504 28.4221 23.088 33.1261 23.088C37.8061 23.088 40.6861 21.504 40.6861 18.816C40.6861 16.08 37.8061 14.496 33.1261 14.496ZM50.5723 15.96C49.0843 15.96 47.9803 14.952 47.9803 13.272C47.9803 11.592 49.0843 10.56 50.5723 10.56C52.0603 10.56 53.1403 11.592 53.1403 13.248C53.1403 14.952 52.0603 15.96 50.5723 15.96ZM50.5723 7.992C47.3563 7.992 44.9563 10.176 44.9563 13.248C44.9563 16.368 47.3563 18.552 50.5723 18.552C53.7643 18.552 56.1403 16.368 56.1403 13.248C56.1403 10.176 53.7643 7.992 50.5723 7.992ZM52.1323 1.344H48.9643V4.224H44.0683V6.744H56.9323V4.224H52.1323V1.344ZM64.7083 9.6H61.5403V0.959999H58.3723V23.064H61.5403V12.216H64.7083V9.6ZM73.3224 2.88H70.2744V6.6C70.2744 10.368 69.0984 14.328 65.8584 16.296L67.7544 18.672C69.7464 17.472 71.0424 15.36 71.8104 12.912C72.5064 15.144 73.6824 17.016 75.5544 18.168L77.2824 15.72C74.2824 13.728 73.3224 10.056 73.3224 6.48V2.88ZM77.7384 8.424H74.9544V10.992H77.7384V22.08H80.6904V1.32H77.7384V8.424ZM82.2264 0.959999V23.064H85.2264V0.959999H82.2264ZM95.9045 13.704C96.6725 13.848 97.4645 13.92 98.3285 13.92C99.1925 13.92 100.009 13.848 100.777 13.704V17.928H95.9045V13.704ZM98.3285 4.536C101.401 4.536 103.465 5.784 103.465 7.992C103.465 10.176 101.401 11.448 98.3285 11.448C95.2565 11.448 93.2165 10.176 93.2165 7.992C93.2165 5.784 95.2565 4.536 98.3285 4.536ZM103.921 17.928V12.528C105.577 11.496 106.585 9.912 106.585 7.992C106.585 4.368 103.105 2.04 98.3285 2.04C93.5765 2.04 90.0965 4.368 90.0965 7.992C90.0725 9.912 91.0805 11.496 92.7605 12.528V17.928H88.3445V20.496H108.361V17.928H103.921ZM111.77 15.3633H114.031L114.23 4.08984H111.57L111.77 15.3633ZM112.906 21.1523C113.359 21.1523 113.738 21.0039 114.043 20.707C114.348 20.4023 114.5 20.0273 114.5 19.582C114.5 19.1367 114.348 18.7656 114.043 18.4688C113.738 18.1719 113.359 18.0234 112.906 18.0234C112.453 18.0234 112.07 18.1719 111.758 18.4688C111.453 18.7656 111.301 19.1367 111.301 19.582C111.301 20.0273 111.453 20.4023 111.758 20.707C112.07 21.0039 112.453 21.1523 112.906 21.1523Z" fill="white"/>
</svg>
