<svg width="48" height="18" viewBox="0 0 37 14" fill="none" xmlns="http://www.w3.org/2000/svg">
<path d="M4.06 1.402C2.198 1.402 0.882 3.124 0.882 5.812C0.882 8.514 2.198 10.236 4.06 10.236C5.922 10.236 7.238 8.514 7.238 5.812C7.238 3.124 5.922 1.402 4.06 1.402ZM4.06 2.452C5.278 2.452 6.132 3.768 6.132 5.812C6.132 7.87 5.278 9.214 4.06 9.214C2.828 9.214 1.988 7.87 1.988 5.812C1.988 3.768 2.828 2.452 4.06 2.452ZM9.254 0.436V13.092H10.43V0.436H9.254ZM10.15 5.49V6.47H12.502V5.49H10.15ZM22.7629 0.422V13.106H23.9249V0.422H22.7629ZM17.2469 1.402C15.3849 1.402 14.0409 3.124 14.0409 5.812C14.0409 8.514 15.3849 10.236 17.2469 10.236C19.1229 10.236 20.4669 8.514 20.4669 5.812C20.4669 3.124 19.1229 1.402 17.2469 1.402ZM17.2469 2.452C18.4929 2.452 19.3469 3.768 19.3469 5.812C19.3469 7.87 18.4929 9.214 17.2469 9.214C16.0149 9.214 15.1469 7.87 15.1469 5.812C15.1469 3.768 16.0149 2.452 17.2469 2.452ZM35.6418 0.436V13.12H36.8038V0.436H35.6418ZM27.2698 8.99V9.97H28.2918C30.8398 9.97 32.4918 9.9 34.4238 9.536L34.2978 8.556C32.4218 8.906 30.7978 8.99 28.2918 8.99H27.2698ZM27.2698 1.64V9.354H28.4178V2.606H33.2478V1.64H27.2698Z" fill="white"/>
</svg>
