<svg width="70" height="31" viewBox="0 0 70 31" fill="none" xmlns="http://www.w3.org/2000/svg">
<rect width="70" height="31" rx="15.5" fill="#484868"/>
<path d="M23.4364 10.66H22.1064V17.27H23.4364V10.66ZM17.2064 13.58C17.2064 12.82 17.7464 12.38 18.4264 12.38C19.1164 12.38 19.6364 12.82 19.6364 13.58C19.6364 14.32 19.1164 14.77 18.4264 14.77C17.7464 14.77 17.2064 14.32 17.2064 13.58ZM20.9264 13.58C20.9264 12.22 19.8364 11.24 18.4264 11.24C17.0164 11.24 15.9164 12.22 15.9164 13.58C15.9164 14.92 17.0164 15.91 18.4264 15.91C19.8364 15.91 20.9264 14.92 20.9264 13.58ZM18.6264 18.65V16.62H17.3064V19.7H23.6664V18.65H18.6264ZM25.7857 14.55C27.5257 14.39 28.6557 13.75 29.1457 12.87C29.6257 13.75 30.7657 14.39 32.4957 14.55L32.9557 13.52C31.2057 13.37 30.3057 12.76 30.0957 12.13H32.5557V11.08H25.7457V12.13H28.1957C27.9857 12.76 27.0857 13.37 25.3457 13.52L25.7857 14.55ZM29.1257 18.85C27.8957 18.85 27.2657 18.63 27.2657 18.15C27.2657 17.67 27.8957 17.46 29.1257 17.46C30.3557 17.46 30.9857 17.67 30.9857 18.15C30.9857 18.63 30.3557 18.85 29.1257 18.85ZM29.1257 16.44C27.1357 16.44 25.9357 17.07 25.9357 18.15C25.9357 19.24 27.1357 19.86 29.1257 19.86C31.1157 19.86 32.3257 19.24 32.3257 18.15C32.3257 17.07 31.1157 16.44 29.1257 16.44ZM24.9857 14.9V15.94H33.3057V14.9H24.9857ZM39.8251 15.96C40.1451 16.02 40.4751 16.05 40.8351 16.05C41.1951 16.05 41.5351 16.02 41.8551 15.96V17.72H39.8251V15.96ZM40.8351 12.14C42.1151 12.14 42.9751 12.66 42.9751 13.58C42.9751 14.49 42.1151 15.02 40.8351 15.02C39.5551 15.02 38.7051 14.49 38.7051 13.58C38.7051 12.66 39.5551 12.14 40.8351 12.14ZM43.1651 17.72V15.47C43.8551 15.04 44.2751 14.38 44.2751 13.58C44.2751 12.07 42.8251 11.1 40.8351 11.1C38.8551 11.1 37.4051 12.07 37.4051 13.58C37.3951 14.38 37.8151 15.04 38.5151 15.47V17.72H36.6751V18.79H45.0151V17.72H43.1651ZM50.8243 13.11V14.17H52.2543V16.21H53.5743V10.65H52.2543V13.11H50.8243ZM51.4043 14.91C49.9343 14.52 49.2743 13.59 49.2543 12.64H51.0743V11.6H49.2543V10.62H47.9343V11.6H46.1343V12.64H47.9343C47.9143 13.67 47.2743 14.71 45.8143 15.13L46.4343 16.15C47.5043 15.84 48.2243 15.19 48.6343 14.35C49.0543 15.08 49.7743 15.65 50.8043 15.92L51.4043 14.91ZM50.4643 18.85C49.2443 18.85 48.6243 18.62 48.6243 18.12C48.6243 17.62 49.2443 17.38 50.4643 17.38C51.6643 17.38 52.2943 17.62 52.2943 18.12C52.2943 18.62 51.6643 18.85 50.4643 18.85ZM50.4643 16.37C48.5043 16.37 47.3043 17.01 47.3043 18.12C47.3043 19.22 48.5043 19.86 50.4643 19.86C52.4143 19.86 53.6143 19.22 53.6143 18.12C53.6143 17.01 52.4143 16.37 50.4643 16.37Z" fill="white"/>
</svg>
