<svg width="92" height="24" viewBox="0 0 92 24" fill="none" xmlns="http://www.w3.org/2000/svg">
<path d="M5.624 16.44H2.456V22.68H17.792V20.16H5.624V16.44ZM5.72 6.36H14.336V8.28H5.72V6.36ZM11.576 12.624V10.776H17.48V1.752H14.336V3.912H5.72V1.752H2.576V10.776H8.408V12.624H0.032V15.144H20.024V12.624H11.576ZM40.4701 0.983999H37.2781V16.848H40.4701V0.983999ZM25.5181 7.992C25.5181 6.168 26.8141 5.112 28.4461 5.112C30.1021 5.112 31.3501 6.168 31.3501 7.992C31.3501 9.768 30.1021 10.848 28.4461 10.848C26.8141 10.848 25.5181 9.768 25.5181 7.992ZM34.4461 7.992C34.4461 4.728 31.8301 2.376 28.4461 2.376C25.0621 2.376 22.4221 4.728 22.4221 7.992C22.4221 11.208 25.0621 13.584 28.4461 13.584C31.8301 13.584 34.4461 11.208 34.4461 7.992ZM28.9261 20.16V15.288H25.7581V22.68H41.0221V20.16H28.9261ZM67.7279 0.983999H64.5359V16.848H67.7279V0.983999ZM52.7759 7.992C52.7759 6.168 54.0719 5.112 55.7039 5.112C57.3599 5.112 58.6079 6.168 58.6079 7.992C58.6079 9.768 57.3599 10.848 55.7039 10.848C54.0719 10.848 52.7759 9.768 52.7759 7.992ZM61.7039 7.992C61.7039 4.728 59.0879 2.376 55.7039 2.376C52.3199 2.376 49.6799 4.728 49.6799 7.992C49.6799 11.208 52.3199 13.584 55.7039 13.584C59.0879 13.584 61.7039 11.208 61.7039 7.992ZM56.1839 20.16V15.288H53.0159V22.68H68.2799V20.16H56.1839ZM73.3661 10.32C77.5421 9.936 80.2541 8.4 81.4301 6.288C82.5821 8.4 85.3181 9.936 89.4701 10.32L90.5741 7.848C86.3741 7.488 84.2141 6.024 83.7101 4.512H89.6141V1.992H73.2701V4.512H79.1501C78.6461 6.024 76.4861 7.488 72.3101 7.848L73.3661 10.32ZM81.3821 20.64C78.4301 20.64 76.9181 20.112 76.9181 18.96C76.9181 17.808 78.4301 17.304 81.3821 17.304C84.3341 17.304 85.8461 17.808 85.8461 18.96C85.8461 20.112 84.3341 20.64 81.3821 20.64ZM81.3821 14.856C76.6061 14.856 73.7261 16.368 73.7261 18.96C73.7261 21.576 76.6061 23.064 81.3821 23.064C86.1581 23.064 89.0621 21.576 89.0621 18.96C89.0621 16.368 86.1581 14.856 81.3821 14.856ZM71.4461 11.16V13.656H91.4141V11.16H71.4461Z" fill="white"/>
</svg>
