<svg width="100" height="61" viewBox="0 0 100 61" fill="none" xmlns="http://www.w3.org/2000/svg">
<g filter="url(#filter0_d_468_4170)">
<rect x="15" y="10" width="70" height="31" rx="15.5" fill="#9F70F1"/>
</g>
<path d="M38.4364 20.66H37.1064V27.27H38.4364V20.66ZM32.2064 23.58C32.2064 22.82 32.7464 22.38 33.4264 22.38C34.1164 22.38 34.6364 22.82 34.6364 23.58C34.6364 24.32 34.1164 24.77 33.4264 24.77C32.7464 24.77 32.2064 24.32 32.2064 23.58ZM35.9264 23.58C35.9264 22.22 34.8364 21.24 33.4264 21.24C32.0164 21.24 30.9164 22.22 30.9164 23.58C30.9164 24.92 32.0164 25.91 33.4264 25.91C34.8364 25.91 35.9264 24.92 35.9264 23.58ZM33.6264 28.65V26.62H32.3064V29.7H38.6664V28.65H33.6264ZM40.7857 24.55C42.5257 24.39 43.6557 23.75 44.1457 22.87C44.6257 23.75 45.7657 24.39 47.4957 24.55L47.9557 23.52C46.2057 23.37 45.3057 22.76 45.0957 22.13H47.5557V21.08H40.7457V22.13H43.1957C42.9857 22.76 42.0857 23.37 40.3457 23.52L40.7857 24.55ZM44.1257 28.85C42.8957 28.85 42.2657 28.63 42.2657 28.15C42.2657 27.67 42.8957 27.46 44.1257 27.46C45.3557 27.46 45.9857 27.67 45.9857 28.15C45.9857 28.63 45.3557 28.85 44.1257 28.85ZM44.1257 26.44C42.1357 26.44 40.9357 27.07 40.9357 28.15C40.9357 29.24 42.1357 29.86 44.1257 29.86C46.1157 29.86 47.3257 29.24 47.3257 28.15C47.3257 27.07 46.1157 26.44 44.1257 26.44ZM39.9857 24.9V25.94H48.3057V24.9H39.9857ZM54.8251 25.96C55.1451 26.02 55.4751 26.05 55.8351 26.05C56.1951 26.05 56.5351 26.02 56.8551 25.96V27.72H54.8251V25.96ZM55.8351 22.14C57.1151 22.14 57.9751 22.66 57.9751 23.58C57.9751 24.49 57.1151 25.02 55.8351 25.02C54.5551 25.02 53.7051 24.49 53.7051 23.58C53.7051 22.66 54.5551 22.14 55.8351 22.14ZM58.1651 27.72V25.47C58.8551 25.04 59.2751 24.38 59.2751 23.58C59.2751 22.07 57.8251 21.1 55.8351 21.1C53.8551 21.1 52.4051 22.07 52.4051 23.58C52.3951 24.38 52.8151 25.04 53.5151 25.47V27.72H51.6751V28.79H60.0151V27.72H58.1651ZM65.8243 23.11V24.17H67.2543V26.21H68.5743V20.65H67.2543V23.11H65.8243ZM66.4043 24.91C64.9343 24.52 64.2743 23.59 64.2543 22.64H66.0743V21.6H64.2543V20.62H62.9343V21.6H61.1343V22.64H62.9343C62.9143 23.67 62.2743 24.71 60.8143 25.13L61.4343 26.15C62.5043 25.84 63.2243 25.19 63.6343 24.35C64.0543 25.08 64.7743 25.65 65.8043 25.92L66.4043 24.91ZM65.4643 28.85C64.2443 28.85 63.6243 28.62 63.6243 28.12C63.6243 27.62 64.2443 27.38 65.4643 27.38C66.6643 27.38 67.2943 27.62 67.2943 28.12C67.2943 28.62 66.6643 28.85 65.4643 28.85ZM65.4643 26.37C63.5043 26.37 62.3043 27.01 62.3043 28.12C62.3043 29.22 63.5043 29.86 65.4643 29.86C67.4143 29.86 68.6143 29.22 68.6143 28.12C68.6143 27.01 67.4143 26.37 65.4643 26.37Z" fill="white"/>
<defs>
<filter id="filter0_d_468_4170" x="0" y="0" width="100" height="61" filterUnits="userSpaceOnUse" color-interpolation-filters="sRGB">
<feFlood flood-opacity="0" result="BackgroundImageFix"/>
<feColorMatrix in="SourceAlpha" type="matrix" values="0 0 0 0 0 0 0 0 0 0 0 0 0 0 0 0 0 0 127 0" result="hardAlpha"/>
<feOffset dy="5"/>
<feGaussianBlur stdDeviation="7.5"/>
<feComposite in2="hardAlpha" operator="out"/>
<feColorMatrix type="matrix" values="0 0 0 0 0.623529 0 0 0 0 0.439216 0 0 0 0 0.945098 0 0 0 0.55 0"/>
<feBlend mode="normal" in2="BackgroundImageFix" result="effect1_dropShadow_468_4170"/>
<feBlend mode="normal" in="SourceGraphic" in2="effect1_dropShadow_468_4170" result="shape"/>
</filter>
</defs>
</svg>
