<svg width="38" height="12" viewBox="0 0 38 12" fill="none" xmlns="http://www.w3.org/2000/svg">
<path d="M4.87891 6.38086V0.46875H6.63086V6.38086C6.63086 6.95117 6.50586 7.44141 6.25586 7.85156C6.00586 8.25781 5.66406 8.57031 5.23047 8.78906C4.80078 9.00781 4.31641 9.11719 3.77734 9.11719C3.21875 9.11719 2.72461 9.02344 2.29492 8.83594C1.86523 8.64844 1.52734 8.36133 1.28125 7.97461C1.03516 7.58398 0.912109 7.08984 0.912109 6.49219H2.67578C2.67578 6.80469 2.71875 7.05273 2.80469 7.23633C2.89453 7.41992 3.02148 7.55078 3.18555 7.62891C3.34961 7.70703 3.54688 7.74609 3.77734 7.74609C4 7.74609 4.19336 7.69336 4.35742 7.58789C4.52148 7.48242 4.64844 7.32812 4.73828 7.125C4.83203 6.92188 4.87891 6.67383 4.87891 6.38086ZM11.7754 7.48242V2.66016H13.4629V9H11.875L11.7754 7.48242ZM11.9629 6.18164L12.4609 6.16992C12.4609 6.5918 12.4121 6.98438 12.3145 7.34766C12.2168 7.70703 12.0703 8.01953 11.875 8.28516C11.6797 8.54688 11.4336 8.75195 11.1367 8.90039C10.8398 9.04492 10.4902 9.11719 10.0879 9.11719C9.7793 9.11719 9.49414 9.07422 9.23242 8.98828C8.97461 8.89844 8.75195 8.75977 8.56445 8.57227C8.38086 8.38086 8.23633 8.13672 8.13086 7.83984C8.0293 7.53906 7.97852 7.17773 7.97852 6.75586V2.66016H9.66602V6.76758C9.66602 6.95508 9.6875 7.11328 9.73047 7.24219C9.77734 7.37109 9.8418 7.47656 9.92383 7.55859C10.0059 7.64062 10.1016 7.69922 10.2109 7.73438C10.3242 7.76953 10.4492 7.78711 10.5859 7.78711C10.9336 7.78711 11.207 7.7168 11.4062 7.57617C11.6094 7.43555 11.752 7.24414 11.834 7.00195C11.9199 6.75586 11.9629 6.48242 11.9629 6.18164ZM16.4043 4.01367V9H14.7168V2.66016H16.2988L16.4043 4.01367ZM16.1582 5.60742H15.7012C15.7012 5.13867 15.7617 4.7168 15.8828 4.3418C16.0039 3.96289 16.1738 3.64062 16.3926 3.375C16.6113 3.10547 16.8711 2.90039 17.1719 2.75977C17.4766 2.61523 17.8164 2.54297 18.1914 2.54297C18.4883 2.54297 18.7598 2.58594 19.0059 2.67188C19.252 2.75781 19.4629 2.89453 19.6387 3.08203C19.8184 3.26953 19.9551 3.51758 20.0488 3.82617C20.1465 4.13477 20.1953 4.51172 20.1953 4.95703V9H18.4961V4.95117C18.4961 4.66992 18.457 4.45117 18.3789 4.29492C18.3008 4.13867 18.1855 4.0293 18.0332 3.9668C17.8848 3.90039 17.7012 3.86719 17.4824 3.86719C17.2559 3.86719 17.0586 3.91211 16.8906 4.00195C16.7266 4.0918 16.5898 4.2168 16.4805 4.37695C16.375 4.5332 16.2949 4.7168 16.2402 4.92773C16.1855 5.13867 16.1582 5.36523 16.1582 5.60742ZM25.4922 2.66016H27.0215V8.78906C27.0215 9.36719 26.8926 9.85742 26.6348 10.2598C26.3809 10.666 26.0254 10.9727 25.5684 11.1797C25.1113 11.3906 24.5801 11.4961 23.9746 11.4961C23.709 11.4961 23.4277 11.4609 23.1309 11.3906C22.8379 11.3203 22.5566 11.2109 22.2871 11.0625C22.0215 10.9141 21.7988 10.7266 21.6191 10.5L22.3633 9.50391C22.5586 9.73047 22.7852 9.90625 23.043 10.0312C23.3008 10.1602 23.5859 10.2246 23.8984 10.2246C24.2031 10.2246 24.4609 10.168 24.6719 10.0547C24.8828 9.94531 25.0449 9.7832 25.1582 9.56836C25.2715 9.35742 25.3281 9.10156 25.3281 8.80078V4.125L25.4922 2.66016ZM21.2266 5.90625V5.7832C21.2266 5.29883 21.2852 4.85938 21.4023 4.46484C21.5234 4.06641 21.6934 3.72461 21.9121 3.43945C22.1348 3.1543 22.4043 2.93359 22.7207 2.77734C23.0371 2.62109 23.3945 2.54297 23.793 2.54297C24.2148 2.54297 24.5684 2.62109 24.8535 2.77734C25.1387 2.93359 25.373 3.15625 25.5566 3.44531C25.7402 3.73047 25.8828 4.06836 25.9844 4.45898C26.0898 4.8457 26.1719 5.26953 26.2305 5.73047V6C26.1719 6.44141 26.084 6.85156 25.9668 7.23047C25.8496 7.60938 25.6953 7.94141 25.5039 8.22656C25.3125 8.50781 25.0742 8.72656 24.7891 8.88281C24.5078 9.03906 24.1719 9.11719 23.7812 9.11719C23.3906 9.11719 23.0371 9.03711 22.7207 8.87695C22.4082 8.7168 22.1406 8.49219 21.918 8.20312C21.6953 7.91406 21.5234 7.57422 21.4023 7.18359C21.2852 6.79297 21.2266 6.36719 21.2266 5.90625ZM22.9141 5.7832V5.90625C22.9141 6.16797 22.9395 6.41211 22.9902 6.63867C23.041 6.86523 23.1191 7.06641 23.2246 7.24219C23.334 7.41406 23.4688 7.54883 23.6289 7.64648C23.793 7.74023 23.9863 7.78711 24.209 7.78711C24.5176 7.78711 24.7695 7.72266 24.9648 7.59375C25.1602 7.46094 25.3066 7.2793 25.4043 7.04883C25.502 6.81836 25.5586 6.55273 25.5742 6.25195V5.48438C25.5664 5.23828 25.5332 5.01758 25.4746 4.82227C25.416 4.62305 25.334 4.45312 25.2285 4.3125C25.123 4.17188 24.9863 4.0625 24.8184 3.98438C24.6504 3.90625 24.4512 3.86719 24.2207 3.86719C23.998 3.86719 23.8047 3.91797 23.6406 4.01953C23.4805 4.11719 23.3457 4.25195 23.2363 4.42383C23.1309 4.5957 23.0508 4.79883 22.9961 5.0332C22.9414 5.26367 22.9141 5.51367 22.9141 5.7832ZM30.1152 0V9H28.4219V0H30.1152ZM34.4277 9.11719C33.9355 9.11719 33.4941 9.03906 33.1035 8.88281C32.7129 8.72266 32.3809 8.50195 32.1074 8.2207C31.8379 7.93945 31.6309 7.61328 31.4863 7.24219C31.3418 6.86719 31.2695 6.46875 31.2695 6.04688V5.8125C31.2695 5.33203 31.3379 4.89258 31.4746 4.49414C31.6113 4.0957 31.8066 3.75 32.0605 3.45703C32.3184 3.16406 32.6309 2.93945 32.998 2.7832C33.3652 2.62305 33.7793 2.54297 34.2402 2.54297C34.6895 2.54297 35.0879 2.61719 35.4355 2.76562C35.7832 2.91406 36.0742 3.125 36.3086 3.39844C36.5469 3.67188 36.7266 4 36.8477 4.38281C36.9688 4.76172 37.0293 5.18359 37.0293 5.64844V6.35156H31.9902V5.22656H35.3711V5.09766C35.3711 4.86328 35.3281 4.6543 35.2422 4.4707C35.1602 4.2832 35.0352 4.13477 34.8672 4.02539C34.6992 3.91602 34.4844 3.86133 34.2227 3.86133C34 3.86133 33.8086 3.91016 33.6484 4.00781C33.4883 4.10547 33.3574 4.24219 33.2559 4.41797C33.1582 4.59375 33.084 4.80078 33.0332 5.03906C32.9863 5.27344 32.9629 5.53125 32.9629 5.8125V6.04688C32.9629 6.30078 32.998 6.53516 33.0684 6.75C33.1426 6.96484 33.2461 7.15039 33.3789 7.30664C33.5156 7.46289 33.6797 7.58398 33.8711 7.66992C34.0664 7.75586 34.2871 7.79883 34.5332 7.79883C34.8379 7.79883 35.1211 7.74023 35.3828 7.62305C35.6484 7.50195 35.877 7.32031 36.0684 7.07812L36.8887 7.96875C36.7559 8.16016 36.5742 8.34375 36.3438 8.51953C36.1172 8.69531 35.8438 8.83984 35.5234 8.95312C35.2031 9.0625 34.8379 9.11719 34.4277 9.11719Z" fill="#9F70F1"/>
</svg>
