<svg width="364" height="70" viewBox="0 0 312 48" fill="none" xmlns="http://www.w3.org/2000/svg">
<rect width="312" height="48" rx="24" fill="#23233F"/>
<path d="M106.482 20.036V21.296H109.986C109.95 21.824 109.866 22.304 109.758 22.76L105.894 22.988L106.098 24.332L109.302 24.02C108.678 25.232 107.61 26.264 105.798 27.164L106.638 28.388C110.754 26.288 111.558 23.444 111.558 20.036H106.482ZM116.046 23.192H114.498V18.968H112.914V30.008H114.498V24.5H116.046V23.192ZM117.521 20.036V21.296H121.025C120.989 21.824 120.905 22.304 120.797 22.76L116.933 22.988L117.137 24.332L120.341 24.02C119.717 25.232 118.649 26.264 116.837 27.164L117.677 28.388C121.793 26.288 122.597 23.444 122.597 20.036H117.521ZM127.085 23.192H125.537V18.968H123.953V30.008H125.537V24.5H127.085V23.192ZM130.36 22.592C130.36 21.464 131.404 20.804 132.916 20.804C134.44 20.804 135.484 21.464 135.484 22.592C135.484 23.72 134.44 24.38 132.916 24.38C131.404 24.38 130.36 23.72 130.36 22.592ZM133.708 27.464V25.592C135.664 25.364 137.044 24.236 137.044 22.592C137.044 20.744 135.28 19.544 132.916 19.544C130.564 19.544 128.8 20.744 128.8 22.592C128.8 24.236 130.18 25.352 132.124 25.592V27.464H127.924V28.748H137.932V27.464H133.708ZM144.447 27.752V25.724H147.891V24.932H141.267V23.192H147.639V19.916H140.271V20.72H146.679V22.4H140.295V25.724H143.451V27.752H139.071V28.556H148.851V27.752H144.447ZM158.475 27.752V25.724H161.919V24.932H155.295V23.192H161.667V19.916H154.299V20.72H160.707V22.4H154.323V25.724H157.479V27.752H153.099V28.556H162.879V27.752H158.475ZM171.614 21.344C171.614 22.676 171.614 24.284 171.182 26.48L172.166 26.588C172.586 24.26 172.586 22.712 172.586 21.344V20.264H165.206V21.068H171.614V21.344ZM164.162 27.5V28.316H173.894V27.5H164.162ZM184.021 19.136H183.037V26.996H184.021V19.136ZM176.401 22.52C176.401 21.476 177.193 20.732 178.237 20.732C179.305 20.732 180.097 21.476 180.097 22.52C180.097 23.588 179.305 24.332 178.237 24.332C177.193 24.332 176.401 23.588 176.401 22.52ZM181.057 22.52C181.057 20.972 179.845 19.88 178.237 19.88C176.641 19.88 175.441 20.972 175.441 22.52C175.441 24.08 176.641 25.184 178.237 25.184C179.845 25.184 181.057 24.08 181.057 22.52ZM178.081 28.844V26.192H177.097V29.648H184.345V28.844H178.081ZM189.384 26.672C188.412 26.672 187.704 25.976 187.704 25.016C187.704 24.044 188.412 23.348 189.384 23.348C190.368 23.348 191.076 24.044 191.076 25.016C191.076 25.976 190.368 26.672 189.384 26.672ZM189.384 22.532C187.872 22.532 186.78 23.564 186.78 25.016C186.78 26.48 187.872 27.488 189.384 27.488C190.92 27.488 192.012 26.48 192.012 25.016C192.012 23.564 190.92 22.532 189.384 22.532ZM189.864 19.256H188.88V20.852H186.168V21.644H192.516V20.852H189.864V19.256ZM196.284 23.552H194.52V19.136H193.536V29.888H194.52V24.38H196.284V23.552ZM197.903 20.288V21.08H201.947C201.743 23.636 200.303 25.7 197.411 27.08L197.939 27.884C201.515 26.132 202.943 23.396 202.943 20.288H197.903ZM205.115 19.124V29.888H206.099V19.124H205.115Z" fill="white"/>
<path fill-rule="evenodd" clip-rule="evenodd" d="M32 30C36.9706 30 41 26.866 41 23C41 19.134 36.9706 16 32 16C27.0294 16 23 19.134 23 23C23 25.4913 24.6734 27.6787 27.1936 28.9193L26.0855 32.2435C26.0561 32.3316 26.1522 32.4087 26.2318 32.3609L30.3599 29.884C30.8917 29.9602 31.4399 30 32 30Z" fill="white"/>
</svg>
