<svg width="400" height="130" viewBox="0 0 352 92" fill="none" xmlns="http://www.w3.org/2000/svg">
<g filter="url(#filter0_d_468_4127)">
<g filter="url(#filter1_d_468_4127)">
<rect x="20" y="15" width="312" height="52" rx="26" fill="#9F70F1"/>
</g>
<path d="M157.53 44.3525H161.885V46H155.479V36.0469H157.53V44.3525ZM170.806 41.249C170.806 42.2288 170.632 43.0879 170.286 43.8262C169.94 44.5645 169.443 45.1341 168.796 45.5352C168.153 45.9362 167.415 46.1367 166.581 46.1367C165.756 46.1367 165.02 45.9385 164.373 45.542C163.726 45.1455 163.225 44.5804 162.869 43.8467C162.514 43.1084 162.334 42.2607 162.329 41.3037V40.8115C162.329 39.8317 162.505 38.9704 162.855 38.2275C163.211 37.4801 163.71 36.9082 164.353 36.5117C165 36.1107 165.738 35.9102 166.567 35.9102C167.397 35.9102 168.133 36.1107 168.775 36.5117C169.423 36.9082 169.922 37.4801 170.272 38.2275C170.628 38.9704 170.806 39.8294 170.806 40.8047V41.249ZM168.728 40.7979C168.728 39.7542 168.541 38.9613 168.167 38.4189C167.793 37.8766 167.26 37.6055 166.567 37.6055C165.879 37.6055 165.348 37.8743 164.975 38.4121C164.601 38.9453 164.412 39.7292 164.407 40.7637V41.249C164.407 42.2653 164.594 43.0537 164.968 43.6143C165.341 44.1748 165.879 44.4551 166.581 44.4551C167.269 44.4551 167.798 44.1862 168.167 43.6484C168.536 43.1061 168.723 42.3177 168.728 41.2832V40.7979ZM180.171 44.7422C179.802 45.1842 179.28 45.5283 178.605 45.7744C177.931 46.016 177.184 46.1367 176.363 46.1367C175.502 46.1367 174.745 45.9499 174.094 45.5762C173.447 45.1979 172.945 44.651 172.59 43.9355C172.239 43.2201 172.059 42.3792 172.05 41.4131V40.7363C172.05 39.7428 172.216 38.8838 172.549 38.1592C172.886 37.43 173.369 36.874 173.998 36.4912C174.632 36.1038 175.372 35.9102 176.22 35.9102C177.4 35.9102 178.323 36.1927 178.988 36.7578C179.654 37.3184 180.048 38.1364 180.171 39.2119H178.175C178.084 38.6423 177.881 38.2253 177.566 37.9609C177.257 37.6966 176.828 37.5645 176.281 37.5645C175.584 37.5645 175.053 37.8265 174.688 38.3506C174.324 38.8747 174.139 39.654 174.135 40.6885V41.3242C174.135 42.3678 174.333 43.1562 174.729 43.6895C175.126 44.2227 175.707 44.4893 176.473 44.4893C177.243 44.4893 177.792 44.3252 178.12 43.9971V42.2812H176.254V40.7705H180.171V44.7422ZM187.506 46H185.455V36.0469H187.506V46ZM197.507 46H195.456L191.464 39.4512V46H189.413V36.0469H191.464L195.463 42.6094V36.0469H197.507V46Z" fill="white"/>
</g>
<defs>
<filter id="filter0_d_468_4127" x="16" y="15" width="320" height="60" filterUnits="userSpaceOnUse" color-interpolation-filters="sRGB">
<feFlood flood-opacity="0" result="BackgroundImageFix"/>
<feColorMatrix in="SourceAlpha" type="matrix" values="0 0 0 0 0 0 0 0 0 0 0 0 0 0 0 0 0 0 127 0" result="hardAlpha"/>
<feOffset dy="4"/>
<feGaussianBlur stdDeviation="2"/>
<feComposite in2="hardAlpha" operator="out"/>
<feColorMatrix type="matrix" values="0 0 0 0 0 0 0 0 0 0 0 0 0 0 0 0 0 0 0.25 0"/>
<feBlend mode="normal" in2="BackgroundImageFix" result="effect1_dropShadow_468_4127"/>
<feBlend mode="normal" in="SourceGraphic" in2="effect1_dropShadow_468_4127" result="shape"/>
</filter>
<filter id="filter1_d_468_4127" x="0" y="0" width="352" height="92" filterUnits="userSpaceOnUse" color-interpolation-filters="sRGB">
<feFlood flood-opacity="0" result="BackgroundImageFix"/>
<feColorMatrix in="SourceAlpha" type="matrix" values="0 0 0 0 0 0 0 0 0 0 0 0 0 0 0 0 0 0 127 0" result="hardAlpha"/>
<feOffset dy="5"/>
<feGaussianBlur stdDeviation="10"/>
<feComposite in2="hardAlpha" operator="out"/>
<feColorMatrix type="matrix" values="0 0 0 0 0.623529 0 0 0 0 0.439216 0 0 0 0 0.945098 0 0 0 0.7 0"/>
<feBlend mode="normal" in2="BackgroundImageFix" result="effect1_dropShadow_468_4127"/>
<feBlend mode="normal" in="SourceGraphic" in2="effect1_dropShadow_468_4127" result="shape"/>
</filter>
</defs>
</svg>
