<svg width="164" height="26" viewBox="0 0 82 13" fill="none" xmlns="http://www.w3.org/2000/svg">
<path d="M0.355 5.984V7.136H10.423V5.984H0.355ZM1.483 7.664V8.744H7.651V9.296H1.507V11.252H3.091V10.304H9.223V7.664H1.483ZM1.507 10.916V11.996H9.535V10.916H1.507ZM1.591 1.136V2.204H7.627V2.756H1.603V4.664H3.187V3.752H9.199V1.136H1.591ZM1.603 4.328V5.408H9.403V4.328H1.603ZM4.591 4.904V6.488H6.187V4.904H4.591ZM18.6663 3.884V5.156H20.9223V3.884H18.6663ZM18.6063 6.656V7.928H20.8743V6.656H18.6063ZM22.4343 0.956V12.068H23.9583V0.956H22.4343ZM20.1423 1.196V11.576H21.6303V1.196H20.1423ZM17.6343 2.264V2.588C17.6343 5.276 16.7343 7.124 14.2263 8.648L15.1263 9.764C18.2223 7.94 19.1703 5.42 19.1703 2.264H17.6343ZM14.8623 2.264V3.536H18.1743V2.264H14.8623ZM31.4454 3.644V4.94H33.5574V3.644H31.4454ZM33.1254 0.956V7.556H34.7214V0.956H33.1254ZM30.9534 7.796C28.6014 7.796 27.1494 8.6 27.1494 9.944C27.1494 11.3 28.6014 12.08 30.9534 12.08C33.3054 12.08 34.7574 11.3 34.7574 9.944C34.7574 8.6 33.3054 7.796 30.9534 7.796ZM30.9534 9.008C32.4054 9.008 33.1734 9.308 33.1734 9.944C33.1734 10.568 32.4054 10.868 30.9534 10.868C29.5134 10.868 28.7454 10.568 28.7454 9.944C28.7454 9.308 29.5134 9.008 30.9534 9.008ZM27.9894 2.072V2.768C27.9894 4.196 27.1974 5.672 25.3614 6.296L26.1774 7.556C28.3014 6.836 29.2854 4.892 29.2854 2.768V2.072H27.9894ZM28.3254 2.072V2.768C28.3254 4.748 29.2734 6.596 31.3374 7.28L32.1174 6.02C30.3654 5.432 29.6094 4.076 29.6094 2.768V2.072H28.3254ZM25.7934 1.628V2.9H31.7694V1.628H25.7934ZM47.4528 1.1V9.02H48.4608V1.1H47.4528ZM41.4888 10.88V11.696H48.7848V10.88H41.4888ZM41.4888 8.204V11.156H42.4728V8.204H41.4888ZM42.6408 1.844C41.0208 1.844 39.8088 2.948 39.8088 4.52C39.8088 6.08 41.0208 7.196 42.6408 7.196C44.2608 7.196 45.4608 6.08 45.4608 4.52C45.4608 2.948 44.2608 1.844 42.6408 1.844ZM42.6408 2.708C43.6968 2.708 44.5008 3.452 44.5008 4.52C44.5008 5.576 43.6968 6.32 42.6408 6.32C41.5848 6.32 40.7808 5.576 40.7808 4.52C40.7808 3.452 41.5848 2.708 42.6408 2.708ZM50.5958 6.248V7.052H60.3998V6.248H50.5958ZM55.4918 7.988C53.1758 7.988 51.7718 8.708 51.7718 9.956C51.7718 11.204 53.1758 11.912 55.4918 11.912C57.8078 11.912 59.2118 11.204 59.2118 9.956C59.2118 8.708 57.8078 7.988 55.4918 7.988ZM55.4918 8.78C57.1958 8.78 58.2038 9.2 58.2038 9.956C58.2038 10.7 57.1958 11.132 55.4918 11.132C53.7998 11.132 52.7798 10.7 52.7798 9.956C52.7798 9.2 53.7998 8.78 55.4918 8.78ZM54.8558 2.072V2.396C54.8558 3.62 53.0918 4.592 51.1478 4.808L51.5078 5.588C53.7518 5.324 55.7438 4.136 55.7438 2.396V2.072H54.8558ZM55.2758 2.072V2.396C55.2758 4.136 57.2558 5.324 59.4998 5.588L59.8598 4.808C57.9158 4.592 56.1518 3.62 56.1518 2.396V2.072H55.2758ZM51.4958 1.64V2.444H59.5238V1.64H51.4958ZM68.9909 1.088V11.936H69.9869V1.088H68.9909ZM69.7469 5.54V6.38H71.7629V5.54H69.7469ZM61.5869 2.816V3.632H67.9829V2.816H61.5869ZM64.8269 4.532C63.3029 4.532 62.1869 5.564 62.1869 7.028C62.1869 8.492 63.3029 9.524 64.8269 9.524C66.3629 9.524 67.4669 8.492 67.4669 7.028C67.4669 5.564 66.3629 4.532 64.8269 4.532ZM64.8269 5.36C65.8109 5.36 66.5189 6.044 66.5189 7.028C66.5189 8 65.8109 8.696 64.8269 8.696C63.8429 8.696 63.1349 8 63.1349 7.028C63.1349 6.044 63.8429 5.36 64.8269 5.36ZM64.3109 1.22V3.188H65.3069V1.22H64.3109ZM80.5819 1.088V11.936H81.5779V1.088H80.5819ZM77.4019 2.252V2.42C77.4019 5.3 75.9499 7.604 72.8179 9.116L73.3459 9.92C76.9699 8.144 78.3859 5.396 78.3859 2.252H77.4019ZM73.3099 2.252V3.068H77.8339V2.252H73.3099Z" fill="white"/>
</svg>
