<svg width="624" height="104" viewBox="0 0 312 52" fill="none" xmlns="http://www.w3.org/2000/svg">
<rect width="312" height="52" rx="26" fill="#23233F"/>
<path d="M118.103 29.28H124.211V26.652H116.519V27.72H122.639V28.284H116.531V30.948H124.511V29.892H118.103V29.28ZM121.187 24.996V24.408H124.379V23.34H118.199V22.764H124.175V20.16H116.615V21.228H122.615V21.768H116.639V24.408H119.603V24.996H115.391V26.136H125.399V24.996H121.187ZM135.154 22.896H134.086C134.146 22.38 134.182 21.852 134.182 21.288H129.886V22.548H132.61C132.406 24.708 131.446 26.304 129.262 27.636L130.162 28.74C132.226 27.516 133.33 25.98 133.822 24.156H135.154V25.656H133.618V26.928H135.154V30.552H136.63V20.22H135.154V22.896ZM137.422 19.968V31.032H138.922V19.968H137.422ZM146.457 22.644V23.928H148.113V26.556H149.697V19.98H148.113V22.644H146.457ZM147.117 25.02C145.437 24.468 144.669 23.172 144.621 21.912H146.769V20.64H140.829V21.912H143.001C142.953 23.292 142.149 24.696 140.397 25.308L141.201 26.556C142.485 26.124 143.361 25.224 143.841 24.108C144.321 25.08 145.149 25.86 146.349 26.256L147.117 25.02ZM145.965 29.844C144.513 29.844 143.757 29.544 143.757 28.92C143.757 28.296 144.513 27.996 145.965 27.996C147.405 27.996 148.161 28.296 148.161 28.92C148.161 29.544 147.405 29.844 145.965 29.844ZM145.965 26.796C143.613 26.796 142.173 27.576 142.173 28.92C142.173 30.264 143.613 31.044 145.965 31.044C148.305 31.044 149.745 30.264 149.745 28.92C149.745 27.576 148.305 26.796 145.965 26.796ZM163.437 20.136H162.453V27.996H163.437V20.136ZM155.817 23.52C155.817 22.476 156.609 21.732 157.653 21.732C158.721 21.732 159.513 22.476 159.513 23.52C159.513 24.588 158.721 25.332 157.653 25.332C156.609 25.332 155.817 24.588 155.817 23.52ZM160.473 23.52C160.473 21.972 159.261 20.88 157.653 20.88C156.057 20.88 154.857 21.972 154.857 23.52C154.857 25.08 156.057 26.184 157.653 26.184C159.261 26.184 160.473 25.08 160.473 23.52ZM157.497 29.844V27.192H156.513V30.648H163.761V29.844H157.497ZM166.544 24.588C168.308 24.372 169.916 23.592 170.516 22.416C171.104 23.592 172.724 24.372 174.488 24.588L174.836 23.808C172.928 23.604 171.2 22.668 171.152 21.468H174.5V20.676H166.544V21.468H169.88C169.832 22.668 168.104 23.604 166.196 23.808L166.544 24.588ZM170.504 30.096C168.812 30.096 167.816 29.676 167.816 28.92C167.816 28.176 168.812 27.744 170.504 27.744C172.184 27.744 173.192 28.176 173.192 28.92C173.192 29.676 172.184 30.096 170.504 30.096ZM170.504 26.976C168.2 26.976 166.82 27.672 166.82 28.92C166.82 30.18 168.2 30.876 170.504 30.876C172.796 30.876 174.188 30.18 174.188 28.92C174.188 27.672 172.796 26.976 170.504 26.976ZM165.644 25.248V26.04H175.376V25.248H165.644ZM179.839 27.672C178.867 27.672 178.159 26.976 178.159 26.016C178.159 25.044 178.867 24.348 179.839 24.348C180.823 24.348 181.531 25.044 181.531 26.016C181.531 26.976 180.823 27.672 179.839 27.672ZM179.839 23.532C178.327 23.532 177.235 24.564 177.235 26.016C177.235 27.48 178.327 28.488 179.839 28.488C181.375 28.488 182.467 27.48 182.467 26.016C182.467 24.564 181.375 23.532 179.839 23.532ZM180.319 20.256H179.335V21.852H176.623V22.644H182.971V21.852H180.319V20.256ZM186.739 24.552H184.975V20.136H183.991V30.888H184.975V25.38H186.739V24.552ZM188.358 21.288V22.08H192.402C192.198 24.636 190.758 26.7 187.866 28.08L188.394 28.884C191.97 27.132 193.398 24.396 193.398 21.288H188.358ZM195.57 20.124V30.888H196.554V20.124H195.57Z" fill="white"/>
</svg>