<svg width="78" height="14" viewBox="0 0 39 7" fill="none" xmlns="http://www.w3.org/2000/svg">
<path d="M0.496094 5.91357H1.50391V4.05029H2.66797C3.80859 4.05029 4.58594 3.29248 4.58594 2.16748V2.15967C4.58594 1.03076 3.80859 0.276855 2.66797 0.276855H0.496094V5.91357ZM2.41797 1.10107C3.14062 1.10107 3.5625 1.48779 3.5625 2.16357V2.17139C3.5625 2.84717 3.14062 3.23779 2.41797 3.23779H1.50391V1.10107H2.41797ZM8.28859 6.01123C9.93703 6.01123 10.9605 4.89014 10.9605 3.09717V3.08936C10.9605 1.30029 9.93313 0.179199 8.28859 0.179199C6.64797 0.179199 5.61281 1.30029 5.61281 3.08936V3.09717C5.61281 4.89014 6.64016 6.01123 8.28859 6.01123ZM8.28859 5.13623C7.28078 5.13623 6.64016 4.35107 6.64016 3.09717V3.08936C6.64016 1.83545 7.28469 1.0542 8.28859 1.0542C9.29641 1.0542 9.93703 1.83936 9.93703 3.08936V3.09717C9.93703 4.33936 9.30813 5.13623 8.28859 5.13623ZM14.2256 6.01123C15.6006 6.01123 16.4288 5.34326 16.4288 4.29248V4.28857C16.4288 3.40967 15.917 2.93311 14.7452 2.69092L14.1358 2.56592C13.4561 2.42529 13.1475 2.19092 13.1475 1.79248V1.78857C13.1475 1.33936 13.5577 1.03076 14.2178 1.02686C14.8506 1.02686 15.2842 1.31982 15.3506 1.81201L15.3584 1.85889H16.3233L16.3194 1.79248C16.2608 0.827637 15.4561 0.179199 14.2256 0.179199C13.0108 0.179199 12.1397 0.851074 12.1358 1.84326V1.84717C12.1358 2.68701 12.6827 3.20264 13.792 3.43311L14.3975 3.55811C15.1241 3.71045 15.417 3.93701 15.417 4.35889V4.36279C15.417 4.84717 14.9717 5.16357 14.2608 5.16357C13.5538 5.16357 13.0577 4.86279 12.9834 4.37842L12.9756 4.33154H12.0108L12.0147 4.39014C12.0811 5.40186 12.9327 6.01123 14.2256 6.01123ZM17.6627 5.91357H18.6705V0.276855H17.6627V5.91357ZM21.5216 5.91357H22.5255V1.12451H24.2091V0.276855H19.8341V1.12451H21.5216V5.91357ZM25.3805 5.91357H26.3883V0.276855H25.3805V5.91357ZM30.3448 6.01123C31.9933 6.01123 33.0167 4.89014 33.0167 3.09717V3.08936C33.0167 1.30029 31.9894 0.179199 30.3448 0.179199C28.7042 0.179199 27.6691 1.30029 27.6691 3.08936V3.09717C27.6691 4.89014 28.6964 6.01123 30.3448 6.01123ZM30.3448 5.13623C29.337 5.13623 28.6964 4.35107 28.6964 3.09717V3.08936C28.6964 1.83545 29.3409 1.0542 30.3448 1.0542C31.3527 1.0542 31.9933 1.83936 31.9933 3.08936V3.09717C31.9933 4.33936 31.3644 5.13623 30.3448 5.13623ZM34.3014 5.91357H35.3053V1.94873H35.3248L38.0788 5.91357H38.9772V0.276855H37.9772V4.22607H37.9538L35.2077 0.276855H34.3014V5.91357Z" fill="#484868"/>
</svg>
