<svg width="100" height="30" viewBox="0 0 62 14" fill="none" xmlns="http://www.w3.org/2000/svg">
<g opacity="0.7">
<path d="M4.32812 2.85352L6.44945 4.97484L4.32812 7.09616" stroke="white" stroke-linecap="round" stroke-linejoin="round"/>
<path d="M1.50169 4.97487H6.45144" stroke="white" stroke-linecap="round" stroke-linejoin="round"/>
<path d="M8.12109 11.0962L5.99977 8.97484L8.12109 6.85352" stroke="white" stroke-linecap="round" stroke-linejoin="round"/>
<path d="M6.00169 8.97487H10.9514" stroke="white" stroke-linecap="round" stroke-linejoin="round"/>
</g>
<path d="M19.782 3.4061H21.85V8.0481H19.782V3.4061ZM18.935 8.7631H22.686V2.6911H18.935V8.7631ZM26.107 1.5471V5.4521H24.776V1.7671H23.929V10.9191H24.776V6.1891H26.107V11.4031H26.965V1.5471H26.107ZM36.7981 1.5581H35.8961V7.5971H36.7981V1.5581ZM34.7961 6.3761C33.3331 5.9581 32.2771 4.8471 32.2771 3.6041V3.4831H34.5101V2.7571H32.2881V1.5361H31.3861V2.7571H29.1421V3.4831H31.3861V3.6041C31.3861 4.9461 30.3631 6.1451 28.9001 6.6181L29.3401 7.3331C30.5061 6.9371 31.4301 6.1011 31.8481 5.0231C32.3211 5.9911 33.2231 6.7391 34.3781 7.0911L34.7961 6.3761ZM33.5201 10.6991C32.0241 10.6991 31.1001 10.2921 31.1001 9.6101C31.1001 8.9061 32.0241 8.5101 33.5201 8.5101C35.0161 8.5101 35.9291 8.9061 35.9291 9.6101C35.9291 10.2921 35.0161 10.6991 33.5201 10.6991ZM33.5201 7.8061C31.4631 7.8061 30.2091 8.4551 30.2091 9.6101C30.2091 10.7541 31.4631 11.4031 33.5201 11.4031C35.5771 11.4031 36.8311 10.7541 36.8311 9.6101C36.8311 8.4551 35.5771 7.8061 33.5201 7.8061ZM44.6408 7.0801C45.0478 7.1791 45.5208 7.2341 46.0048 7.2341C46.4998 7.2341 46.9728 7.1791 47.3908 7.0801V9.4011H44.6408V7.0801ZM46.0048 2.8781C47.5888 2.8781 48.7328 3.6041 48.7328 4.7041C48.7328 5.8041 47.5888 6.5301 46.0048 6.5301C44.4208 6.5301 43.2878 5.8041 43.2878 4.7041C43.2878 3.6041 44.4208 2.8781 46.0048 2.8781ZM48.2928 9.4011V6.7281C49.1068 6.2991 49.5908 5.5951 49.5908 4.7041C49.5908 3.1641 48.1058 2.1741 46.0048 2.1741C43.9148 2.1741 42.4188 3.1641 42.4188 4.7041C42.4188 5.5951 42.9138 6.3101 43.7388 6.7391V9.4011H41.5388V10.1491H50.5038V9.4011H48.2928ZM56.9159 4.3521V5.1001H58.8849V7.5311H59.7979V1.5471H58.8849V4.3521H56.9159ZM57.5099 6.4091C56.0579 5.9801 55.0349 4.8801 55.0349 3.6481V3.4611H57.2129V2.7351H55.0349V1.4921H54.1329V2.7351H51.9439V3.4611H54.1329V3.6481C54.1329 4.9791 53.1429 6.1781 51.6909 6.6731L52.1309 7.3661C53.2969 6.9811 54.1879 6.1451 54.6059 5.0671C55.0569 6.0241 55.9479 6.7611 57.0809 7.1131L57.5099 6.4091ZM56.5309 10.6991C55.0459 10.6991 54.1549 10.2811 54.1549 9.5881C54.1549 8.9061 55.0459 8.4881 56.5309 8.4881C58.0379 8.4881 58.9289 8.9061 58.9289 9.5881C58.9289 10.2811 58.0269 10.6991 56.5309 10.6991ZM56.5309 7.7841C54.5069 7.7841 53.2529 8.4441 53.2529 9.5881C53.2529 10.7431 54.5069 11.4031 56.5309 11.4031C58.5769 11.4031 59.8309 10.7431 59.8309 9.5881C59.8309 8.4441 58.5769 7.7841 56.5309 7.7841Z" fill="white" fill-opacity="0.7"/>
</svg>
