<svg width="45" height="7" viewBox="0 0 45 7" fill="none" xmlns="http://www.w3.org/2000/svg">
<path d="M2.94922 6.01123C4.24609 6.01123 5.20312 5.21045 5.34766 4.0542L5.35547 4.01514H4.36719L4.35547 4.0542C4.17188 4.74951 3.66797 5.13623 2.94922 5.13623C1.96875 5.13623 1.33594 4.34717 1.33594 3.09326V3.08936C1.33594 1.83936 1.96484 1.0542 2.94922 1.0542C3.68359 1.0542 4.17969 1.45654 4.34375 2.10107L4.36328 2.17529H5.35156L5.34766 2.13623C5.19922 0.987793 4.24609 0.179199 2.94922 0.179199C1.33203 0.179199 0.304688 1.28857 0.304688 3.08936V3.09326C0.304688 4.89404 1.32812 6.01123 2.94922 6.01123ZM6.60109 5.91357H7.60891V3.46826H10.3511V5.91357H11.355V0.276855H10.3511V2.62061H7.60891V0.276855H6.60109V5.91357ZM12.4405 5.91357H13.4952L13.9717 4.45654H16.0694L16.5459 5.91357H17.6045L15.5889 0.276855H14.4561L12.4405 5.91357ZM15.0108 1.28076H15.0342L15.8155 3.6792H14.2256L15.0108 1.28076ZM18.6861 5.91357H19.5963V1.90576H19.6236L21.2486 5.91357H21.9322L23.5572 1.90576H23.5884V5.91357H24.4947V0.276855H23.3306L21.6041 4.58154H21.5767L19.8502 0.276855H18.6861V5.91357ZM25.9708 5.91357H26.9786V4.05029H28.1427C29.2833 4.05029 30.0606 3.29248 30.0606 2.16748V2.15967C30.0606 1.03076 29.2833 0.276855 28.1427 0.276855H25.9708V5.91357ZM27.8927 1.10107C28.6153 1.10107 29.0372 1.48779 29.0372 2.16357V2.17139C29.0372 2.84717 28.6153 3.23779 27.8927 3.23779H26.9786V1.10107H27.8927ZM31.2789 5.91357H32.2867V0.276855H31.2789V5.91357ZM36.2433 6.01123C37.8917 6.01123 38.9152 4.89014 38.9152 3.09717V3.08936C38.9152 1.30029 37.8878 0.179199 36.2433 0.179199C34.6027 0.179199 33.5675 1.30029 33.5675 3.08936V3.09717C33.5675 4.89014 34.5948 6.01123 36.2433 6.01123ZM36.2433 5.13623C35.2355 5.13623 34.5948 4.35107 34.5948 3.09717V3.08936C34.5948 1.83545 35.2394 1.0542 36.2433 1.0542C37.2511 1.0542 37.8917 1.83936 37.8917 3.08936V3.09717C37.8917 4.33936 37.2628 5.13623 36.2433 5.13623ZM40.1998 5.91357H41.2038V1.94873H41.2233L43.9772 5.91357H44.8756V0.276855H43.8756V4.22607H43.8522L41.1061 0.276855H40.1998V5.91357Z" fill="#484868"/>
</svg>
