<svg width="390" height="65" viewBox="0 0 312 52" fill="none" xmlns="http://www.w3.org/2000/svg">
<rect width="312" height="52" rx="26" fill="#484868"/>
<path d="M131.687 22.082H133.339V27.542H131.687V22.082ZM129.965 28.984H135.047V20.626H129.965V28.984ZM138.911 19.296V24.224H137.833V19.506H136.111V31.616H137.833V25.708H138.911V32.19H140.661V19.296H138.911ZM153.19 19.31H151.328V27.08H153.19V19.31ZM150.53 25.246C148.514 24.728 147.562 23.412 147.478 22.11H150.068V20.654H147.478V19.324H145.63V20.654H143.026V22.11H145.63C145.56 23.538 144.622 24.952 142.592 25.526L143.46 26.968C144.986 26.534 146.022 25.61 146.596 24.42C147.198 25.484 148.22 26.296 149.69 26.688L150.53 25.246ZM148.836 30.79C147.156 30.79 146.26 30.468 146.26 29.754C146.26 29.054 147.156 28.718 148.836 28.718C150.502 28.718 151.398 29.054 151.398 29.754C151.398 30.468 150.502 30.79 148.836 30.79ZM148.836 27.304C146.106 27.304 144.426 28.214 144.426 29.754C144.426 31.322 146.106 32.204 148.836 32.204C151.552 32.204 153.232 31.322 153.232 29.754C153.232 28.214 151.552 27.304 148.836 27.304ZM163.843 20.304H161.995V22.18C161.995 24.686 160.931 27.178 158.677 28.144L159.783 29.67C161.323 28.942 162.373 27.556 162.947 25.834C163.521 27.416 164.515 28.69 165.999 29.362L167.049 27.864C164.865 26.926 163.843 24.574 163.843 22.18V20.304ZM167.679 19.296V32.232H169.527V19.296H167.679ZM179.424 25.204C177.394 24.546 176.512 23.02 176.47 21.536H178.99V20.066H172.018V21.536H174.58C174.538 23.132 173.628 24.742 171.528 25.428L172.494 26.87C173.978 26.38 174.986 25.386 175.56 24.14C176.12 25.274 177.086 26.184 178.486 26.632L179.424 25.204ZM173.264 29.124H180.026V32.218H181.874V27.654H173.264V29.124ZM183.582 22.418H181.874V19.31H180.026V27.08H181.874V23.944H183.582V22.418Z" fill="white"/>
</svg>
