<svg width="66" height="8" viewBox="0 0 66 8" fill="none" xmlns="http://www.w3.org/2000/svg">
<path d="M3.46494 1.25028C4.42494 1.25028 5.04094 1.53828 5.04094 2.05828C5.04094 2.58629 4.42494 2.86629 3.46494 2.86629C2.49694 2.86629 1.88094 2.58629 1.88094 2.05828C1.88094 1.53828 2.49694 1.25028 3.46494 1.25028ZM3.46494 3.70628C5.03294 3.70628 6.12894 3.06628 6.12894 2.05828C6.12894 1.05828 5.03294 0.410285 3.46494 0.410285C1.88894 0.410285 0.800938 1.05828 0.800938 2.05828C0.800938 3.06628 1.88894 3.70628 3.46494 3.70628ZM6.81694 4.25829H0.144938V5.11429H1.65694V7.52229H2.72094V5.11429H4.20094V7.52229H5.27294V5.11429H6.81694V4.25829ZM10.7523 1.72228H12.2643V0.866285H8.17631V1.72228H9.68831V1.97828C9.68831 3.34629 9.10431 4.76228 7.87231 5.33829L8.49631 6.17029C9.34431 5.74629 9.92031 4.93029 10.2323 3.93829C10.5523 4.85829 11.1203 5.61829 11.9523 6.02629L12.5603 5.19429C11.3363 4.63428 10.7523 3.27429 10.7523 1.97828V1.72228ZM13.1123 0.154285V2.73029H11.8163V3.58629H13.1123V7.54629H14.1683V0.154285H13.1123ZM21.7037 1.79428H17.7037V1.14629H21.6477V0.306285H16.6557V2.62629H21.7037V1.79428ZM17.6397 6.21829H21.6717V4.26628H16.5837V5.05829H20.6317V5.47429H16.5917V7.46629H21.8637V6.65829H17.6397V6.21829ZM15.8317 3.01829V3.85029H22.4957V3.01829H15.8317ZM25.3191 5.04229C24.9191 5.04229 24.6791 4.49029 24.6791 3.35429C24.6791 2.22628 24.9191 1.67428 25.3191 1.67428C25.7271 1.67428 25.9591 2.22628 25.9591 3.35429C25.9591 4.49029 25.7271 5.04229 25.3191 5.04229ZM27.4871 2.87428H26.9031C26.7831 1.49828 26.1911 0.682285 25.3191 0.682285C24.3431 0.682285 23.7271 1.69028 23.7271 3.35429C23.7271 5.02629 24.3431 6.03429 25.3191 6.03429C26.2151 6.03429 26.8151 5.17029 26.9111 3.73028H27.4871V7.20229H28.4711V0.282285H27.4871V2.87428ZM28.9831 0.154285V7.52229H29.9831V0.154285H28.9831ZM35.2864 2.97829H34.4624C34.6384 2.37828 34.7024 1.73028 34.7024 1.03429H31.8144V1.87428H33.6544C33.5264 3.31429 32.8784 4.37828 31.4064 5.25829L32.0064 6.00229C33.0464 5.39429 33.7184 4.66629 34.1344 3.82629H35.2864V7.20229H36.2704V0.322285H35.2864V2.97829ZM36.8384 0.154285V7.52229H37.8384V0.154285H36.8384ZM45.7674 0.938285H44.1194V0.154285H43.0554V0.938285H41.4234V1.76228H45.7594L45.7674 0.938285ZM42.7914 3.44229C42.7914 3.04228 43.1194 2.82628 43.5914 2.82628C44.0554 2.82628 44.3914 3.04228 44.3914 3.44229C44.3914 3.85029 44.0554 4.06629 43.5914 4.06629C43.1194 4.06629 42.7914 3.85029 42.7914 3.44229ZM45.3994 3.44229C45.3994 2.61028 44.6474 2.02628 43.5914 2.02628C42.5354 2.02628 41.7834 2.61028 41.7834 3.44229C41.7834 4.29029 42.5354 4.86629 43.5914 4.86629C44.6474 4.86629 45.3994 4.29029 45.3994 3.44229ZM43.5274 5.26629H42.4714V7.40229H47.4874V6.56229H43.5274V5.26629ZM47.2234 2.41028V0.162285H46.1674V5.67429H47.2234V3.28228H48.1994V2.41028H47.2234ZM52.6083 1.69028H54.0483V4.90629H52.6083V1.69028ZM51.5683 5.73829H55.0883V0.858285H51.5683V5.73829ZM58.1843 2.93828H57.1123V0.170285H56.0563V7.53029H57.1123V3.81029H58.1843V2.93828ZM60.6797 1.67428H63.1837V0.818285H59.6237V5.79429H60.2717C61.8397 5.79429 62.7757 5.76229 63.7757 5.57029L63.6797 4.69829C62.7917 4.86629 61.9677 4.90629 60.6797 4.91429V1.67428ZM64.2317 0.162285V7.55429H65.2877V0.162285H64.2317Z" fill="#484868"/>
</svg>
