<svg width="37" height="10" viewBox="0 0 37 10" fill="none" xmlns="http://www.w3.org/2000/svg">
<path d="M1.13086 0.46875H2.61914L4.81055 6.73242L7.00195 0.46875H8.49023L5.4082 9H4.21289L1.13086 0.46875ZM0.328125 0.46875H1.81055L2.08008 6.57422V9H0.328125V0.46875ZM7.81055 0.46875H9.29883V9H7.54102V6.57422L7.81055 0.46875ZM12.5156 2.66016V9H10.8223V2.66016H12.5156ZM10.7168 1.00781C10.7168 0.761719 10.8027 0.558594 10.9746 0.398438C11.1465 0.238281 11.377 0.158203 11.666 0.158203C11.9512 0.158203 12.1797 0.238281 12.3516 0.398438C12.5273 0.558594 12.6152 0.761719 12.6152 1.00781C12.6152 1.25391 12.5273 1.45703 12.3516 1.61719C12.1797 1.77734 11.9512 1.85742 11.666 1.85742C11.377 1.85742 11.1465 1.77734 10.9746 1.61719C10.8027 1.45703 10.7168 1.25391 10.7168 1.00781ZM17.6543 7.61719V0H19.3535V9H17.8242L17.6543 7.61719ZM13.6465 5.90625V5.7832C13.6465 5.29883 13.7012 4.85938 13.8105 4.46484C13.9199 4.06641 14.0801 3.72461 14.291 3.43945C14.502 3.1543 14.7617 2.93359 15.0703 2.77734C15.3789 2.62109 15.7305 2.54297 16.125 2.54297C16.4961 2.54297 16.8203 2.62109 17.0977 2.77734C17.3789 2.93359 17.6172 3.15625 17.8125 3.44531C18.0117 3.73047 18.1719 4.06836 18.293 4.45898C18.4141 4.8457 18.502 5.26953 18.5566 5.73047V6C18.502 6.44141 18.4141 6.85156 18.293 7.23047C18.1719 7.60938 18.0117 7.94141 17.8125 8.22656C17.6172 8.50781 17.3789 8.72656 17.0977 8.88281C16.8164 9.03906 16.4883 9.11719 16.1133 9.11719C15.7188 9.11719 15.3672 9.03711 15.0586 8.87695C14.7539 8.7168 14.4961 8.49219 14.2852 8.20312C14.0781 7.91406 13.9199 7.57422 13.8105 7.18359C13.7012 6.79297 13.6465 6.36719 13.6465 5.90625ZM15.334 5.7832V5.90625C15.334 6.16797 15.3535 6.41211 15.3926 6.63867C15.4355 6.86523 15.5039 7.06641 15.5977 7.24219C15.6953 7.41406 15.8203 7.54883 15.9727 7.64648C16.1289 7.74023 16.3184 7.78711 16.541 7.78711C16.8301 7.78711 17.0684 7.72266 17.2559 7.59375C17.4434 7.46094 17.5859 7.2793 17.6836 7.04883C17.7852 6.81836 17.8438 6.55273 17.8594 6.25195V5.48438C17.8477 5.23828 17.8125 5.01758 17.7539 4.82227C17.6992 4.62305 17.6172 4.45312 17.5078 4.3125C17.4023 4.17188 17.2695 4.0625 17.1094 3.98438C16.9531 3.90625 16.7676 3.86719 16.5527 3.86719C16.334 3.86719 16.1465 3.91797 15.9902 4.01953C15.834 4.11719 15.707 4.25195 15.6094 4.42383C15.5156 4.5957 15.4453 4.79883 15.3984 5.0332C15.3555 5.26367 15.334 5.51367 15.334 5.7832ZM24.416 7.61719V0H26.1152V9H24.5859L24.416 7.61719ZM20.4082 5.90625V5.7832C20.4082 5.29883 20.4629 4.85938 20.5723 4.46484C20.6816 4.06641 20.8418 3.72461 21.0527 3.43945C21.2637 3.1543 21.5234 2.93359 21.832 2.77734C22.1406 2.62109 22.4922 2.54297 22.8867 2.54297C23.2578 2.54297 23.582 2.62109 23.8594 2.77734C24.1406 2.93359 24.3789 3.15625 24.5742 3.44531C24.7734 3.73047 24.9336 4.06836 25.0547 4.45898C25.1758 4.8457 25.2637 5.26953 25.3184 5.73047V6C25.2637 6.44141 25.1758 6.85156 25.0547 7.23047C24.9336 7.60938 24.7734 7.94141 24.5742 8.22656C24.3789 8.50781 24.1406 8.72656 23.8594 8.88281C23.5781 9.03906 23.25 9.11719 22.875 9.11719C22.4805 9.11719 22.1289 9.03711 21.8203 8.87695C21.5156 8.7168 21.2578 8.49219 21.0469 8.20312C20.8398 7.91406 20.6816 7.57422 20.5723 7.18359C20.4629 6.79297 20.4082 6.36719 20.4082 5.90625ZM22.0957 5.7832V5.90625C22.0957 6.16797 22.1152 6.41211 22.1543 6.63867C22.1973 6.86523 22.2656 7.06641 22.3594 7.24219C22.457 7.41406 22.582 7.54883 22.7344 7.64648C22.8906 7.74023 23.0801 7.78711 23.3027 7.78711C23.5918 7.78711 23.8301 7.72266 24.0176 7.59375C24.2051 7.46094 24.3477 7.2793 24.4453 7.04883C24.5469 6.81836 24.6055 6.55273 24.6211 6.25195V5.48438C24.6094 5.23828 24.5742 5.01758 24.5156 4.82227C24.4609 4.62305 24.3789 4.45312 24.2695 4.3125C24.1641 4.17188 24.0312 4.0625 23.8711 3.98438C23.7148 3.90625 23.5293 3.86719 23.3145 3.86719C23.0957 3.86719 22.9082 3.91797 22.752 4.01953C22.5957 4.11719 22.4688 4.25195 22.3711 4.42383C22.2773 4.5957 22.207 4.79883 22.1602 5.0332C22.1172 5.26367 22.0957 5.51367 22.0957 5.7832ZM29.2148 0V9H27.5215V0H29.2148ZM33.5273 9.11719C33.0352 9.11719 32.5938 9.03906 32.2031 8.88281C31.8125 8.72266 31.4805 8.50195 31.207 8.2207C30.9375 7.93945 30.7305 7.61328 30.5859 7.24219C30.4414 6.86719 30.3691 6.46875 30.3691 6.04688V5.8125C30.3691 5.33203 30.4375 4.89258 30.5742 4.49414C30.7109 4.0957 30.9062 3.75 31.1602 3.45703C31.418 3.16406 31.7305 2.93945 32.0977 2.7832C32.4648 2.62305 32.8789 2.54297 33.3398 2.54297C33.7891 2.54297 34.1875 2.61719 34.5352 2.76562C34.8828 2.91406 35.1738 3.125 35.4082 3.39844C35.6465 3.67188 35.8262 4 35.9473 4.38281C36.0684 4.76172 36.1289 5.18359 36.1289 5.64844V6.35156H31.0898V5.22656H34.4707V5.09766C34.4707 4.86328 34.4277 4.6543 34.3418 4.4707C34.2598 4.2832 34.1348 4.13477 33.9668 4.02539C33.7988 3.91602 33.584 3.86133 33.3223 3.86133C33.0996 3.86133 32.9082 3.91016 32.748 4.00781C32.5879 4.10547 32.457 4.24219 32.3555 4.41797C32.2578 4.59375 32.1836 4.80078 32.1328 5.03906C32.0859 5.27344 32.0625 5.53125 32.0625 5.8125V6.04688C32.0625 6.30078 32.0977 6.53516 32.168 6.75C32.2422 6.96484 32.3457 7.15039 32.4785 7.30664C32.6152 7.46289 32.7793 7.58398 32.9707 7.66992C33.166 7.75586 33.3867 7.79883 33.6328 7.79883C33.9375 7.79883 34.2207 7.74023 34.4824 7.62305C34.748 7.50195 34.9766 7.32031 35.168 7.07812L35.9883 7.96875C35.8555 8.16016 35.6738 8.34375 35.4434 8.51953C35.2168 8.69531 34.9434 8.83984 34.623 8.95312C34.3027 9.0625 33.9375 9.11719 33.5273 9.11719Z" fill="#9F70F1"/>
</svg>
