<svg width="32" height="22" viewBox="0 0 25 14" fill="none" xmlns="http://www.w3.org/2000/svg">
<path d="M8.87 0.478V13.064H10.018V0.478H8.87ZM3.396 1.444C1.534 1.444 0.204 3.152 0.204 5.826C0.204 8.5 1.534 10.208 3.396 10.208C5.258 10.208 6.588 8.5 6.588 5.826C6.588 3.152 5.258 1.444 3.396 1.444ZM3.396 2.48C4.614 2.48 5.482 3.796 5.482 5.826C5.482 7.87 4.614 9.186 3.396 9.186C2.164 9.186 1.296 7.87 1.296 5.826C1.296 3.796 2.164 2.48 3.396 2.48ZM21.4129 2.9H14.0769V5.882H22.8129V4.986H15.2109V3.754H22.5469V0.8H14.0489V1.682H21.4129V2.9ZM15.2669 9.956H21.4269V11.944H15.2669V9.956ZM14.1469 12.868H22.5609V9.046H14.1469V12.868ZM12.6209 6.96V7.884H24.0029V6.96H12.6209Z" fill="white"/>
</svg>
