<svg width="364" height="70" viewBox="0 0 312 48" fill="none" xmlns="http://www.w3.org/2000/svg">
<rect width="312" height="48" rx="24" fill="#23233F"/>
<path d="M107.826 20.036H106.278V27.392H107.046C108.438 27.392 109.638 27.344 110.958 27.068L110.766 25.748C109.746 25.94 108.822 26.012 107.826 26.036V20.036ZM111.51 22.46H109.338V23.744H111.51V29.54H112.986V19.16H111.51V22.46ZM113.85 18.968V30.02H115.35V18.968H113.85ZM124.457 18.968V30.056H126.041V18.968H124.457ZM120.101 19.748C118.433 19.748 117.197 21.26 117.197 23.684C117.197 26.12 118.433 27.644 120.101 27.644C121.769 27.644 123.005 26.12 123.005 23.684C123.005 21.26 121.769 19.748 120.101 19.748ZM120.101 21.176C120.917 21.176 121.481 22.052 121.481 23.684C121.481 25.328 120.917 26.204 120.101 26.204C119.285 26.204 118.721 25.328 118.721 23.684C118.721 22.052 119.285 21.176 120.101 21.176ZM132.076 26.192H129.904V23.744H132.076V26.192ZM135.616 18.968V22.856H133.636V19.844H132.076V22.508H129.904V19.844H128.332V27.452H133.636V24.128H135.616V30.056H137.2V18.968H135.616ZM144.447 27.752V25.724H147.891V24.932H141.267V23.192H147.639V19.916H140.271V20.72H146.679V22.4H140.295V25.724H143.451V27.752H139.071V28.556H148.851V27.752H144.447ZM158.475 27.752V25.724H161.919V24.932H155.295V23.192H161.667V19.916H154.299V20.72H160.707V22.4H154.323V25.724H157.479V27.752H153.099V28.556H162.879V27.752H158.475ZM171.614 21.344C171.614 22.676 171.614 24.284 171.182 26.48L172.166 26.588C172.586 24.26 172.586 22.712 172.586 21.344V20.264H165.206V21.068H171.614V21.344ZM164.162 27.5V28.316H173.894V27.5H164.162ZM184.021 19.136H183.037V26.996H184.021V19.136ZM176.401 22.52C176.401 21.476 177.193 20.732 178.237 20.732C179.305 20.732 180.097 21.476 180.097 22.52C180.097 23.588 179.305 24.332 178.237 24.332C177.193 24.332 176.401 23.588 176.401 22.52ZM181.057 22.52C181.057 20.972 179.845 19.88 178.237 19.88C176.641 19.88 175.441 20.972 175.441 22.52C175.441 24.08 176.641 25.184 178.237 25.184C179.845 25.184 181.057 24.08 181.057 22.52ZM178.081 28.844V26.192H177.097V29.648H184.345V28.844H178.081ZM189.384 26.672C188.412 26.672 187.704 25.976 187.704 25.016C187.704 24.044 188.412 23.348 189.384 23.348C190.368 23.348 191.076 24.044 191.076 25.016C191.076 25.976 190.368 26.672 189.384 26.672ZM189.384 22.532C187.872 22.532 186.78 23.564 186.78 25.016C186.78 26.48 187.872 27.488 189.384 27.488C190.92 27.488 192.012 26.48 192.012 25.016C192.012 23.564 190.92 22.532 189.384 22.532ZM189.864 19.256H188.88V20.852H186.168V21.644H192.516V20.852H189.864V19.256ZM196.284 23.552H194.52V19.136H193.536V29.888H194.52V24.38H196.284V23.552ZM197.903 20.288V21.08H201.947C201.743 23.636 200.303 25.7 197.411 27.08L197.939 27.884C201.515 26.132 202.943 23.396 202.943 20.288H197.903ZM205.115 19.124V29.888H206.099V19.124H205.115Z" fill="white"/>
<path d="M24 16V32H29.5V24L35.2323 32H40V16H34.8529V24L29.5 16H24Z" fill="white"/>
</svg>
