<svg width="92" height="92" viewBox="0 0 92 92" fill="none" xmlns="http://www.w3.org/2000/svg">
<g filter="url(#filter0_d_468_4364)">
<g filter="url(#filter1_d_468_4364)">
<rect x="20" y="15" width="52" height="52" rx="26" fill="#9F70F1"/>
</g>
<path d="M47.4114 49.5886C46.6319 50.3681 45.3681 50.3681 44.5886 49.5886C43.8102 48.8102 43.809 47.5486 44.5859 46.7686L48.34 43H38C36.8954 43 36 42.1046 36 41C36 39.8954 36.8954 39 38 39H48.34L44.5859 35.2314C43.809 34.4514 43.8102 33.1898 44.5886 32.4114C45.3681 31.6319 46.6319 31.6319 47.4114 32.4114L56 41L47.4114 49.5886Z" fill="white"/>
</g>
<defs>
<filter id="filter0_d_468_4364" x="16" y="15" width="60" height="60" filterUnits="userSpaceOnUse" color-interpolation-filters="sRGB">
<feFlood flood-opacity="0" result="BackgroundImageFix"/>
<feColorMatrix in="SourceAlpha" type="matrix" values="0 0 0 0 0 0 0 0 0 0 0 0 0 0 0 0 0 0 127 0" result="hardAlpha"/>
<feOffset dy="4"/>
<feGaussianBlur stdDeviation="2"/>
<feComposite in2="hardAlpha" operator="out"/>
<feColorMatrix type="matrix" values="0 0 0 0 0 0 0 0 0 0 0 0 0 0 0 0 0 0 0.25 0"/>
<feBlend mode="normal" in2="BackgroundImageFix" result="effect1_dropShadow_468_4364"/>
<feBlend mode="normal" in="SourceGraphic" in2="effect1_dropShadow_468_4364" result="shape"/>
</filter>
<filter id="filter1_d_468_4364" x="0" y="0" width="92" height="92" filterUnits="userSpaceOnUse" color-interpolation-filters="sRGB">
<feFlood flood-opacity="0" result="BackgroundImageFix"/>
<feColorMatrix in="SourceAlpha" type="matrix" values="0 0 0 0 0 0 0 0 0 0 0 0 0 0 0 0 0 0 127 0" result="hardAlpha"/>
<feOffset dy="5"/>
<feGaussianBlur stdDeviation="10"/>
<feComposite in2="hardAlpha" operator="out"/>
<feColorMatrix type="matrix" values="0 0 0 0 0.623529 0 0 0 0 0.439216 0 0 0 0 0.945098 0 0 0 0.55 0"/>
<feBlend mode="normal" in2="BackgroundImageFix" result="effect1_dropShadow_468_4364"/>
<feBlend mode="normal" in="SourceGraphic" in2="effect1_dropShadow_468_4364" result="shape"/>
</filter>
</defs>
</svg>
