<svg width="72" height="26" viewBox="0 0 36 13" fill="none" xmlns="http://www.w3.org/2000/svg">
<path d="M7.20764 5.0719C5.13564 5.4779 3.21764 5.6319 1.34164 5.6319V1.0399H0.193641V6.5839H1.21564C3.20364 6.5839 5.16364 6.4299 7.37564 6.0099L7.20764 5.0719ZM1.32764 9.1739H8.57964V12.9119H9.72764V8.2359H1.32764V9.1739ZM8.57964 0.3399V7.5919H9.72764V0.3399H8.57964ZM14.0525 1.6699H12.9185V9.7059H13.7165C15.2285 9.7059 16.6285 9.6219 18.2665 9.2859L18.1125 8.3199C16.6565 8.6139 15.3965 8.6979 14.0525 8.7119V1.6699ZM19.2045 4.5399H16.4045V5.4919H19.2045V12.2539H20.2965V0.6339H19.2045V4.5399ZM21.8785 0.3119V12.8839H22.9705V0.3119H21.8785ZM34.3375 0.3399V7.5219H35.4855V0.3399H34.3375ZM27.3655 8.1939V12.7159H35.4855V8.1939H27.3655ZM34.3655 9.1039V11.7919H28.4855V9.1039H34.3655ZM28.7375 0.9979C26.8475 0.9979 25.4755 2.1879 25.4755 3.9239C25.4755 5.6599 26.8475 6.8499 28.7375 6.8499C30.6415 6.8499 32.0275 5.6599 32.0275 3.9239C32.0275 2.1879 30.6415 0.9979 28.7375 0.9979ZM28.7375 1.9499C29.9975 1.9499 30.9075 2.7759 30.9075 3.9239C30.9075 5.0859 29.9975 5.8979 28.7375 5.8979C27.4915 5.8979 26.5955 5.0859 26.5955 3.9239C26.5955 2.7759 27.4915 1.9499 28.7375 1.9499Z" fill="white"/>
</svg>
