<svg width="100" height="21" viewBox="0 0 79 14" fill="none" xmlns="http://www.w3.org/2000/svg">
<path d="M8.87 0.478V13.05H10.018V0.478H8.87ZM0.456 1.542V10.012H6.364V1.542H5.23V4.86H1.59V1.542H0.456ZM1.59 5.77H5.23V9.074H1.59V5.77ZM22.9109 0.492H21.7629V6.946H22.9109V0.492ZM18.0249 5.392H14.3989V2.088H18.0249V5.392ZM19.1449 1.178H13.2789V6.302H19.1449V1.178ZM15.9389 11.986V10.6H22.9109V7.576H14.7769V8.472H21.7769V9.746H14.8189V12.896H23.3449V11.986H15.9389ZM30.6518 6.708H27.2638V4.44H30.6518V6.708ZM31.7858 4.958H34.6838V9.774H35.8458V0.478H34.6838V4.02H31.7858V1.318H30.6518V3.53H27.2638V1.318H26.1298V7.632H31.7858V4.958ZM28.9158 11.818V8.864H27.7678V12.756H36.1398V11.818H28.9158ZM49.1307 2.312H44.6367V0.674H43.4887V2.312H38.9387V3.25H49.1307V2.312ZM41.0947 6.484C41.0947 5.56 42.2287 5 44.0627 5C45.8687 5 46.9887 5.56 46.9887 6.484C46.9887 7.422 45.8687 7.982 44.0627 7.982C42.2287 7.982 41.0947 7.422 41.0947 6.484ZM44.6367 10.628V8.864C46.8207 8.724 48.1507 7.884 48.1507 6.484C48.1507 4.972 46.5687 4.104 44.0627 4.104C41.5147 4.104 39.9327 4.972 39.9327 6.484C39.9327 7.884 41.2767 8.738 43.4887 8.864V10.628H38.3787V11.566H49.7607V10.628H44.6367ZM62.206 1.626H59.182V0.393999H58.034V1.626H54.996V2.494H62.206V1.626ZM56.76 4.818C56.76 4.16 57.474 3.754 58.608 3.754C59.714 3.754 60.442 4.16 60.442 4.818C60.442 5.476 59.714 5.896 58.608 5.896C57.474 5.896 56.76 5.476 56.76 4.818ZM62.584 7.226C61.492 7.394 60.33 7.478 59.182 7.534V6.666C60.624 6.512 61.534 5.84 61.534 4.818C61.534 3.67 60.358 2.956 58.608 2.956C56.83 2.956 55.668 3.67 55.668 4.818C55.668 5.854 56.578 6.526 58.034 6.666V7.576C56.83 7.618 55.682 7.618 54.688 7.618L54.814 8.542C57.012 8.528 59.98 8.514 62.668 8.052L62.584 7.226ZM56.214 10.446H63.326V13.036H64.474V9.536H56.214V10.446ZM66.308 4.286H64.474V0.492H63.326V8.906H64.474V5.238H66.308V4.286ZM77.9269 0.492H76.7789V9.662H77.9269V0.492ZM69.0369 4.44C69.0369 3.222 69.9609 2.354 71.1789 2.354C72.4249 2.354 73.3489 3.222 73.3489 4.44C73.3489 5.686 72.4249 6.554 71.1789 6.554C69.9609 6.554 69.0369 5.686 69.0369 4.44ZM74.4689 4.44C74.4689 2.634 73.0549 1.36 71.1789 1.36C69.3169 1.36 67.9169 2.634 67.9169 4.44C67.9169 6.26 69.3169 7.548 71.1789 7.548C73.0549 7.548 74.4689 6.26 74.4689 4.44ZM70.9969 11.818V8.724H69.8489V12.756H78.3049V11.818H70.9969Z" fill="white"/>
</svg>
