<svg width="64" height="19" viewBox="0 0 50 14" fill="none" xmlns="http://www.w3.org/2000/svg">
<path d="M8.884 0.422V13.106H10.046V0.422H8.884ZM0.414 1.5V10.054H6.378V1.5H5.216V4.846H1.562V1.5H0.414ZM1.562 5.77H5.216V9.102H1.562V5.77ZM13.2369 1.136V6.316H19.1309V1.136H13.2369ZM18.0109 2.06V5.378H14.3569V2.06H18.0109ZM21.7769 0.436V6.946H22.9389V0.436H21.7769ZM14.7489 7.576V8.5H21.7909V9.774H14.7769V12.42H15.9109V10.642H22.9389V7.576H14.7489ZM14.7769 12.028V12.952H23.3729V12.028H14.7769ZM31.4218 4.006V4.958H35.0618V4.006H31.4218ZM34.6978 0.449999V9.816H35.8598V0.449999H34.6978ZM27.7258 11.86V12.812H36.1678V11.86H27.7258ZM27.7258 8.906V12.35H28.8878V8.906H27.7258ZM26.0738 1.276V7.66H31.7858V1.276H30.6518V3.516H27.2218V1.276H26.0738ZM27.2218 4.426H30.6518V6.708H27.2218V4.426ZM38.8967 2.284V3.236H49.1727V2.284H38.8967ZM38.3367 10.656V11.622H49.8027V10.656H38.3367ZM43.4747 8.654V11.034H44.6227V8.654H43.4747ZM44.0347 4.09C41.4867 4.09 39.9047 4.972 39.9047 6.498C39.9047 8.024 41.4867 8.906 44.0347 8.906C46.5967 8.906 48.1787 8.024 48.1787 6.498C48.1787 4.972 46.5967 4.09 44.0347 4.09ZM44.0347 5C45.8827 5 47.0027 5.56 47.0027 6.498C47.0027 7.436 45.8827 7.982 44.0347 7.982C42.2007 7.982 41.0667 7.436 41.0667 6.498C41.0667 5.56 42.2007 5 44.0347 5ZM43.4747 0.645999V2.872H44.6227V0.645999H43.4747Z" fill="white"/>
</svg>
