<svg width="400" height="70" viewBox="0 0 227 35" fill="none" xmlns="http://www.w3.org/2000/svg">
<path d="M63.902 1.4341V9.2461H65.764V1.4341H63.902ZM65.246 4.6261V6.1521H67.486V4.6261H65.246ZM57.336 9.8061V14.2581H65.764V9.8061H57.336ZM63.944 11.2761V12.7881H59.17V11.2761H63.944ZM55.558 2.5961V4.0661H63.188V2.5961H55.558ZM59.38 4.4441C57.49 4.4441 56.188 5.3961 56.188 6.7821C56.188 8.1821 57.49 9.1061 59.38 9.1061C61.256 9.1061 62.558 8.1821 62.558 6.7821C62.558 5.3961 61.256 4.4441 59.38 4.4441ZM59.38 5.8301C60.206 5.8301 60.78 6.1521 60.78 6.7821C60.78 7.4121 60.206 7.7481 59.38 7.7481C58.54 7.7481 57.98 7.4121 57.98 6.7821C57.98 6.1521 58.54 5.8301 59.38 5.8301ZM58.442 1.3501V3.3941H60.304V1.3501H58.442ZM70.019 2.9041V3.0581C70.019 6.2641 69.753 8.5181 68.241 10.8981L69.669 11.6681C71.279 9.0921 71.587 6.1941 71.587 2.9041H70.019ZM68.661 2.9041V4.4021H71.013V2.9041H68.661ZM72.917 2.9041V3.0721C72.917 6.3061 72.777 8.9381 71.125 11.5141L72.553 12.2981C74.289 9.5261 74.485 6.2921 74.485 2.9041H72.917ZM71.979 2.9041V4.4021H73.967V2.9041H71.979ZM77.915 1.4341V14.3981H79.693V1.4341H77.915ZM73.855 6.2921V7.7901H75.689V6.2921H73.855ZM75.409 1.7141V13.8241H77.145V1.7141H75.409ZM89.6319 1.4341V14.3981H91.4799V1.4341H89.6319ZM91.0599 6.4881V8.0421H93.3559V6.4881H91.0599ZM81.2599 3.3521V4.8361H88.8059V3.3521H81.2599ZM85.0539 5.5641C83.1639 5.5641 81.7639 6.8521 81.7639 8.6581C81.7639 10.4641 83.1639 11.7521 85.0539 11.7521C86.9439 11.7521 88.3439 10.4641 88.3439 8.6581C88.3439 6.8521 86.9439 5.5641 85.0539 5.5641ZM85.0539 7.0761C85.9359 7.0761 86.5659 7.6641 86.5659 8.6581C86.5659 9.6521 85.9359 10.2401 85.0539 10.2401C84.1719 10.2401 83.5419 9.6521 83.5419 8.6581C83.5419 7.6641 84.1719 7.0761 85.0539 7.0761ZM84.1159 1.6441V3.9121H85.9779V1.6441H84.1159ZM95.3988 2.5261V4.0241H103.617V2.5261H95.3988ZM94.2088 11.3321V12.8441H105.927V11.3321H94.2088ZM98.3528 6.8801V12.0741H100.215V6.8801H98.3528ZM102.945 2.5261V3.7721C102.945 5.3261 102.945 7.2021 102.427 9.7781L104.289 9.9881C104.807 7.2161 104.807 5.3961 104.807 3.7721V2.5261H102.945ZM119.464 1.4481V8.6161H121.34V1.4481H119.464ZM113.598 1.8821V3.1281C113.598 4.7101 112.674 6.3341 110.49 6.9921L111.4 8.4481C113.934 7.6781 115.138 5.5221 115.138 3.1281V1.8821H113.598ZM113.976 1.8821V3.1281C113.976 5.4801 115.138 7.4961 117.63 8.2381L118.526 6.7681C116.412 6.1661 115.502 4.6681 115.502 3.1281V1.8821H113.976ZM112.576 9.2041V10.6741H121.396V9.2041H112.576ZM112.45 12.7881V14.2581H121.522V12.7881H112.45ZM114.102 9.7501V13.6561H115.922V9.7501H114.102ZM118.05 9.7501V13.6561H119.884V9.7501H118.05ZM123.439 8.0421V9.5261H135.157V8.0421H123.439ZM124.853 12.6901V14.1741H133.841V12.6901H124.853ZM124.853 10.3941V13.1661H126.715V10.3941H124.853ZM129.305 1.8121C126.477 1.8121 124.615 2.8341 124.615 4.4861C124.615 6.1381 126.477 7.1601 129.305 7.1601C132.119 7.1601 133.995 6.1381 133.995 4.4861C133.995 2.8341 132.119 1.8121 129.305 1.8121ZM129.305 3.2961C131.055 3.2961 132.077 3.7021 132.077 4.4861C132.077 5.2841 131.055 5.6761 129.305 5.6761C127.555 5.6761 126.533 5.2841 126.533 4.4861C126.533 3.7021 127.555 3.2961 129.305 3.2961ZM149.086 1.4481V9.0221H150.85V1.4481H149.086ZM147.574 4.5281V6.0401H149.73V4.5281H147.574ZM146.384 1.6441V8.9521H148.12V1.6441H146.384ZM142.072 9.5821V14.2581H150.85V9.5821H142.072ZM149.03 11.0381V12.7881H143.906V11.0381H149.03ZM142.128 3.8421V4.2201C142.128 5.5921 141.428 6.9221 139.79 7.5381L140.644 8.9241C142.674 8.1681 143.514 6.2781 143.514 4.2201V3.8421H142.128ZM142.506 3.8421V4.2201C142.506 6.1941 143.346 8.0001 145.39 8.7001L146.216 7.3281C144.592 6.7541 143.878 5.5081 143.878 4.2201V3.8421H142.506ZM140.154 2.7781V4.2341H145.838V2.7781H140.154ZM142.128 1.5181V3.5341H143.878V1.5181H142.128ZM152.697 11.3741V12.9001H164.429V11.3741H152.697ZM153.593 2.5541V4.0381H163.463V2.5541H153.593ZM153.649 7.9161V9.4141H163.421V7.9161H153.649ZM155.357 3.9261V8.0561H157.219V3.9261H155.357ZM159.851 3.9261V8.0561H161.699V3.9261H159.851Z" fill="white"/>
<path d="M7.41633 22.8921V27.7221H8.24633V22.8921H7.41633ZM8.01633 24.9821V25.6721H9.58633V24.9821H8.01633ZM4.91633 23.5221V23.9721C4.91633 25.4821 3.64633 26.6921 1.26633 27.2221L1.59633 27.8921C4.24633 27.2821 5.83633 25.8021 5.83633 23.5221H4.91633ZM1.63633 23.5221V24.2021H5.39633V23.5221H1.63633ZM2.55633 28.1321V31.5021H3.37633V28.7621H8.29633V28.1321H2.55633ZM2.55633 31.1821V31.8121H8.49633V31.1821H2.55633ZM3.09633 29.6421V30.2521H8.18633V29.6421H3.09633ZM16.9955 22.8821V31.9421H17.8255V22.8821H16.9955ZM13.0555 23.5821C11.7255 23.5821 10.7655 24.8121 10.7655 26.7321C10.7655 28.6621 11.7255 29.8921 13.0555 29.8921C14.3955 29.8921 15.3555 28.6621 15.3555 26.7321C15.3555 24.8121 14.3955 23.5821 13.0555 23.5821ZM13.0555 24.3321C13.9455 24.3321 14.5555 25.2721 14.5555 26.7321C14.5555 28.2021 13.9455 29.1621 13.0555 29.1621C12.1755 29.1621 11.5555 28.2021 11.5555 26.7321C11.5555 25.2721 12.1755 24.3321 13.0555 24.3321ZM28.9952 22.8921V31.9321H29.7952V22.8921H28.9952ZM25.0752 26.5821V27.2521H27.3552V26.5821H25.0752ZM27.1152 23.1221V31.4721H27.8952V23.1221H27.1152ZM25.1852 24.0321V24.1821C25.1852 26.3121 24.2352 28.1121 22.1052 29.3921L22.5952 29.9821C25.0352 28.5321 25.9852 26.4021 25.9852 24.0321H25.1852ZM22.5052 24.0321V24.7121H25.4952V24.0321H22.5052ZM37.8845 22.9021V28.0621H38.7245V22.9021H37.8845ZM32.8845 28.5521V31.8121H38.7245V28.5521H32.8845ZM37.9045 29.2121V31.1421H33.6945V29.2121H37.9045ZM33.8745 23.3721C32.5045 23.3721 31.5145 24.2321 31.5145 25.4821C31.5145 26.7321 32.5045 27.5921 33.8745 27.5921C35.2445 27.5921 36.2245 26.7321 36.2245 25.4821C36.2245 24.2321 35.2445 23.3721 33.8745 23.3721ZM33.8745 24.0621C34.7745 24.0621 35.4245 24.6421 35.4245 25.4821C35.4245 26.3221 34.7745 26.8921 33.8745 26.8921C32.9745 26.8921 32.3245 26.3221 32.3245 25.4821C32.3245 24.6421 32.9745 24.0621 33.8745 24.0621ZM46.6337 22.8921V31.9321H47.4637V22.8921H46.6337ZM47.2637 26.6021V27.3021H48.9437V26.6021H47.2637ZM40.4637 24.3321V25.0121H45.7937V24.3321H40.4637ZM43.1637 25.7621C41.8937 25.7621 40.9637 26.6221 40.9637 27.8421C40.9637 29.0621 41.8937 29.9221 43.1637 29.9221C44.4437 29.9221 45.3637 29.0621 45.3637 27.8421C45.3637 26.6221 44.4437 25.7621 43.1637 25.7621ZM43.1637 26.4521C43.9837 26.4521 44.5737 27.0221 44.5737 27.8421C44.5737 28.6521 43.9837 29.2321 43.1637 29.2321C42.3437 29.2321 41.7537 28.6521 41.7537 27.8421C41.7537 27.0221 42.3437 26.4521 43.1637 26.4521ZM42.7337 23.0021V24.6421H43.5637V23.0021H42.7337ZM50.5729 23.7921V24.4821H56.3929V23.7921H50.5729ZM49.7129 29.9821V30.6721H57.8829V29.9821H49.7129ZM52.8829 26.7521V30.3221H53.7129V26.7521H52.8829ZM56.0829 23.7921V24.6921C56.0829 25.7721 56.0829 27.0421 55.7429 28.7721L56.5729 28.8821C56.9029 27.0521 56.9029 25.8121 56.9029 24.6921V23.7921H56.0829ZM67.9626 22.9021V27.9121H68.8026V22.9021H67.9626ZM63.7426 23.2221V24.1021C63.7426 25.4021 62.8026 26.6021 61.4426 27.0821L61.8626 27.7321C63.3926 27.1821 64.4326 25.7721 64.4326 24.1021V23.2221H63.7426ZM63.8926 23.2221V24.1021C63.8926 25.7221 64.9326 27.0521 66.4526 27.5721L66.8626 26.9121C65.5226 26.4721 64.5726 25.3621 64.5726 24.1021V23.2221H63.8926ZM62.8226 28.4521V29.1321H68.8526V28.4521H62.8226ZM62.7326 31.1421V31.8121H68.9526V31.1421H62.7326ZM64.0626 28.7421V31.5321H64.8726V28.7421H64.0626ZM66.8026 28.7421V31.5321H67.6226V28.7421H66.8026ZM70.5818 27.6421V28.3221H78.7518V27.6421H70.5818ZM71.6418 31.0521V31.7321H77.8518V31.0521H71.6418ZM71.6418 29.1121V31.2621H72.4718V29.1121H71.6418ZM74.6718 23.1921C72.7318 23.1921 71.4918 23.8721 71.4918 25.0021C71.4918 26.1221 72.7318 26.8021 74.6718 26.8021C76.6018 26.8021 77.8518 26.1221 77.8518 25.0021C77.8518 23.8721 76.6018 23.1921 74.6718 23.1921ZM74.6718 23.8721C76.0918 23.8721 77.0018 24.2921 77.0018 25.0021C77.0018 25.7121 76.0918 26.1321 74.6718 26.1321C73.2518 26.1321 72.3418 25.7121 72.3418 25.0021C72.3418 24.2921 73.2518 23.8721 74.6718 23.8721ZM82.2715 30.0721V30.7621H90.4615V30.0721H82.2715ZM85.9115 27.8821V30.3021H86.7315V27.8821H85.9115ZM85.8915 23.4921V24.1921C85.8915 25.6821 84.1815 27.0121 82.5915 27.3021L82.9415 27.9921C84.7615 27.6121 86.6115 26.1221 86.6115 24.1921V23.4921H85.8915ZM86.0415 23.4921V24.1921C86.0415 26.1221 87.8915 27.6121 89.7115 27.9921L90.0715 27.3021C88.4815 27.0121 86.7615 25.6921 86.7615 24.1921V23.4921H86.0415ZM97.6407 22.8921V29.9721H98.4707V22.8921H97.6407ZM98.1207 26.0421V26.7321H99.7907V26.0421H98.1207ZM92.7507 31.0521V31.7321H98.7907V31.0521H92.7507ZM92.7507 29.5021V31.2621H93.5807V29.5021H92.7507ZM93.8307 27.3121V28.5421H94.6607V27.3121H93.8307ZM91.5207 28.9321C93.0907 28.9221 95.2607 28.8821 97.1707 28.5321L97.1007 27.9421C95.2407 28.2321 93.0107 28.2621 91.4107 28.2621L91.5207 28.9321ZM91.6407 23.7721V24.4021H96.8307V23.7721H91.6407ZM94.2407 24.7721C92.9707 24.7721 92.1307 25.3021 92.1307 26.1621C92.1307 27.0321 92.9707 27.5621 94.2407 27.5621C95.5107 27.5621 96.3407 27.0321 96.3407 26.1621C96.3407 25.3021 95.5107 24.7721 94.2407 24.7721ZM94.2407 25.3621C95.0407 25.3621 95.5607 25.6721 95.5607 26.1621C95.5607 26.6621 95.0407 26.9621 94.2407 26.9621C93.4307 26.9621 92.9107 26.6621 92.9107 26.1621C92.9107 25.6721 93.4307 25.3621 94.2407 25.3621ZM93.8307 22.8521V24.0521H94.6607V22.8521H93.8307ZM102.88 23.6721V25.2921C102.88 26.9421 101.85 28.6821 100.54 29.3421L101.05 30.0021C102.48 29.2421 103.56 27.2921 103.56 25.2921V23.6721H102.88ZM103.03 23.6721V25.2921C103.03 27.2321 104.08 29.0821 105.48 29.8321L105.99 29.1721C104.71 28.5321 103.7 26.8821 103.7 25.2921V23.6721H103.03ZM106.78 22.8921V31.9321H107.62V22.8921H106.78ZM107.42 26.5521V27.2521H109.1V26.5521H107.42ZM112.799 23.5421C111.389 23.5421 110.369 24.4121 110.369 25.6721C110.369 26.9421 111.389 27.8121 112.799 27.8121C114.209 27.8121 115.219 26.9421 115.219 25.6721C115.219 24.4121 114.209 23.5421 112.799 23.5421ZM112.799 24.2621C113.729 24.2621 114.409 24.8321 114.409 25.6721C114.409 26.5121 113.729 27.0921 112.799 27.0921C111.859 27.0921 111.179 26.5121 111.179 25.6721C111.179 24.8321 111.859 24.2621 112.799 24.2621ZM116.399 22.8821V31.9421H117.229V22.8821H116.399ZM110.029 29.9621C111.639 29.9621 113.849 29.9521 115.879 29.5621L115.809 28.9521C113.839 29.2621 111.559 29.2721 109.909 29.2721L110.029 29.9621ZM128.369 22.9021V28.2221H129.159V22.9021H128.369ZM126.959 25.2021V25.8921H128.699V25.2021H126.959ZM126.449 23.0521V28.1321H127.229V23.0521H126.449ZM123.229 28.6921V31.8121H129.159V28.6921H123.229ZM128.359 29.3521V31.1421H124.039V29.3521H128.359ZM123.429 24.4621V24.7221C123.429 25.8221 122.749 26.9421 121.609 27.4221L122.019 28.0521C123.329 27.4821 124.059 26.1421 124.059 24.7221V24.4621H123.429ZM123.589 24.4621V24.7221C123.589 26.0721 124.329 27.3521 125.649 27.8821L126.039 27.2621C124.909 26.8121 124.209 25.7621 124.209 24.7221V24.4621H123.589ZM121.789 24.0221V24.6921H125.819V24.0221H121.789ZM123.429 22.9621V24.3321H124.209V22.9621H123.429ZM130.748 30.0821V30.7721H138.938V30.0821H130.748ZM131.458 23.7921V24.4721H138.168V23.7921H131.458ZM131.478 27.6121V28.2921H138.158V27.6121H131.478ZM132.868 24.4221V27.6821H133.698V24.4221H132.868ZM135.948 24.4221V27.6821H136.768V24.4221H135.948ZM143.837 27.1531H144.481C144.797 27.1531 145.058 27.101 145.263 26.9968C145.471 26.8894 145.626 26.7445 145.727 26.5623C145.831 26.3767 145.883 26.1684 145.883 25.9373C145.883 25.6638 145.837 25.4343 145.746 25.2488C145.655 25.0632 145.518 24.9233 145.336 24.8289C145.154 24.7345 144.923 24.6873 144.643 24.6873C144.389 24.6873 144.164 24.7377 143.969 24.8386C143.777 24.9363 143.625 25.0763 143.515 25.2585C143.407 25.4408 143.354 25.6557 143.354 25.9031H142.45C142.45 25.5417 142.541 25.213 142.724 24.9167C142.906 24.6205 143.161 24.3845 143.49 24.2087C143.822 24.033 144.206 23.9451 144.643 23.9451C145.072 23.9451 145.448 24.0216 145.771 24.1746C146.093 24.3243 146.343 24.5489 146.522 24.8484C146.701 25.1446 146.791 25.5141 146.791 25.9568C146.791 26.1358 146.749 26.3279 146.664 26.533C146.583 26.7348 146.454 26.9236 146.278 27.0994C146.106 27.2751 145.881 27.42 145.604 27.5339C145.328 27.6446 144.996 27.7 144.608 27.7H143.837V27.1531ZM143.837 27.8953V27.3533H144.608C145.061 27.3533 145.435 27.407 145.731 27.5144C146.028 27.6218 146.26 27.7651 146.43 27.9441C146.602 28.1231 146.723 28.3201 146.791 28.5349C146.863 28.7465 146.898 28.9581 146.898 29.1697C146.898 29.5017 146.841 29.7963 146.728 30.0535C146.617 30.3106 146.459 30.5287 146.254 30.7078C146.052 30.8868 145.814 31.0219 145.541 31.113C145.268 31.2042 144.97 31.2498 144.647 31.2498C144.338 31.2498 144.047 31.2058 143.773 31.1179C143.503 31.03 143.264 30.9031 143.056 30.7371C142.847 30.5678 142.685 30.3611 142.567 30.1169C142.45 29.8695 142.392 29.588 142.392 29.2722H143.295C143.295 29.5196 143.349 29.7361 143.456 29.9216C143.567 30.1072 143.723 30.252 143.925 30.3562C144.13 30.4571 144.371 30.5076 144.647 30.5076C144.924 30.5076 145.162 30.4604 145.36 30.366C145.562 30.2683 145.717 30.1218 145.824 29.9265C145.935 29.7312 145.99 29.4854 145.99 29.1892C145.99 28.893 145.928 28.6505 145.805 28.4617C145.681 28.2696 145.505 28.128 145.277 28.0369C145.053 27.9425 144.787 27.8953 144.481 27.8953H143.837ZM154.913 22.8921V31.9321H155.713V22.8921H154.913ZM153.453 26.5221V27.2021H155.183V26.5221H153.453ZM151.113 24.0521V24.2121C151.113 26.3021 150.313 28.1321 148.043 29.4021L148.533 29.9921C151.113 28.5421 151.913 26.3821 151.913 24.0521H151.113ZM148.393 24.0521V24.7421H151.393V24.0521H148.393ZM152.903 23.1321V31.4921H153.693V23.1321H152.903ZM157.242 27.0921V27.7221H165.442V27.0921H157.242ZM158.212 28.4521V29.0421H163.602V29.8121H158.242V31.4421H159.062V30.3821H164.412V28.4521H158.212ZM158.242 31.2221V31.8221H164.702V31.2221H158.242ZM158.282 23.1521V23.7421H163.572V24.4721H158.302V26.0121H159.122V25.0321H164.382V23.1521H158.282ZM158.302 25.8121V26.4121H164.552V25.8121H158.302ZM173.562 25.0221V25.7121H175.842V25.0221H173.562ZM171.192 23.4421V24.5521C171.192 25.9321 170.282 27.2121 168.942 27.7121L169.372 28.3721C170.882 27.7621 171.862 26.3021 171.862 24.5521V23.4421H171.192ZM171.352 23.4421V24.5821C171.352 26.1921 172.322 27.5921 173.762 28.1521L174.212 27.5121C172.902 27.0321 172.022 25.8421 172.022 24.5821V23.4421H171.352ZM175.532 22.9021V29.6621H176.362V22.9021H175.532ZM170.552 31.0521V31.7321H176.582V31.0521H170.552ZM170.552 28.9121V31.3721H171.382V28.9121H170.552ZM178.511 27.2121V27.9021H179.091C180.541 27.9021 181.401 27.8621 182.441 27.6621L182.361 26.9821C181.351 27.1821 180.511 27.2121 179.091 27.2121H178.511ZM178.511 23.5521V27.5821H179.311V24.2321H182.011V23.5521H178.511ZM179.061 25.3521V26.0021H181.901V25.3521H179.061ZM184.951 22.8921V28.3721H185.741V22.8921H184.951ZM183.491 25.2521V25.9321H185.201V25.2521H183.491ZM182.961 23.0621V28.3221H183.741V23.0621H182.961ZM179.681 28.8521V29.5321H184.921V31.9321H185.741V28.8521H179.681ZM187.31 24.4321V25.1121H191.79V24.4321H187.31ZM189.55 25.7121C188.43 25.7121 187.61 26.5621 187.61 27.7821C187.61 28.9921 188.43 29.8421 189.55 29.8421C190.68 29.8421 191.5 28.9921 191.5 27.7821C191.5 26.5621 190.68 25.7121 189.55 25.7121ZM189.55 26.4221C190.25 26.4221 190.76 26.9821 190.76 27.7821C190.76 28.5821 190.25 29.1421 189.55 29.1421C188.86 29.1421 188.36 28.5821 188.36 27.7821C188.36 26.9821 188.86 26.4221 189.55 26.4221ZM194.18 22.8921V31.9321H194.98V22.8921H194.18ZM192.74 26.6921V27.3821H194.45V26.6921H192.74ZM192.25 23.0921V31.4921H193.03V23.0921H192.25ZM189.15 23.1521V24.8521H189.97V23.1521H189.15ZM200.149 23.7821V24.1621C200.149 25.3521 198.599 26.3921 197.009 26.6221L197.329 27.2821C199.149 26.9721 200.869 25.7821 200.869 24.1621V23.7821H200.149ZM200.359 23.7821V24.1621C200.359 25.7821 202.069 26.9721 203.899 27.2821L204.209 26.6221C202.629 26.3921 201.069 25.3521 201.069 24.1621V23.7821H200.359ZM200.179 28.4821V31.9321H200.999V28.4821H200.179ZM196.529 28.0421V28.7221H204.699V28.0421H196.529ZM197.289 23.4521V24.1221H203.909V23.4521H197.289ZM209.289 26.1221V26.8121H211.019V26.1221H209.289ZM207.599 23.7421V25.4621C207.599 27.0121 206.859 28.6321 205.619 29.3621L206.139 29.9921C207.459 29.1821 208.249 27.3521 208.249 25.4621V23.7421H207.599ZM207.759 23.7421V25.4321C207.759 27.1921 208.489 28.9921 209.789 29.7921L210.269 29.1421C209.079 28.4221 208.399 26.8821 208.399 25.4321V23.7421H207.759ZM212.609 22.8921V31.9321H213.409V22.8921H212.609ZM210.779 23.0821V31.4821H211.559V23.0821H210.779ZM216.928 27.5421V30.2521H217.748V27.5421H216.928ZM220.268 27.5421V30.2521H221.098V27.5421H220.268ZM214.928 30.0921V30.7821H223.118V30.0921H214.928ZM219.008 23.4621C217.088 23.4621 215.718 24.3721 215.718 25.7921C215.718 27.2021 217.088 28.1121 219.008 28.1121C220.918 28.1121 222.288 27.2021 222.288 25.7921C222.288 24.3721 220.918 23.4621 219.008 23.4621ZM219.008 24.1221C220.458 24.1221 221.488 24.7821 221.488 25.7921C221.488 26.7921 220.458 27.4521 219.008 27.4521C217.558 27.4521 216.518 26.7921 216.518 25.7921C216.518 24.7821 217.558 24.1221 219.008 24.1221ZM224.33 30.6736C224.33 30.5206 224.377 30.392 224.472 30.2878C224.569 30.1804 224.709 30.1267 224.892 30.1267C225.074 30.1267 225.212 30.1804 225.307 30.2878C225.404 30.392 225.453 30.5206 225.453 30.6736C225.453 30.8233 225.404 30.9503 225.307 31.0544C225.212 31.1586 225.074 31.2107 224.892 31.2107C224.709 31.2107 224.569 31.1586 224.472 31.0544C224.377 30.9503 224.33 30.8233 224.33 30.6736Z" fill="white" fill-opacity="0.7"/>
</svg>
