<svg width="400" height="70" viewBox="0 0 226 34" fill="none" xmlns="http://www.w3.org/2000/svg">
<path d="M63.402 1.282V9.094H65.264V1.282H63.402ZM64.746 4.474V6H66.986V4.474H64.746ZM56.836 9.654V14.106H65.264V9.654H56.836ZM63.444 11.124V12.636H58.67V11.124H63.444ZM55.058 2.444V3.914H62.688V2.444H55.058ZM58.88 4.292C56.99 4.292 55.688 5.244 55.688 6.63C55.688 8.03 56.99 8.954 58.88 8.954C60.756 8.954 62.058 8.03 62.058 6.63C62.058 5.244 60.756 4.292 58.88 4.292ZM58.88 5.678C59.706 5.678 60.28 6 60.28 6.63C60.28 7.26 59.706 7.596 58.88 7.596C58.04 7.596 57.48 7.26 57.48 6.63C57.48 6 58.04 5.678 58.88 5.678ZM57.942 1.198V3.242H59.804V1.198H57.942ZM69.519 2.752V2.906C69.519 6.112 69.253 8.366 67.741 10.746L69.169 11.516C70.779 8.94 71.087 6.042 71.087 2.752H69.519ZM68.161 2.752V4.25H70.513V2.752H68.161ZM72.417 2.752V2.92C72.417 6.154 72.277 8.786 70.625 11.362L72.053 12.146C73.789 9.374 73.985 6.14 73.985 2.752H72.417ZM71.479 2.752V4.25H73.467V2.752H71.479ZM77.415 1.282V14.246H79.193V1.282H77.415ZM73.355 6.14V7.638H75.189V6.14H73.355ZM74.909 1.562V13.672H76.645V1.562H74.909ZM89.1319 1.282V14.246H90.9799V1.282H89.1319ZM90.5599 6.336V7.89H92.8559V6.336H90.5599ZM80.7599 3.2V4.684H88.3059V3.2H80.7599ZM84.5539 5.412C82.6639 5.412 81.2639 6.7 81.2639 8.506C81.2639 10.312 82.6639 11.6 84.5539 11.6C86.4439 11.6 87.8439 10.312 87.8439 8.506C87.8439 6.7 86.4439 5.412 84.5539 5.412ZM84.5539 6.924C85.4359 6.924 86.0659 7.512 86.0659 8.506C86.0659 9.5 85.4359 10.088 84.5539 10.088C83.6719 10.088 83.0419 9.5 83.0419 8.506C83.0419 7.512 83.6719 6.924 84.5539 6.924ZM83.6159 1.492V3.76H85.4779V1.492H83.6159ZM94.8988 2.374V3.872H103.117V2.374H94.8988ZM93.7088 11.18V12.692H105.427V11.18H93.7088ZM97.8528 6.728V11.922H99.7148V6.728H97.8528ZM102.445 2.374V3.62C102.445 5.174 102.445 7.05 101.927 9.626L103.789 9.836C104.307 7.064 104.307 5.244 104.307 3.62V2.374H102.445ZM118.964 1.296V8.464H120.84V1.296H118.964ZM113.098 1.73V2.976C113.098 4.558 112.174 6.182 109.99 6.84L110.9 8.296C113.434 7.526 114.638 5.37 114.638 2.976V1.73H113.098ZM113.476 1.73V2.976C113.476 5.328 114.638 7.344 117.13 8.086L118.026 6.616C115.912 6.014 115.002 4.516 115.002 2.976V1.73H113.476ZM112.076 9.052V10.522H120.896V9.052H112.076ZM111.95 12.636V14.106H121.022V12.636H111.95ZM113.602 9.598V13.504H115.422V9.598H113.602ZM117.55 9.598V13.504H119.384V9.598H117.55ZM122.939 7.89V9.374H134.657V7.89H122.939ZM124.353 12.538V14.022H133.341V12.538H124.353ZM124.353 10.242V13.014H126.215V10.242H124.353ZM128.805 1.66C125.977 1.66 124.115 2.682 124.115 4.334C124.115 5.986 125.977 7.008 128.805 7.008C131.619 7.008 133.495 5.986 133.495 4.334C133.495 2.682 131.619 1.66 128.805 1.66ZM128.805 3.144C130.555 3.144 131.577 3.55 131.577 4.334C131.577 5.132 130.555 5.524 128.805 5.524C127.055 5.524 126.033 5.132 126.033 4.334C126.033 3.55 127.055 3.144 128.805 3.144ZM147.62 1.268V14.274H149.468V1.268H147.62ZM149.048 6.168V7.708H151.344V6.168H149.048ZM139.836 9.738V11.264H140.928C143.182 11.264 144.96 11.18 146.92 10.83L146.738 9.332C144.834 9.668 143.126 9.738 140.928 9.738H139.836ZM139.822 2.374V3.858H143.938V5.916H139.836V10.312H141.684V7.4H145.786V2.374H139.822ZM161.087 1.296V10.606H162.963V1.296H161.087ZM154.325 12.538V14.022H163.285V12.538H154.325ZM154.325 9.668V13.14H156.187V9.668H154.325ZM155.907 2.108C153.919 2.108 152.379 3.48 152.379 5.398C152.379 7.302 153.919 8.688 155.907 8.688C157.895 8.688 159.421 7.302 159.421 5.398C159.421 3.48 157.895 2.108 155.907 2.108ZM155.907 3.718C156.859 3.718 157.601 4.334 157.601 5.398C157.601 6.448 156.859 7.064 155.907 7.064C154.941 7.064 154.199 6.448 154.199 5.398C154.199 4.334 154.941 3.718 155.907 3.718Z" fill="white"/>
<path d="M6.91633 22.74V27.57H7.74633V22.74H6.91633ZM7.51633 24.83V25.52H9.08633V24.83H7.51633ZM4.41633 23.37V23.82C4.41633 25.33 3.14633 26.54 0.766328 27.07L1.09633 27.74C3.74633 27.13 5.33633 25.65 5.33633 23.37H4.41633ZM1.13633 23.37V24.05H4.89633V23.37H1.13633ZM2.05633 27.98V31.35H2.87633V28.61H7.79633V27.98H2.05633ZM2.05633 31.03V31.66H7.99633V31.03H2.05633ZM2.59633 29.49V30.1H7.68633V29.49H2.59633ZM16.4955 22.73V31.79H17.3255V22.73H16.4955ZM12.5555 23.43C11.2255 23.43 10.2655 24.66 10.2655 26.58C10.2655 28.51 11.2255 29.74 12.5555 29.74C13.8955 29.74 14.8555 28.51 14.8555 26.58C14.8555 24.66 13.8955 23.43 12.5555 23.43ZM12.5555 24.18C13.4455 24.18 14.0555 25.12 14.0555 26.58C14.0555 28.05 13.4455 29.01 12.5555 29.01C11.6755 29.01 11.0555 28.05 11.0555 26.58C11.0555 25.12 11.6755 24.18 12.5555 24.18ZM28.4952 22.74V31.78H29.2952V22.74H28.4952ZM24.5752 26.43V27.1H26.8552V26.43H24.5752ZM26.6152 22.97V31.32H27.3952V22.97H26.6152ZM24.6852 23.88V24.03C24.6852 26.16 23.7352 27.96 21.6052 29.24L22.0952 29.83C24.5352 28.38 25.4852 26.25 25.4852 23.88H24.6852ZM22.0052 23.88V24.56H24.9952V23.88H22.0052ZM37.3845 22.75V27.91H38.2245V22.75H37.3845ZM32.3845 28.4V31.66H38.2245V28.4H32.3845ZM37.4045 29.06V30.99H33.1945V29.06H37.4045ZM33.3745 23.22C32.0045 23.22 31.0145 24.08 31.0145 25.33C31.0145 26.58 32.0045 27.44 33.3745 27.44C34.7445 27.44 35.7245 26.58 35.7245 25.33C35.7245 24.08 34.7445 23.22 33.3745 23.22ZM33.3745 23.91C34.2745 23.91 34.9245 24.49 34.9245 25.33C34.9245 26.17 34.2745 26.74 33.3745 26.74C32.4745 26.74 31.8245 26.17 31.8245 25.33C31.8245 24.49 32.4745 23.91 33.3745 23.91ZM46.1337 22.74V31.78H46.9637V22.74H46.1337ZM46.7637 26.45V27.15H48.4437V26.45H46.7637ZM39.9637 24.18V24.86H45.2937V24.18H39.9637ZM42.6637 25.61C41.3937 25.61 40.4637 26.47 40.4637 27.69C40.4637 28.91 41.3937 29.77 42.6637 29.77C43.9437 29.77 44.8637 28.91 44.8637 27.69C44.8637 26.47 43.9437 25.61 42.6637 25.61ZM42.6637 26.3C43.4837 26.3 44.0737 26.87 44.0737 27.69C44.0737 28.5 43.4837 29.08 42.6637 29.08C41.8437 29.08 41.2537 28.5 41.2537 27.69C41.2537 26.87 41.8437 26.3 42.6637 26.3ZM42.2337 22.85V24.49H43.0637V22.85H42.2337ZM50.0729 23.64V24.33H55.8929V23.64H50.0729ZM49.2129 29.83V30.52H57.3829V29.83H49.2129ZM52.3829 26.6V30.17H53.2129V26.6H52.3829ZM55.5829 23.64V24.54C55.5829 25.62 55.5829 26.89 55.2429 28.62L56.0729 28.73C56.4029 26.9 56.4029 25.66 56.4029 24.54V23.64H55.5829ZM67.4626 22.75V27.76H68.3026V22.75H67.4626ZM63.2426 23.07V23.95C63.2426 25.25 62.3026 26.45 60.9426 26.93L61.3626 27.58C62.8926 27.03 63.9326 25.62 63.9326 23.95V23.07H63.2426ZM63.3926 23.07V23.95C63.3926 25.57 64.4326 26.9 65.9526 27.42L66.3626 26.76C65.0226 26.32 64.0726 25.21 64.0726 23.95V23.07H63.3926ZM62.3226 28.3V28.98H68.3526V28.3H62.3226ZM62.2326 30.99V31.66H68.4526V30.99H62.2326ZM63.5626 28.59V31.38H64.3726V28.59H63.5626ZM66.3026 28.59V31.38H67.1226V28.59H66.3026ZM70.0818 27.49V28.17H78.2518V27.49H70.0818ZM71.1418 30.9V31.58H77.3518V30.9H71.1418ZM71.1418 28.96V31.11H71.9718V28.96H71.1418ZM74.1718 23.04C72.2318 23.04 70.9918 23.72 70.9918 24.85C70.9918 25.97 72.2318 26.65 74.1718 26.65C76.1018 26.65 77.3518 25.97 77.3518 24.85C77.3518 23.72 76.1018 23.04 74.1718 23.04ZM74.1718 23.72C75.5918 23.72 76.5018 24.14 76.5018 24.85C76.5018 25.56 75.5918 25.98 74.1718 25.98C72.7518 25.98 71.8418 25.56 71.8418 24.85C71.8418 24.14 72.7518 23.72 74.1718 23.72ZM81.7715 29.92V30.61H89.9615V29.92H81.7715ZM85.4115 27.73V30.15H86.2315V27.73H85.4115ZM85.3915 23.34V24.04C85.3915 25.53 83.6815 26.86 82.0915 27.15L82.4415 27.84C84.2615 27.46 86.1115 25.97 86.1115 24.04V23.34H85.3915ZM85.5415 23.34V24.04C85.5415 25.97 87.3915 27.46 89.2115 27.84L89.5715 27.15C87.9815 26.86 86.2615 25.54 86.2615 24.04V23.34H85.5415ZM97.1407 22.74V29.82H97.9707V22.74H97.1407ZM97.6207 25.89V26.58H99.2907V25.89H97.6207ZM92.2507 30.9V31.58H98.2907V30.9H92.2507ZM92.2507 29.35V31.11H93.0807V29.35H92.2507ZM93.3307 27.16V28.39H94.1607V27.16H93.3307ZM91.0207 28.78C92.5907 28.77 94.7607 28.73 96.6707 28.38L96.6007 27.79C94.7407 28.08 92.5107 28.11 90.9107 28.11L91.0207 28.78ZM91.1407 23.62V24.25H96.3307V23.62H91.1407ZM93.7407 24.62C92.4707 24.62 91.6307 25.15 91.6307 26.01C91.6307 26.88 92.4707 27.41 93.7407 27.41C95.0107 27.41 95.8407 26.88 95.8407 26.01C95.8407 25.15 95.0107 24.62 93.7407 24.62ZM93.7407 25.21C94.5407 25.21 95.0607 25.52 95.0607 26.01C95.0607 26.51 94.5407 26.81 93.7407 26.81C92.9307 26.81 92.4107 26.51 92.4107 26.01C92.4107 25.52 92.9307 25.21 93.7407 25.21ZM93.3307 22.7V23.9H94.1607V22.7H93.3307ZM102.38 23.52V25.14C102.38 26.79 101.35 28.53 100.04 29.19L100.55 29.85C101.98 29.09 103.06 27.14 103.06 25.14V23.52H102.38ZM102.53 23.52V25.14C102.53 27.08 103.58 28.93 104.98 29.68L105.49 29.02C104.21 28.38 103.2 26.73 103.2 25.14V23.52H102.53ZM106.28 22.74V31.78H107.12V22.74H106.28ZM106.92 26.4V27.1H108.6V26.4H106.92ZM112.299 23.39C110.889 23.39 109.869 24.26 109.869 25.52C109.869 26.79 110.889 27.66 112.299 27.66C113.709 27.66 114.719 26.79 114.719 25.52C114.719 24.26 113.709 23.39 112.299 23.39ZM112.299 24.11C113.229 24.11 113.909 24.68 113.909 25.52C113.909 26.36 113.229 26.94 112.299 26.94C111.359 26.94 110.679 26.36 110.679 25.52C110.679 24.68 111.359 24.11 112.299 24.11ZM115.899 22.73V31.79H116.729V22.73H115.899ZM109.529 29.81C111.139 29.81 113.349 29.8 115.379 29.41L115.309 28.8C113.339 29.11 111.059 29.12 109.409 29.12L109.529 29.81ZM127.169 22.73V31.79H127.999V22.73H127.169ZM127.799 26.33V27.03H129.479V26.33H127.799ZM121.409 28.92V29.61H122.129C123.859 29.61 125.059 29.54 126.469 29.29L126.379 28.6C125.009 28.86 123.829 28.92 122.129 28.92H121.409ZM121.389 23.58V24.26H124.659V26.14H121.409V29.2H122.229V26.82H125.479V23.58H121.389ZM136.818 22.75V29.35H137.658V22.75H136.818ZM131.848 30.9V31.58H137.928V30.9H131.848ZM131.848 28.67V31.13H132.668V28.67H131.848ZM132.808 23.37C131.458 23.37 130.448 24.29 130.448 25.6C130.448 26.9 131.458 27.83 132.808 27.83C134.158 27.83 135.158 26.9 135.158 25.6C135.158 24.29 134.158 23.37 132.808 23.37ZM132.808 24.09C133.688 24.09 134.358 24.71 134.358 25.6C134.358 26.48 133.688 27.1 132.808 27.1C131.928 27.1 131.258 26.48 131.258 25.6C131.258 24.71 131.928 24.09 132.808 24.09ZM146.677 30.2578V31H142.023V30.3506L144.353 27.7578C144.639 27.4388 144.86 27.1686 145.017 26.9473C145.176 26.7227 145.287 26.5225 145.349 26.3467C145.414 26.1676 145.446 25.9854 145.446 25.7998C145.446 25.5654 145.397 25.3538 145.3 25.165C145.205 24.973 145.065 24.82 144.88 24.7061C144.694 24.5921 144.47 24.5352 144.206 24.5352C143.89 24.5352 143.627 24.597 143.415 24.7207C143.207 24.8411 143.05 25.0104 142.946 25.2285C142.842 25.4466 142.79 25.6973 142.79 25.9805H141.887C141.887 25.5801 141.975 25.2139 142.15 24.8818C142.326 24.5498 142.587 24.2861 142.932 24.0908C143.277 23.8923 143.701 23.793 144.206 23.793C144.655 23.793 145.039 23.8727 145.358 24.0322C145.677 24.1885 145.922 24.4098 146.091 24.6963C146.263 24.9795 146.35 25.3115 146.35 25.6924C146.35 25.9007 146.314 26.1123 146.242 26.3271C146.174 26.5387 146.078 26.7503 145.954 26.9619C145.834 27.1735 145.692 27.3818 145.529 27.5869C145.37 27.792 145.199 27.9938 145.017 28.1924L143.112 30.2578H146.677ZM154.413 22.74V31.78H155.213V22.74H154.413ZM152.953 26.37V27.05H154.683V26.37H152.953ZM150.613 23.9V24.06C150.613 26.15 149.813 27.98 147.543 29.25L148.033 29.84C150.613 28.39 151.413 26.23 151.413 23.9H150.613ZM147.893 23.9V24.59H150.893V23.9H147.893ZM152.403 22.98V31.34H153.193V22.98H152.403ZM156.742 26.94V27.57H164.942V26.94H156.742ZM157.712 28.3V28.89H163.102V29.66H157.742V31.29H158.562V30.23H163.912V28.3H157.712ZM157.742 31.07V31.67H164.202V31.07H157.742ZM157.782 23V23.59H163.072V24.32H157.802V25.86H158.622V24.88H163.882V23H157.782ZM157.802 25.66V26.26H164.052V25.66H157.802ZM173.062 24.87V25.56H175.342V24.87H173.062ZM170.692 23.29V24.4C170.692 25.78 169.782 27.06 168.442 27.56L168.872 28.22C170.382 27.61 171.362 26.15 171.362 24.4V23.29H170.692ZM170.852 23.29V24.43C170.852 26.04 171.822 27.44 173.262 28L173.712 27.36C172.402 26.88 171.522 25.69 171.522 24.43V23.29H170.852ZM175.032 22.75V29.51H175.862V22.75H175.032ZM170.052 30.9V31.58H176.082V30.9H170.052ZM170.052 28.76V31.22H170.882V28.76H170.052ZM178.011 27.06V27.75H178.591C180.041 27.75 180.901 27.71 181.941 27.51L181.861 26.83C180.851 27.03 180.011 27.06 178.591 27.06H178.011ZM178.011 23.4V27.43H178.811V24.08H181.511V23.4H178.011ZM178.561 25.2V25.85H181.401V25.2H178.561ZM184.451 22.74V28.22H185.241V22.74H184.451ZM182.991 25.1V25.78H184.701V25.1H182.991ZM182.461 22.91V28.17H183.241V22.91H182.461ZM179.181 28.7V29.38H184.421V31.78H185.241V28.7H179.181ZM186.81 24.28V24.96H191.29V24.28H186.81ZM189.05 25.56C187.93 25.56 187.11 26.41 187.11 27.63C187.11 28.84 187.93 29.69 189.05 29.69C190.18 29.69 191 28.84 191 27.63C191 26.41 190.18 25.56 189.05 25.56ZM189.05 26.27C189.75 26.27 190.26 26.83 190.26 27.63C190.26 28.43 189.75 28.99 189.05 28.99C188.36 28.99 187.86 28.43 187.86 27.63C187.86 26.83 188.36 26.27 189.05 26.27ZM193.68 22.74V31.78H194.48V22.74H193.68ZM192.24 26.54V27.23H193.95V26.54H192.24ZM191.75 22.94V31.34H192.53V22.94H191.75ZM188.65 23V24.7H189.47V23H188.65ZM199.649 23.63V24.01C199.649 25.2 198.099 26.24 196.509 26.47L196.829 27.13C198.649 26.82 200.369 25.63 200.369 24.01V23.63H199.649ZM199.859 23.63V24.01C199.859 25.63 201.569 26.82 203.399 27.13L203.709 26.47C202.129 26.24 200.569 25.2 200.569 24.01V23.63H199.859ZM199.679 28.33V31.78H200.499V28.33H199.679ZM196.029 27.89V28.57H204.199V27.89H196.029ZM196.789 23.3V23.97H203.409V23.3H196.789ZM208.789 25.97V26.66H210.519V25.97H208.789ZM207.099 23.59V25.31C207.099 26.86 206.359 28.48 205.119 29.21L205.639 29.84C206.959 29.03 207.749 27.2 207.749 25.31V23.59H207.099ZM207.259 23.59V25.28C207.259 27.04 207.989 28.84 209.289 29.64L209.769 28.99C208.579 28.27 207.899 26.73 207.899 25.28V23.59H207.259ZM212.109 22.74V31.78H212.909V22.74H212.109ZM210.279 22.93V31.33H211.059V22.93H210.279ZM216.428 27.39V30.1H217.248V27.39H216.428ZM219.768 27.39V30.1H220.598V27.39H219.768ZM214.428 29.94V30.63H222.618V29.94H214.428ZM218.508 23.31C216.588 23.31 215.218 24.22 215.218 25.64C215.218 27.05 216.588 27.96 218.508 27.96C220.418 27.96 221.788 27.05 221.788 25.64C221.788 24.22 220.418 23.31 218.508 23.31ZM218.508 23.97C219.958 23.97 220.988 24.63 220.988 25.64C220.988 26.64 219.958 27.3 218.508 27.3C217.058 27.3 216.018 26.64 216.018 25.64C216.018 24.63 217.058 23.97 218.508 23.97ZM223.83 30.5215C223.83 30.3685 223.877 30.2399 223.972 30.1357C224.069 30.0283 224.209 29.9746 224.392 29.9746C224.574 29.9746 224.712 30.0283 224.807 30.1357C224.904 30.2399 224.953 30.3685 224.953 30.5215C224.953 30.6712 224.904 30.7982 224.807 30.9023C224.712 31.0065 224.574 31.0586 224.392 31.0586C224.209 31.0586 224.069 31.0065 223.972 30.9023C223.877 30.7982 223.83 30.6712 223.83 30.5215Z" fill="white" fill-opacity="0.7"/>
</svg>
