<svg width="75" height="11" viewBox="0 0 75 11" fill="none" xmlns="http://www.w3.org/2000/svg">
<path d="M1.25964 6.46094V5.46484H2.91785L2.63074 2.83398L3.84949 2.7168L4.06628 5.46484H6.29871L6.69714 2.72852L7.89832 2.89844L7.453 5.46484H9.07019V6.46094H1.25964ZM0.3573 9.51953V8.54688H10.0194V9.51953H0.3573ZM1.24792 2.11328V1.13477H9.08191V2.11328H1.24792ZM16.1659 6.81836V8.60547H20.4022V9.58984H10.7401V8.60547H14.9413V6.81836H11.9764V3.36133H17.9296V1.98438H11.9413V1H19.1542V4.35742H13.2128V5.82227H19.4647V6.81836H16.1659ZM22.9745 10.8613V8.14258H28.6991V7.31055H22.9276V6.32617H29.9237V9.05078H24.2108V9.89453H30.2811V10.8613H22.9745ZM23.7421 4.63867L25.1307 4.59766L25.2655 2.33008L26.455 2.45312L26.2264 4.52734C26.5663 4.50781 27.0819 4.46094 27.7733 4.38672L27.8671 5.31836C27.1053 5.44727 25.9823 5.54688 24.4979 5.61719C23.3846 5.68359 22.3319 5.7168 21.3397 5.7168L21.1757 4.68555C21.4608 4.68555 21.9471 4.67773 22.6346 4.66211L22.3827 2.45312L23.5839 2.3418L23.7421 4.63867ZM28.6991 5.77539V0.255859H29.9237V5.77539H28.6991ZM21.5214 1.84961V0.865234H27.4276V1.84961H21.5214ZM42.8026 3.86523V6.57812H41.5663V0.255859H42.8026V2.8457H44.3729V3.86523H42.8026ZM42.9432 8.82227C42.9432 9.4668 42.6249 9.98047 41.9882 10.3633C41.3358 10.7539 40.4432 10.9492 39.3104 10.9492C38.1815 10.9492 37.2948 10.7539 36.6503 10.3633C36.0135 9.98047 35.6952 9.4668 35.6952 8.82227C35.6952 8.16992 36.0135 7.65234 36.6503 7.26953C37.2948 6.88281 38.1815 6.68945 39.3104 6.68945C40.4432 6.68945 41.3358 6.88281 41.9882 7.26953C42.6249 7.65234 42.9432 8.16992 42.9432 8.82227ZM41.6835 8.82227C41.6835 8.46289 41.4745 8.18359 41.0565 7.98438C40.6425 7.78516 40.0604 7.68555 39.3104 7.68555C37.7401 7.68555 36.955 8.06445 36.955 8.82227C36.955 9.17773 37.162 9.45508 37.576 9.6543C37.9901 9.85352 38.5682 9.95312 39.3104 9.95312C40.0565 9.95312 40.6385 9.85352 41.0565 9.6543C41.4745 9.45508 41.6835 9.17773 41.6835 8.82227ZM39.9784 5.96875C38.8143 5.47266 38.0038 4.71289 37.5468 3.68945C37.2186 4.83008 36.3788 5.68555 35.0272 6.25586L34.2714 5.2832C35.0643 4.96289 35.6932 4.5 36.1581 3.89453C36.6503 3.25781 36.8964 2.54102 36.8964 1.74414V0.724609H38.1678V1.68555C38.1678 2.4668 38.4374 3.17969 38.9764 3.82422C39.453 4.39453 40.0233 4.78906 40.6874 5.00781L39.9784 5.96875ZM52.7167 10.9492V0.255859H53.8885V10.9492H52.7167ZM50.6249 10.4453V5.00781H49.0897V3.98828H50.6249V0.472656H51.7792V10.4453H50.6249ZM49.5819 8.29492C48.5546 7.64258 47.8788 6.73438 47.5546 5.57031C47.2655 6.85547 46.5507 7.85547 45.41 8.57031L44.6659 7.73242C46.1932 6.72852 46.9569 5.14844 46.9569 2.99219V1.31055H48.1405V2.98047C48.1405 3.97656 48.3436 4.87891 48.7499 5.6875C49.1366 6.46484 49.6503 7.05078 50.2909 7.44531L49.5819 8.29492ZM60.6854 6.41406V8.60547H64.9218V9.58984H55.2596V8.60547H59.4608V6.41406H56.4725V1.02344H57.6971V2.74023H62.4843V1.01172H63.7089V6.41406H60.6854ZM62.4843 3.71289H57.6971V5.42969H62.4843V3.71289ZM73.2303 10.9492V0.255859H74.455V10.9492H73.2303ZM71.1796 1.38672C71.1053 4.70312 69.4999 7.22266 66.3632 8.94531L65.5956 8.00781C66.8065 7.45312 67.7987 6.65625 68.5721 5.61719C69.326 4.60938 69.7538 3.53516 69.8553 2.39453H66.2225V1.38672H71.1796Z" fill="white"/>
</svg>
