<svg width="68" height="14" viewBox="0 0 68 14" fill="none" xmlns="http://www.w3.org/2000/svg">
<path d="M0.13357 10.222V11.748H11.8656V10.222H0.13357ZM1.02957 1.402V2.886H10.8996V1.402H1.02957ZM1.08557 6.764V8.262H10.8576V6.764H1.08557ZM2.79357 2.774V6.904H4.65557V2.774H2.79357ZM7.28757 2.774V6.904H9.13557V2.774H7.28757ZM13.0125 10.306V11.818H24.7445V10.306H13.0125ZM17.9265 7.856V10.922H19.7885V7.856H17.9265ZM14.3285 1.122V2.592H21.5805V3.978H14.3565V7.618H16.2045V5.434H23.4285V1.122H14.3285ZM14.3565 6.876V8.374H23.7225V6.876H14.3565ZM34.8094 0.282V6.918H36.6854V0.282H34.8094ZM27.9074 7.436V8.864H34.8374V9.606H27.9354V12.504H29.7694V10.936H36.6854V7.436H27.9074ZM27.9354 11.72V13.162H37.0354V11.72H27.9354ZM26.4374 1.066V2.494H33.4234V1.066H26.4374ZM26.2834 6.694C28.5234 6.68 31.4354 6.624 33.9974 6.204L33.8994 4.874C31.3934 5.182 28.3694 5.224 26.1014 5.224L26.2834 6.694ZM27.4594 1.71V5.952H29.2374V1.71H27.4594ZM30.5954 1.71V5.952H32.4014V1.71H30.5954ZM51.2586 0.267999V13.274H53.1206V0.267999H51.2586ZM48.9906 4.804V6.302H51.6926V4.804H48.9906ZM45.2386 2.326V3.474C45.2386 5.882 44.2166 8.36 42.0466 9.382L43.1386 10.852C45.5606 9.662 46.7086 6.638 46.7086 3.474V2.326H45.2386ZM45.6726 2.326V3.474C45.6726 6.54 46.7926 9.438 49.2286 10.586L50.3066 9.13C48.1366 8.15 47.1286 5.756 47.1286 3.474V2.326H45.6726ZM42.5786 1.528V3.026H49.7886V1.528H42.5786ZM58.0055 1.724V2.536C58.0055 4.188 57.0955 5.882 54.9395 6.596L55.8635 8.066C58.3695 7.24 59.5315 5.014 59.5315 2.536V1.724H58.0055ZM58.3835 1.724V2.536C58.3835 4.846 59.5035 6.876 61.9675 7.618L62.8495 6.162C60.7635 5.532 59.8955 4.048 59.8955 2.536V1.724H58.3835ZM55.4295 1.15V2.634H62.4295V1.15H55.4295ZM63.4655 0.282V7.968H65.3275V0.282H63.4655ZM64.8095 3.264V4.79H67.0495V3.264H64.8095ZM61.0995 8.206C58.3975 8.206 56.7035 9.144 56.7035 10.726C56.7035 12.308 58.3975 13.246 61.0995 13.246C63.7875 13.246 65.4815 12.308 65.4815 10.726C65.4815 9.144 63.7875 8.206 61.0995 8.206ZM61.0995 9.662C62.7515 9.662 63.6335 9.998 63.6335 10.726C63.6335 11.454 62.7515 11.818 61.0995 11.818C59.4475 11.818 58.5515 11.454 58.5515 10.726C58.5515 9.998 59.4475 9.662 61.0995 9.662Z" fill="white"/>
</svg>
