<svg width="524" height="80" viewBox="0 0 262 40" fill="none" xmlns="http://www.w3.org/2000/svg">
<rect width="262" height="40" rx="8" fill="#7B43DB"/>
<path d="M97.418 15.3333H93.3346C93.0252 15.3333 92.7285 15.4562 92.5097 15.675C92.2909 15.8938 92.168 16.1905 92.168 16.4999V24.6666C92.168 24.976 92.2909 25.2728 92.5097 25.4915C92.7285 25.7103 93.0252 25.8333 93.3346 25.8333H101.501C101.811 25.8333 102.107 25.7103 102.326 25.4915C102.545 25.2728 102.668 24.976 102.668 24.6666V20.5833" stroke="white" stroke-width="1.2" stroke-linecap="round" stroke-linejoin="round"/>
<path d="M101.793 14.4584C102.025 14.2263 102.34 14.0959 102.668 14.0959C102.996 14.0959 103.311 14.2263 103.543 14.4584C103.775 14.6904 103.905 15.0052 103.905 15.3334C103.905 15.6616 103.775 15.9763 103.543 16.2084L98.0013 21.7501L95.668 22.3334L96.2513 20.0001L101.793 14.4584Z" stroke="white" stroke-width="1.2" stroke-linecap="round" stroke-linejoin="round"/>
<path d="M125.084 20.544V19.428H123.572L124.016 17.028L122.66 16.812L122.276 19.428H120.14L119.924 16.788L118.52 16.956L118.82 19.428H117.248V20.544H125.084ZM126.02 23.544V22.428H116.36V23.544H126.02ZM125.108 16.188V15.072H117.224V16.188H125.108ZM135.491 20.832V19.704H129.371V18.408H135.179V14.94H127.919V16.056H133.787V17.292H127.979V20.832H130.847V22.5H126.743V23.616H136.403V22.5H132.251V20.832H135.491ZM146.258 24.864V23.736H140.294V23.088H145.958V20.304H138.878V21.42H144.566V22.068H138.89V24.864H146.258ZM143.846 19.38L143.738 18.324C143.342 18.396 142.826 18.444 142.214 18.492L142.454 16.572C141.998 16.548 141.554 16.488 141.11 16.44L140.99 18.552C140.618 18.576 140.198 18.588 139.778 18.6C139.73 17.868 139.682 17.16 139.658 16.44C139.19 16.488 138.734 16.548 138.278 16.584C138.362 17.256 138.434 17.94 138.53 18.624H137.138L137.318 19.764C139.55 19.764 142.382 19.668 143.846 19.38ZM145.958 19.752V14.256H144.566V19.752H145.958ZM143.438 15.972V14.868H137.498V15.972H143.438ZM156.661 19.464C156.265 19.536 155.833 19.572 155.353 19.62L155.629 16.8L154.285 16.668C154.225 17.676 154.177 18.684 154.141 19.692C153.793 19.704 153.445 19.728 153.097 19.728C153.049 18.696 153.001 17.688 152.965 16.656C152.497 16.716 152.041 16.752 151.585 16.812L151.837 19.752H150.541L150.733 20.916C152.953 20.916 155.437 20.772 156.781 20.532L156.661 19.464ZM156.769 17.16H158.101V18.252H156.769V19.332H158.101V22.008H159.505V14.256H158.101V16.104H156.769V17.16ZM159.733 24.66V23.544H153.769V21.528H152.353V24.66H159.733ZM156.361 16.224V15.108H150.853V16.224H156.361ZM169.9 24.816V20.556H168.484V21.612H164.26V20.58H162.844V24.816H169.9ZM161.524 15.996H163.66C163.54 17.472 162.544 18.564 161.104 19.08L161.944 20.184C162.988 19.812 164.092 18.84 164.404 17.784C164.884 18.792 165.904 19.56 166.708 19.884L167.476 18.78C166.336 18.42 165.292 17.448 165.124 15.996H167.164V14.868H161.524V15.996ZM169.888 20.016V14.256H168.484V20.016H169.888ZM168.484 23.7H164.26V22.704H168.484V23.7Z" fill="white"/>
</svg>
