<svg width="14" height="20" viewBox="0 0 7 10" fill="none" xmlns="http://www.w3.org/2000/svg">
<path d="M4.04492 6.39258H2.55078C2.55469 6.04102 2.58203 5.73828 2.63281 5.48438C2.6875 5.22656 2.7793 4.99414 2.9082 4.78711C3.04102 4.58008 3.2168 4.375 3.43555 4.17188C3.61914 4.00781 3.7793 3.85156 3.91602 3.70312C4.05273 3.55469 4.16016 3.40234 4.23828 3.24609C4.31641 3.08594 4.35547 2.9082 4.35547 2.71289C4.35547 2.48633 4.32031 2.29883 4.25 2.15039C4.18359 1.99805 4.08203 1.88281 3.94531 1.80469C3.8125 1.72656 3.64453 1.6875 3.44141 1.6875C3.27344 1.6875 3.11719 1.72461 2.97266 1.79883C2.82812 1.86914 2.70898 1.97852 2.61523 2.12695C2.52539 2.27539 2.47852 2.4707 2.47461 2.71289H0.775391C0.787109 2.17773 0.910156 1.73633 1.14453 1.38867C1.38281 1.03711 1.70117 0.777344 2.09961 0.609375C2.49805 0.4375 2.94531 0.351562 3.44141 0.351562C3.98828 0.351562 4.45703 0.441406 4.84766 0.621094C5.23828 0.796875 5.53711 1.05664 5.74414 1.40039C5.95117 1.74023 6.05469 2.1543 6.05469 2.64258C6.05469 2.98242 5.98828 3.28516 5.85547 3.55078C5.72266 3.8125 5.54883 4.05664 5.33398 4.2832C5.11914 4.50977 4.88281 4.74414 4.625 4.98633C4.40234 5.18555 4.25 5.39453 4.16797 5.61328C4.08984 5.83203 4.04883 6.0918 4.04492 6.39258ZM2.375 8.20312C2.375 7.95312 2.46094 7.74609 2.63281 7.58203C2.80469 7.41406 3.03516 7.33008 3.32422 7.33008C3.60938 7.33008 3.83789 7.41406 4.00977 7.58203C4.18555 7.74609 4.27344 7.95312 4.27344 8.20312C4.27344 8.44531 4.18555 8.65039 4.00977 8.81836C3.83789 8.98633 3.60938 9.07031 3.32422 9.07031C3.03516 9.07031 2.80469 8.98633 2.63281 8.81836C2.46094 8.65039 2.375 8.44531 2.375 8.20312Z" fill="#23233F"/>
</svg>
