<svg width="100" height="28" viewBox="0 0 50 14" fill="none" xmlns="http://www.w3.org/2000/svg">
<path d="M9.31819 0.267999V13.274H11.1802V0.267999H9.31819ZM7.05019 4.804V6.302H9.75219V4.804H7.05019ZM3.29819 2.326V3.474C3.29819 5.882 2.27619 8.36 0.106188 9.382L1.19819 10.852C3.62019 9.662 4.76819 6.638 4.76819 3.474V2.326H3.29819ZM3.73219 2.326V3.474C3.73219 6.54 4.85219 9.438 7.28819 10.586L8.36619 9.13C6.19619 8.15 5.18819 5.756 5.18819 3.474V2.326H3.73219ZM0.638188 1.528V3.026H7.84819V1.528H0.638188ZM16.0651 1.724V2.536C16.0651 4.188 15.1551 5.882 12.9991 6.596L13.9231 8.066C16.4291 7.24 17.5911 5.014 17.5911 2.536V1.724H16.0651ZM16.4431 1.724V2.536C16.4431 4.846 17.5631 6.876 20.0271 7.618L20.9091 6.162C18.8231 5.532 17.9551 4.048 17.9551 2.536V1.724H16.4431ZM13.4891 1.15V2.634H20.4891V1.15H13.4891ZM21.5251 0.282V7.968H23.3871V0.282H21.5251ZM22.8691 3.264V4.79H25.1091V3.264H22.8691ZM19.1591 8.206C16.4571 8.206 14.7631 9.144 14.7631 10.726C14.7631 12.308 16.4571 13.246 19.1591 13.246C21.8471 13.246 23.5411 12.308 23.5411 10.726C23.5411 9.144 21.8471 8.206 19.1591 8.206ZM19.1591 9.662C20.8111 9.662 21.6931 9.998 21.6931 10.726C21.6931 11.454 20.8111 11.818 19.1591 11.818C17.5071 11.818 16.6111 11.454 16.6111 10.726C16.6111 9.998 17.5071 9.662 19.1591 9.662ZM34.376 0.282V13.246H36.224V0.282H34.376ZM35.804 5.336V6.89H38.1V5.336H35.804ZM26.004 2.2V3.684H33.55V2.2H26.004ZM29.798 4.412C27.908 4.412 26.508 5.7 26.508 7.506C26.508 9.312 27.908 10.6 29.798 10.6C31.688 10.6 33.088 9.312 33.088 7.506C33.088 5.7 31.688 4.412 29.798 4.412ZM29.798 5.924C30.68 5.924 31.31 6.512 31.31 7.506C31.31 8.5 30.68 9.088 29.798 9.088C28.916 9.088 28.286 8.5 28.286 7.506C28.286 6.512 28.916 5.924 29.798 5.924ZM28.86 0.492V2.76H30.722V0.492H28.86ZM47.8709 0.282V13.246H49.7469V0.282H47.8709ZM44.0489 1.626V1.962C44.0489 5.434 42.7049 7.786 38.9809 9.578L39.9469 11.062C44.5529 8.836 45.8969 5.588 45.8969 1.626H44.0489ZM39.6669 1.626V3.096H44.9309V1.626H39.6669Z" fill="white"/>
</svg>
