<svg width="20" height="10" viewBox="0 0 20 10" fill="none" xmlns="http://www.w3.org/2000/svg">
<path d="M6.68532 7.68164V9H0.849382V7.875L3.60915 4.91602C3.88649 4.60742 4.10524 4.33594 4.2654 4.10156C4.42555 3.86328 4.54079 3.65039 4.6111 3.46289C4.68532 3.27148 4.72243 3.08984 4.72243 2.91797C4.72243 2.66016 4.67946 2.43945 4.59352 2.25586C4.50759 2.06836 4.38063 1.92383 4.21266 1.82227C4.0486 1.7207 3.84548 1.66992 3.60329 1.66992C3.34548 1.66992 3.12282 1.73242 2.93532 1.85742C2.75173 1.98242 2.6111 2.15625 2.51344 2.37891C2.41969 2.60156 2.37282 2.85352 2.37282 3.13477H0.679461C0.679461 2.62695 0.800554 2.16211 1.04274 1.74023C1.28493 1.31445 1.62673 0.976563 2.06813 0.726562C2.50954 0.472656 3.03298 0.345703 3.63844 0.345703C4.2361 0.345703 4.74001 0.443359 5.15016 0.638672C5.56423 0.830078 5.87673 1.10742 6.08766 1.4707C6.30251 1.83008 6.40993 2.25977 6.40993 2.75977C6.40993 3.04102 6.36501 3.31641 6.27516 3.58594C6.18532 3.85156 6.05641 4.11719 5.88844 4.38281C5.72438 4.64453 5.52516 4.91016 5.29079 5.17969C5.05641 5.44922 4.79665 5.72852 4.51149 6.01758L3.02907 7.68164H6.68532ZM9.46266 4.01367V9H7.77516V2.66016H9.35719L9.46266 4.01367ZM9.21657 5.60742H8.75954C8.75954 5.13867 8.82009 4.7168 8.94118 4.3418C9.06227 3.96289 9.23219 3.64062 9.45094 3.375C9.66969 3.10547 9.92946 2.90039 10.2302 2.75977C10.5349 2.61523 10.8748 2.54297 11.2498 2.54297C11.5466 2.54297 11.8181 2.58594 12.0642 2.67188C12.3103 2.75781 12.5213 2.89453 12.697 3.08203C12.8767 3.26953 13.0134 3.51758 13.1072 3.82617C13.2049 4.13477 13.2537 4.51172 13.2537 4.95703V9H11.5545V4.95117C11.5545 4.66992 11.5154 4.45117 11.4373 4.29492C11.3591 4.13867 11.2439 4.0293 11.0916 3.9668C10.9431 3.90039 10.7595 3.86719 10.5408 3.86719C10.3142 3.86719 10.117 3.91211 9.94899 4.00195C9.78493 4.0918 9.64821 4.2168 9.53884 4.37695C9.43337 4.5332 9.35329 4.7168 9.2986 4.92773C9.24391 5.13867 9.21657 5.36523 9.21657 5.60742ZM18.281 7.61719V0H19.9802V9H18.4509L18.281 7.61719ZM14.2732 5.90625V5.7832C14.2732 5.29883 14.3279 4.85938 14.4373 4.46484C14.5466 4.06641 14.7068 3.72461 14.9177 3.43945C15.1287 3.1543 15.3884 2.93359 15.697 2.77734C16.0056 2.62109 16.3572 2.54297 16.7517 2.54297C17.1228 2.54297 17.447 2.62109 17.7244 2.77734C18.0056 2.93359 18.2439 3.15625 18.4392 3.44531C18.6384 3.73047 18.7986 4.06836 18.9197 4.45898C19.0408 4.8457 19.1287 5.26953 19.1834 5.73047V6C19.1287 6.44141 19.0408 6.85156 18.9197 7.23047C18.7986 7.60938 18.6384 7.94141 18.4392 8.22656C18.2439 8.50781 18.0056 8.72656 17.7244 8.88281C17.4431 9.03906 17.115 9.11719 16.74 9.11719C16.3455 9.11719 15.9939 9.03711 15.6853 8.87695C15.3806 8.7168 15.1228 8.49219 14.9119 8.20312C14.7049 7.91406 14.5466 7.57422 14.4373 7.18359C14.3279 6.79297 14.2732 6.36719 14.2732 5.90625ZM15.9607 5.7832V5.90625C15.9607 6.16797 15.9802 6.41211 16.0193 6.63867C16.0623 6.86523 16.1306 7.06641 16.2244 7.24219C16.322 7.41406 16.447 7.54883 16.5994 7.64648C16.7556 7.74023 16.9451 7.78711 17.1677 7.78711C17.4568 7.78711 17.6951 7.72266 17.8826 7.59375C18.0701 7.46094 18.2127 7.2793 18.3103 7.04883C18.4119 6.81836 18.4705 6.55273 18.4861 6.25195V5.48438C18.4744 5.23828 18.4392 5.01758 18.3806 4.82227C18.3259 4.62305 18.2439 4.45312 18.1345 4.3125C18.0291 4.17188 17.8963 4.0625 17.7361 3.98438C17.5799 3.90625 17.3943 3.86719 17.1795 3.86719C16.9607 3.86719 16.7732 3.91797 16.617 4.01953C16.4607 4.11719 16.3338 4.25195 16.2361 4.42383C16.1424 4.5957 16.072 4.79883 16.0252 5.0332C15.9822 5.26367 15.9607 5.51367 15.9607 5.7832Z" fill="#484868"/>
</svg>
