<svg width="248" height="20" viewBox="0 0 124 10" fill="none" xmlns="http://www.w3.org/2000/svg">
<path d="M1.92871 4.76318H2.68066C2.92155 4.76318 3.12012 4.72249 3.27637 4.64111C3.43262 4.55648 3.54818 4.43929 3.62305 4.28955C3.70117 4.13656 3.74023 3.95915 3.74023 3.75732C3.74023 3.57503 3.70443 3.4139 3.63281 3.27393C3.56445 3.1307 3.45866 3.02002 3.31543 2.94189C3.1722 2.86051 2.99154 2.81982 2.77344 2.81982C2.60091 2.81982 2.44141 2.854 2.29492 2.92236C2.14844 2.99072 2.03125 3.08675 1.94336 3.21045C1.85547 3.33415 1.81152 3.48389 1.81152 3.65967H0.400391C0.400391 3.26904 0.504557 2.92887 0.712891 2.63916C0.924479 2.34945 1.20768 2.12321 1.5625 1.96045C1.91732 1.79769 2.30794 1.71631 2.73438 1.71631C3.21615 1.71631 3.6377 1.79443 3.99902 1.95068C4.36035 2.10368 4.64193 2.32992 4.84375 2.62939C5.04557 2.92887 5.14648 3.29997 5.14648 3.74268C5.14648 3.96729 5.0944 4.18538 4.99023 4.39697C4.88607 4.60531 4.73633 4.79411 4.54102 4.96338C4.34896 5.12939 4.11458 5.26286 3.83789 5.36377C3.5612 5.46143 3.25033 5.51025 2.90527 5.51025H1.92871V4.76318ZM1.92871 5.83252V5.10498H2.90527C3.29264 5.10498 3.63281 5.14893 3.92578 5.23682C4.21875 5.32471 4.46452 5.45166 4.66309 5.61768C4.86165 5.78044 5.01139 5.97412 5.1123 6.19873C5.21322 6.42008 5.26367 6.66585 5.26367 6.93604C5.26367 7.26807 5.2002 7.56429 5.07324 7.82471C4.94629 8.08187 4.76725 8.29997 4.53613 8.479C4.30827 8.65804 4.04134 8.79476 3.73535 8.88916C3.42936 8.98031 3.0957 9.02588 2.73438 9.02588C2.4349 9.02588 2.1403 8.98519 1.85059 8.90381C1.56413 8.81917 1.30371 8.69385 1.06934 8.52783C0.838216 8.35856 0.652669 8.14697 0.512695 7.89307C0.375977 7.6359 0.307617 7.33154 0.307617 6.97998H1.71875C1.71875 7.16227 1.76432 7.32503 1.85547 7.46826C1.94661 7.61149 2.07194 7.7238 2.23145 7.80518C2.39421 7.88656 2.57487 7.92725 2.77344 7.92725C2.99805 7.92725 3.1901 7.88656 3.34961 7.80518C3.51237 7.72054 3.63607 7.60335 3.7207 7.45361C3.80859 7.30062 3.85254 7.12321 3.85254 6.92139C3.85254 6.66097 3.80534 6.45264 3.71094 6.29639C3.61654 6.13688 3.48145 6.01969 3.30566 5.94482C3.12988 5.86995 2.92155 5.83252 2.68066 5.83252H1.92871ZM14.0822 3.54822C12.0522 3.26822 11.0122 2.11822 11.0122 1.10822V0.818222H9.65219V1.10822C9.65219 2.14822 8.62219 3.28822 6.59219 3.56822L7.08219 4.60822C8.63219 4.35822 9.76219 3.64822 10.3422 2.70822C10.9222 3.63822 12.0422 4.33822 13.5822 4.57822L14.0822 3.54822ZM8.45219 6.93822H7.13219V9.62822H13.5822V8.57822H8.45219V6.93822ZM6.16219 5.10822V6.14822H9.79219V7.71822H11.1122V6.14822H14.5122V5.10822H6.16219ZM18.3614 2.01822C19.0414 2.01822 19.5114 2.33822 19.5114 2.91822C19.5114 3.47822 19.0414 3.79822 18.3614 3.79822C17.6914 3.79822 17.2114 3.47822 17.2114 2.91822C17.2114 2.33822 17.6914 2.01822 18.3614 2.01822ZM18.3614 4.87822C19.7514 4.87822 20.7714 4.05822 20.7714 2.91822C20.7714 1.75822 19.7514 0.948222 18.3614 0.948222C16.9714 0.948222 15.9414 1.75822 15.9414 2.91822C15.9414 4.05822 16.9714 4.87822 18.3614 4.87822ZM21.2414 5.10822C19.2914 5.39822 17.0114 5.41822 15.4014 5.41822L15.5514 6.49822C16.2014 6.49822 16.9514 6.48822 17.7414 6.45822V9.50822H19.0614V6.37822C19.8114 6.30822 20.5814 6.21822 21.3214 6.06822L21.2414 5.10822ZM21.7614 0.578222V9.77822H23.0814V0.578222H21.7614ZM31.6209 4.75822C30.4709 4.35822 29.9609 3.47822 29.9609 2.56822H31.3509V1.52822H29.9609V0.638222H28.7109V1.52822H27.3109V2.56822H28.7109C28.7109 3.53822 28.2209 4.47822 27.0509 4.91822L27.6509 5.88822C28.4909 5.57822 29.0409 4.99822 29.3509 4.28822C29.6809 4.93822 30.2209 5.45822 31.0309 5.73822L31.6209 4.75822ZM29.9709 7.39822H33.6209V8.64822H29.9709V7.39822ZM28.6709 9.67822H34.9109V6.35822H28.6709V9.67822ZM33.6609 0.578222V2.76822H32.9709V0.728222H31.7509V5.90822H32.9709V3.83822H33.6609V5.95822H34.9109V0.578222H33.6609ZM38.5601 2.48822H39.5901V6.54822C39.2401 6.55822 38.9001 6.57822 38.5601 6.57822V2.48822ZM40.8601 2.48822H41.6501V1.42822H36.4801V2.48822H37.2801V6.60822C36.9201 6.60822 36.5701 6.60822 36.2401 6.60822L36.3801 7.68822C38.0301 7.67822 40.1501 7.63822 42.0901 7.30822L42.0101 6.35822C41.6301 6.40822 41.2501 6.44822 40.8601 6.46822V2.48822ZM42.6001 0.588222V9.79822H43.9301V0.588222H42.6001ZM46.8393 3.49822C46.8393 2.73822 47.3393 2.27822 47.9993 2.27822C48.6693 2.27822 49.1793 2.73822 49.1793 3.49822C49.1793 4.24822 48.6693 4.69822 47.9993 4.69822C47.3393 4.69822 46.8393 4.24822 46.8393 3.49822ZM51.8393 4.05822V7.30822H53.1593V0.588222H51.8393V2.99822H50.3893C50.1593 1.88822 49.1893 1.13822 47.9993 1.13822C46.6393 1.13822 45.5793 2.12822 45.5793 3.49822C45.5793 4.84822 46.6393 5.84822 47.9993 5.84822C49.1793 5.84822 50.1293 5.12822 50.3693 4.05822H51.8393ZM48.4093 8.57822V6.65822H47.0893V9.62822H53.3693V8.57822H48.4093ZM58.8085 1.46822C60.2785 1.46822 61.1185 1.80822 61.1185 2.40822C61.1185 3.00822 60.2785 3.34822 58.8085 3.34822C57.3385 3.34822 56.4985 3.00822 56.4985 2.40822C56.4985 1.80822 57.3385 1.46822 58.8085 1.46822ZM58.8085 3.95822C60.7785 3.95822 61.9585 3.41822 61.9585 2.40822C61.9585 1.39822 60.7785 0.848222 58.8085 0.848222C56.8385 0.848222 55.6585 1.39822 55.6585 2.40822C55.6585 3.41822 56.8385 3.95822 58.8085 3.95822ZM56.5585 8.01822H61.8285V5.99822H55.7285V6.61822H61.0185V7.41822H55.7585V9.56822H62.0985V8.92822H56.5585V8.01822ZM54.7485 4.56822V5.22822H62.8685V4.56822H54.7485ZM73.008 7.40822H73.838V0.708222H73.008V2.80822H71.048V3.48822H73.008V7.40822ZM71.688 5.28822C70.398 4.80822 69.518 3.62822 69.518 2.37822V1.23822H68.698V2.34822C68.698 3.71822 67.798 4.98822 66.458 5.47822L66.888 6.12822C67.938 5.70822 68.738 4.85822 69.118 3.78822C69.498 4.75822 70.268 5.52822 71.258 5.91822L71.688 5.28822ZM68.888 8.79822V6.66822H68.068V9.46822H74.048V8.79822H68.888ZM79.8472 4.75822C78.9072 4.94822 78.1072 4.99822 76.8272 4.99822V3.77822H79.3972V3.14822H76.8272V2.01822H79.4972V1.35822H76.0372V5.66822H76.6072C78.0472 5.66822 78.8972 5.62822 79.9272 5.41822L79.8472 4.75822ZM77.1872 7.26822H82.3972V9.66822H83.2172V6.60822H77.1872V7.26822ZM82.4272 0.708222V3.03822H81.2272V0.868222H80.4472V6.07822H81.2272V3.70822H82.4272V6.13822H83.2172V0.708222H82.4272ZM87.0664 6.90822C86.3664 6.90822 85.8764 6.33822 85.8764 5.53822C85.8764 4.75822 86.3664 4.18822 87.0664 4.18822C87.7564 4.18822 88.2564 4.75822 88.2564 5.53822C88.2564 6.33822 87.7564 6.90822 87.0664 6.90822ZM87.0664 3.49822C85.9564 3.49822 85.1464 4.33822 85.1464 5.53822C85.1464 6.75822 85.9564 7.58822 87.0664 7.58822C88.1764 7.58822 88.9864 6.75822 88.9864 5.53822C88.9864 4.33822 88.1764 3.49822 87.0664 3.49822ZM87.4664 0.958222H86.6564V2.22822H84.8364V2.89822H89.2864V2.22822H87.4664V0.958222ZM91.6564 0.688222V4.47822H90.5064V0.898222H89.7364V9.22822H90.5064V5.14822H91.6564V9.65822H92.4464V0.688222H91.6564ZM94.8456 5.05822C96.2356 4.81822 97.5556 4.06822 98.1056 3.00822C98.6456 4.06822 99.9756 4.81822 101.366 5.05822L101.686 4.40822C100.106 4.17822 98.5556 3.14822 98.5556 1.96822V1.91822H101.366V1.25822H94.8156V1.91822H97.6456V1.96822C97.6456 3.14822 96.0956 4.17822 94.5356 4.40822L94.8456 5.05822ZM102.156 5.80822H94.0556V6.47822H97.6756V9.66822H98.4956V6.47822H102.166L102.156 5.80822ZM105.905 1.54822H105.115V3.25822C105.115 4.79822 104.375 6.40822 103.145 7.12822L103.655 7.73822C104.545 7.18822 105.195 6.17822 105.515 4.98822C105.835 6.07822 106.435 7.02822 107.285 7.54822L107.755 6.90822C106.575 6.18822 105.905 4.66822 105.905 3.22822V1.54822ZM108.265 3.91822H106.785V4.59822H108.265V9.22822H109.035V0.898222H108.265V3.91822ZM110.085 0.698223V9.66822H110.865V0.698223H110.085ZM115.254 5.72822C115.624 5.81822 116.054 5.86822 116.494 5.86822C116.944 5.86822 117.374 5.81822 117.754 5.72822V7.83822H115.254V5.72822ZM116.494 1.90822C117.934 1.90822 118.974 2.56822 118.974 3.56822C118.974 4.56822 117.934 5.22822 116.494 5.22822C115.054 5.22822 114.024 4.56822 114.024 3.56822C114.024 2.56822 115.054 1.90822 116.494 1.90822ZM118.574 7.83822V5.40822C119.314 5.01822 119.754 4.37822 119.754 3.56822C119.754 2.16822 118.404 1.26822 116.494 1.26822C114.594 1.26822 113.234 2.16822 113.234 3.56822C113.234 4.37822 113.684 5.02822 114.434 5.41822V7.83822H112.434V8.51822H120.584V7.83822H118.574ZM121.768 8.34229C121.768 8.15999 121.829 8.007 121.953 7.8833C122.077 7.75635 122.244 7.69287 122.456 7.69287C122.671 7.69287 122.839 7.75635 122.959 7.8833C123.083 8.007 123.145 8.15999 123.145 8.34229C123.145 8.52458 123.083 8.67757 122.959 8.80127C122.839 8.92497 122.671 8.98682 122.456 8.98682C122.244 8.98682 122.077 8.92497 121.953 8.80127C121.829 8.67757 121.768 8.52458 121.768 8.34229Z" fill="#484868"/>
</svg>
