<svg width="320" height="60" viewBox="0 0 320 60" fill="none" xmlns="http://www.w3.org/2000/svg">
<g filter="url(#filter0_d_468_4210)">
<rect x="4" width="312" height="52" rx="26" fill="#484868"/>
<path d="M141.847 19.268V32.232H143.723V19.268H141.847ZM143.233 24.224V25.75H145.515V24.224H143.233ZM138.445 20.612V20.934C138.445 24.448 136.835 26.828 133.433 28.592L134.469 30.006C138.781 27.836 140.265 24.504 140.265 20.612H138.445ZM134.147 20.612V22.11H139.397V20.612H134.147ZM155.342 19.282V26.254H157.218V19.282H155.342ZM148.594 26.814V32.106H157.218V26.814H155.37V28.018H150.428V26.814H148.594ZM150.428 29.446H155.37V30.622H150.428V29.446ZM150.162 19.814C148.146 19.814 146.634 21.088 146.634 22.88C146.634 24.672 148.146 25.946 150.162 25.946C152.178 25.946 153.676 24.672 153.676 22.88C153.676 21.088 152.178 19.814 150.162 19.814ZM150.162 21.354C151.142 21.354 151.856 21.928 151.856 22.88C151.856 23.846 151.142 24.406 150.162 24.406C149.168 24.406 148.454 23.846 148.454 22.88C148.454 21.928 149.168 21.354 150.162 21.354ZM165.757 24.532V26.492H167.619V24.532H165.757ZM166.667 19.8C164.791 19.8 163.433 20.878 163.433 22.446C163.433 23.986 164.791 25.064 166.667 25.064C168.543 25.064 169.901 23.986 169.901 22.446C169.901 20.878 168.543 19.8 166.667 19.8ZM166.667 21.2C167.563 21.2 168.165 21.648 168.165 22.446C168.165 23.23 167.563 23.678 166.667 23.678C165.785 23.678 165.169 23.23 165.169 22.446C165.169 21.648 165.785 21.2 166.667 21.2ZM171.231 19.296V29.18H173.093V19.296H171.231ZM172.435 23.356V24.882H174.717V23.356H172.435ZM164.441 30.524V32.022H173.527V30.524H164.441ZM164.441 28.326V31.168H166.317V28.326H164.441ZM162.971 27.5C165.113 27.5 168.053 27.458 170.671 26.968L170.545 25.638C167.997 26.002 164.959 26.016 162.761 26.016L162.971 27.5ZM178.664 26.842V29.894H180.484V26.842H178.664ZM182.766 26.828V29.894H184.586V26.828H182.766ZM175.696 29.306V30.818H187.428V29.306H175.696ZM177.012 20.122V21.592H184.264V22.964H177.04V26.618H178.888V24.42H186.112V20.122H177.012ZM177.04 25.834V27.332H186.406V25.834H177.04Z" fill="white"/>
</g>
<defs>
<filter id="filter0_d_468_4210" x="0" y="0" width="320" height="60" filterUnits="userSpaceOnUse" color-interpolation-filters="sRGB">
<feFlood flood-opacity="0" result="BackgroundImageFix"/>
<feColorMatrix in="SourceAlpha" type="matrix" values="0 0 0 0 0 0 0 0 0 0 0 0 0 0 0 0 0 0 127 0" result="hardAlpha"/>
<feOffset dy="4"/>
<feGaussianBlur stdDeviation="2"/>
<feComposite in2="hardAlpha" operator="out"/>
<feColorMatrix type="matrix" values="0 0 0 0 0 0 0 0 0 0 0 0 0 0 0 0 0 0 0.25 0"/>
<feBlend mode="normal" in2="BackgroundImageFix" result="effect1_dropShadow_468_4210"/>
<feBlend mode="normal" in="SourceGraphic" in2="effect1_dropShadow_468_4210" result="shape"/>
</filter>
</defs>
</svg>
