<svg width="90" height="24" viewBox="0 0 90 24" fill="none" xmlns="http://www.w3.org/2000/svg">
<path d="M13.856 3.408H8.816V1.032H5.648V3.408H0.584V5.88H13.856V3.408ZM4.76 10.896C4.76 9.768 5.768 9.144 7.232 9.144C8.72 9.144 9.704 9.768 9.704 10.896C9.704 12.048 8.72 12.672 7.232 12.672C5.768 12.672 4.76 12.048 4.76 10.896ZM8.816 14.904C11.168 14.448 12.704 12.96 12.704 10.896C12.704 8.424 10.448 6.744 7.232 6.744C3.992 6.744 1.736 8.424 1.736 10.896C1.736 12.96 3.272 14.448 5.648 14.904V16.776C3.68 16.824 1.808 16.824 0.152 16.824L0.536 19.392C4.448 19.392 9.56 19.368 14.384 18.48L14.144 16.176C12.416 16.416 10.616 16.536 8.816 16.656V14.904ZM15.296 0.959999V23.064H18.464V0.959999H15.296ZM33.3901 13.8V15.96H37.5421V17.712H40.7101V0.959999H37.5421V13.8H33.3901ZM29.1421 4.008C30.6061 4.008 31.6381 4.584 31.6381 5.664C31.6381 6.744 30.6061 7.296 29.1421 7.296C27.6541 7.296 26.6221 6.744 26.6221 5.664C26.6221 4.584 27.6541 4.008 29.1421 4.008ZM29.1421 9.6C32.3581 9.6 34.6381 8.016 34.6381 5.664C34.6381 3.312 32.3581 1.704 29.1421 1.704C25.9021 1.704 23.6461 3.312 23.6461 5.664C23.6461 8.016 25.9021 9.6 29.1421 9.6ZM27.9661 20.16V17.136H31.0141V12.96C32.7901 12.816 34.5661 12.624 36.2941 12.336L36.0781 10.08C31.4221 10.68 26.0461 10.728 22.0141 10.752L22.4221 13.272C24.0781 13.272 25.9261 13.248 27.8701 13.152V16.104H24.7981V22.68H41.1901V20.16H27.9661ZM50.3759 3.216V5.784H57.5999C57.0239 10.68 54.2879 14.184 49.1519 16.824L50.9279 19.248C58.2719 15.528 60.7919 9.84 60.7919 3.216H50.3759ZM69.7679 9.384H66.6719V0.935999H63.5039V23.016H66.6719V12H69.7679V9.384ZM86.6141 0.959999V12.84H89.8061V0.959999H86.6141ZM75.1181 13.8V22.8H89.8061V13.8H86.6621V15.864H78.2621V13.8H75.1181ZM78.2621 18.288H86.6621V20.28H78.2621V18.288ZM77.7821 1.872C74.3501 1.872 71.7581 4.056 71.7581 7.08C71.7581 10.128 74.3501 12.312 77.7821 12.312C81.2141 12.312 83.7821 10.128 83.7821 7.08C83.7821 4.056 81.2141 1.872 77.7821 1.872ZM77.7821 4.488C79.4621 4.488 80.6861 5.472 80.6861 7.08C80.6861 8.736 79.4621 9.696 77.7821 9.696C76.1021 9.696 74.8541 8.736 74.8541 7.08C74.8541 5.472 76.1021 4.488 77.7821 4.488Z" fill="white"/>
</svg>
