<svg width="624" height="104" viewBox="0 0 312 52" fill="none" xmlns="http://www.w3.org/2000/svg">
<rect width="312" height="52" rx="26" fill="#9F70F1"/>
<path d="M137.847 19.268V32.232H139.723V19.268H137.847ZM139.233 24.224V25.75H141.515V24.224H139.233ZM134.445 20.612V20.934C134.445 24.448 132.835 26.828 129.433 28.592L130.469 30.006C134.781 27.836 136.265 24.504 136.265 20.612H134.445ZM130.147 20.612V22.11H135.397V20.612H130.147ZM151.342 19.282V26.254H153.218V19.282H151.342ZM144.594 26.814V32.106H153.218V26.814H151.37V28.018H146.428V26.814H144.594ZM146.428 29.446H151.37V30.622H146.428V29.446ZM146.162 19.814C144.146 19.814 142.634 21.088 142.634 22.88C142.634 24.672 144.146 25.946 146.162 25.946C148.178 25.946 149.676 24.672 149.676 22.88C149.676 21.088 148.178 19.814 146.162 19.814ZM146.162 21.354C147.142 21.354 147.856 21.928 147.856 22.88C147.856 23.846 147.142 24.406 146.162 24.406C145.168 24.406 144.454 23.846 144.454 22.88C144.454 21.928 145.168 21.354 146.162 21.354ZM161.757 24.532V26.492H163.619V24.532H161.757ZM162.667 19.8C160.791 19.8 159.433 20.878 159.433 22.446C159.433 23.986 160.791 25.064 162.667 25.064C164.543 25.064 165.901 23.986 165.901 22.446C165.901 20.878 164.543 19.8 162.667 19.8ZM162.667 21.2C163.563 21.2 164.165 21.648 164.165 22.446C164.165 23.23 163.563 23.678 162.667 23.678C161.785 23.678 161.169 23.23 161.169 22.446C161.169 21.648 161.785 21.2 162.667 21.2ZM167.231 19.296V29.18H169.093V19.296H167.231ZM168.435 23.356V24.882H170.717V23.356H168.435ZM160.441 30.524V32.022H169.527V30.524H160.441ZM160.441 28.326V31.168H162.317V28.326H160.441ZM158.971 27.5C161.113 27.5 164.053 27.458 166.671 26.968L166.545 25.638C163.997 26.002 160.959 26.016 158.761 26.016L158.971 27.5ZM174.664 26.842V29.894H176.484V26.842H174.664ZM178.766 26.828V29.894H180.586V26.828H178.766ZM171.696 29.306V30.818H183.428V29.306H171.696ZM173.012 20.122V21.592H180.264V22.964H173.04V26.618H174.888V24.42H182.112V20.122H173.012ZM173.04 25.834V27.332H182.406V25.834H173.04Z" fill="white"/>
</svg>
