<svg width="110" height="28" viewBox="0 0 55 14" fill="none" xmlns="http://www.w3.org/2000/svg">
<path d="M8.84702 0.267999V13.232H10.723V0.267999H8.84702ZM10.233 5.224V6.75H12.515V5.224H10.233ZM5.44502 1.612V1.934C5.44502 5.448 3.83502 7.828 0.433023 9.592L1.46902 11.006C5.78102 8.836 7.26502 5.504 7.26502 1.612H5.44502ZM1.14702 1.612V3.11H6.39702V1.612H1.14702ZM22.3419 0.282V7.254H24.2179V0.282H22.3419ZM15.5939 7.814V13.106H24.2179V7.814H22.3699V9.018H17.4279V7.814H15.5939ZM17.4279 10.446H22.3699V11.622H17.4279V10.446ZM17.1619 0.814C15.1459 0.814 13.6339 2.088 13.6339 3.88C13.6339 5.672 15.1459 6.946 17.1619 6.946C19.1779 6.946 20.6759 5.672 20.6759 3.88C20.6759 2.088 19.1779 0.814 17.1619 0.814ZM17.1619 2.354C18.1419 2.354 18.8559 2.928 18.8559 3.88C18.8559 4.846 18.1419 5.406 17.1619 5.406C16.1679 5.406 15.4539 4.846 15.4539 3.88C15.4539 2.928 16.1679 2.354 17.1619 2.354ZM32.7572 5.532V7.492H34.6192V5.532H32.7572ZM33.6672 0.8C31.7912 0.8 30.4332 1.878 30.4332 3.446C30.4332 4.986 31.7912 6.064 33.6672 6.064C35.5432 6.064 36.9012 4.986 36.9012 3.446C36.9012 1.878 35.5432 0.8 33.6672 0.8ZM33.6672 2.2C34.5632 2.2 35.1652 2.648 35.1652 3.446C35.1652 4.23 34.5632 4.678 33.6672 4.678C32.7852 4.678 32.1692 4.23 32.1692 3.446C32.1692 2.648 32.7852 2.2 33.6672 2.2ZM38.2312 0.296V10.18H40.0932V0.296H38.2312ZM39.4352 4.356V5.882H41.7172V4.356H39.4352ZM31.4412 11.524V13.022H40.5272V11.524H31.4412ZM31.4412 9.326V12.168H33.3172V9.326H31.4412ZM29.9712 8.5C32.1132 8.5 35.0532 8.458 37.6712 7.968L37.5452 6.638C34.9972 7.002 31.9592 7.016 29.7612 7.016L29.9712 8.5ZM45.6641 7.842V10.894H47.4841V7.842H45.6641ZM49.7661 7.828V10.894H51.5861V7.828H49.7661ZM42.6961 10.306V11.818H54.4281V10.306H42.6961ZM44.0121 1.122V2.592H51.2641V3.964H44.0401V7.618H45.8881V5.42H53.1121V1.122H44.0121ZM44.0401 6.834V8.332H53.4061V6.834H44.0401Z" fill="white"/>
</svg>
