<svg width="44" height="12" viewBox="0 0 44 12" fill="none" xmlns="http://www.w3.org/2000/svg">
<path d="M5.62891 6.76758C5.62891 6.61523 5.60547 6.47852 5.55859 6.35742C5.51562 6.23242 5.43359 6.11914 5.3125 6.01758C5.19141 5.91211 5.02148 5.80859 4.80273 5.70703C4.58398 5.60547 4.30078 5.5 3.95312 5.39062C3.56641 5.26562 3.19922 5.125 2.85156 4.96875C2.50781 4.8125 2.20312 4.63086 1.9375 4.42383C1.67578 4.21289 1.46875 3.96875 1.31641 3.69141C1.16797 3.41406 1.09375 3.0918 1.09375 2.72461C1.09375 2.36914 1.17188 2.04687 1.32812 1.75781C1.48438 1.46484 1.70312 1.21484 1.98438 1.00781C2.26562 0.796875 2.59766 0.634766 2.98047 0.521484C3.36719 0.408203 3.79102 0.351562 4.25195 0.351562C4.88086 0.351562 5.42969 0.464844 5.89844 0.691406C6.36719 0.917969 6.73047 1.22852 6.98828 1.62305C7.25 2.01758 7.38086 2.46875 7.38086 2.97656H5.63477C5.63477 2.72656 5.58203 2.50781 5.47656 2.32031C5.375 2.12891 5.21875 1.97852 5.00781 1.86914C4.80078 1.75977 4.53906 1.70508 4.22266 1.70508C3.91797 1.70508 3.66406 1.75195 3.46094 1.8457C3.25781 1.93555 3.10547 2.05859 3.00391 2.21484C2.90234 2.36719 2.85156 2.53906 2.85156 2.73047C2.85156 2.875 2.88672 3.00586 2.95703 3.12305C3.03125 3.24023 3.14062 3.34961 3.28516 3.45117C3.42969 3.55273 3.60742 3.64844 3.81836 3.73828C4.0293 3.82812 4.27344 3.91602 4.55078 4.00195C5.01562 4.14258 5.42383 4.30078 5.77539 4.47656C6.13086 4.65234 6.42773 4.84961 6.66602 5.06836C6.9043 5.28711 7.08398 5.53516 7.20508 5.8125C7.32617 6.08984 7.38672 6.4043 7.38672 6.75586C7.38672 7.12695 7.31445 7.45898 7.16992 7.75195C7.02539 8.04492 6.81641 8.29297 6.54297 8.49609C6.26953 8.69922 5.94336 8.85352 5.56445 8.95898C5.18555 9.06445 4.76172 9.11719 4.29297 9.11719C3.87109 9.11719 3.45508 9.0625 3.04492 8.95312C2.63477 8.83984 2.26172 8.66992 1.92578 8.44336C1.59375 8.2168 1.32812 7.92773 1.12891 7.57617C0.929688 7.22461 0.830078 6.80859 0.830078 6.32812H2.59375C2.59375 6.59375 2.63477 6.81836 2.7168 7.00195C2.79883 7.18555 2.91406 7.33398 3.0625 7.44727C3.21484 7.56055 3.39453 7.64258 3.60156 7.69336C3.8125 7.74414 4.04297 7.76953 4.29297 7.76953C4.59766 7.76953 4.84766 7.72656 5.04297 7.64062C5.24219 7.55469 5.38867 7.43555 5.48242 7.2832C5.58008 7.13086 5.62891 6.95898 5.62891 6.76758ZM12.2266 7.48242V2.66016H13.9141V9H12.3262L12.2266 7.48242ZM12.4141 6.18164L12.9121 6.16992C12.9121 6.5918 12.8633 6.98438 12.7656 7.34766C12.668 7.70703 12.5215 8.01953 12.3262 8.28516C12.1309 8.54688 11.8848 8.75195 11.5879 8.90039C11.291 9.04492 10.9414 9.11719 10.5391 9.11719C10.2305 9.11719 9.94531 9.07422 9.68359 8.98828C9.42578 8.89844 9.20312 8.75977 9.01562 8.57227C8.83203 8.38086 8.6875 8.13672 8.58203 7.83984C8.48047 7.53906 8.42969 7.17773 8.42969 6.75586V2.66016H10.1172V6.76758C10.1172 6.95508 10.1387 7.11328 10.1816 7.24219C10.2285 7.37109 10.293 7.47656 10.375 7.55859C10.457 7.64062 10.5527 7.69922 10.6621 7.73438C10.7754 7.76953 10.9004 7.78711 11.0371 7.78711C11.3848 7.78711 11.6582 7.7168 11.8574 7.57617C12.0605 7.43555 12.2031 7.24414 12.2852 7.00195C12.3711 6.75586 12.4141 6.48242 12.4141 6.18164ZM16.8906 3.87891V11.4375H15.2031V2.66016H16.7676L16.8906 3.87891ZM20.9043 5.75977V5.88281C20.9043 6.34375 20.8496 6.77148 20.7402 7.16602C20.6348 7.56055 20.4785 7.9043 20.2715 8.19727C20.0645 8.48633 19.8066 8.71289 19.498 8.87695C19.1934 9.03711 18.8418 9.11719 18.4434 9.11719C18.0566 9.11719 17.7207 9.03906 17.4355 8.88281C17.1504 8.72656 16.9102 8.50781 16.7148 8.22656C16.5234 7.94141 16.3691 7.61133 16.252 7.23633C16.1348 6.86133 16.0449 6.45898 15.9824 6.0293V5.70703C16.0449 5.24609 16.1348 4.82422 16.252 4.44141C16.3691 4.05469 16.5234 3.7207 16.7148 3.43945C16.9102 3.1543 17.1484 2.93359 17.4297 2.77734C17.7148 2.62109 18.0488 2.54297 18.4316 2.54297C18.834 2.54297 19.1875 2.61914 19.4922 2.77148C19.8008 2.92383 20.0586 3.14258 20.2656 3.42773C20.4766 3.71289 20.6348 4.05273 20.7402 4.44727C20.8496 4.8418 20.9043 5.2793 20.9043 5.75977ZM19.2109 5.88281V5.75977C19.2109 5.49023 19.1875 5.24219 19.1406 5.01562C19.0977 4.78516 19.0273 4.58398 18.9297 4.41211C18.8359 4.24023 18.7109 4.10742 18.5547 4.01367C18.4023 3.91602 18.2168 3.86719 17.998 3.86719C17.7676 3.86719 17.5703 3.9043 17.4062 3.97852C17.2461 4.05273 17.1152 4.16016 17.0137 4.30078C16.9121 4.44141 16.8359 4.60938 16.7852 4.80469C16.7344 5 16.7031 5.2207 16.6914 5.4668V6.28125C16.7109 6.57031 16.7656 6.83008 16.8555 7.06055C16.9453 7.28711 17.084 7.4668 17.2715 7.59961C17.459 7.73242 17.7051 7.79883 18.0098 7.79883C18.2324 7.79883 18.4199 7.75 18.5723 7.65234C18.7246 7.55078 18.8477 7.41211 18.9414 7.23633C19.0391 7.06055 19.1074 6.85742 19.1465 6.62695C19.1895 6.39648 19.2109 6.14844 19.2109 5.88281ZM23.6406 3.87891V11.4375H21.9531V2.66016H23.5176L23.6406 3.87891ZM27.6543 5.75977V5.88281C27.6543 6.34375 27.5996 6.77148 27.4902 7.16602C27.3848 7.56055 27.2285 7.9043 27.0215 8.19727C26.8145 8.48633 26.5566 8.71289 26.248 8.87695C25.9434 9.03711 25.5918 9.11719 25.1934 9.11719C24.8066 9.11719 24.4707 9.03906 24.1855 8.88281C23.9004 8.72656 23.6602 8.50781 23.4648 8.22656C23.2734 7.94141 23.1191 7.61133 23.002 7.23633C22.8848 6.86133 22.7949 6.45898 22.7324 6.0293V5.70703C22.7949 5.24609 22.8848 4.82422 23.002 4.44141C23.1191 4.05469 23.2734 3.7207 23.4648 3.43945C23.6602 3.1543 23.8984 2.93359 24.1797 2.77734C24.4648 2.62109 24.7988 2.54297 25.1816 2.54297C25.584 2.54297 25.9375 2.61914 26.2422 2.77148C26.5508 2.92383 26.8086 3.14258 27.0156 3.42773C27.2266 3.71289 27.3848 4.05273 27.4902 4.44727C27.5996 4.8418 27.6543 5.2793 27.6543 5.75977ZM25.9609 5.88281V5.75977C25.9609 5.49023 25.9375 5.24219 25.8906 5.01562C25.8477 4.78516 25.7773 4.58398 25.6797 4.41211C25.5859 4.24023 25.4609 4.10742 25.3047 4.01367C25.1523 3.91602 24.9668 3.86719 24.748 3.86719C24.5176 3.86719 24.3203 3.9043 24.1562 3.97852C23.9961 4.05273 23.8652 4.16016 23.7637 4.30078C23.6621 4.44141 23.5859 4.60938 23.5352 4.80469C23.4844 5 23.4531 5.2207 23.4414 5.4668V6.28125C23.4609 6.57031 23.5156 6.83008 23.6055 7.06055C23.6953 7.28711 23.834 7.4668 24.0215 7.59961C24.209 7.73242 24.4551 7.79883 24.7598 7.79883C24.9824 7.79883 25.1699 7.75 25.3223 7.65234C25.4746 7.55078 25.5977 7.41211 25.6914 7.23633C25.7891 7.06055 25.8574 6.85742 25.8965 6.62695C25.9395 6.39648 25.9609 6.14844 25.9609 5.88281ZM28.4336 5.89453V5.77148C28.4336 5.30664 28.5 4.87891 28.6328 4.48828C28.7656 4.09375 28.959 3.75195 29.2129 3.46289C29.4668 3.17383 29.7793 2.94922 30.1504 2.78906C30.5215 2.625 30.9473 2.54297 31.4277 2.54297C31.9082 2.54297 32.3359 2.625 32.7109 2.78906C33.0859 2.94922 33.4004 3.17383 33.6543 3.46289C33.9121 3.75195 34.1074 4.09375 34.2402 4.48828C34.373 4.87891 34.4395 5.30664 34.4395 5.77148V5.89453C34.4395 6.35547 34.373 6.7832 34.2402 7.17773C34.1074 7.56836 33.9121 7.91016 33.6543 8.20312C33.4004 8.49219 33.0879 8.7168 32.7168 8.87695C32.3457 9.03711 31.9199 9.11719 31.4395 9.11719C30.959 9.11719 30.5312 9.03711 30.1562 8.87695C29.7852 8.7168 29.4707 8.49219 29.2129 8.20312C28.959 7.91016 28.7656 7.56836 28.6328 7.17773C28.5 6.7832 28.4336 6.35547 28.4336 5.89453ZM30.1211 5.77148V5.89453C30.1211 6.16016 30.1445 6.4082 30.1914 6.63867C30.2383 6.86914 30.3125 7.07227 30.4141 7.24805C30.5195 7.41992 30.6562 7.55469 30.8242 7.65234C30.9922 7.75 31.1973 7.79883 31.4395 7.79883C31.6738 7.79883 31.875 7.75 32.043 7.65234C32.2109 7.55469 32.3457 7.41992 32.4473 7.24805C32.5488 7.07227 32.623 6.86914 32.6699 6.63867C32.7207 6.4082 32.7461 6.16016 32.7461 5.89453V5.77148C32.7461 5.51367 32.7207 5.27148 32.6699 5.04492C32.623 4.81445 32.5469 4.61133 32.4414 4.43555C32.3398 4.25586 32.2051 4.11523 32.0371 4.01367C31.8691 3.91211 31.666 3.86133 31.4277 3.86133C31.1895 3.86133 30.9863 3.91211 30.8184 4.01367C30.6543 4.11523 30.5195 4.25586 30.4141 4.43555C30.3125 4.61133 30.2383 4.81445 30.1914 5.04492C30.1445 5.27148 30.1211 5.51367 30.1211 5.77148ZM37.1641 4.04297V9H35.4766V2.66016H37.0645L37.1641 4.04297ZM39.0742 2.61914L39.0449 4.18359C38.9629 4.17188 38.8633 4.16211 38.7461 4.1543C38.6328 4.14258 38.5293 4.13672 38.4355 4.13672C38.1973 4.13672 37.9902 4.16797 37.8145 4.23047C37.6426 4.28906 37.498 4.37695 37.3809 4.49414C37.2676 4.61133 37.1816 4.75391 37.123 4.92188C37.0684 5.08984 37.0371 5.28125 37.0293 5.49609L36.6895 5.39062C36.6895 4.98047 36.7305 4.60352 36.8125 4.25977C36.8945 3.91211 37.0137 3.60938 37.1699 3.35156C37.3301 3.09375 37.5254 2.89453 37.7559 2.75391C37.9863 2.61328 38.25 2.54297 38.5469 2.54297C38.6406 2.54297 38.7363 2.55078 38.834 2.56641C38.9316 2.57812 39.0117 2.5957 39.0742 2.61914ZM43.2695 2.66016V3.85547H39.5781V2.66016H43.2695ZM40.4922 1.0957H42.1797V7.08984C42.1797 7.27344 42.2031 7.41406 42.25 7.51172C42.3008 7.60938 42.375 7.67773 42.4727 7.7168C42.5703 7.75195 42.6934 7.76953 42.8418 7.76953C42.9473 7.76953 43.041 7.76562 43.123 7.75781C43.209 7.74609 43.2812 7.73438 43.3398 7.72266L43.3457 8.96484C43.2012 9.01172 43.0449 9.04883 42.877 9.07617C42.709 9.10352 42.5234 9.11719 42.3203 9.11719C41.9492 9.11719 41.625 9.05664 41.3477 8.93555C41.0742 8.81055 40.8633 8.61133 40.7148 8.33789C40.5664 8.06445 40.4922 7.70508 40.4922 7.25977V1.0957Z" fill="#9F70F1"/>
</svg>
