<svg width="18" height="10" viewBox="0 0 18 10" fill="none" xmlns="http://www.w3.org/2000/svg">
<path d="M2.80251 4.00195H3.70485C3.99391 4.00195 4.23219 3.95312 4.41969 3.85547C4.60719 3.75391 4.74587 3.61328 4.83571 3.43359C4.92946 3.25 4.97634 3.03711 4.97634 2.79492C4.97634 2.57617 4.93337 2.38281 4.84743 2.21484C4.7654 2.04297 4.63844 1.91016 4.46657 1.81641C4.29469 1.71875 4.0779 1.66992 3.81618 1.66992C3.60915 1.66992 3.41774 1.71094 3.24196 1.79297C3.06618 1.875 2.92555 1.99023 2.82009 2.13867C2.71462 2.28711 2.66188 2.4668 2.66188 2.67773H0.968523C0.968523 2.20898 1.09352 1.80078 1.34352 1.45312C1.59743 1.10547 1.93727 0.833984 2.36305 0.638672C2.78884 0.443359 3.25759 0.345703 3.7693 0.345703C4.34743 0.345703 4.85329 0.439453 5.28688 0.626953C5.72048 0.810547 6.05837 1.08203 6.30055 1.44141C6.54274 1.80078 6.66384 2.24609 6.66384 2.77734C6.66384 3.04688 6.60134 3.30859 6.47634 3.5625C6.35134 3.8125 6.17165 4.03906 5.93727 4.24219C5.7068 4.44141 5.42555 4.60156 5.09352 4.72266C4.76149 4.83984 4.38844 4.89844 3.97438 4.89844H2.80251V4.00195ZM2.80251 5.28516V4.41211H3.97438C4.43923 4.41211 4.84743 4.46484 5.19899 4.57031C5.55055 4.67578 5.84548 4.82812 6.08376 5.02734C6.32204 5.22266 6.50173 5.45508 6.62282 5.72461C6.74391 5.99023 6.80446 6.28516 6.80446 6.60938C6.80446 7.00781 6.72829 7.36328 6.57594 7.67578C6.4236 7.98438 6.20876 8.24609 5.93141 8.46094C5.65798 8.67578 5.33766 8.83984 4.97048 8.95312C4.60329 9.0625 4.2029 9.11719 3.7693 9.11719C3.40993 9.11719 3.05641 9.06836 2.70876 8.9707C2.36501 8.86914 2.05251 8.71875 1.77126 8.51953C1.49391 8.31641 1.27126 8.0625 1.10329 7.75781C0.939226 7.44922 0.857195 7.08398 0.857195 6.66211H2.55055C2.55055 6.88086 2.60524 7.07617 2.71462 7.24805C2.82399 7.41992 2.97438 7.55469 3.16579 7.65234C3.3611 7.75 3.5779 7.79883 3.81618 7.79883C4.08571 7.79883 4.31618 7.75 4.50759 7.65234C4.7029 7.55078 4.85134 7.41016 4.9529 7.23047C5.05837 7.04688 5.1111 6.83398 5.1111 6.5918C5.1111 6.2793 5.05446 6.0293 4.94118 5.8418C4.8279 5.65039 4.66579 5.50977 4.45485 5.41992C4.24391 5.33008 3.99391 5.28516 3.70485 5.28516H2.80251ZM9.72243 4.04297V9H8.03493V2.66016H9.62282L9.72243 4.04297ZM11.6326 2.61914L11.6033 4.18359C11.5213 4.17188 11.4216 4.16211 11.3045 4.1543C11.1912 4.14258 11.0877 4.13672 10.9939 4.13672C10.7556 4.13672 10.5486 4.16797 10.3728 4.23047C10.2009 4.28906 10.0564 4.37695 9.93923 4.49414C9.82594 4.61133 9.74001 4.75391 9.68141 4.92188C9.62673 5.08984 9.59548 5.28125 9.58766 5.49609L9.24782 5.39062C9.24782 4.98047 9.28884 4.60352 9.37087 4.25977C9.4529 3.91211 9.57204 3.60938 9.72829 3.35156C9.88844 3.09375 10.0838 2.89453 10.3142 2.75391C10.5447 2.61328 10.8084 2.54297 11.1052 2.54297C11.199 2.54297 11.2947 2.55078 11.3924 2.56641C11.49 2.57812 11.5701 2.5957 11.6326 2.61914ZM16.0564 7.61719V0H17.7556V9H16.2263L16.0564 7.61719ZM12.0486 5.90625V5.7832C12.0486 5.29883 12.1033 4.85938 12.2127 4.46484C12.322 4.06641 12.4822 3.72461 12.6931 3.43945C12.9041 3.1543 13.1638 2.93359 13.4724 2.77734C13.781 2.62109 14.1326 2.54297 14.5271 2.54297C14.8982 2.54297 15.2224 2.62109 15.4998 2.77734C15.781 2.93359 16.0193 3.15625 16.2146 3.44531C16.4138 3.73047 16.574 4.06836 16.6951 4.45898C16.8162 4.8457 16.9041 5.26953 16.9588 5.73047V6C16.9041 6.44141 16.8162 6.85156 16.6951 7.23047C16.574 7.60938 16.4138 7.94141 16.2146 8.22656C16.0193 8.50781 15.781 8.72656 15.4998 8.88281C15.2185 9.03906 14.8904 9.11719 14.5154 9.11719C14.1209 9.11719 13.7693 9.03711 13.4607 8.87695C13.156 8.7168 12.8982 8.49219 12.6873 8.20312C12.4802 7.91406 12.322 7.57422 12.2127 7.18359C12.1033 6.79297 12.0486 6.36719 12.0486 5.90625ZM13.7361 5.7832V5.90625C13.7361 6.16797 13.7556 6.41211 13.7947 6.63867C13.8377 6.86523 13.906 7.06641 13.9998 7.24219C14.0974 7.41406 14.2224 7.54883 14.3748 7.64648C14.531 7.74023 14.7205 7.78711 14.9431 7.78711C15.2322 7.78711 15.4705 7.72266 15.658 7.59375C15.8455 7.46094 15.9881 7.2793 16.0857 7.04883C16.1873 6.81836 16.2459 6.55273 16.2615 6.25195V5.48438C16.2498 5.23828 16.2146 5.01758 16.156 4.82227C16.1013 4.62305 16.0193 4.45312 15.9099 4.3125C15.8045 4.17188 15.6716 4.0625 15.5115 3.98438C15.3552 3.90625 15.1697 3.86719 14.9549 3.86719C14.7361 3.86719 14.5486 3.91797 14.3924 4.01953C14.2361 4.11719 14.1091 4.25195 14.0115 4.42383C13.9177 4.5957 13.8474 4.79883 13.8006 5.0332C13.7576 5.26367 13.7361 5.51367 13.7361 5.7832Z" fill="#9F70F1"/>
</svg>
