<svg width="20" height="12" viewBox="0 0 20 12" fill="none" xmlns="http://www.w3.org/2000/svg">
<path d="M4.60352 0.46875V9H2.85156V0.46875H4.60352ZM7.22852 0.46875V1.8457H0.267578V0.46875H7.22852ZM6.83594 5.89453V5.77148C6.83594 5.30664 6.90234 4.87891 7.03516 4.48828C7.16797 4.09375 7.36133 3.75195 7.61523 3.46289C7.86914 3.17383 8.18164 2.94922 8.55273 2.78906C8.92383 2.625 9.34961 2.54297 9.83008 2.54297C10.3105 2.54297 10.7383 2.625 11.1133 2.78906C11.4883 2.94922 11.8027 3.17383 12.0566 3.46289C12.3145 3.75195 12.5098 4.09375 12.6426 4.48828C12.7754 4.87891 12.8418 5.30664 12.8418 5.77148V5.89453C12.8418 6.35547 12.7754 6.7832 12.6426 7.17773C12.5098 7.56836 12.3145 7.91016 12.0566 8.20312C11.8027 8.49219 11.4902 8.7168 11.1191 8.87695C10.748 9.03711 10.3223 9.11719 9.8418 9.11719C9.36133 9.11719 8.93359 9.03711 8.55859 8.87695C8.1875 8.7168 7.87305 8.49219 7.61523 8.20312C7.36133 7.91016 7.16797 7.56836 7.03516 7.17773C6.90234 6.7832 6.83594 6.35547 6.83594 5.89453ZM8.52344 5.77148V5.89453C8.52344 6.16016 8.54688 6.4082 8.59375 6.63867C8.64062 6.86914 8.71484 7.07227 8.81641 7.24805C8.92188 7.41992 9.05859 7.55469 9.22656 7.65234C9.39453 7.75 9.59961 7.79883 9.8418 7.79883C10.0762 7.79883 10.2773 7.75 10.4453 7.65234C10.6133 7.55469 10.748 7.41992 10.8496 7.24805C10.9512 7.07227 11.0254 6.86914 11.0723 6.63867C11.123 6.4082 11.1484 6.16016 11.1484 5.89453V5.77148C11.1484 5.51367 11.123 5.27148 11.0723 5.04492C11.0254 4.81445 10.9492 4.61133 10.8438 4.43555C10.7422 4.25586 10.6074 4.11523 10.4395 4.01367C10.2715 3.91211 10.0684 3.86133 9.83008 3.86133C9.5918 3.86133 9.38867 3.91211 9.2207 4.01367C9.05664 4.11523 8.92188 4.25586 8.81641 4.43555C8.71484 4.61133 8.64062 4.81445 8.59375 5.04492C8.54688 5.27148 8.52344 5.51367 8.52344 5.77148ZM15.5664 3.87891V11.4375H13.8789V2.66016H15.4434L15.5664 3.87891ZM19.5801 5.75977V5.88281C19.5801 6.34375 19.5254 6.77148 19.416 7.16602C19.3105 7.56055 19.1543 7.9043 18.9473 8.19727C18.7402 8.48633 18.4824 8.71289 18.1738 8.87695C17.8691 9.03711 17.5176 9.11719 17.1191 9.11719C16.7324 9.11719 16.3965 9.03906 16.1113 8.88281C15.8262 8.72656 15.5859 8.50781 15.3906 8.22656C15.1992 7.94141 15.0449 7.61133 14.9277 7.23633C14.8105 6.86133 14.7207 6.45898 14.6582 6.0293V5.70703C14.7207 5.24609 14.8105 4.82422 14.9277 4.44141C15.0449 4.05469 15.1992 3.7207 15.3906 3.43945C15.5859 3.1543 15.8242 2.93359 16.1055 2.77734C16.3906 2.62109 16.7246 2.54297 17.1074 2.54297C17.5098 2.54297 17.8633 2.61914 18.168 2.77148C18.4766 2.92383 18.7344 3.14258 18.9414 3.42773C19.1523 3.71289 19.3105 4.05273 19.416 4.44727C19.5254 4.8418 19.5801 5.2793 19.5801 5.75977ZM17.8867 5.88281V5.75977C17.8867 5.49023 17.8633 5.24219 17.8164 5.01562C17.7734 4.78516 17.7031 4.58398 17.6055 4.41211C17.5117 4.24023 17.3867 4.10742 17.2305 4.01367C17.0781 3.91602 16.8926 3.86719 16.6738 3.86719C16.4434 3.86719 16.2461 3.9043 16.082 3.97852C15.9219 4.05273 15.791 4.16016 15.6895 4.30078C15.5879 4.44141 15.5117 4.60938 15.4609 4.80469C15.4102 5 15.3789 5.2207 15.3672 5.4668V6.28125C15.3867 6.57031 15.4414 6.83008 15.5312 7.06055C15.6211 7.28711 15.7598 7.4668 15.9473 7.59961C16.1348 7.73242 16.3809 7.79883 16.6855 7.79883C16.9082 7.79883 17.0957 7.75 17.248 7.65234C17.4004 7.55078 17.5234 7.41211 17.6172 7.23633C17.7148 7.06055 17.7832 6.85742 17.8223 6.62695C17.8652 6.39648 17.8867 6.14844 17.8867 5.88281Z" fill="#9F70F1"/>
</svg>
