<svg width="230" height="48" viewBox="0 0 115 24" fill="none" xmlns="http://www.w3.org/2000/svg">
<path d="M13.1611 2.76H8.48106V0.863999H5.31306V2.76H0.609063V5.016H13.1611V2.76ZM4.49706 9.024C4.49706 8.16 5.40906 7.704 6.89706 7.704C8.38506 7.704 9.27306 8.16 9.27306 9.024C9.27306 9.864 8.38506 10.32 6.89706 10.32C5.40906 10.32 4.49706 9.864 4.49706 9.024ZM13.7131 12.936C12.0331 13.176 10.2811 13.32 8.48106 13.44V12.312C10.8091 11.952 12.2731 10.752 12.2731 9.024C12.2731 6.888 10.1371 5.592 6.89706 5.592C3.63306 5.592 1.49706 6.888 1.49706 9.024C1.49706 10.752 2.96106 11.952 5.31306 12.312V13.584C3.41706 13.656 1.61706 13.656 0.0570625 13.656L0.393063 16.08C4.16106 16.056 9.36906 15.96 13.9531 15.096L13.7131 12.936ZM6.29706 17.136H3.12906V22.68H18.5851V20.16H6.29706V17.136ZM17.8411 8.184V0.935999H14.6731V18.216H17.8411V10.776H20.6251V8.184H17.8411ZM25.6872 7.56C25.6872 5.832 26.8632 4.824 28.4952 4.824C30.1272 4.824 31.3272 5.832 31.3272 7.56C31.3272 9.264 30.1272 10.296 28.4952 10.296C26.8632 10.296 25.6872 9.264 25.6872 7.56ZM37.7112 6.36V8.76H34.1832C34.2792 8.352 34.3272 7.968 34.3272 7.56C34.3272 7.128 34.2792 6.744 34.2072 6.36H37.7112ZM37.7112 11.28V13.92H40.8792V0.959999H37.7112V3.84H32.8392C31.7832 2.784 30.2712 2.136 28.4952 2.136C25.2312 2.136 22.6872 4.416 22.6872 7.56C22.6872 10.68 25.2312 12.96 28.4952 12.96C30.2232 12.96 31.7352 12.336 32.7912 11.28H37.7112ZM33.3912 20.64C30.4872 20.64 28.9512 20.016 28.9512 18.72C28.9512 17.424 30.4872 16.8 33.3912 16.8C36.2952 16.8 37.8552 17.424 37.8552 18.72C37.8552 20.016 36.2952 20.64 33.3912 20.64ZM33.3912 14.352C28.7352 14.352 25.8312 15.96 25.8312 18.72C25.8312 21.456 28.7352 23.064 33.3912 23.064C38.0712 23.064 40.9752 21.456 40.9752 18.72C40.9752 15.96 38.0712 14.352 33.3912 14.352ZM57.5093 2.904H52.5653V0.791998H49.3733V2.904H44.4533V5.376H57.4853L57.5093 2.904ZM48.5813 9.888C48.5813 8.832 49.5653 8.28 50.9813 8.28C52.3973 8.28 53.3813 8.832 53.3813 9.888C53.3813 10.944 52.3973 11.496 50.9813 11.496C49.5653 11.496 48.5813 10.944 48.5813 9.888ZM56.4053 9.888C56.4053 7.536 54.1733 5.976 50.9813 5.976C47.7893 5.976 45.5573 7.536 45.5573 9.888C45.5573 12.216 47.7893 13.8 50.9813 13.8C54.1733 13.8 56.4053 12.216 56.4053 9.888ZM58.7333 20.352H50.6453V18.792H58.7333V20.352ZM58.7333 16.416H50.6453V14.736H47.5013V22.8H61.8773V14.736H58.7333V16.416ZM64.8053 6.264H61.8773V0.983999H58.7093V13.92H61.8773V8.856H64.8053V6.264ZM70.8514 3.048H67.7074V17.616H69.6754C73.0354 17.616 76.7074 17.376 80.4754 16.584L80.1394 13.944C76.8994 14.592 73.7554 14.832 70.8514 14.904V3.048ZM81.8434 0.935999V23.04H85.0114V0.935999H81.8434ZM92.6416 5.568H99.7936V3H89.4976V17.808H91.3696C95.2096 17.808 98.2336 17.688 101.57 17.088L101.258 14.472C98.4016 14.952 95.7856 15.12 92.6416 15.168V5.568ZM109.154 9.12H105.938V0.959999H102.77V23.112H105.938V11.736H109.154V9.12ZM112.059 15.3633H114.32L114.52 4.08984H111.859L112.059 15.3633ZM113.195 21.1523C113.648 21.1523 114.027 21.0039 114.332 20.707C114.637 20.4023 114.789 20.0273 114.789 19.582C114.789 19.1367 114.637 18.7656 114.332 18.4688C114.027 18.1719 113.648 18.0234 113.195 18.0234C112.742 18.0234 112.359 18.1719 112.047 18.4688C111.742 18.7656 111.59 19.1367 111.59 19.582C111.59 20.0273 111.742 20.4023 112.047 20.707C112.359 21.0039 112.742 21.1523 113.195 21.1523Z" fill="white"/>
</svg>
