<svg width="300" height="72" viewBox="0 0 150 36" fill="none" xmlns="http://www.w3.org/2000/svg">
<rect width="150" height="36" rx="18" fill="#9F70F1"/>
<path d="M64.9649 13.6V14.884H71.4329V13.6H64.9649ZM68.1929 15.496C66.6809 15.496 65.5289 16.612 65.5289 18.148C65.5289 19.672 66.6809 20.8 68.1929 20.8C69.7169 20.8 70.8569 19.672 70.8569 18.148C70.8569 16.612 69.7169 15.496 68.1929 15.496ZM68.1929 16.828C68.8769 16.828 69.3929 17.32 69.3929 18.148C69.3929 18.976 68.8769 19.456 68.1929 19.456C67.5209 19.456 67.0049 18.976 67.0049 18.148C67.0049 17.32 67.5209 16.828 68.1929 16.828ZM67.4009 12.136V14.236H68.9969V12.136H67.4009ZM72.6809 11.956V23.068H74.2649V11.956H72.6809ZM71.2169 16.324V17.62H73.9649V16.324H71.2169ZM78.236 15.676V17.716H79.832V15.676H78.236ZM82.148 15.676V17.716H83.732V15.676H82.148ZM75.98 17.224V18.484H86.024V17.224H75.98ZM80.984 19.048C78.572 19.048 77.12 19.768 77.12 21.052C77.12 22.348 78.572 23.068 80.984 23.068C83.384 23.068 84.836 22.348 84.836 21.052C84.836 19.768 83.384 19.048 80.984 19.048ZM80.984 20.248C82.472 20.248 83.228 20.5 83.228 21.052C83.228 21.616 82.472 21.868 80.984 21.868C79.496 21.868 78.74 21.616 78.74 21.052C78.74 20.5 79.496 20.248 80.984 20.248ZM81.008 12.112C78.548 12.112 76.988 12.928 76.988 14.26C76.988 15.58 78.548 16.372 81.008 16.372C83.456 16.372 85.028 15.58 85.028 14.26C85.028 12.928 83.456 12.112 81.008 12.112ZM81.008 13.336C82.532 13.336 83.384 13.636 83.384 14.26C83.384 14.872 82.532 15.172 81.008 15.172C79.484 15.172 78.632 14.872 78.632 14.26C78.632 13.636 79.484 13.336 81.008 13.336Z" fill="white"/>
</svg>
