<svg width="50" height="50" viewBox="0 0 25 25" fill="none" xmlns="http://www.w3.org/2000/svg">
<circle cx="12.4316" cy="12.1038" r="12" fill="#161627"/>
<g clip-path="url(#clip0_1763_4442)">
<path d="M14.9312 8.1037H16.2662C16.5491 8.09869 16.8241 8.19776 17.0389 8.38211C17.2536 8.56645 17.3932 8.82323 17.4312 9.1037V12.6037C17.3932 12.8842 17.2536 13.1409 17.0389 13.3253C16.8241 13.5096 16.5491 13.6087 16.2662 13.6037H14.9312M11.4312 14.6037V16.6037C11.4312 17.0015 11.5892 17.3831 11.8705 17.6644C12.1518 17.9457 12.5333 18.1037 12.9312 18.1037L14.9312 13.6037V8.1037H9.29117C9.05 8.10097 8.81598 8.18549 8.63221 8.34169C8.44845 8.49789 8.32733 8.71524 8.29117 8.9537L7.60117 13.4537C7.57941 13.597 7.58908 13.7434 7.6295 13.8826C7.66992 14.0218 7.74012 14.1505 7.83524 14.2599C7.93036 14.3693 8.04813 14.4567 8.18038 14.5161C8.31264 14.5754 8.45621 14.6053 8.60117 14.6037H11.4312Z" stroke="#484868" stroke-linecap="round" stroke-linejoin="round"/>
</g>
<defs>
<clipPath id="clip0_1763_4442">
<rect width="12" height="12" fill="white" transform="translate(6.43164 7.10376)"/>
</clipPath>
</defs>
</svg>
