<svg width="50" height="50" viewBox="0 0 24 24" fill="none" xmlns="http://www.w3.org/2000/svg">
<circle cx="12" cy="12" r="12" fill="#161627"/>
<path d="M14.4995 7.99994H15.8345C16.1175 7.99493 16.3925 8.094 16.6072 8.27835C16.822 8.46269 16.9616 8.71947 16.9995 8.99994V12.4999C16.9616 12.7804 16.822 13.0372 16.6072 13.2215C16.3925 13.4059 16.1175 13.5049 15.8345 13.4999H14.4995M10.9995 14.4999V16.4999C10.9995 16.8978 11.1576 17.2793 11.4389 17.5606C11.7202 17.8419 12.1017 17.9999 12.4995 17.9999L14.4995 13.4999V7.99994H8.85953C8.61836 7.99721 8.38434 8.08173 8.20057 8.23793C8.01681 8.39413 7.89569 8.61148 7.85953 8.84994L7.16953 13.3499C7.14777 13.4933 7.15744 13.6396 7.19786 13.7788C7.23827 13.918 7.30848 14.0468 7.4036 14.1562C7.49872 14.2656 7.61649 14.353 7.74874 14.4123C7.881 14.4717 8.02457 14.5016 8.16953 14.4999H10.9995Z" stroke="#996CE8" stroke-linecap="round" stroke-linejoin="round"/>
</svg>
