<svg width="41" height="41" viewBox="0 0 41 41" fill="none" xmlns="http://www.w3.org/2000/svg">
<path d="M3.42567 40.1213L40.1852 40.1213L40.1852 3.01272L32.6959 10.5731L32.6959 32.418L11.0565 32.418L3.42567 40.1213Z" fill="#3C3C55"/>
<path d="M29.4204 6.16159L6.43946 6.16159L6.43946 29.3607L0.185173 35.6744L0.18517 0.121263L35.4039 0.12126L29.4204 6.16159Z" fill="#3C3C55"/>
<path d="M40.1505 0.12126L40.1852 0.155622L40.1852 0.12126L40.1505 0.12126Z" fill="#3C3C55"/>
<path d="M3.42567 40.1213L40.1852 40.1213L40.1852 3.01272L32.6959 10.5731L32.6959 32.418L11.0565 32.418L3.42567 40.1213Z" fill="#3C3C55"/>
<path d="M40.1852 0.155622L40.1852 0.12126L40.1505 0.12126L40.1852 0.155622Z" fill="#3C3C55"/>
<path d="M25.1714 24.6919L14.31 24.6919L14.31 13.8304L25.1714 13.8304L25.1714 24.6919Z" fill="#3C3C55"/>
</svg>
