<svg width="41" height="41" viewBox="0 0 41 41" fill="none" xmlns="http://www.w3.org/2000/svg">
<path d="M3.42567 40.0625L40.1852 40.0625L40.1852 2.95397L32.6959 10.5143L32.6959 32.3593L11.0565 32.3593L3.42567 40.0625Z" fill="#3C3C55"/>
<path d="M29.4204 6.10284L6.43946 6.10284L6.43946 29.302L0.185173 35.6157L0.18517 0.0625111L35.4039 0.062508L29.4204 6.10284Z" fill="#4D3A78"/>
<path d="M40.1505 0.0625076L40.1852 0.0968704L40.1852 0.0625076L40.1505 0.0625076Z" fill="#3C3C55"/>
<path d="M3.42567 40.0625L40.1852 40.0625L40.1852 2.95397L32.6959 10.5143L32.6959 32.3593L11.0565 32.3593L3.42567 40.0625Z" fill="#9874E9"/>
<path d="M40.1852 0.0968704L40.1852 0.0625076L40.1505 0.0625076L40.1852 0.0968704Z" fill="#3C3C55"/>
<path d="M25.1714 24.6331L14.31 24.6331L14.31 13.7716L25.1714 13.7716L25.1714 24.6331Z" fill="#4D3A78"/>
</svg>
