<svg width="45" height="16" viewBox="0 0 45 16" fill="none" xmlns="http://www.w3.org/2000/svg">
<path d="M5.68588 4.832H8.02188V3.12H5.68588V1.12H3.68588V3.12H1.33388V4.832H3.68588V5.072C3.68588 7.344 2.93388 9.76 0.837875 10.976L2.02188 12.56C3.34988 11.808 4.21388 10.512 4.70988 8.976C5.23788 10.368 6.08588 11.536 7.39788 12.224L8.51788 10.656C6.43788 9.552 5.68588 7.296 5.68588 5.072V4.832ZM11.8619 0.624V6.272H10.6619V0.863999H8.69388V14.704H10.6619V8H11.8619V15.36H13.8619V0.624H11.8619ZM28.0686 0.639999H25.9406V9.568H28.0686V0.639999ZM24.7246 6.896C22.8846 7.168 21.2686 7.232 18.7246 7.248V6.096H23.2846V4.464H18.7246V3.328H23.7166V1.664H16.6286V8.912H17.8926C20.9966 8.912 22.8366 8.864 24.9166 8.528L24.7246 6.896ZM23.0926 13.76C21.1886 13.76 20.1646 13.392 20.1646 12.576C20.1646 11.776 21.1886 11.392 23.0926 11.392C25.0126 11.392 26.0206 11.776 26.0206 12.576C26.0206 13.392 25.0126 13.76 23.0926 13.76ZM23.0926 9.776C19.9726 9.776 18.0686 10.816 18.0686 12.576C18.0686 14.368 19.9726 15.376 23.0926 15.376C26.2126 15.376 28.1326 14.368 28.1326 12.576C28.1326 10.816 26.2126 9.776 23.0926 9.776ZM35.9554 6.848H33.0594V5.024H35.9554V6.848ZM38.0354 1.584H35.9554V3.408H33.0594V1.584H30.9794V8.496H38.0354V1.584ZM37.3154 13.76C35.4434 13.76 34.4354 13.36 34.4354 12.528C34.4354 11.696 35.4434 11.296 37.3154 11.296C39.2034 11.296 40.2114 11.696 40.2114 12.528C40.2114 13.36 39.2034 13.76 37.3154 13.76ZM37.3154 9.648C34.2594 9.648 32.3394 10.72 32.3394 12.528C32.3394 14.32 34.2594 15.392 37.3154 15.392C40.3874 15.392 42.3074 14.32 42.3074 12.528C42.3074 10.72 40.3874 9.648 37.3154 9.648ZM42.1474 4.08V0.655999H40.0354V9.328H42.1474V5.808H44.0994V4.08H42.1474Z" fill="#484868"/>
</svg>
