<svg width="26" height="12" viewBox="0 0 39 17" fill="none" xmlns="http://www.w3.org/2000/svg">
<path d="M27 5.5H38M32.5 1V10V1Z" stroke="white" stroke-width="2" stroke-linecap="round" stroke-linejoin="round"/>
<path d="M6.99805 12.7988H7.10938C7.61328 12.7988 8.03906 12.7344 8.38672 12.6055C8.73828 12.4766 9.02148 12.2949 9.23633 12.0605C9.45508 11.8223 9.61328 11.5391 9.71094 11.2109C9.8125 10.8789 9.86328 10.5117 9.86328 10.1094V8.5625C9.86328 8.23438 9.83008 7.94727 9.76367 7.70117C9.69727 7.45117 9.60352 7.24219 9.48242 7.07422C9.36523 6.90625 9.22656 6.78125 9.06641 6.69922C8.90625 6.61328 8.73438 6.57031 8.55078 6.57031C8.34766 6.57031 8.16797 6.61719 8.01172 6.71094C7.85547 6.80469 7.72266 6.93359 7.61328 7.09766C7.50781 7.25781 7.42578 7.44336 7.36719 7.6543C7.3125 7.86523 7.28516 8.08789 7.28516 8.32227C7.28516 8.54883 7.31055 8.76562 7.36133 8.97266C7.41602 9.17969 7.49609 9.36328 7.60156 9.52344C7.71094 9.68359 7.84766 9.81055 8.01172 9.9043C8.17578 9.99414 8.36719 10.0391 8.58594 10.0391C8.79297 10.0391 8.98047 10 9.14844 9.92188C9.32031 9.83984 9.46875 9.73242 9.59375 9.59961C9.71875 9.46289 9.81445 9.3125 9.88086 9.14844C9.95117 8.98047 9.99023 8.81055 9.99805 8.63867L10.543 8.87305C10.543 9.1582 10.4824 9.43945 10.3613 9.7168C10.2441 9.99414 10.0781 10.2461 9.86328 10.4727C9.65234 10.6953 9.40625 10.875 9.125 11.0117C8.84375 11.1445 8.54102 11.2109 8.2168 11.2109C7.81445 11.2109 7.45898 11.1367 7.15039 10.9883C6.8418 10.8398 6.58203 10.6348 6.37109 10.373C6.16406 10.1074 6.00781 9.80273 5.90234 9.45898C5.79688 9.11133 5.74414 8.74023 5.74414 8.3457C5.74414 7.93555 5.80859 7.55078 5.9375 7.19141C6.06641 6.82812 6.25195 6.50977 6.49414 6.23633C6.74023 5.95898 7.03711 5.74219 7.38477 5.58594C7.73242 5.42578 8.12305 5.3457 8.55664 5.3457C9.00586 5.3457 9.40625 5.43359 9.75781 5.60938C10.1094 5.78516 10.4082 6.0293 10.6543 6.3418C10.9004 6.65039 11.0879 7.01562 11.2168 7.4375C11.3496 7.85938 11.416 8.32031 11.416 8.82031V9.36523C11.416 9.89258 11.3633 10.3926 11.2578 10.8652C11.1523 11.3379 10.9902 11.7695 10.7715 12.1602C10.5527 12.5508 10.2734 12.8887 9.93359 13.1738C9.59766 13.459 9.19531 13.6797 8.72656 13.8359C8.26172 13.9883 7.73047 14.0645 7.13281 14.0645H6.99805V12.7988ZM13.8535 12.7988H13.9648C14.4688 12.7988 14.8945 12.7344 15.2422 12.6055C15.5938 12.4766 15.877 12.2949 16.0918 12.0605C16.3105 11.8223 16.4688 11.5391 16.5664 11.2109C16.668 10.8789 16.7188 10.5117 16.7188 10.1094V8.5625C16.7188 8.23438 16.6855 7.94727 16.6191 7.70117C16.5527 7.45117 16.459 7.24219 16.3379 7.07422C16.2207 6.90625 16.082 6.78125 15.9219 6.69922C15.7617 6.61328 15.5898 6.57031 15.4062 6.57031C15.2031 6.57031 15.0234 6.61719 14.8672 6.71094C14.7109 6.80469 14.5781 6.93359 14.4688 7.09766C14.3633 7.25781 14.2812 7.44336 14.2227 7.6543C14.168 7.86523 14.1406 8.08789 14.1406 8.32227C14.1406 8.54883 14.166 8.76562 14.2168 8.97266C14.2715 9.17969 14.3516 9.36328 14.457 9.52344C14.5664 9.68359 14.7031 9.81055 14.8672 9.9043C15.0312 9.99414 15.2227 10.0391 15.4414 10.0391C15.6484 10.0391 15.8359 10 16.0039 9.92188C16.1758 9.83984 16.3242 9.73242 16.4492 9.59961C16.5742 9.46289 16.6699 9.3125 16.7363 9.14844C16.8066 8.98047 16.8457 8.81055 16.8535 8.63867L17.3984 8.87305C17.3984 9.1582 17.3379 9.43945 17.2168 9.7168C17.0996 9.99414 16.9336 10.2461 16.7188 10.4727C16.5078 10.6953 16.2617 10.875 15.9805 11.0117C15.6992 11.1445 15.3965 11.2109 15.0723 11.2109C14.6699 11.2109 14.3145 11.1367 14.0059 10.9883C13.6973 10.8398 13.4375 10.6348 13.2266 10.373C13.0195 10.1074 12.8633 9.80273 12.7578 9.45898C12.6523 9.11133 12.5996 8.74023 12.5996 8.3457C12.5996 7.93555 12.6641 7.55078 12.793 7.19141C12.9219 6.82812 13.1074 6.50977 13.3496 6.23633C13.5957 5.95898 13.8926 5.74219 14.2402 5.58594C14.5879 5.42578 14.9785 5.3457 15.4121 5.3457C15.8613 5.3457 16.2617 5.43359 16.6133 5.60938C16.9648 5.78516 17.2637 6.0293 17.5098 6.3418C17.7559 6.65039 17.9434 7.01562 18.0723 7.4375C18.2051 7.85938 18.2715 8.32031 18.2715 8.82031V9.36523C18.2715 9.89258 18.2188 10.3926 18.1133 10.8652C18.0078 11.3379 17.8457 11.7695 17.627 12.1602C17.4082 12.5508 17.1289 12.8887 16.7891 13.1738C16.4531 13.459 16.0508 13.6797 15.582 13.8359C15.1172 13.9883 14.5859 14.0645 13.9883 14.0645H13.8535V12.7988ZM20.709 12.7988H20.8203C21.3242 12.7988 21.75 12.7344 22.0977 12.6055C22.4492 12.4766 22.7324 12.2949 22.9473 12.0605C23.166 11.8223 23.3242 11.5391 23.4219 11.2109C23.5234 10.8789 23.5742 10.5117 23.5742 10.1094V8.5625C23.5742 8.23438 23.541 7.94727 23.4746 7.70117C23.4082 7.45117 23.3145 7.24219 23.1934 7.07422C23.0762 6.90625 22.9375 6.78125 22.7773 6.69922C22.6172 6.61328 22.4453 6.57031 22.2617 6.57031C22.0586 6.57031 21.8789 6.61719 21.7227 6.71094C21.5664 6.80469 21.4336 6.93359 21.3242 7.09766C21.2188 7.25781 21.1367 7.44336 21.0781 7.6543C21.0234 7.86523 20.9961 8.08789 20.9961 8.32227C20.9961 8.54883 21.0215 8.76562 21.0723 8.97266C21.127 9.17969 21.207 9.36328 21.3125 9.52344C21.4219 9.68359 21.5586 9.81055 21.7227 9.9043C21.8867 9.99414 22.0781 10.0391 22.2969 10.0391C22.5039 10.0391 22.6914 10 22.8594 9.92188C23.0312 9.83984 23.1797 9.73242 23.3047 9.59961C23.4297 9.46289 23.5254 9.3125 23.5918 9.14844C23.6621 8.98047 23.7012 8.81055 23.709 8.63867L24.2539 8.87305C24.2539 9.1582 24.1934 9.43945 24.0723 9.7168C23.9551 9.99414 23.7891 10.2461 23.5742 10.4727C23.3633 10.6953 23.1172 10.875 22.8359 11.0117C22.5547 11.1445 22.252 11.2109 21.9277 11.2109C21.5254 11.2109 21.1699 11.1367 20.8613 10.9883C20.5527 10.8398 20.293 10.6348 20.082 10.373C19.875 10.1074 19.7188 9.80273 19.6133 9.45898C19.5078 9.11133 19.4551 8.74023 19.4551 8.3457C19.4551 7.93555 19.5195 7.55078 19.6484 7.19141C19.7773 6.82812 19.9629 6.50977 20.2051 6.23633C20.4512 5.95898 20.748 5.74219 21.0957 5.58594C21.4434 5.42578 21.834 5.3457 22.2676 5.3457C22.7168 5.3457 23.1172 5.43359 23.4688 5.60938C23.8203 5.78516 24.1191 6.0293 24.3652 6.3418C24.6113 6.65039 24.7988 7.01562 24.9277 7.4375C25.0605 7.85938 25.127 8.32031 25.127 8.82031V9.36523C25.127 9.89258 25.0742 10.3926 24.9688 10.8652C24.8633 11.3379 24.7012 11.7695 24.4824 12.1602C24.2637 12.5508 23.9844 12.8887 23.6445 13.1738C23.3086 13.459 22.9062 13.6797 22.4375 13.8359C21.9727 13.9883 21.4414 14.0645 20.8438 14.0645H20.709V12.7988Z" fill="white"/>
</svg>
