<svg width="20" height="20" viewBox="0 0 20 20" fill="none" xmlns="http://www.w3.org/2000/svg">
<path d="M1.63295 16.9924L1.63295 16.9924L2.51503 13.8349C1.90614 12.6486 1.58929 11.3338 1.59102 9.99998M1.63295 16.9924L9.99936 18.4084C9.99939 18.4084 9.99942 18.4084 9.99946 18.4084C14.6433 18.4084 18.4077 14.644 18.4077 10.0001C18.4077 5.35616 14.6433 1.59175 9.99936 1.59175C5.35547 1.59175 1.59108 5.35611 1.59102 9.99998M1.63295 16.9924C1.57973 17.1831 1.57817 17.3845 1.62842 17.576C1.67867 17.7675 1.77892 17.9422 1.91891 18.0822C2.0589 18.2222 2.2336 18.3224 2.42509 18.3727C2.61658 18.4229 2.81799 18.4214 3.00867 18.3682L6.16868 17.4869L1.63295 16.9924ZM1.59102 9.99998L1.66602 10.0001H1.59102C1.59102 10 1.59102 10 1.59102 9.99998ZM3.87575 13.4112L3.87568 13.411C3.29857 12.3772 2.99102 11.2123 2.99102 10.0001C2.99102 8.14136 3.7294 6.35876 5.04372 5.04444C6.35803 3.73012 8.14063 2.99175 9.99936 2.99175C11.0695 2.99195 12.1254 3.23723 13.086 3.70876C14.0467 4.1803 14.8866 4.86557 15.5414 5.71202C16.1962 6.55848 16.6484 7.54365 16.8634 8.59197C17.0784 9.6403 17.0505 10.7239 16.7818 11.7598C16.5131 12.7957 16.0107 13.7562 15.3133 14.5679C14.6158 15.3795 13.7417 16.0206 12.758 16.4421C11.7743 16.8635 10.7072 17.0541 9.63849 16.9992C8.56975 16.9443 7.52778 16.6454 6.59247 16.1254L6.59245 16.1254L6.36745 16.0004L6.34053 15.9854L6.31087 15.9937L3.11653 16.8846L4.00743 13.6927L4.01571 13.6631L4.00075 13.6362L3.87575 13.4112ZM7.29102 10.7584V10.7582L7.28589 10.7586L7.20089 10.7644L7.20088 10.7642L7.1958 10.7649C7.0201 10.7891 6.86013 10.8791 6.7482 11.0167C6.63628 11.1542 6.58075 11.3292 6.59284 11.5061C6.60493 11.6831 6.68373 11.8488 6.81333 11.9699C6.94292 12.091 7.11364 12.1584 7.291 12.1584H7.29102H11.0394V12.1586L11.0445 12.1582L11.1295 12.1524L11.1295 12.1526L11.1346 12.1519C11.3103 12.1277 11.4703 12.0377 11.5822 11.9002C11.6941 11.7626 11.7496 11.5876 11.7375 11.4107C11.7254 11.2338 11.6466 11.068 11.517 10.9469C11.3875 10.8258 11.2167 10.7585 11.0394 10.7584H11.0394H7.29102ZM7.29102 7.84175V7.84157L7.28589 7.84192L7.20089 7.84776L7.20088 7.84758L7.1958 7.84828C7.0201 7.87246 6.86013 7.96242 6.7482 8.1C6.63628 8.23758 6.58075 8.41252 6.59284 8.58946C6.60493 8.7664 6.68373 8.93216 6.81333 9.05324C6.94292 9.17432 7.11364 9.24169 7.291 9.24175H7.29102H12.7119V9.24193L12.717 9.24157L12.8012 9.23574L12.8012 9.23591L12.8062 9.23522C12.9819 9.21105 13.1418 9.12116 13.2537 8.98368C13.3656 8.8462 13.4212 8.67137 13.4092 8.4945C13.3973 8.31763 13.3186 8.15189 13.1892 8.03073C13.0598 7.90958 12.8893 7.84204 12.712 7.84175H12.7119H7.29102Z" fill="#9F70F1" stroke="#9F70F1" stroke-width="0.15"/>
</svg>
