<svg width="300" height="70" viewBox="0 0 150 35" fill="none" xmlns="http://www.w3.org/2000/svg">
<rect width="150" height="34.2127" rx="6" fill="#996CE8"/>
<path d="M67.532 14.124H69.284V12.84H67.532V11.34H66.032V12.84H64.268V14.124H66.032V14.304C66.032 16.008 65.468 17.82 63.896 18.732L64.784 19.92C65.78 19.356 66.428 18.384 66.8 17.232C67.196 18.276 67.832 19.152 68.816 19.668L69.656 18.492C68.096 17.664 67.532 15.972 67.532 14.304V14.124ZM72.164 10.968V15.204H71.264V11.148H69.788V21.528H71.264V16.5H72.164V22.02H73.664V10.968H72.164ZM84.319 10.98H82.723V17.676H84.319V10.98ZM81.811 15.672C80.431 15.876 79.219 15.924 77.311 15.936V15.072H80.731V13.848H77.311V12.996H81.055V11.748H75.739V17.184H76.687C79.015 17.184 80.395 17.148 81.955 16.896L81.811 15.672ZM80.587 20.82C79.159 20.82 78.391 20.544 78.391 19.932C78.391 19.332 79.159 19.044 80.587 19.044C82.027 19.044 82.783 19.332 82.783 19.932C82.783 20.544 82.027 20.82 80.587 20.82ZM80.587 17.832C78.247 17.832 76.819 18.612 76.819 19.932C76.819 21.276 78.247 22.032 80.587 22.032C82.927 22.032 84.367 21.276 84.367 19.932C84.367 18.612 82.927 17.832 80.587 17.832ZM89.3701 18.48C88.6261 18.48 88.0741 17.976 88.0741 17.136C88.0741 16.296 88.6261 15.78 89.3701 15.78C90.1141 15.78 90.6541 16.296 90.6541 17.124C90.6541 17.976 90.1141 18.48 89.3701 18.48ZM89.3701 14.496C87.7621 14.496 86.5621 15.588 86.5621 17.124C86.5621 18.684 87.7621 19.776 89.3701 19.776C90.9661 19.776 92.1541 18.684 92.1541 17.124C92.1541 15.588 90.9661 14.496 89.3701 14.496ZM90.1501 11.172H88.5661V12.612H86.1181V13.872H92.5501V12.612H90.1501V11.172ZM96.4381 15.3H94.8541V10.98H93.2701V22.032H94.8541V16.608H96.4381V15.3ZM97.8292 12.12V13.38H101.513C101.285 15.828 100.061 17.556 97.2412 18.912L98.0692 20.16C101.993 18.264 103.133 15.504 103.133 12.12H97.8292ZM104.825 10.968V22.02H106.421V10.968H104.825Z" fill="white"/>
<path d="M42.334 15.9629C42.334 15.5487 41.9982 15.2129 41.584 15.2129V15.2129C41.1698 15.2129 40.834 15.5487 40.834 15.9629V15.9629C40.834 16.3771 41.1698 16.7129 41.584 16.7129V16.7129C41.9982 16.7129 42.334 16.3771 42.334 15.9629V15.9629Z" fill="white"/>
<path d="M43.834 15.9629C43.834 15.5487 44.1698 15.2129 44.584 15.2129V15.2129C44.9982 15.2129 45.334 15.5487 45.334 15.9629V15.9629C45.334 16.3771 44.9982 16.7129 44.584 16.7129V16.7129C44.1698 16.7129 43.834 16.3771 43.834 15.9629V15.9629Z" fill="white"/>
<path d="M48.334 15.9629C48.334 15.5487 47.9982 15.2129 47.584 15.2129V15.2129C47.1698 15.2129 46.834 15.5487 46.834 15.9629V15.9629C46.834 16.3771 47.1698 16.7129 47.584 16.7129V16.7129C47.9982 16.7129 48.334 16.3771 48.334 15.9629V15.9629Z" fill="white"/>
<path d="M37.834 12.2129V24.2129L41.434 21.5129C41.6933 21.3176 42.0093 21.2123 42.334 21.2129H49.834C50.6624 21.2129 51.334 20.5413 51.334 19.7129V12.2129C51.334 11.3845 50.6624 10.7129 49.834 10.7129H39.334C38.5056 10.7129 37.834 11.3845 37.834 12.2129ZM39.334 21.2129V12.2129H49.834V19.7129H41.8345C41.5098 19.712 41.1937 19.8174 40.9345 20.0129L39.334 21.2129Z" fill="white"/>
</svg>
