<svg width="24" height="24" viewBox="0 0 24 24" fill="none" xmlns="http://www.w3.org/2000/svg">
<path d="M12 22C6.47715 22 2 17.5228 2 12C2 6.47715 6.47715 2 12 2C17.5228 2 22 6.47715 22 12C21.9939 17.5203 17.5203 21.9939 12 22ZM11.984 20H12C16.4167 19.9956 19.9942 16.4127 19.992 11.996C19.9898 7.57929 16.4087 4 11.992 4C7.57528 4 3.99421 7.57929 3.992 11.996C3.98979 16.4127 7.56729 19.9956 11.984 20ZM10 17L6.70568 13.7057C6.31594 13.3159 6.31594 12.6841 6.70568 12.2943V12.2943C7.09489 11.9051 7.72572 11.9045 8.11568 12.293L10 14.17L15.88 8.29C16.2717 7.89829 16.9072 7.89941 17.2975 8.29251V8.29251C17.6859 8.68365 17.6848 9.31524 17.295 9.705L10 17Z" fill="#9F70F1"/>
</svg>
