<svg width="22" height="22" viewBox="0 0 11 11" fill="none" xmlns="http://www.w3.org/2000/svg">
<path d="M7.8335 3.2513H3.66683C3.55632 3.2513 3.45034 3.2952 3.3722 3.37334C3.29406 3.45148 3.25016 3.55746 3.25016 3.66797C3.25016 3.77848 3.29406 3.88446 3.3722 3.9626C3.45034 4.04074 3.55632 4.08464 3.66683 4.08464H7.8335C7.944 4.08464 8.04998 4.04074 8.12812 3.9626C8.20626 3.88446 8.25016 3.77848 8.25016 3.66797C8.25016 3.55746 8.20626 3.45148 8.12812 3.37334C8.04998 3.2952 7.944 3.2513 7.8335 3.2513ZM7.8335 4.91797H3.66683C3.55632 4.91797 3.45034 4.96187 3.3722 5.04001C3.29406 5.11815 3.25016 5.22413 3.25016 5.33464C3.25016 5.44514 3.29406 5.55112 3.3722 5.62926C3.45034 5.7074 3.55632 5.7513 3.66683 5.7513H7.8335C7.944 5.7513 8.04998 5.7074 8.12812 5.62926C8.20626 5.55112 8.25016 5.44514 8.25016 5.33464C8.25016 5.22413 8.20626 5.11815 8.12812 5.04001C8.04998 4.96187 7.944 4.91797 7.8335 4.91797ZM8.66683 1.16797H2.8335C2.50198 1.16797 2.18403 1.29966 1.94961 1.53409C1.71519 1.76851 1.5835 2.08645 1.5835 2.41797V6.58464C1.5835 6.91616 1.71519 7.2341 1.94961 7.46852C2.18403 7.70294 2.50198 7.83464 2.8335 7.83464H7.66266L9.20433 9.38047C9.24326 9.41909 9.28944 9.44964 9.3402 9.47037C9.39097 9.49111 9.44533 9.50162 9.50016 9.5013C9.55482 9.50271 9.60905 9.49129 9.6585 9.46797C9.73459 9.43671 9.79972 9.38363 9.8457 9.31541C9.89167 9.24719 9.91642 9.1669 9.91683 9.08464V2.41797C9.91683 2.08645 9.78513 1.76851 9.55071 1.53409C9.31629 1.29966 8.99835 1.16797 8.66683 1.16797ZM9.0835 8.08047L8.12933 7.12214C8.0904 7.08352 8.04422 7.05297 7.99346 7.03223C7.94269 7.0115 7.88833 7.00098 7.8335 7.0013H2.8335C2.72299 7.0013 2.61701 6.9574 2.53887 6.87926C2.46073 6.80112 2.41683 6.69514 2.41683 6.58464V2.41797C2.41683 2.30746 2.46073 2.20148 2.53887 2.12334C2.61701 2.0452 2.72299 2.0013 2.8335 2.0013H8.66683C8.77734 2.0013 8.88332 2.0452 8.96146 2.12334C9.0396 2.20148 9.0835 2.30746 9.0835 2.41797V8.08047Z" fill="#9F70F1"/>
</svg>
