<svg width="142" height="45" viewBox="0 0 126 32" fill="none" xmlns="http://www.w3.org/2000/svg">
<rect width="126" height="32" rx="4" fill="white"/>
<path d="M53.2846 15.62C54.5686 15.356 55.4446 14.744 55.9366 13.94C56.4286 14.66 57.2566 15.212 58.4926 15.452L59.1046 14.228C57.4966 13.94 56.7406 13.172 56.6926 12.296H58.8526V11.072H56.6926V9.992H55.1086V11.072H52.9486V12.296H55.1086C55.0606 13.232 54.3046 14.084 52.6486 14.396L53.2846 15.62ZM59.2966 15.764C56.9806 16.076 54.3046 16.088 52.2886 16.088L52.4806 17.372C53.2726 17.372 54.1606 17.372 55.0966 17.336V20.696H56.6806V17.24C57.5806 17.168 58.5046 17.06 59.3926 16.904L59.2966 15.764ZM59.9206 9.98V21.02H61.5046V9.98H59.9206ZM72.9637 15.02C70.4437 14.612 69.0877 12.956 69.0877 11.384V10.592H67.3957V11.384C67.3957 12.92 66.0277 14.612 63.5317 15.02L64.1797 16.328C66.1117 15.98 67.5157 14.936 68.2357 13.58C68.9557 14.948 70.3717 15.98 72.3157 16.328L72.9637 15.02ZM69.0397 18.452V15.98H67.4557V18.452H63.2917V19.724H73.2997V18.452H69.0397Z" fill="#23233F"/>
</svg>
