<svg width="252" height="64" viewBox="0 0 126 32" fill="none" xmlns="http://www.w3.org/2000/svg">
<rect width="126" height="32" rx="4" fill="#9F70F1"/>
<path d="M58.6726 10.796H56.3326V9.884H54.7486V10.796H52.3966V11.924H58.6726V10.796ZM54.3406 13.832C54.3406 13.424 54.7966 13.22 55.5406 13.22C56.2846 13.22 56.7286 13.424 56.7286 13.832C56.7286 14.24 56.2846 14.456 55.5406 14.456C54.7966 14.456 54.3406 14.24 54.3406 13.832ZM58.9486 15.788C58.1086 15.884 57.2326 15.956 56.3326 15.992V15.428C57.5086 15.248 58.2286 14.672 58.2286 13.832C58.2286 12.824 57.1726 12.2 55.5406 12.2C53.9086 12.2 52.8406 12.824 52.8406 13.832C52.8406 14.672 53.5726 15.248 54.7486 15.428V16.052C53.8126 16.076 52.9126 16.076 52.1206 16.076L52.2886 17.288C54.2326 17.288 56.7526 17.264 59.0686 16.856L58.9486 15.788ZM53.5246 19.172H59.4286V21.044H61.0126V17.948H53.5246V19.172ZM62.4046 13.148H61.0126V9.98H59.4286V17.516H61.0126V14.444H62.4046V13.148ZM72.4717 9.992H70.8757V17.924H72.4717V9.992ZM64.9957 13.496C64.9957 12.584 65.6437 12.056 66.4597 12.056C67.2877 12.056 67.9117 12.584 67.9117 13.496C67.9117 14.384 67.2877 14.924 66.4597 14.924C65.6437 14.924 64.9957 14.384 64.9957 13.496ZM69.4597 13.496C69.4597 11.864 68.1517 10.688 66.4597 10.688C64.7677 10.688 63.4477 11.864 63.4477 13.496C63.4477 15.104 64.7677 16.292 66.4597 16.292C68.1517 16.292 69.4597 15.104 69.4597 13.496ZM66.6997 19.58V17.144H65.1157V20.84H72.7477V19.58H66.6997Z" fill="white"/>
</svg>
