<svg width="300" height="72" viewBox="0 0 150 36" fill="none" xmlns="http://www.w3.org/2000/svg">
<rect width="150" height="36" rx="18" fill="#23233F"/>
<path d="M72.6449 11.956V23.068H74.2409V11.956H72.6449ZM70.4969 16.216V17.512H73.4129V16.216H70.4969ZM68.9969 13.108V13.396C68.9969 16.336 67.9529 18.352 64.8089 19.912L65.6489 21.16C69.5009 19.228 70.5689 16.48 70.5689 13.108H68.9969ZM65.3369 13.108V14.368H69.8369V13.108H65.3369ZM81.992 14.224V15.484H84.74V14.224H81.992ZM78.5 12.892V13.504C78.5 14.692 77.672 16.036 75.884 16.612L76.64 17.848C78.764 17.224 79.796 15.376 79.796 13.504V12.892H78.5ZM78.824 12.892V13.504C78.824 15.352 79.796 17.02 81.872 17.62L82.604 16.372C80.876 15.868 80.12 14.668 80.12 13.504V12.892H78.824ZM76.304 12.364V13.636H82.28V12.364H76.304ZM83.684 11.956V17.596H85.28V11.956H83.684ZM77.936 18.04V19.276H83.696V19.9H77.948V22.444H79.532V21.052H85.28V18.04H77.936ZM77.948 21.724V22.96H85.592V21.724H77.948Z" fill="white"/>
</svg>
