<svg width="20" height="20" viewBox="0 0 20 20" fill="none" xmlns="http://www.w3.org/2000/svg">
<path fill-rule="evenodd" clip-rule="evenodd" d="M16.6673 3.33341H3.33398C3.11297 3.33341 2.90101 3.42121 2.74473 3.57749C2.58845 3.73377 2.50065 3.94573 2.50065 4.16675V15.8334C2.50065 16.0544 2.58845 16.2664 2.74473 16.4227C2.90101 16.579 3.11297 16.6667 3.33398 16.6667H16.6673C16.8883 16.6667 17.1003 16.579 17.2566 16.4227C17.4129 16.2664 17.5006 16.0544 17.5006 15.8334V4.16675C17.5006 3.94573 17.4129 3.73377 17.2566 3.57749C17.1003 3.42121 16.8883 3.33341 16.6673 3.33341ZM3.33398 1.66675C2.67094 1.66675 2.03506 1.93014 1.56622 2.39898C1.09738 2.86782 0.833984 3.50371 0.833984 4.16675V15.8334C0.833984 16.4965 1.09738 17.1323 1.56622 17.6012C2.03506 18.07 2.67094 18.3334 3.33398 18.3334H16.6673C17.3304 18.3334 17.9662 18.07 18.4351 17.6012C18.9039 17.1323 19.1673 16.4965 19.1673 15.8334V4.16675C19.1673 3.50371 18.9039 2.86782 18.4351 2.39898C17.9662 1.93014 17.3304 1.66675 16.6673 1.66675H3.33398ZM5.00065 5.83341H6.66732V7.50008H5.00065V5.83341ZM9.16732 5.83341C8.9463 5.83341 8.73434 5.92121 8.57806 6.07749C8.42178 6.23377 8.33398 6.44573 8.33398 6.66675C8.33398 6.88776 8.42178 7.09972 8.57806 7.256C8.73434 7.41228 8.9463 7.50008 9.16732 7.50008H14.1673C14.3883 7.50008 14.6003 7.41228 14.7566 7.256C14.9129 7.09972 15.0006 6.88776 15.0006 6.66675C15.0006 6.44573 14.9129 6.23377 14.7566 6.07749C14.6003 5.92121 14.3883 5.83341 14.1673 5.83341H9.16732ZM6.66732 9.16675H5.00065V10.8334H6.66732V9.16675ZM8.33398 10.0001C8.33398 9.77907 8.42178 9.56711 8.57806 9.41083C8.73434 9.25455 8.9463 9.16675 9.16732 9.16675H14.1673C14.3883 9.16675 14.6003 9.25455 14.7566 9.41083C14.9129 9.56711 15.0006 9.77907 15.0006 10.0001C15.0006 10.2211 14.9129 10.4331 14.7566 10.5893C14.6003 10.7456 14.3883 10.8334 14.1673 10.8334H9.16732C8.9463 10.8334 8.73434 10.7456 8.57806 10.5893C8.42178 10.4331 8.33398 10.2211 8.33398 10.0001ZM6.66732 12.5001H5.00065V14.1667H6.66732V12.5001ZM8.33398 13.3334C8.33398 13.1124 8.42178 12.9004 8.57806 12.7442C8.73434 12.5879 8.9463 12.5001 9.16732 12.5001H14.1673C14.3883 12.5001 14.6003 12.5879 14.7566 12.7442C14.9129 12.9004 15.0006 13.1124 15.0006 13.3334C15.0006 13.5544 14.9129 13.7664 14.7566 13.9227C14.6003 14.079 14.3883 14.1667 14.1673 14.1667H9.16732C8.9463 14.1667 8.73434 14.079 8.57806 13.9227C8.42178 13.7664 8.33398 13.5544 8.33398 13.3334Z" fill="#9F70F1"/>
</svg>
