<svg width="29" height="16" viewBox="0 0 29 16" fill="none" xmlns="http://www.w3.org/2000/svg">
<path d="M10.0973 0.624V11.456H12.2413V0.624H10.0973ZM2.36925 13.472V15.168H12.6093V13.472H2.36925ZM2.36925 10.496V14.464H4.49725V10.496H2.36925ZM3.53725 3.536V4.064C3.53725 5.792 2.48125 7.536 0.04925 8.24L1.05725 9.904C3.92125 9.072 5.28125 6.72 5.28125 4.064V3.536H3.53725ZM3.93725 3.536V4.064C3.93725 6.608 5.29725 8.864 8.17725 9.664L9.16925 8C6.73725 7.328 5.66525 5.68 5.66525 4.064V3.536H3.93725ZM0.54525 2.32V3.984H8.64125V2.32H0.54525ZM3.53725 0.688V3.008H5.66525V0.688H3.53725ZM16.176 1.472V3.152H25.472V1.472H16.176ZM14.656 7.776V9.488H28.048V7.776H14.656ZM20.208 8.976V15.44H22.352V8.976H20.208ZM24.384 1.472V2.784C24.384 4.32 24.384 6.08 23.808 8.56L25.904 8.8C26.48 6.176 26.48 4.384 26.48 2.784V1.472H24.384Z" fill="#9F70F1"/>
</svg>
