<svg width="66" height="17" viewBox="0 0 55 14" fill="none" xmlns="http://www.w3.org/2000/svg">
<path d="M9.464 0.296V9.774H11.34V0.296H9.464ZM2.702 11.538V13.022H11.662V11.538H2.702ZM2.702 8.934V12.406H4.564V8.934H2.702ZM3.724 2.844V3.306C3.724 4.818 2.8 6.344 0.672 6.96L1.554 8.416C4.06 7.688 5.25 5.63 5.25 3.306V2.844H3.724ZM4.074 2.844V3.306C4.074 5.532 5.264 7.506 7.784 8.206L8.652 6.75C6.524 6.162 5.586 4.72 5.586 3.306V2.844H4.074ZM1.106 1.78V3.236H8.19V1.78H1.106ZM3.724 0.352V2.382H5.586V0.352H3.724ZM14.7829 1.038V2.508H22.9169V1.038H14.7829ZM13.4529 6.554V8.052H25.1709V6.554H13.4529ZM18.3109 7.604V13.26H20.1869V7.604H18.3109ZM21.9649 1.038V2.186C21.9649 3.53 21.9649 5.07 21.4609 7.24L23.2949 7.45C23.7989 5.154 23.7989 3.586 23.7989 2.186V1.038H21.9649ZM31.2461 0.785999V5.378H40.0521V0.785999H31.2461ZM38.2181 2.242V3.922H33.0661V2.242H38.2181ZM29.8041 6.596V8.066H41.5221V6.596H29.8041ZM34.7181 5.042V7.016H36.5801V5.042H34.7181ZM31.1061 9.004V10.474H38.2461V13.246H40.1081V9.004H31.1061ZM42.683 7.226V8.71H54.429V7.226H42.683ZM44.125 0.533999V1.948H51.167V2.732H44.139V5.448H45.987V4.048H53.001V0.533999H44.125ZM44.139 4.888V6.302H53.253V4.888H44.139ZM47.625 5.574V8.038H49.487V5.574H47.625ZM43.985 9.438V10.908H51.223V13.204H53.085V9.438H43.985Z" fill="white"/>
</svg>
