<svg width="180" height="15" viewBox="0 0 120 10" fill="none" xmlns="http://www.w3.org/2000/svg">
<path d="M7.37563 0.73V9.79H8.19563V0.73H7.37563ZM5.42563 4.03V4.71H7.61563V4.03H5.42563ZM3.05563 2.03V3.38C3.05563 4.99 1.98563 6.7 0.685625 7.34L1.17563 8C2.60563 7.26 3.72563 5.33 3.72563 3.38V2.03H3.05563ZM3.22563 2.03V3.38C3.22563 5.24 4.32563 7.1 5.75563 7.81L6.24563 7.16C4.93563 6.54 3.88563 4.89 3.88563 3.38V2.03H3.22563ZM1.01563 1.66V2.35H5.93563V1.66H1.01563ZM12.1848 1.71V2.44C12.1848 3.73 11.2848 4.9 9.92484 5.38L10.3448 6.04C11.8648 5.49 12.8648 4.1 12.8648 2.44V1.71H12.1848ZM12.3348 1.71V2.43C12.3348 3.97 13.2948 5.26 14.8048 5.76L15.2048 5.11C13.8748 4.67 13.0148 3.61 13.0148 2.43V1.71H12.3348ZM10.1748 1.41V2.09H15.0048V1.41H10.1748ZM16.1448 0.74V6.19H16.9748V0.74H16.1448ZM16.7448 3.03V3.73H18.3148V3.03H16.7448ZM14.0948 6.43C12.2548 6.43 11.1248 7.04 11.1248 8.09C11.1248 9.15 12.2548 9.76 14.0948 9.76C15.9348 9.76 17.0648 9.15 17.0648 8.09C17.0648 7.04 15.9348 6.43 14.0948 6.43ZM14.0948 7.1C15.4348 7.1 16.2548 7.46 16.2548 8.09C16.2548 8.73 15.4348 9.11 14.0948 9.11C12.7548 9.11 11.9348 8.73 11.9348 8.09C11.9348 7.46 12.7548 7.1 14.0948 7.1ZM24.0245 1.52V3.14C24.0245 4.85 22.9345 6.58 21.5945 7.22L22.1045 7.9C23.5845 7.15 24.7045 5.22 24.7045 3.14V1.52H24.0245ZM24.1645 1.52V3.14C24.1645 5.15 25.2945 7.01 26.7645 7.73L27.2645 7.07C25.9245 6.45 24.8445 4.79 24.8445 3.14V1.52H24.1645ZM28.2045 0.73V9.79H29.0345V0.73H28.2045ZM33.3142 5.4V6.08H41.4842V5.4H33.3142ZM36.9942 4.05V5.61H37.8142V4.05H36.9942ZM34.2242 6.96V7.64H39.6442V9.78H40.4742V6.96H34.2242ZM34.4042 0.949999V4.33H40.4242V0.949999H39.5942V1.97H35.2242V0.949999H34.4042ZM35.2242 2.62H39.5942V3.67H35.2242V2.62ZM43.5434 1.33V2H49.1934V1.33H43.5434ZM42.5234 5.21V5.89H50.6934V5.21H42.5234ZM46.1734 5.66V9.79H47.0034V5.66H46.1734ZM48.8034 1.33V2.11C48.8034 3.02 48.8034 4.07 48.4534 5.53L49.2734 5.64C49.6134 4.11 49.6134 3.05 49.6134 2.11V1.33H48.8034ZM57.8327 0.73V9.78H58.6727V0.73H57.8327ZM58.4427 4.4V5.09H60.1127V4.4H58.4427ZM55.5227 1.71V1.84C55.5227 4.23 54.2727 6.16 51.7727 7.43L52.2327 8.07C55.1527 6.6 56.3327 4.28 56.3327 1.71H55.5227ZM52.1927 1.71V2.39H55.9527V1.71H52.1927ZM67.0623 5.08V6.46H67.8823V5.08H67.0623ZM64.4823 0.88V3.86H70.5023V0.88H69.6723V1.72H65.3023V0.88H64.4823ZM65.3023 2.36H69.6723V3.22H65.3023V2.36ZM63.3923 4.6V5.27H71.5623V4.6H63.3923ZM64.3823 6.15V6.78H69.7023V7.56H64.4023V9.28H65.2223V8.16H70.5223V6.15H64.3823ZM64.4023 9.04V9.68H70.7923V9.04H64.4023ZM78.7116 0.73V9.78H79.5516V0.73H78.7116ZM79.3216 4.4V5.09H80.9916V4.4H79.3216ZM76.4016 1.71V1.84C76.4016 4.23 75.1516 6.16 72.6516 7.43L73.1116 8.07C76.0316 6.6 77.2116 4.28 77.2116 1.71H76.4016ZM73.0716 1.71V2.39H76.8316V1.71H73.0716ZM82.9108 3.25V3.93H89.0408V3.25H82.9108ZM82.9108 0.92V3.55H83.7308V0.92H82.9108ZM81.8008 4.98V5.65H89.9708V4.98H81.8008ZM85.8708 6.46C83.9408 6.46 82.7708 7.05 82.7708 8.11C82.7708 9.15 83.9408 9.75 85.8708 9.75C87.8008 9.75 88.9708 9.15 88.9708 8.11C88.9708 7.05 87.8008 6.46 85.8708 6.46ZM85.8708 7.11C87.2908 7.11 88.1308 7.47 88.1308 8.11C88.1308 8.73 87.2908 9.09 85.8708 9.09C84.4608 9.09 83.6108 8.73 83.6108 8.11C83.6108 7.47 84.4608 7.11 85.8708 7.11ZM97.18 0.74V5.99H98.01V0.74H97.18ZM97.65 3.04V3.74H99.35V3.04H97.65ZM92.33 6.39V9.66H98.01V6.39H97.19V7.35H93.14V6.39H92.33ZM93.14 7.99H97.19V8.99H93.14V7.99ZM91.02 1.66V2.34H96.36V1.66H91.02ZM93.69 2.75C92.39 2.75 91.52 3.38 91.52 4.34C91.52 5.3 92.39 5.93 93.69 5.93C94.98 5.93 95.85 5.3 95.85 4.34C95.85 3.38 94.98 2.75 93.69 2.75ZM93.69 3.38C94.5 3.38 95.06 3.76 95.06 4.34C95.06 4.92 94.5 5.3 93.69 5.3C92.86 5.3 92.31 4.92 92.31 4.34C92.31 3.76 92.86 3.38 93.69 3.38ZM93.27 0.65V2.03H94.1V0.65H93.27ZM106.769 0.74V9.78H107.599V0.74H106.769ZM100.769 1.62V7.22H101.589V1.62H100.769ZM100.769 6.73V7.45H101.509C102.939 7.45 104.369 7.34 105.939 7.02L105.839 6.31C104.309 6.63 102.879 6.73 101.509 6.73H100.769ZM115.508 0.73V9.79H116.348V0.73H115.508ZM116.148 4.3V5H117.828V4.3H116.148ZM109.778 6.84V7.54H110.488C112.188 7.54 113.378 7.49 114.768 7.23L114.678 6.53C113.328 6.78 112.158 6.84 110.488 6.84H109.778ZM109.778 1.61V7.15H110.598V2.29H113.978V1.61H109.778ZM118.801 8.52148C118.801 8.36849 118.848 8.23991 118.942 8.13574C119.04 8.02832 119.18 7.97461 119.362 7.97461C119.545 7.97461 119.683 8.02832 119.777 8.13574C119.875 8.23991 119.924 8.36849 119.924 8.52148C119.924 8.67122 119.875 8.79818 119.777 8.90234C119.683 9.00651 119.545 9.05859 119.362 9.05859C119.18 9.05859 119.04 9.00651 118.942 8.90234C118.848 8.79818 118.801 8.67122 118.801 8.52148Z" fill="white" fill-opacity="0.7"/>
</svg>
