<svg width="143" height="32" viewBox="0 0 143 32" fill="none" xmlns="http://www.w3.org/2000/svg">
<path d="M9.696 0.98H8.1V9.068H9.696V0.98ZM7.404 6.5C5.604 6.008 4.8 4.772 4.8 3.56V3.5H7.02V2.252H4.8V1.04H3.216V2.252H0.984V3.5H3.216V3.56C3.216 4.856 2.424 6.152 0.624 6.68L1.368 7.916C2.652 7.544 3.54 6.74 4.032 5.732C4.548 6.656 5.412 7.388 6.672 7.736L7.404 6.5ZM3.924 10.58V8.36H2.34V11.84H9.972V10.58H3.924ZM21.5511 6.32H20.0991C20.3751 4.772 20.3751 3.644 20.3751 2.612V1.616H12.7071V2.888H18.8271C18.8271 3.836 18.8031 4.916 18.5271 6.32H11.5671V7.592H15.6951V12.032H17.3031V7.592H21.5511V6.32ZM29.3624 7.352C29.7464 7.424 30.1424 7.46 30.5744 7.46C31.0064 7.46 31.4144 7.424 31.7984 7.352V9.464H29.3624V7.352ZM30.5744 2.768C32.1104 2.768 33.1424 3.392 33.1424 4.496C33.1424 5.588 32.1104 6.224 30.5744 6.224C29.0384 6.224 28.0184 5.588 28.0184 4.496C28.0184 3.392 29.0384 2.768 30.5744 2.768ZM33.3704 9.464V6.764C34.1984 6.248 34.7024 5.456 34.7024 4.496C34.7024 2.684 32.9624 1.52 30.5744 1.52C28.1984 1.52 26.4584 2.684 26.4584 4.496C26.4464 5.456 26.9504 6.248 27.7904 6.764V9.464H25.5824V10.748H35.5904V9.464H33.3704ZM42.5615 3.932V5.204H44.2775V7.652H45.8615V0.98H44.2775V3.932H42.5615ZM43.2575 6.092C41.4935 5.624 40.7015 4.508 40.6775 3.368H42.8615V2.12H40.6775V0.943999H39.0935V2.12H36.9335V3.368H39.0935C39.0695 4.604 38.3015 5.852 36.5495 6.356L37.2935 7.58C38.5775 7.208 39.4415 6.428 39.9335 5.42C40.4375 6.296 41.3015 6.98 42.5375 7.304L43.2575 6.092ZM42.1295 10.82C40.6655 10.82 39.9215 10.544 39.9215 9.944C39.9215 9.344 40.6655 9.056 42.1295 9.056C43.5695 9.056 44.3255 9.344 44.3255 9.944C44.3255 10.544 43.5695 10.82 42.1295 10.82ZM42.1295 7.844C39.7775 7.844 38.3375 8.612 38.3375 9.944C38.3375 11.264 39.7775 12.032 42.1295 12.032C44.4695 12.032 45.9095 11.264 45.9095 9.944C45.9095 8.612 44.4695 7.844 42.1295 7.844Z" fill="white"/>
<path d="M2.568 22.088H1.936V23.456C1.936 24.696 1.336 25.976 0.344 26.552L0.76 27.048C1.464 26.616 1.992 25.808 2.248 24.872C2.504 25.728 3 26.464 3.68 26.864L4.072 26.344C3.12 25.816 2.568 24.6 2.568 23.432V22.088ZM5.896 21.416V24.304H4.944V21.576H4.32V28.232H4.944V24.84H5.896V28.592H6.52V21.416H5.896ZM11.3594 27.168V25.816H13.6554V25.288H9.23938V24.128H13.4874V21.944H8.57538V22.48H12.8474V23.6H8.59138V25.816H10.6954V27.168H7.77538V27.704H14.2954V27.168H11.3594ZM18.3828 22.128C19.4868 22.128 20.2068 22.472 20.2068 23.04C20.2068 23.6 19.4868 23.944 18.3828 23.944C17.2868 23.944 16.5588 23.6 16.5588 23.04C16.5588 22.472 17.2868 22.128 18.3828 22.128ZM18.3828 24.48C19.9028 24.48 20.8948 23.928 20.8948 23.04C20.8948 22.152 19.9028 21.6 18.3828 21.6C16.8628 21.6 15.8708 22.152 15.8708 23.04C15.8708 23.928 16.8628 24.48 18.3828 24.48ZM16.6228 26.336H15.9668V28.432H20.9268V27.888H16.6228V26.336ZM15.1348 25.056V25.592H18.1108V27.04H18.7748V25.592H21.6388V25.056H15.1348ZM30.3745 21.424H29.7185V26.72H30.3745V21.424ZM28.9025 25.208C27.8385 24.88 27.0865 24.032 27.0865 23.088V22.904H28.7105V22.376H27.0945V21.448H26.4385V22.376H24.8065V22.904H26.4385V23.088C26.4385 24.088 25.7105 24.992 24.6385 25.344L24.9585 25.856C25.8065 25.568 26.4625 24.944 26.7745 24.152C27.1025 24.888 27.7585 25.456 28.5905 25.72L28.9025 25.208ZM26.4145 27.896V26.232H25.7585V28.432H30.5905V27.896H26.4145ZM38.3419 24.968H37.2779C37.4779 23.936 37.4779 23.176 37.4779 22.504V21.88H32.6619V22.408H36.8379V22.504C36.8379 23.176 36.8379 23.936 36.6139 24.968H31.8539V25.504H34.7499V28.6H35.4139V25.504H38.3419V24.968ZM44.9253 23.304H40.7253V22.184H44.8533V21.656H40.0693V23.832H44.9253V23.304ZM40.6453 27.256H44.8613V25.568H39.9813V26.08H44.2133V26.768H40.0053V28.504H45.0773V27.992H40.6453V27.256ZM39.2053 24.408V24.944H45.7013V24.408H39.2053ZM51.7806 21.416V28.608H52.4366V21.416H51.7806ZM48.6526 21.968C47.5886 21.968 46.8286 22.944 46.8286 24.472C46.8286 26 47.5886 26.976 48.6526 26.976C49.7166 26.976 50.4766 26 50.4766 24.472C50.4766 22.944 49.7166 21.968 48.6526 21.968ZM48.6526 22.56C49.3486 22.56 49.8446 23.312 49.8446 24.472C49.8446 25.64 49.3486 26.392 48.6526 26.392C47.9486 26.392 47.4526 25.64 47.4526 24.472C47.4526 23.312 47.9486 22.56 48.6526 22.56ZM56.3324 22.192V22.72H59.0284C58.8924 24.424 57.9324 25.8 56.0044 26.72L56.3564 27.256C58.7404 26.088 59.6924 24.264 59.6924 22.192H56.3324ZM61.1404 21.416V28.592H61.7964V21.416H61.1404ZM64.2278 22.648H66.9078V22.104H63.5718V26.816H64.1398C65.4918 26.816 66.4358 26.768 67.5318 26.56L67.4598 26.016C66.4198 26.2 65.4998 26.256 64.2278 26.256V22.648ZM69.9718 24.248H68.7878V21.416H68.1318V28.608H68.7878V24.792H69.9718V24.248ZM71.6991 24.64H74.3471V22.08H71.0191V22.616H73.6831V24.112H71.0431V26.864H71.6351C72.8671 26.864 73.9551 26.816 75.2511 26.6L75.1871 26.064C73.9311 26.264 72.8751 26.32 71.6991 26.32V24.64ZM75.8591 21.408V28.6H76.5151V21.408H75.8591ZM83.0505 22.848C83.0505 23.712 83.0505 24.72 82.7785 26.096L83.4345 26.168C83.7065 24.72 83.7065 23.736 83.7065 22.848V22.136H78.6745V22.672H83.0505V22.848ZM81.1705 27.048V24.48H80.5145V27.048H77.9945V27.584H84.4825V27.048H81.1705ZM93.2183 21.424H92.5623V25.52H93.2183V21.424ZM89.3623 22.384C90.0743 22.384 90.6023 22.856 90.6023 23.512C90.6023 24.176 90.0743 24.64 89.3623 24.64C88.6503 24.64 88.1383 24.176 88.1383 23.512C88.1383 22.856 88.6503 22.384 89.3623 22.384ZM89.3623 25.184C90.4503 25.184 91.2423 24.504 91.2423 23.512C91.2423 22.52 90.4503 21.84 89.3623 21.84C88.2823 21.84 87.4983 22.52 87.4983 23.512C87.4983 24.504 88.2823 25.184 89.3623 25.184ZM92.4183 25.832H91.7783V26.216C91.7783 26.776 91.4343 27.496 90.7463 27.92C90.0823 27.528 89.7543 26.848 89.7543 26.216V25.832H89.1223V26.216C89.1223 26.904 88.5863 27.68 87.6823 28L88.0103 28.496C88.6823 28.24 89.1703 27.744 89.4263 27.168C89.6423 27.768 90.0743 28.288 90.7623 28.56C91.4262 28.272 91.8663 27.728 92.0903 27.144C92.3303 27.744 92.8263 28.24 93.5303 28.496L93.8583 28C92.9463 27.696 92.4183 26.96 92.4183 26.216V25.832ZM96.6096 26.392C95.9216 26.392 95.4416 25.64 95.4416 24.472C95.4416 23.312 95.9216 22.56 96.6096 22.56C97.2896 22.56 97.7696 23.312 97.7696 24.472C97.7696 25.64 97.2896 26.392 96.6096 26.392ZM99.9456 21.416V24.152H98.3856C98.2816 22.808 97.5776 21.968 96.6096 21.968C95.5616 21.968 94.8176 22.944 94.8176 24.472C94.8176 26 95.5616 26.976 96.6096 26.976C97.6096 26.976 98.3216 26.096 98.3856 24.688H99.9456V28.608H100.602V21.416H99.9456ZM104.297 25.44C104.593 25.512 104.937 25.552 105.289 25.552C105.649 25.552 105.993 25.512 106.297 25.44V27.128H104.297V25.44ZM105.289 22.384C106.441 22.384 107.273 22.912 107.273 23.712C107.273 24.512 106.441 25.04 105.289 25.04C104.137 25.04 103.313 24.512 103.313 23.712C103.313 22.912 104.137 22.384 105.289 22.384ZM106.953 27.128V25.184C107.545 24.872 107.897 24.36 107.897 23.712C107.897 22.592 106.817 21.872 105.289 21.872C103.769 21.872 102.681 22.592 102.681 23.712C102.681 24.36 103.041 24.88 103.641 25.192V27.128H102.041V27.672H108.561V27.128H106.953ZM110.395 22.3125L110.344 26.3945H109.691L109.637 22.3125H110.395ZM109.613 27.6367C109.613 27.5195 109.648 27.4206 109.719 27.3398C109.792 27.2591 109.898 27.2188 110.039 27.2188C110.177 27.2188 110.283 27.2591 110.355 27.3398C110.431 27.4206 110.469 27.5195 110.469 27.6367C110.469 27.7487 110.431 27.8451 110.355 27.9258C110.283 28.0065 110.177 28.0469 110.039 28.0469C109.898 28.0469 109.792 28.0065 109.719 27.9258C109.648 27.8451 109.613 27.7487 109.613 27.6367Z" fill="white"/>
</svg>
