<svg width="317" height="21" viewBox="0 0 211 14" fill="none" xmlns="http://www.w3.org/2000/svg">
<path d="M9.6974 0.296V9.774H11.5734V0.296H9.6974ZM2.9354 11.538V13.022H11.8954V11.538H2.9354ZM2.9354 8.934V12.406H4.7974V8.934H2.9354ZM3.9574 2.844V3.306C3.9574 4.818 3.0334 6.344 0.905398 6.96L1.7874 8.416C4.2934 7.688 5.4834 5.63 5.4834 3.306V2.844H3.9574ZM4.3074 2.844V3.306C4.3074 5.532 5.4974 7.506 8.0174 8.206L8.8854 6.75C6.7574 6.162 5.8194 4.72 5.8194 3.306V2.844H4.3074ZM1.3394 1.78V3.236H8.4234V1.78H1.3394ZM3.9574 0.352V2.382H5.8194V0.352H3.9574ZM15.0163 1.038V2.508H23.1503V1.038H15.0163ZM13.6863 6.554V8.052H25.4043V6.554H13.6863ZM18.5443 7.604V13.26H20.4203V7.604H18.5443ZM22.1983 1.038V2.186C22.1983 3.53 22.1983 5.07 21.6943 7.24L23.5283 7.45C24.0323 5.154 24.0323 3.586 24.0323 2.186V1.038H22.1983ZM39.0255 0.282V9.83H40.8875V0.282H39.0255ZM30.3595 1.206V2.69H37.2055V1.206H30.3595ZM30.2195 8.29C32.2775 8.29 35.0635 8.234 37.4715 7.828L37.3735 6.47C35.0355 6.736 32.1235 6.764 30.0375 6.764L30.2195 8.29ZM31.3815 2.508V6.946H33.1735V2.508H31.3815ZM34.3915 2.508V6.946H36.1695V2.508H34.3915ZM37.4575 2.55V4.034H40.0335V2.55H37.4575ZM37.4575 5.154V6.652H40.0335V5.154H37.4575ZM32.3195 11.538V13.022H41.1815V11.538H32.3195ZM32.3195 9.13V12.658H34.1955V9.13H32.3195ZM46.0664 1.402V2.2C46.0664 3.726 45.1284 5.294 42.9584 5.924L43.8964 7.38C46.3884 6.624 47.5924 4.524 47.5924 2.2V1.402H46.0664ZM46.4444 1.402V2.2C46.4444 4.44 47.6484 6.442 50.0984 7.156L51.0084 5.714C48.9084 5.112 47.9704 3.642 47.9704 2.2V1.402H46.4444ZM43.4624 0.981999V2.452H50.5184V0.981999H43.4624ZM51.8204 0.282V7.31H53.6964V0.282H51.8204ZM45.0724 7.87V13.106H53.6964V7.87H51.8484V9.046H46.9064V7.87H45.0724ZM46.9064 10.488H51.8484V11.622H46.9064V10.488ZM68.6057 0.282V13.246H70.3837V0.282H68.6057ZM66.9117 5.28V6.764H69.0677V5.28H66.9117ZM65.7077 0.505999V12.63H67.4437V0.505999H65.7077ZM59.7857 1.71V9.2H61.6477V1.71H59.7857ZM59.7857 8.5V10.096H60.6817C61.9977 10.096 63.4817 10.026 65.1757 9.718L64.9937 8.122C63.3837 8.43 61.9277 8.5 60.6817 8.5H59.7857ZM74.7926 4.622V7.002H76.6546V4.622H74.7926ZM79.3566 4.622V7.002H81.2046V4.622H79.3566ZM72.1606 6.428V7.898H83.8786V6.428H72.1606ZM77.9986 8.556C75.1846 8.556 73.4906 9.396 73.4906 10.894C73.4906 12.406 75.1846 13.246 77.9986 13.246C80.7986 13.246 82.4926 12.406 82.4926 10.894C82.4926 9.396 80.7986 8.556 77.9986 8.556ZM77.9986 9.956C79.7346 9.956 80.6166 10.25 80.6166 10.894C80.6166 11.552 79.7346 11.846 77.9986 11.846C76.2626 11.846 75.3806 11.552 75.3806 10.894C75.3806 10.25 76.2626 9.956 77.9986 9.956ZM78.0266 0.463999C75.1566 0.463999 73.3366 1.416 73.3366 2.97C73.3366 4.51 75.1566 5.434 78.0266 5.434C80.8826 5.434 82.7166 4.51 82.7166 2.97C82.7166 1.416 80.8826 0.463999 78.0266 0.463999ZM78.0266 1.892C79.8046 1.892 80.7986 2.242 80.7986 2.97C80.7986 3.684 79.8046 4.034 78.0266 4.034C76.2486 4.034 75.2546 3.684 75.2546 2.97C75.2546 2.242 76.2486 1.892 78.0266 1.892ZM90.9055 0.463999C87.9375 0.463999 86.2155 1.248 86.2155 2.676C86.2155 4.104 87.9375 4.888 90.9055 4.888C93.8595 4.888 95.5955 4.104 95.5955 2.676C95.5955 1.248 93.8595 0.463999 90.9055 0.463999ZM90.9055 1.822C92.7815 1.822 93.6635 2.102 93.6635 2.676C93.6635 3.278 92.7815 3.53 90.9055 3.53C89.0295 3.53 88.1475 3.278 88.1475 2.676C88.1475 2.102 89.0295 1.822 90.9055 1.822ZM85.0395 5.49V6.96H96.7575V5.49H85.0395ZM86.3835 7.688V9.074H93.5095V9.732H86.3975V12.168H88.2315V11.02H95.3435V7.688H86.3835ZM86.3975 11.762V13.162H95.6795V11.762H86.3975ZM110.421 0.267999V13.274H112.283V0.267999H110.421ZM108.153 4.804V6.302H110.855V4.804H108.153ZM104.401 2.326V3.474C104.401 5.882 103.379 8.36 101.209 9.382L102.301 10.852C104.723 9.662 105.871 6.638 105.871 3.474V2.326H104.401ZM104.835 2.326V3.474C104.835 6.54 105.955 9.438 108.391 10.586L109.469 9.13C107.299 8.15 106.291 5.756 106.291 3.474V2.326H104.835ZM101.741 1.528V3.026H108.951V1.528H101.741ZM117.168 1.724V2.536C117.168 4.188 116.258 5.882 114.102 6.596L115.026 8.066C117.532 7.24 118.694 5.014 118.694 2.536V1.724H117.168ZM117.546 1.724V2.536C117.546 4.846 118.666 6.876 121.13 7.618L122.012 6.162C119.926 5.532 119.058 4.048 119.058 2.536V1.724H117.546ZM114.592 1.15V2.634H121.592V1.15H114.592ZM122.628 0.282V7.968H124.49V0.282H122.628ZM123.972 3.264V4.79H126.212V3.264H123.972ZM120.262 8.206C117.56 8.206 115.866 9.144 115.866 10.726C115.866 12.308 117.56 13.246 120.262 13.246C122.95 13.246 124.644 12.308 124.644 10.726C124.644 9.144 122.95 8.206 120.262 8.206ZM120.262 9.662C121.914 9.662 122.796 9.998 122.796 10.726C122.796 11.454 121.914 11.818 120.262 11.818C118.61 11.818 117.714 11.454 117.714 10.726C117.714 9.998 118.61 9.662 120.262 9.662ZM135.479 0.282V13.246H137.327V0.282H135.479ZM136.907 5.336V6.89H139.203V5.336H136.907ZM127.107 2.2V3.684H134.653V2.2H127.107ZM130.901 4.412C129.011 4.412 127.611 5.7 127.611 7.506C127.611 9.312 129.011 10.6 130.901 10.6C132.791 10.6 134.191 9.312 134.191 7.506C134.191 5.7 132.791 4.412 130.901 4.412ZM130.901 5.924C131.783 5.924 132.413 6.512 132.413 7.506C132.413 8.5 131.783 9.088 130.901 9.088C130.019 9.088 129.389 8.5 129.389 7.506C129.389 6.512 130.019 5.924 130.901 5.924ZM129.963 0.492V2.76H131.825V0.492H129.963ZM143.205 1.276V3.166C143.205 5.686 142.141 8.178 139.887 9.158L140.993 10.698C143.569 9.508 144.717 6.498 144.717 3.166V1.276H143.205ZM143.569 1.276V3.166C143.569 6.358 144.717 9.242 147.223 10.39L148.315 8.892C146.103 7.94 145.081 5.56 145.081 3.166V1.276H143.569ZM148.931 0.267999V13.274H150.807V0.267999H148.931ZM156.728 1.164V1.836C156.728 4.034 155.622 5.602 152.92 6.666L153.83 8.024C157.148 6.652 158.604 4.44 158.604 1.164H156.728ZM153.592 1.164V2.662H157.456V1.164H153.592ZM162.202 0.282V7.646H163.966V0.282H162.202ZM157.092 3.656V5.126H159.836V3.656H157.092ZM159.57 0.533999V7.478H161.306V0.533999H159.57ZM155.916 8.052V8.626C155.916 9.9 155.188 11.202 153.494 11.79L154.404 13.148C156.434 12.406 157.302 10.6 157.302 8.626V8.052H155.916ZM156.378 8.052V8.626C156.378 10.544 157.12 12.49 159.178 13.26L159.934 11.902C158.338 11.23 157.708 9.9 157.708 8.626V8.052H156.378ZM160.62 8.052V8.626C160.62 9.774 159.99 11.174 158.394 11.902L159.178 13.26C161.194 12.462 161.95 10.432 161.95 8.626V8.052H160.62ZM161.054 8.052V8.626C161.054 10.684 161.908 12.434 163.966 13.148L164.862 11.79C163.168 11.258 162.454 9.984 162.454 8.626V8.052H161.054ZM167.171 8.052V13.106H176.047V8.052H174.199V9.144H169.005V8.052H167.171ZM169.005 10.53H174.199V11.65H169.005V10.53ZM165.799 5.938V7.408H177.517V5.938H165.799ZM170.713 0.422V0.814C170.713 2.13 169.299 3.572 166.373 3.922L167.031 5.364C170.377 4.93 172.309 3.068 172.309 0.814V0.422H170.713ZM171.021 0.422V0.814C171.021 3.054 172.939 4.93 176.285 5.364L176.943 3.922C174.031 3.572 172.617 2.116 172.617 0.814V0.422H171.021ZM187.652 0.282V13.246H189.514V0.282H187.652ZM179.364 1.514V9.564H181.212V1.514H179.364ZM179.364 8.472V10.054H180.512C182.486 10.054 184.628 9.914 186.854 9.452L186.644 7.912C184.502 8.332 182.402 8.472 180.512 8.472H179.364ZM199.999 0.282V13.246H201.861V0.282H199.999ZM201.287 5.35V6.89H203.541V5.35H201.287ZM193.643 1.598V1.822C193.643 5.112 193.293 7.268 191.291 9.48L192.747 10.53C195.043 7.954 195.379 5.196 195.379 1.598H193.643ZM191.865 1.598V3.11H194.371V1.598H191.865ZM197.213 1.598V1.808C197.213 5.35 196.891 7.842 194.931 10.32L196.387 11.356C198.641 8.542 198.949 5.364 198.949 1.598H197.213ZM195.813 1.598V3.11H197.983V1.598H195.813ZM207.902 9.0127H206.269C206.273 8.59798 206.307 8.24251 206.371 7.94629C206.439 7.65007 206.551 7.38346 206.706 7.14648C206.861 6.90495 207.071 6.65885 207.335 6.4082C207.545 6.21224 207.731 6.02767 207.896 5.85449C208.064 5.67676 208.196 5.49219 208.292 5.30078C208.388 5.10482 208.436 4.88379 208.436 4.6377C208.436 4.3597 208.39 4.12728 208.299 3.94043C208.212 3.75358 208.082 3.6123 207.909 3.5166C207.741 3.41634 207.529 3.36621 207.273 3.36621C207.064 3.36621 206.866 3.40951 206.679 3.49609C206.492 3.58268 206.341 3.71712 206.228 3.89941C206.114 4.07715 206.052 4.30957 206.043 4.59668H204.231C204.245 3.99967 204.386 3.50293 204.655 3.10645C204.924 2.7054 205.286 2.4069 205.742 2.21094C206.198 2.01042 206.708 1.91016 207.273 1.91016C207.898 1.91016 208.431 2.01497 208.873 2.22461C209.32 2.42969 209.659 2.73047 209.892 3.12695C210.129 3.52344 210.247 4.00195 210.247 4.5625C210.247 4.96354 210.17 5.32357 210.015 5.64258C209.86 5.95703 209.655 6.25098 209.399 6.52441C209.144 6.79785 208.868 7.07357 208.572 7.35156C208.312 7.58398 208.137 7.83236 208.046 8.09668C207.955 8.361 207.907 8.66634 207.902 9.0127ZM206.098 11.1387C206.098 10.8652 206.189 10.6374 206.371 10.4551C206.558 10.2728 206.809 10.1816 207.123 10.1816C207.438 10.1816 207.686 10.2728 207.868 10.4551C208.055 10.6374 208.148 10.8652 208.148 11.1387C208.148 11.403 208.055 11.6263 207.868 11.8086C207.686 11.9909 207.438 12.082 207.123 12.082C206.809 12.082 206.558 11.9909 206.371 11.8086C206.189 11.6263 206.098 11.403 206.098 11.1387Z" fill="white"/>
</svg>
