<svg width="50" height="50" viewBox="0 0 25 25" fill="none" xmlns="http://www.w3.org/2000/svg">
<circle cx="12.2656" cy="12.1038" r="12" fill="#161627"/>
<g clip-path="url(#clip0_1763_4439)">
<path d="M9.76562 16.6038H8.26562C8.00041 16.6038 7.74605 16.4984 7.55852 16.3109C7.37098 16.1233 7.26562 15.869 7.26562 15.6038V12.1038C7.26562 11.8385 7.37098 11.5842 7.55852 11.3967C7.74605 11.2091 8.00041 11.1038 8.26562 11.1038H9.76562M13.2656 10.1038V8.10376C13.2656 7.70594 13.1076 7.3244 12.8263 7.0431C12.545 6.7618 12.1634 6.60376 11.7656 6.60376L9.76562 11.1038V16.6038H15.4056C15.6468 16.6065 15.8808 16.522 16.0646 16.3658C16.2483 16.2096 16.3695 15.9922 16.4056 15.7538L17.0956 11.2538C17.1174 11.1104 17.1077 10.9641 17.0673 10.8249C17.0269 10.6857 16.9567 10.5569 16.8616 10.4475C16.7664 10.3381 16.6487 10.2507 16.5164 10.1914C16.3842 10.132 16.2406 10.1021 16.0956 10.1038H13.2656Z" stroke="#996CE8" stroke-linecap="round" stroke-linejoin="round"/>
</g>
<defs>
<clipPath id="clip0_1763_4439">
<rect width="12" height="12" fill="white" transform="translate(6.26562 5.60376)"/>
</clipPath>
</defs>
</svg>
