<svg width="50" height="50" viewBox="0 0 24 24" fill="none" xmlns="http://www.w3.org/2000/svg">
<circle cx="12" cy="12" r="12" fill="#161627"/>
<path d="M9.5 16.5H8C7.73478 16.5 7.48043 16.3946 7.29289 16.2071C7.10536 16.0196 7 15.7652 7 15.5V12C7 11.7348 7.10536 11.4804 7.29289 11.2929C7.48043 11.1054 7.73478 11 8 11H9.5M13 10V8C13 7.60218 12.842 7.22064 12.5607 6.93934C12.2794 6.65804 11.8978 6.5 11.5 6.5L9.5 11V16.5H15.14C15.3812 16.5027 15.6152 16.4182 15.799 16.262C15.9827 16.1058 16.1038 15.8885 16.14 15.65L16.83 11.15C16.8518 11.0067 16.8421 10.8603 16.8017 10.7211C16.7613 10.5819 16.6911 10.4531 16.5959 10.3438C16.5008 10.2344 16.383 10.147 16.2508 10.0876C16.1185 10.0283 15.975 9.99836 15.83 10H13Z" stroke="#484868" stroke-linecap="round" stroke-linejoin="round"/>
</svg>
