<svg width="28" height="28" viewBox="0 0 24 24" fill="none" xmlns="http://www.w3.org/2000/svg">
<path d="M3.9 6.85658H20.1C20.3387 6.85658 20.5676 6.72113 20.7364 6.48001C20.9052 6.23889 21 5.91186 21 5.57087C21 5.22988 20.9052 4.90285 20.7364 4.66173C20.5676 4.42062 20.3387 4.28516 20.1 4.28516H3.9C3.66131 4.28516 3.43239 4.42062 3.2636 4.66173C3.09482 4.90285 3 5.22988 3 5.57087C3 5.91186 3.09482 6.23889 3.2636 6.48001C3.43239 6.72113 3.66131 6.85658 3.9 6.85658V6.85658ZM20.1 17.1423H3.9C3.66131 17.1423 3.43239 17.2778 3.2636 17.5189C3.09482 17.76 3 18.087 3 18.428C3 18.769 3.09482 19.096 3.2636 19.3372C3.43239 19.5783 3.66131 19.7137 3.9 19.7137H20.1C20.3387 19.7137 20.5676 19.5783 20.7364 19.3372C20.9052 19.096 21 18.769 21 18.428C21 18.087 20.9052 17.76 20.7364 17.5189C20.5676 17.2778 20.3387 17.1423 20.1 17.1423ZM20.1 10.7137H3.9C3.66131 10.7137 3.43239 10.8492 3.2636 11.0903C3.09482 11.3314 3 11.6584 3 11.9994C3 12.3404 3.09482 12.6675 3.2636 12.9086C3.43239 13.1497 3.66131 13.2852 3.9 13.2852H20.1C20.3387 13.2852 20.5676 13.1497 20.7364 12.9086C20.9052 12.6675 21 12.3404 21 11.9994C21 11.6584 20.9052 11.3314 20.7364 11.0903C20.5676 10.8492 20.3387 10.7137 20.1 10.7137Z" fill="#5D5D80"/>
</svg>
