<svg width="40" height="40" viewBox="0 0 40 40" fill="none" xmlns="http://www.w3.org/2000/svg">
<path d="M32.8464 28.3495L26.2456 34.229C25.9854 33.4643 25.8516 18.6957 40 11.3443C33.2664 18.1496 32.8464 25.7697 32.8464 28.3495Z" fill="#9874E9"/>
<path d="M24.3457 23.9764C23.6018 20.4336 22.1513 17.6341 21.2732 16.2553C22.3794 13.7526 28.44 3.14537 32.7348 0C28.4073 8.13848 26.0306 14.256 26.0823 20.1365C25.221 21.9976 24.5632 23.3269 24.3457 23.9764Z" fill="#9874E9"/>
<path d="M0 11.6999C5.01206 14.3359 6.84948 22.9156 7.2125 28.6658C12.1009 32.0239 15.5767 35.457 19.8913 40C26.5089 25.4393 13.614 7.02487 7.66801 0.295324C15.651 15.5223 13.2496 23.52 13.2496 23.52C12.1545 20.5813 9.38075 14.8582 0 11.6999Z" fill="#9874E9"/>
</svg>
