<svg width="41" height="41" viewBox="0 0 41 41" fill="none" xmlns="http://www.w3.org/2000/svg">
<path d="M33.1715 28.9019L26.5707 34.7814C26.3106 34.0166 26.1767 19.248 40.3252 11.8966C33.5915 18.7019 33.1715 26.322 33.1715 28.9019Z" fill="#474865"/>
<path d="M24.6709 24.5288C23.927 20.9859 22.4765 18.1865 21.5984 16.8077C22.7046 14.3049 28.7652 3.69771 33.06 0.552338C28.7325 8.69082 26.3557 14.8083 26.4074 20.6889C25.5462 22.5499 24.8884 23.8792 24.6709 24.5288Z" fill="#474865"/>
<path d="M0.325172 12.2522C5.33723 14.8883 7.17465 23.4679 7.53767 29.2182C12.4261 32.5762 15.9019 36.0094 20.2164 40.5523C26.8341 25.9917 13.9392 7.57721 7.99319 0.847662C15.9761 16.0747 13.5747 24.0724 13.5747 24.0724C12.4797 21.1337 9.70592 15.4105 0.325172 12.2522Z" fill="#474865"/>
</svg>
