<svg width="20" height="20" viewBox="0 0 20 20" fill="none" xmlns="http://www.w3.org/2000/svg">
<g clip-path="url(#clip0_1066_2870)">
<path d="M2.0705 15.4041C2.07088 15.4045 2.07126 15.4049 2.07162 15.4052V15.45L2.11386 15.4936L4.28204 17.7325L4.38979 17.8438L4.49162 17.7386C4.49758 17.7381 4.51133 17.7379 4.5378 17.7424C4.55821 17.7459 4.57775 17.7506 4.60115 17.7562C4.60831 17.7579 4.61582 17.7597 4.62383 17.7616C4.65149 17.7681 4.69502 17.7782 4.7367 17.7782C4.77987 17.7782 4.82334 17.7677 4.85596 17.7586C4.88991 17.749 4.92583 17.7366 4.9569 17.7259L4.95897 17.7252C4.99248 17.7137 5.02076 17.704 5.04567 17.697C5.05781 17.6936 5.06736 17.6913 5.07469 17.69C5.08111 17.6888 5.08394 17.6886 5.08393 17.6886L5.14715 17.6886L5.19136 17.643C5.42114 17.4057 5.42114 17.0447 5.19136 16.8074L4.05005 15.6288H7.77214C7.9378 15.6288 8.08681 15.571 8.19428 15.4601C8.30134 15.3495 8.35578 15.1981 8.35578 15.0311C8.35578 14.8664 8.30314 14.6999 8.20634 14.5714C8.10841 14.4414 7.95891 14.3437 7.77214 14.3437H3.96332L5.10463 13.1652C5.33442 12.9279 5.33442 12.5669 5.10463 12.3296C4.87224 12.0896 4.51443 12.0896 4.28204 12.3296L2.11386 14.5685L2.22162 14.6729L2.11381 14.5686L2.11376 14.5686L2.11364 14.5687L2.11339 14.569L2.11278 14.5696L2.11119 14.5713L2.10661 14.5763C2.10298 14.5803 2.0982 14.5858 2.09265 14.5924C2.08168 14.6057 2.06705 14.6245 2.05223 14.6475C2.02558 14.6887 1.98489 14.7635 1.98489 14.852V15.2102C1.98489 15.2594 1.99748 15.3021 2.01874 15.3387C2.03638 15.3691 2.05859 15.3919 2.06868 15.4022C2.06934 15.4029 2.06995 15.4035 2.0705 15.4041ZM18.6997 14.5229C18.6913 14.5229 18.6835 14.5229 18.6763 14.5228V14.5226L18.634 14.4789L16.4659 12.2401C16.2335 12.0001 15.8757 12.0001 15.6433 12.2401C15.4135 12.4773 15.4135 12.8384 15.6433 13.0757L16.7846 14.2542H12.9758C12.8101 14.2542 12.6611 14.312 12.5536 14.423C12.4466 14.5335 12.3921 14.685 12.3921 14.852C12.3921 15.019 12.4466 15.1704 12.5536 15.281C12.6611 15.3919 12.8101 15.4497 12.9758 15.4497H16.7846L15.6433 16.6283C15.5137 16.7621 15.514 16.91 15.5143 17.0681C15.5143 17.0757 15.5143 17.0832 15.5143 17.0908C15.5143 17.2578 15.5687 17.4093 15.6758 17.5198C15.7833 17.6308 15.9323 17.6886 16.0979 17.6886C16.1411 17.6886 16.1846 17.6782 16.2172 17.669C16.2512 17.6594 16.2871 17.6471 16.3182 17.6364L16.3202 17.6357C16.3537 17.6241 16.382 17.6145 16.4069 17.6074C16.419 17.604 16.4286 17.6018 16.4359 17.6004C16.4423 17.5992 16.4452 17.5991 16.4452 17.5991L16.5084 17.5991L16.5526 17.5534L18.7208 15.3145L18.613 15.2102L18.7208 15.3145L18.7209 15.3144L18.721 15.3143L18.7212 15.314L18.7219 15.3134L18.7234 15.3117L18.728 15.3067C18.7317 15.3027 18.7364 15.2973 18.742 15.2906C18.753 15.2774 18.7676 15.2585 18.7824 15.2356C18.809 15.1943 18.8497 15.1196 18.8497 15.0311V14.852V14.6729V14.5229H18.6997ZM7.1012 7.64763C7.72647 7.09285 8.18232 6.30689 8.18232 5.35913H8.18254L8.18211 5.35107C8.09191 3.67459 6.82543 2.25381 5.17033 2.25381C3.51893 2.25381 2.24507 3.67197 2.24507 5.26957C2.24507 6.21431 2.627 7.00702 3.31874 7.56803C1.74462 8.3531 0.683984 9.95345 0.683984 11.8071C0.683984 11.9741 0.738423 12.1255 0.84548 12.2361C0.952956 12.3471 1.10197 12.4049 1.26762 12.4049C1.43327 12.4049 1.58228 12.3471 1.68976 12.2361C1.79682 12.1255 1.85125 11.9741 1.85125 11.8071C1.85125 9.91515 3.34968 8.37489 5.17033 8.37489C6.99098 8.37489 8.48941 9.91515 8.48941 11.8071C8.48941 11.9741 8.54385 12.1255 8.65091 12.2361C8.75839 12.3471 8.9074 12.4049 9.07305 12.4049C9.2387 12.4049 9.38771 12.3471 9.49519 12.2361C9.60225 12.1255 9.65668 11.9741 9.65668 11.8071C9.65668 9.95886 8.60121 8.35747 7.1012 7.64763ZM12.6523 5.26957C12.6523 6.21204 13.0324 7.00321 13.721 7.56398C12.2276 8.27678 11.178 9.87441 11.178 11.7175C11.178 11.8845 11.2324 12.036 11.3394 12.1465C11.4469 12.2575 11.5959 12.3153 11.7616 12.3153C11.9272 12.3153 12.0763 12.2575 12.1837 12.1465C12.2908 12.036 12.3452 11.8845 12.3452 11.7175C12.3452 9.82559 13.8436 8.28533 15.6643 8.28533C17.485 8.28533 18.9834 9.82559 18.9834 11.7175C18.9834 11.8845 19.0378 12.036 19.1449 12.1465C19.2524 12.2575 19.4014 12.3153 19.567 12.3153C19.7327 12.3153 19.8817 12.2575 19.9892 12.1465C20.0962 12.036 20.1507 11.8845 20.1507 11.7175H20.1508L20.1505 11.7103C20.0653 9.95145 19.0075 8.3567 17.5084 7.64762C18.1337 7.09284 18.5896 6.30688 18.5896 5.35913H18.5898L18.5893 5.35107C18.4991 3.67459 17.2327 2.25381 15.5776 2.25381C13.9262 2.25381 12.6523 3.67197 12.6523 5.26957ZM5.17033 7.17934C4.21695 7.17934 3.41234 6.35552 3.41234 5.35913C3.41234 4.35392 4.22524 3.44936 5.17033 3.44936C6.12371 3.44936 6.92833 4.27318 6.92833 5.26957C6.92833 6.35997 6.11947 7.17934 5.17033 7.17934ZM15.5776 7.17934C14.6242 7.17934 13.8196 6.35552 13.8196 5.35913C13.8196 4.35392 14.6325 3.44936 15.5776 3.44936C16.531 3.44936 17.3356 4.27318 17.3356 5.26957C17.3356 6.35997 16.5267 7.17934 15.5776 7.17934Z" fill="#484868" stroke="#484868" stroke-width="0.3"/>
</g>
<defs>
<clipPath id="clip0_1066_2870">
<rect width="20" height="19.2308" fill="white"/>
</clipPath>
</defs>
</svg>
