<svg width="70" height="70" viewBox="0 0 60 60" fill="none" xmlns="http://www.w3.org/2000/svg">
<rect width="60" height="60" rx="30" fill="#9F70F1"/>
<path d="M26.75 27.8333C26.75 27.235 26.265 26.75 25.6667 26.75V26.75C25.0684 26.75 24.5833 27.235 24.5833 27.8333V27.8333C24.5833 28.4316 25.0684 28.9167 25.6667 28.9167V28.9167C26.265 28.9167 26.75 28.4316 26.75 27.8333V27.8333Z" fill="white"/>
<path d="M28.9167 27.8333C28.9167 27.235 29.4017 26.75 30 26.75V26.75C30.5983 26.75 31.0833 27.235 31.0833 27.8333V27.8333C31.0833 28.4316 30.5983 28.9167 30 28.9167V28.9167C29.4017 28.9167 28.9167 28.4316 28.9167 27.8333V27.8333Z" fill="white"/>
<path d="M35.4167 27.8333C35.4167 27.235 34.9316 26.75 34.3333 26.75V26.75C33.735 26.75 33.25 27.235 33.25 27.8333V27.8333C33.25 28.4316 33.735 28.9167 34.3333 28.9167V28.9167C34.9316 28.9167 35.4167 28.4316 35.4167 27.8333V27.8333Z" fill="white"/>
<path d="M20.25 22.4167V39.75L25.45 35.85C25.8246 35.5679 26.2811 35.4158 26.75 35.4167H37.5833C38.78 35.4167 39.75 34.4466 39.75 33.25V22.4167C39.75 21.22 38.78 20.25 37.5833 20.25H22.4167C21.22 20.25 20.25 21.22 20.25 22.4167ZM22.4167 35.4167V22.4167H37.5833V33.25H26.0285C25.5595 33.2487 25.1029 33.4009 24.7285 33.6833L22.4167 35.4167Z" fill="white"/>
</svg>
