<svg width="25" height="24" viewBox="0 0 25 24" fill="none" xmlns="http://www.w3.org/2000/svg">
<path d="M12.6406 22C18.1635 22 22.6406 17.5228 22.6406 12C22.6406 6.47715 18.1635 2 12.6406 2C7.11778 2 2.64062 6.47715 2.64062 12C2.64062 17.5228 7.11778 22 12.6406 22Z" stroke="white" stroke-width="2" stroke-linecap="round" stroke-linejoin="round"/>
<path d="M12.6406 17H12.6506" stroke="white" stroke-width="2" stroke-linecap="round" stroke-linejoin="round"/>
<path d="M9.73047 9.00008C9.96557 8.33175 10.4296 7.76819 11.0404 7.40921C11.6512 7.05024 12.3694 6.91902 13.0676 7.03879C13.7659 7.15857 14.3993 7.52161 14.8555 8.06361C15.3118 8.60561 15.5615 9.2916 15.5605 10.0001C15.5605 12.0001 12.5605 13.0001 12.5605 13.0001" stroke="white" stroke-width="2" stroke-linecap="round" stroke-linejoin="round"/>
</svg>
