<svg width="28" height="28" viewBox="0 0 24 24" fill="none" xmlns="http://www.w3.org/2000/svg">
<path fill-rule="evenodd" clip-rule="evenodd" d="M12 2.5957C10.3291 2.5957 8.72673 3.2263 7.54526 4.34877C6.36379 5.47124 5.70005 6.99364 5.70005 8.58106C5.70005 11.4477 5.05469 13.2279 4.45995 14.2638C4.16134 14.784 3.87057 15.1252 3.66858 15.3277C3.56736 15.4292 3.48781 15.4966 3.43992 15.5345C3.41596 15.5534 3.39989 15.5651 3.39296 15.57L3.39039 15.5718C3.06775 15.7823 2.92498 16.1675 3.03869 16.5243C3.15361 16.8849 3.50347 17.1316 3.90006 17.1316H20.0999C20.4965 17.1316 20.8464 16.8849 20.9613 16.5243C21.075 16.1675 20.9322 15.7823 20.6096 15.5718L20.607 15.57C20.6001 15.5651 20.584 15.5534 20.5601 15.5345C20.5122 15.4966 20.4326 15.4292 20.3314 15.3277C20.1294 15.1252 19.8387 14.784 19.54 14.2638C18.9453 13.2279 18.3 11.4477 18.3 8.58106C18.3 6.99364 17.6362 5.47124 16.4547 4.34877C15.2733 3.2263 13.6708 2.5957 12 2.5957ZM11.2215 19.2677C10.9721 18.8592 10.4214 18.7201 9.99142 18.9571C9.56147 19.194 9.41511 19.7173 9.66452 20.1257C9.90186 20.5145 10.2425 20.8371 10.6524 21.0614C11.0623 21.2857 11.527 21.4038 12 21.4038C12.473 21.4038 12.9377 21.2857 13.3476 21.0614C13.7575 20.8371 14.0981 20.5145 14.3355 20.1257C14.5849 19.7173 14.4385 19.194 14.0086 18.9571C13.5786 18.7201 13.0279 18.8592 12.7785 19.2677C12.6994 19.3972 12.5858 19.5048 12.4492 19.5796C12.3126 19.6543 12.1577 19.6937 12 19.6937C11.8423 19.6937 11.6874 19.6543 11.5508 19.5796C11.4142 19.5048 11.3006 19.3972 11.2215 19.2677Z" fill="#5D5D80"/>
</svg>
