<svg width="300" height="70" viewBox="0 0 150 35" fill="none" xmlns="http://www.w3.org/2000/svg">
<rect width="150" height="34.2127" rx="6" fill="#464665"/>
<path d="M51.8545 16.512H49.5985V13.2H51.8545V16.512ZM48.0265 16.512H46.5865V17.772H54.8905V16.512H53.4265V13.2H54.9265V11.94H46.5265V13.2H48.0265V16.512ZM45.7465 19.464V20.748H55.7545V19.464H45.7465ZM62.5695 19.524V17.88H65.9175V16.608H59.5095V15.372H65.6655V11.688H57.9255V12.948H64.1055V14.136H57.9375V17.88H60.9855V19.524H56.7855V20.82H66.7935V19.524H62.5695ZM77.0286 10.992H75.4446V16.644H77.0286V10.992ZM70.6926 12.876H71.8566V15.108C71.4726 15.132 71.0766 15.144 70.6926 15.156V12.876ZM74.6646 14.904C74.2446 14.952 73.8246 14.988 73.3806 15.024V12.876H74.2446V11.652H68.2926V12.876H69.1686V15.18L68.0166 15.192L68.1726 16.44C70.0806 16.44 72.5646 16.38 74.7366 16.02L74.6646 14.904ZM71.1366 20.724V20.064H77.0286V17.088H69.5526V18.3H75.4566V18.936H69.5646V21.948H77.3406V20.724H71.1366ZM84.4799 14.628H89.2079V16.176H84.4799V14.628ZM87.6359 19.464V17.436H90.7679V11.664H89.2079V13.38H84.4799V11.664H82.9079V17.436H86.0519V19.464H81.8519V20.748H91.8599V19.464H87.6359ZM93.503 12.12V13.38H97.187C96.959 15.828 95.735 17.556 92.915 18.912L93.743 20.16C97.667 18.264 98.807 15.504 98.807 12.12H93.503ZM100.499 10.968V22.02H102.095V10.968H100.499Z" fill="white"/>
</svg>
