<svg width="91" height="42" viewBox="0 0 61 25" fill="none" xmlns="http://www.w3.org/2000/svg">
<rect x="0.597656" y="0.10376" width="59.7175" height="24" rx="12" fill="#161627"/>
<path d="M30.0617 7.55676H28.9977V12.9248H30.0617V7.55676ZM28.4537 10.9728C27.2537 10.5888 26.7417 9.64476 26.7417 8.66876V7.95676H25.6697V8.66876C25.6697 9.65276 25.1417 10.6848 23.9177 11.1008L24.4537 11.9408C25.3097 11.6448 25.8857 11.0448 26.2217 10.3008C26.5417 10.9888 27.1017 11.5328 27.9177 11.8128L28.4537 10.9728ZM26.2137 13.9488V12.4128H25.1577V14.7888H30.2457V13.9488H26.2137ZM37.037 12.4128C37.333 10.8448 37.333 9.80476 37.333 8.88476V8.18076H31.981V9.02076H36.277C36.277 9.87676 36.261 10.9008 35.981 12.2928L37.037 12.4128ZM34.717 13.1808V10.6448H33.661V13.1808H31.309V14.0288H37.973V13.1808H34.717ZM40.7884 12.5488C40.2924 12.5488 39.9244 12.2128 39.9244 11.6528C39.9244 11.0928 40.2924 10.7488 40.7884 10.7488C41.2844 10.7488 41.6444 11.0928 41.6444 11.6448C41.6444 12.2128 41.2844 12.5488 40.7884 12.5488ZM40.7884 9.89276C39.7164 9.89276 38.9164 10.6208 38.9164 11.6448C38.9164 12.6848 39.7164 13.4128 40.7884 13.4128C41.8524 13.4128 42.6444 12.6848 42.6444 11.6448C42.6444 10.6208 41.8524 9.89276 40.7884 9.89276ZM41.3084 7.67676H40.2524V8.63676H38.6204V9.47676H42.9084V8.63676H41.3084V7.67676ZM45.5004 10.4288H44.4444V7.54876H43.3884V14.9168H44.4444V11.3008H45.5004V10.4288ZM46.4278 8.30876V9.14876H48.8838C48.7318 10.7808 47.9158 11.9328 46.0358 12.8368L46.5878 13.6688C49.2038 12.4048 49.9638 10.5648 49.9638 8.30876H46.4278ZM51.0918 7.54076V14.9088H52.1558V7.54076H51.0918Z" fill="#464665"/>
<path d="M9.33021 15.3705V12.1705C9.33021 11.0389 9.77973 9.95367 10.5799 9.15352C11.38 8.35336 12.4653 7.90384 13.5969 7.90384C14.7285 7.90384 15.8137 8.35336 16.6139 9.15352C17.414 9.95367 17.8635 11.0389 17.8635 12.1705V15.3705H18.8825C19.1771 15.3705 19.4158 15.6093 19.4158 15.9038C19.4158 16.1984 19.1771 16.4372 18.8825 16.4372H8.33021C8.03566 16.4372 7.79688 16.1984 7.79688 15.9038C7.79688 15.6093 8.03566 15.3705 8.33021 15.3705H9.33021ZM10.3969 15.3705H16.7969V12.1705C16.7969 11.3218 16.4597 10.5079 15.8596 9.90777C15.2595 9.30765 14.4456 8.97051 13.5969 8.97051C12.7482 8.97051 11.9342 9.30765 11.3341 9.90777C10.734 10.5079 10.3969 11.3218 10.3969 12.1705V15.3705ZM13.0635 6.30384C13.0635 6.00929 13.3023 5.77051 13.5969 5.77051C13.8914 5.77051 14.1302 6.00929 14.1302 6.30384V6.83717C14.1302 7.13173 13.8914 7.37051 13.5969 7.37051C13.3023 7.37051 13.0635 7.13173 13.0635 6.83717V6.30384ZM17.368 7.64522C17.5763 7.43695 17.914 7.43695 18.1223 7.64522C18.3305 7.85346 18.3305 8.19107 18.1223 8.39935L17.7456 8.77624C17.5374 8.98457 17.1997 8.98467 16.9914 8.77646C16.7829 8.56819 16.7829 8.23037 16.9912 8.02202L17.368 7.64522ZM9.07159 8.39935C8.86331 8.19108 8.86331 7.8534 9.07159 7.64513C9.27982 7.43689 9.61743 7.43685 9.82572 7.64504L10.2029 8.02202C10.4111 8.23015 10.4113 8.56762 10.2034 8.77602C9.99513 8.98469 9.65711 8.98487 9.44865 8.77642L9.07159 8.39935ZM11.4635 12.1705C11.169 12.1705 10.9248 11.9294 10.9834 11.6407C11.0867 11.1309 11.3379 10.6582 11.7113 10.2849C12.0846 9.91156 12.5572 9.66035 13.0671 9.55699C13.3558 9.49847 13.5969 9.74262 13.5969 10.0372C13.5969 10.3317 13.3517 10.5622 13.0734 10.6586C12.8467 10.7371 12.6383 10.8663 12.4655 11.0391C12.2927 11.212 12.1634 11.4203 12.0849 11.647C11.9886 11.9253 11.7581 12.1705 11.4635 12.1705Z" fill="#464665"/>
</svg>
