<svg width="100" height="50" viewBox="0 0 53 27" fill="none" xmlns="http://www.w3.org/2000/svg">
<rect y="0.600098" width="52.4863" height="26" rx="13" fill="#464665"/>
<path d="M23.3881 7.5561V18.6681H24.9841V7.5561H23.3881ZM21.2401 11.8161V13.1121H24.1561V11.8161H21.2401ZM19.7401 8.7081V8.9961C19.7401 11.9361 18.6961 13.9521 15.5521 15.5121L16.3921 16.7601C20.2441 14.8281 21.3121 12.0801 21.3121 8.7081H19.7401ZM16.0801 8.7081V9.9681H20.5801V8.7081H16.0801ZM32.7352 9.8241V11.0841H35.4832V9.8241H32.7352ZM29.2432 8.4921V9.1041C29.2432 10.2921 28.4152 11.6361 26.6272 12.2121L27.3832 13.4481C29.5072 12.8241 30.5392 10.9761 30.5392 9.1041V8.4921H29.2432ZM29.5672 8.4921V9.1041C29.5672 10.9521 30.5392 12.6201 32.6152 13.2201L33.3472 11.9721C31.6192 11.4681 30.8632 10.2681 30.8632 9.1041V8.4921H29.5672ZM27.0472 7.9641V9.2361H33.0232V7.9641H27.0472ZM34.4272 7.5561V13.1961H36.0232V7.5561H34.4272ZM28.6792 13.6401V14.8761H34.4392V15.5001H28.6912V18.0441H30.2752V16.6521H36.0232V13.6401H28.6792ZM28.6912 17.3241V18.5601H36.3352V17.3241H28.6912Z" fill="white"/>
</svg>
