<svg width="100" height="50" viewBox="0 0 53 26" fill="none" xmlns="http://www.w3.org/2000/svg">
<rect width="52.4863" height="26" rx="13" fill="#996CE8"/>
<path d="M25.3561 10.904C22.8481 10.556 21.5761 9.116 21.5761 7.832V7.304H19.8841V7.832C19.8841 9.128 18.6241 10.556 16.1041 10.904L16.7041 12.176C18.6361 11.888 20.0281 10.988 20.7361 9.8C21.4441 10.988 22.8241 11.888 24.7561 12.176L25.3561 10.904ZM25.7161 12.992H15.7321V14.276H19.8961V18.044H21.4801V14.276H25.7161V12.992ZM27.1552 9.812V13.304H28.1032C30.3112 13.304 31.7152 13.256 33.2512 12.968L33.1192 11.696C31.7392 11.948 30.5272 12.02 28.7272 12.032V10.988H32.1832V7.592H27.1432V8.852H30.6232V9.812H27.1552ZM28.0912 15.464H33.8752V18.032H35.4592V14.204H28.0912V15.464ZM36.9232 9.608H35.4592V6.992H33.8752V13.7H35.4592V10.916H36.9232V9.608Z" fill="white"/>
</svg>
