<svg width="40" height="42" viewBox="0 0 20 21" fill="none" xmlns="http://www.w3.org/2000/svg">
<path d="M17.7364 8.02247L12.7774 7.30177L10.5606 2.80762C10.5001 2.68458 10.4005 2.58497 10.2774 2.52442C9.96882 2.37208 9.59382 2.49903 9.43952 2.80762L7.22272 7.30177L2.26374 8.02247C2.12702 8.042 2.00202 8.10645 1.90632 8.20411C1.79062 8.32303 1.72686 8.48302 1.72906 8.64892C1.73126 8.81482 1.79923 8.97306 1.91804 9.08887L5.50593 12.5869L4.65827 17.5264C4.63839 17.6413 4.65111 17.7595 4.69497 17.8675C4.73884 17.9755 4.8121 18.0691 4.90645 18.1377C5.0008 18.2062 5.11246 18.2469 5.22878 18.2552C5.34509 18.2635 5.4614 18.239 5.56452 18.1846L10.0001 15.8525L14.4356 18.1846C14.5567 18.249 14.6973 18.2705 14.8321 18.2471C15.1719 18.1885 15.4005 17.8662 15.3419 17.5264L14.4942 12.5869L18.0821 9.08887C18.1798 8.99317 18.2442 8.86817 18.2637 8.73145C18.3165 8.38966 18.0782 8.07325 17.7364 8.02247Z" fill="#9F70F1"/>
</svg>
