<svg width="41" height="41" viewBox="0 0 41 41" fill="none" xmlns="http://www.w3.org/2000/svg">
<path d="M27.6377 9.14755L24.2405 13.2463L26.8367 23.343L32.7474 20.4106L29.096 14.7322C29.096 14.7322 36.5373 15.7067 40.8952 9.14755H27.6377Z" fill="#9874E9"/>
<path d="M14.1526 9.14755L17.5499 13.2463L14.9536 23.343L9.04298 20.4106L12.6943 14.7322C12.6943 14.7322 5.25309 15.7067 0.895172 9.14755H14.1526Z" fill="#9874E9"/>
<path d="M20.9272 12.2478L14.9593 3.51043L26.7695 3.51043L20.9272 12.2478Z" fill="#9874E9"/>
<path d="M16.3937 0.488497L17.8409 3.51279H14.9464L16.3937 0.488497Z" fill="#9874E9"/>
<path d="M25.3211 0.485406L26.7683 3.5097H23.8738L25.3211 0.485406Z" fill="#9874E9"/>
<path d="M16.3945 0.488497H25.3211V3.51044H16.3945V0.488497Z" fill="#9874E9"/>
<path d="M19.6234 14.6779L20.8622 16.4917L22.098 14.6779L25.6373 36.0283L20.858 40.4854L16.0787 36.0283L19.6179 14.6779H19.6234Z" fill="#9874E9"/>
</svg>
