<svg width="41" height="41" viewBox="0 0 41 41" fill="none" xmlns="http://www.w3.org/2000/svg">
<path d="M27.6377 9.20631L24.2405 13.305L26.8367 23.4018L32.7474 20.4694L29.096 14.7909C29.096 14.7909 36.5373 15.7655 40.8952 9.20631H27.6377Z" fill="#474865"/>
<path d="M14.1526 9.20631L17.5499 13.305L14.9536 23.4018L9.04298 20.4694L12.6943 14.7909C12.6943 14.7909 5.25309 15.7655 0.895172 9.20631H14.1526Z" fill="#474865"/>
<path d="M20.9272 12.3066L14.9593 3.56919L26.7695 3.56919L20.9272 12.3066Z" fill="#474865"/>
<path d="M16.3937 0.54725L17.8409 3.57155H14.9464L16.3937 0.54725Z" fill="#474865"/>
<path d="M25.3211 0.544159L26.7683 3.56845H23.8738L25.3211 0.544159Z" fill="#474865"/>
<path d="M16.3945 0.54725H25.3211V3.56919H16.3945V0.54725Z" fill="#474865"/>
<path d="M19.6234 14.7367L20.8622 16.5504L22.098 14.7367L25.6373 36.0871L20.858 40.5442L16.0787 36.0871L19.6179 14.7367H19.6234Z" fill="#474865"/>
</svg>
