<svg width="22" height="22" viewBox="0 0 11 11" fill="none" xmlns="http://www.w3.org/2000/svg">
<path d="M9.62516 4.53465C9.50808 4.39409 9.36158 4.28094 9.19599 4.20318C9.0304 4.12543 8.84977 4.08497 8.66683 4.08465H6.76683L7.00016 3.48882C7.09722 3.22794 7.12954 2.94741 7.09436 2.67129C7.05917 2.39517 6.95753 2.13171 6.79816 1.9035C6.63878 1.67529 6.42642 1.48915 6.1793 1.36105C5.93218 1.23294 5.65768 1.16669 5.37933 1.16799C5.29918 1.16815 5.22078 1.19144 5.15353 1.23504C5.08627 1.27864 5.03302 1.34072 5.00016 1.41382L3.81266 4.08465H2.8335C2.50198 4.08465 2.18403 4.21635 1.94961 4.45077C1.71519 4.68519 1.5835 5.00313 1.5835 5.33465V8.25132C1.5835 8.58284 1.71519 8.90078 1.94961 9.1352C2.18403 9.36962 2.50198 9.50132 2.8335 9.50132H8.13766C8.43008 9.50122 8.71322 9.39861 8.9378 9.21133C9.16238 9.02405 9.31419 8.76397 9.36683 8.47632L9.896 5.55965C9.92873 5.3794 9.92143 5.19415 9.87463 5.01702C9.82783 4.83989 9.74266 4.67522 9.62516 4.53465ZM3.66683 8.66799H2.8335C2.72299 8.66799 2.61701 8.62409 2.53887 8.54595C2.46073 8.46781 2.41683 8.36183 2.41683 8.25132V5.33465C2.41683 5.22415 2.46073 5.11817 2.53887 5.04003C2.61701 4.96189 2.72299 4.91799 2.8335 4.91799H3.66683V8.66799ZM9.0835 5.40965L8.55433 8.32632C8.53658 8.42339 8.48496 8.511 8.40866 8.57357C8.33236 8.63614 8.23632 8.6696 8.13766 8.66799H4.50016V4.58882L5.6335 2.03882C5.75016 2.07283 5.8585 2.13066 5.95169 2.20865C6.04487 2.28664 6.12088 2.3831 6.17491 2.49194C6.22894 2.60079 6.25982 2.71965 6.2656 2.84103C6.27138 2.96241 6.25194 3.08367 6.2085 3.19715L5.98766 3.79299C5.94061 3.91893 5.92472 4.05438 5.94136 4.18779C5.958 4.3212 6.00667 4.44861 6.08322 4.55913C6.15977 4.66965 6.26192 4.76001 6.38096 4.8225C6.5 4.88499 6.63239 4.91775 6.76683 4.91799H8.66683C8.72804 4.91789 8.78853 4.93128 8.84398 4.9572C8.89943 4.98313 8.94849 5.02095 8.98766 5.06799C9.0278 5.11437 9.0572 5.16905 9.07377 5.22811C9.09034 5.28717 9.09366 5.34916 9.0835 5.40965Z" fill="#FF7575"/>
</svg>
