<svg width="248" height="20" viewBox="0 0 124 10" fill="none" xmlns="http://www.w3.org/2000/svg">
<path d="M3.91602 1.8042V8.92822H2.50977V3.42529L0.820312 3.9624V2.854L3.76465 1.8042H3.91602ZM9.65219 0.798222V1.08822C9.65219 2.13822 8.61219 3.27822 6.56219 3.56822L7.06219 4.60822C9.42219 4.24822 10.7922 2.79822 10.7922 1.08822V0.798222H9.65219ZM9.87219 0.798222V1.08822C9.87219 2.77822 11.2422 4.22822 13.6022 4.57822L14.0922 3.53822C12.0522 3.25822 11.0122 2.10822 11.0122 1.08822V0.798222H9.87219ZM6.14219 5.10822V6.16822H14.5222V5.10822H6.14219ZM9.77219 5.77822V7.72822H11.1122V5.77822H9.77219ZM7.11219 8.59822V9.65822H13.6022V8.59822H7.11219ZM7.11219 6.94822V8.92822H8.43219V6.94822H7.11219ZM18.3414 0.928223C16.9414 0.928223 15.9214 1.73822 15.9214 2.90822C15.9214 4.05822 16.9414 4.88822 18.3414 4.88822C19.7514 4.88822 20.7714 4.05822 20.7714 2.90822C20.7714 1.73822 19.7514 0.928223 18.3414 0.928223ZM18.3414 2.00822C19.0214 2.00822 19.5014 2.32822 19.5014 2.90822C19.5014 3.47822 19.0214 3.79822 18.3414 3.79822C17.6714 3.79822 17.1914 3.47822 17.1914 2.90822C17.1914 2.32822 17.6714 2.00822 18.3414 2.00822ZM17.7214 5.80822V9.53822H19.0514V5.80822H17.7214ZM21.7714 0.558223V9.81822H23.0914V0.558223H21.7714ZM15.5314 6.50822C17.1314 6.49822 19.3214 6.47822 21.3314 6.07822L21.2414 5.10822C19.2814 5.40822 16.9914 5.42822 15.3714 5.42822L15.5314 6.50822ZM33.6609 0.568222V5.97822H34.9209V0.568222H33.6609ZM32.5809 2.76822V3.84822H34.1209V2.76822H32.5809ZM31.7309 0.708222V5.92822H32.9709V0.708222H31.7309ZM28.6509 6.37822V9.71822H34.9209V6.37822H28.6509ZM33.6209 7.41822V8.66822H29.9609V7.41822H33.6209ZM28.6909 2.27822V2.54822C28.6909 3.52822 28.1909 4.47822 27.0209 4.91822L27.6309 5.90822C29.0809 5.36822 29.6809 4.01822 29.6809 2.54822V2.27822H28.6909ZM28.9609 2.27822V2.54822C28.9609 3.95822 29.5609 5.24822 31.0209 5.74822L31.6109 4.76822C30.4509 4.35822 29.9409 3.46822 29.9409 2.54822V2.27822H28.9609ZM27.2809 1.51822V2.55822H31.3409V1.51822H27.2809ZM28.6909 0.618222V2.05822H29.9409V0.618222H28.6909ZM42.6101 0.558223V9.81822H43.9501V0.558223H42.6101ZM36.4601 1.40822V2.46822H41.6601V1.40822H36.4601ZM36.3401 7.70822C38.0101 7.69822 40.1401 7.65822 42.0901 7.32822L42.0201 6.35822C40.1101 6.58822 37.8801 6.61822 36.2101 6.61822L36.3401 7.70822ZM37.2601 2.23822V6.90822H38.5501V2.23822H37.2601ZM39.5701 2.23822V6.90822H40.8601V2.23822H39.5701ZM50.0793 2.99822V4.05822H52.4193V2.99822H50.0793ZM51.8493 0.568222V7.32822H53.1793V0.568222H51.8493ZM47.0693 8.59822V9.65822H53.3893V8.59822H47.0693ZM47.0693 6.65822V9.13822H48.3993V6.65822H47.0693ZM47.9893 1.11822C46.6093 1.11822 45.5393 2.10822 45.5393 3.48822C45.5393 4.85822 46.6093 5.85822 47.9893 5.85822C49.3593 5.85822 50.4293 4.85822 50.4293 3.48822C50.4293 2.10822 49.3593 1.11822 47.9893 1.11822ZM47.9893 2.27822C48.6493 2.27822 49.1593 2.71822 49.1593 3.48822C49.1593 4.24822 48.6493 4.69822 47.9893 4.69822C47.3193 4.69822 46.8093 4.24822 46.8093 3.48822C46.8093 2.71822 47.3193 2.27822 47.9893 2.27822ZM58.8085 0.818222C56.8085 0.818222 55.6285 1.37822 55.6285 2.38822C55.6285 3.39822 56.8085 3.95822 58.8085 3.95822C60.7985 3.95822 61.9885 3.39822 61.9885 2.38822C61.9885 1.37822 60.7985 0.818222 58.8085 0.818222ZM58.8085 1.44822C60.2785 1.44822 61.1285 1.78822 61.1285 2.38822C61.1285 2.98822 60.2785 3.32822 58.8085 3.32822C57.3285 3.32822 56.4785 2.98822 56.4785 2.38822C56.4785 1.78822 57.3285 1.44822 58.8085 1.44822ZM54.7185 4.55822V5.22822H62.8885V4.55822H54.7185ZM55.7085 5.99822V6.63822H61.0285V7.43822H55.7285V9.13822H56.5485V8.03822H61.8485V5.99822H55.7085ZM55.7285 8.95822V9.60822H62.1185V8.95822H55.7285ZM71.048 2.79822V3.48822H73.328V2.79822H71.048ZM68.678 1.21822V2.32822C68.678 3.70822 67.768 4.98822 66.428 5.48822L66.858 6.14822C68.368 5.53822 69.348 4.07822 69.348 2.32822V1.21822H68.678ZM68.838 1.21822V2.35822C68.838 3.96822 69.808 5.36822 71.248 5.92822L71.698 5.28822C70.388 4.80822 69.508 3.61822 69.508 2.35822V1.21822H68.838ZM73.018 0.678222V7.43822H73.848V0.678222H73.018ZM68.038 8.82822V9.50822H74.068V8.82822H68.038ZM68.038 6.68822V9.14822H68.868V6.68822H68.038ZM75.9972 4.98822V5.67822H76.5772C78.0272 5.67822 78.8872 5.63822 79.9272 5.43822L79.8472 4.75822C78.8372 4.95822 77.9972 4.98822 76.5772 4.98822H75.9972ZM75.9972 1.32822V5.35822H76.7972V2.00822H79.4972V1.32822H75.9972ZM76.5472 3.12822V3.77822H79.3872V3.12822H76.5472ZM82.4372 0.668222V6.14822H83.2272V0.668222H82.4372ZM80.9772 3.02822V3.70822H82.6872V3.02822H80.9772ZM80.4472 0.838223V6.09822H81.2272V0.838223H80.4472ZM77.1672 6.62822V7.30822H82.4072V9.70822H83.2272V6.62822H77.1672ZM84.7964 2.20822V2.88822H89.2764V2.20822H84.7964ZM87.0364 3.48822C85.9164 3.48822 85.0964 4.33822 85.0964 5.55822C85.0964 6.76822 85.9164 7.61822 87.0364 7.61822C88.1664 7.61822 88.9864 6.76822 88.9864 5.55822C88.9864 4.33822 88.1664 3.48822 87.0364 3.48822ZM87.0364 4.19822C87.7364 4.19822 88.2464 4.75822 88.2464 5.55822C88.2464 6.35822 87.7364 6.91822 87.0364 6.91822C86.3464 6.91822 85.8464 6.35822 85.8464 5.55822C85.8464 4.75822 86.3464 4.19822 87.0364 4.19822ZM91.6664 0.668222V9.70822H92.4664V0.668222H91.6664ZM90.2264 4.46822V5.15822H91.9364V4.46822H90.2264ZM89.7364 0.868222V9.26822H90.5164V0.868222H89.7364ZM86.6364 0.928223V2.62822H87.4564V0.928223H86.6364ZM97.6356 1.55822V1.93822C97.6356 3.12822 96.0856 4.16822 94.4956 4.39822L94.8156 5.05822C96.6356 4.74822 98.3556 3.55822 98.3556 1.93822V1.55822H97.6356ZM97.8456 1.55822V1.93822C97.8456 3.55822 99.5556 4.74822 101.386 5.05822L101.696 4.39822C100.116 4.16822 98.5556 3.12822 98.5556 1.93822V1.55822H97.8456ZM97.6656 6.25822V9.70822H98.4856V6.25822H97.6656ZM94.0156 5.81822V6.49822H102.186V5.81822H94.0156ZM94.7756 1.22822V1.89822H101.396V1.22822H94.7756ZM106.775 3.89822V4.58822H108.505V3.89822H106.775ZM105.085 1.51822V3.23822C105.085 4.78822 104.345 6.40822 103.105 7.13822L103.625 7.76822C104.945 6.95822 105.735 5.12822 105.735 3.23822V1.51822H105.085ZM105.245 1.51822V3.20822C105.245 4.96822 105.975 6.76822 107.275 7.56822L107.755 6.91822C106.565 6.19822 105.885 4.65822 105.885 3.20822V1.51822H105.245ZM110.095 0.668222V9.70822H110.895V0.668222H110.095ZM108.265 0.858222V9.25822H109.045V0.858222H108.265ZM114.414 5.31822V8.02822H115.234V5.31822H114.414ZM117.754 5.31822V8.02822H118.584V5.31822H117.754ZM112.414 7.86822V8.55822H120.604V7.86822H112.414ZM116.494 1.23822C114.574 1.23822 113.204 2.14822 113.204 3.56822C113.204 4.97822 114.574 5.88822 116.494 5.88822C118.404 5.88822 119.774 4.97822 119.774 3.56822C119.774 2.14822 118.404 1.23822 116.494 1.23822ZM116.494 1.89822C117.944 1.89822 118.974 2.55822 118.974 3.56822C118.974 4.56822 117.944 5.22822 116.494 5.22822C115.044 5.22822 114.004 4.56822 114.004 3.56822C114.004 2.55822 115.044 1.89822 116.494 1.89822ZM121.768 8.34229C121.768 8.15999 121.829 8.007 121.953 7.8833C122.077 7.75635 122.244 7.69287 122.456 7.69287C122.671 7.69287 122.839 7.75635 122.959 7.8833C123.083 8.007 123.145 8.15999 123.145 8.34229C123.145 8.52458 123.083 8.67757 122.959 8.80127C122.839 8.92497 122.671 8.98682 122.456 8.98682C122.244 8.98682 122.077 8.92497 121.953 8.80127C121.829 8.67757 121.768 8.52458 121.768 8.34229Z" fill="#484868"/>
</svg>
