<svg width="110" height="28" viewBox="0 0 55 14" fill="none" xmlns="http://www.w3.org/2000/svg">
<path d="M9.92502 0.282V13.246H11.703V0.282H9.92502ZM8.37102 5.224V6.722H10.513V5.224H8.37102ZM7.08302 0.478V12.658H8.83302V0.478H7.08302ZM0.923023 1.612V10.012H6.04702V1.612H0.923023ZM4.31102 3.068V8.556H2.65902V3.068H4.31102ZM16.6019 2.466V2.942C16.6019 4.412 15.6779 5.924 13.5499 6.526L14.4179 7.968C16.9379 7.268 18.1279 5.224 18.1279 2.942V2.466H16.6019ZM16.9519 2.466V2.942C16.9519 5.112 18.1699 7.044 20.6899 7.702L21.5299 6.246C19.4159 5.7 18.4639 4.3 18.4639 2.942V2.466H16.9519ZM13.9839 1.64V3.096H21.0679V1.64H13.9839ZM16.6019 0.309999V2.284H18.4639V0.309999H16.6019ZM22.3419 0.296V8.094H24.2179V0.296H22.3419ZM19.8219 8.318C17.0779 8.318 15.3979 9.228 15.3979 10.782C15.3979 12.35 17.0779 13.246 19.8219 13.246C22.5659 13.246 24.2739 12.35 24.2739 10.782C24.2739 9.228 22.5659 8.318 19.8219 8.318ZM19.8219 9.746C21.5159 9.746 22.4119 10.082 22.4119 10.782C22.4119 11.496 21.5159 11.832 19.8219 11.832C18.1419 11.832 17.2599 11.496 17.2599 10.782C17.2599 10.082 18.1419 9.746 19.8219 9.746ZM32.9672 1.276V3.166C32.9672 5.686 31.9032 8.178 29.6492 9.158L30.7552 10.698C33.3312 9.508 34.4792 6.498 34.4792 3.166V1.276H32.9672ZM33.3312 1.276V3.166C33.3312 6.358 34.4792 9.242 36.9852 10.39L38.0772 8.892C35.8652 7.94 34.8432 5.56 34.8432 3.166V1.276H33.3312ZM38.6932 0.267999V13.274H40.5692V0.267999H38.6932ZM45.5661 1.612V2.424C45.5661 4.048 44.6561 5.728 42.4861 6.428L43.4521 7.87C45.9301 7.072 47.0921 4.874 47.0921 2.424V1.612H45.5661ZM45.9441 1.612V2.424C45.9441 4.748 47.0641 6.862 49.4861 7.646L50.4381 6.204C48.3381 5.532 47.4561 3.95 47.4561 2.424V1.612H45.9441ZM42.9901 1.038V2.522H49.9901V1.038H42.9901ZM51.0261 0.282V8.094H52.8881V0.282H51.0261ZM52.3701 3.418V4.944H54.6101V3.418H52.3701ZM44.2361 8.654V10.152H51.0261V13.246H52.8881V8.654H44.2361Z" fill="white"/>
</svg>
